<?xml version="1.0" encoding="UTF-8" standalone="no"?>
<!-- Created with Inkscape (http://www.inkscape.org/) -->

<svg
   xmlns:dc="http://purl.org/dc/elements/1.1/"
   xmlns:cc="http://creativecommons.org/ns#"
   xmlns:rdf="http://www.w3.org/1999/02/22-rdf-syntax-ns#"
   xmlns:svg="http://www.w3.org/2000/svg"
   xmlns="http://www.w3.org/2000/svg"
   xmlns:sodipodi="http://sodipodi.sourceforge.net/DTD/sodipodi-0.dtd"
   xmlns:inkscape="http://www.inkscape.org/namespaces/inkscape"
   width="128"
   height="72"
   viewBox="0 0 33.866665 19.050001"
   version="1.1"
   id="svg8"
   sodipodi:docname="cgil_logo.svg"
   inkscape:version="0.92.3 (2405546, 2018-03-11)">
  <defs
     id="defs2" />
  <sodipodi:namedview
     id="base"
     pagecolor="#ffffff"
     bordercolor="#666666"
     borderopacity="1.0"
     inkscape:pageopacity="0.0"
     inkscape:pageshadow="2"
     inkscape:zoom="7.5185338"
     inkscape:cx="61.019854"
     inkscape:cy="39.575445"
     inkscape:document-units="px"
     inkscape:current-layer="text869"
     showgrid="false"
     units="px"
     inkscape:showpageshadow="false"
     inkscape:window-width="1920"
     inkscape:window-height="1026"
     inkscape:window-x="0"
     inkscape:window-y="29"
     inkscape:window-maximized="1"
     inkscape:snap-grids="true" />
  <metadata
     id="metadata5">
    <rdf:RDF>
      <cc:Work
         rdf:about="">
        <dc:format>image/svg+xml</dc:format>
        <dc:type
           rdf:resource="http://purl.org/dc/dcmitype/StillImage" />
        <dc:title />
      </cc:Work>
    </rdf:RDF>
  </metadata>
  <g
     inkscape:label="Livello 1"
     inkscape:groupmode="layer"
     id="layer1"
     transform="translate(0,-277.94999)">
    <g
       aria-label="Opis"
       style="font-style:normal;font-variant:normal;font-weight:normal;font-stretch:normal;font-size:17.77799606px;line-height:1.25;font-family:'Futura Hv BT';-inkscape-font-specification:'Futura Hv BT';letter-spacing:0px;word-spacing:0px;fill:#000000;fill-opacity:1;stroke:none;stroke-width:0.74074984"
       id="text869">
      <g
         aria-label="FVG"
         style="font-style:normal;font-weight:normal;font-size:4.2956109px;line-height:1.25;font-family:sans-serif;letter-spacing:0px;word-spacing:0px;fill:#000000;fill-opacity:1;stroke:none;stroke-width:0.07954932"
         id="text888" />
      <g
         id="g890"
         transform="matrix(1.0405849,0,0,1.0405849,1.9532705,-10.318455)">
        <path
           sodipodi:nodetypes="ccccc"
           inkscape:connector-curvature="0"
           id="rect1152"
           d="m 5.1393792,285.25947 v 1.83885 h 1.838855 v -1.83885 z"
           style="fill:#da230f;fill-opacity:0.94117647;stroke:none;stroke-width:0.10905308;stroke-linecap:square;stroke-miterlimit:4;stroke-dasharray:none;stroke-opacity:1" />
        <g
           transform="matrix(0.7192211,0,0,0.7192211,14.052037,100.89132)"
           id="text838"
           style="font-style:normal;font-weight:normal;font-size:3.40451288px;line-height:1.25;font-family:sans-serif;letter-spacing:0px;word-spacing:0px;fill:#333333;fill-opacity:1;stroke:none;stroke-width:0.06304731"
           aria-label="CGIL">
          <path
             inkscape:connector-curvature="0"
             id="path840"
             style="font-style:normal;font-variant:normal;font-weight:normal;font-stretch:normal;font-family:'Futura XBlk BT';-inkscape-font-specification:'Futura XBlk BT';fill:#333333;fill-opacity:1;stroke:none;stroke-width:0.06304731"
             d="m -19.34766,257.36826 q -0.11969,-0.11471 -0.244367,-0.17123 -0.124677,-0.0565 -0.262653,-0.0565 -0.214444,0 -0.34577,0.13299 -0.129664,0.13133 -0.129664,0.35076 0,0.21444 0.124677,0.34245 0.124677,0.128 0.334134,0.128 0.126339,0 0.256003,-0.0532 0.131327,-0.0549 0.285926,-0.17288 l -0.02826,0.91596 q -0.142963,0.0582 -0.285926,0.0864 -0.142963,0.0299 -0.285926,0.0299 -0.177872,0 -0.342446,-0.0399 -0.164573,-0.0399 -0.297562,-0.11304 -0.322498,-0.18619 -0.488734,-0.47045 -0.164574,-0.28427 -0.164574,-0.65331 0,-0.27263 0.09309,-0.50536 0.09475,-0.23273 0.27429,-0.4106 0.181197,-0.17953 0.418915,-0.27096 0.239379,-0.0931 0.516993,-0.0931 0.14795,0 0.290913,0.0316 0.144626,0.0299 0.280939,0.0914 z" />
          <path
             inkscape:connector-curvature="0"
             id="path842"
             style="font-style:normal;font-variant:normal;font-weight:normal;font-stretch:normal;font-family:'Futura XBlk BT';-inkscape-font-specification:'Futura XBlk BT';fill:#333333;fill-opacity:1;stroke:none;stroke-width:0.06304731"
             d="m -17.414335,257.96504 h -0.380681 v -0.57185 h 1.344849 q 0.0033,0.0748 0.005,0.11138 0.0017,0.0366 0.0017,0.0648 0,0.20946 -0.0399,0.38235 -0.0399,0.17288 -0.116365,0.30587 -0.186184,0.31252 -0.480422,0.47876 -0.294238,0.16457 -0.668269,0.16457 -0.275951,0 -0.513669,-0.0914 -0.236055,-0.0931 -0.418914,-0.27262 -0.181198,-0.17954 -0.27429,-0.41061 -0.09309,-0.23107 -0.09309,-0.50203 0,-0.27263 0.09309,-0.50369 0.09475,-0.23274 0.27429,-0.40895 0.181197,-0.17787 0.418914,-0.27096 0.237718,-0.0931 0.513669,-0.0931 0.374031,0 0.664944,0.16457 0.290913,0.16291 0.475435,0.47876 l -0.779647,0.28925 q -0.06151,-0.1014 -0.14795,-0.15127 -0.08644,-0.0499 -0.19782,-0.0499 -0.194496,0 -0.310862,0.14795 -0.114702,0.14795 -0.114702,0.3973 0,0.25767 0.116365,0.40063 0.116365,0.1413 0.329147,0.1413 0.126339,0 0.20447,-0.0532 0.07979,-0.0532 0.09475,-0.14795 z" />
          <path
             inkscape:connector-curvature="0"
             id="path844"
             style="font-style:normal;font-variant:normal;font-weight:normal;font-stretch:normal;font-family:'Futura XBlk BT';-inkscape-font-specification:'Futura XBlk BT';fill:#333333;fill-opacity:1;stroke:none;stroke-width:0.06304731"
             d="m -16.10772,258.83612 v -2.43369 h 0.889362 v 2.43369 z" />
          <path
             inkscape:connector-curvature="0"
             id="path846"
             style="font-style:normal;font-variant:normal;font-weight:normal;font-stretch:normal;font-family:'Futura XBlk BT';-inkscape-font-specification:'Futura XBlk BT';fill:#333333;fill-opacity:1;stroke:none;stroke-width:0.06304731"
             d="m -14.74791,258.83612 v -2.43369 h 0.876064 v 1.64407 h 0.851128 v 0.78962 z" />
        </g>
        <g
           id="text822"
           style="font-style:normal;font-weight:normal;font-size:2.3700273px;line-height:1.25;font-family:sans-serif;letter-spacing:0px;word-spacing:0px;fill:#333333;fill-opacity:1;stroke:none;stroke-width:0.04388993"
           aria-label="Friuli Venezia Giulia">
          <path
             id="path824"
             style="font-style:normal;font-variant:normal;font-weight:normal;font-stretch:normal;font-family:'Futura Hv BT';-inkscape-font-specification:'Futura Hv BT';fill:#333333;fill-opacity:1;stroke-width:0.04388993"
             d="m 7.4303512,287.05319 v -1.6942 H 8.427892 v 0.30551 H 7.7925673 v 0.34833 H 8.427892 v 0.30783 H 7.7925673 v 0.73253 z"
             inkscape:connector-curvature="0" />
          <path
             id="path826"
             style="font-style:normal;font-variant:normal;font-weight:normal;font-stretch:normal;font-family:'Futura Hv BT';-inkscape-font-specification:'Futura Hv BT';fill:#333333;fill-opacity:1;stroke-width:0.04388993"
             d="m 8.9579079,286.20956 q 0.049761,-0.16548 0.1423405,-0.24765 0.093736,-0.0822 0.231448,-0.0822 0.031245,0 0.1029943,0.0116 0.013887,0.002 0.02083,0.003 l -0.049761,0.35411 q -0.037032,-0.015 -0.075221,-0.022 -0.037032,-0.008 -0.078692,-0.008 -0.1504412,0 -0.2164039,0.0775 -0.065963,0.0764 -0.065963,0.2569 v 0.49993 H 8.6396669 v -1.13525 h 0.3251844 z"
             inkscape:connector-curvature="0" />
          <path
             id="path828"
             style="font-style:normal;font-variant:normal;font-weight:normal;font-stretch:normal;font-family:'Futura Hv BT';-inkscape-font-specification:'Futura Hv BT';fill:#333333;fill-opacity:1;stroke-width:0.04388993"
             d="m 9.5932324,285.45157 q 0,-0.0787 0.056705,-0.13539 0.056705,-0.0567 0.1353971,-0.0567 0.07985,0 0.1365543,0.0567 0.057862,0.0555 0.057862,0.13539 0,0.0799 -0.057862,0.13656 -0.056705,0.0567 -0.1365543,0.0567 -0.078692,0 -0.1353971,-0.0579 -0.056705,-0.0579 -0.056705,-0.1354 z m 0.028931,1.60162 v -1.13525 h 0.3286561 v 1.13525 z"
             inkscape:connector-curvature="0" />
          <path
             id="path830"
             style="font-style:normal;font-variant:normal;font-weight:normal;font-stretch:normal;font-family:'Futura Hv BT';-inkscape-font-specification:'Futura Hv BT';fill:#333333;fill-opacity:1;stroke-width:0.04388993"
             d="m 10.608132,285.91794 v 0.59714 q 0,0.15044 0.05786,0.21524 0.05902,0.0648 0.190944,0.0648 0.130769,0 0.189788,-0.0648 0.05902,-0.066 0.05902,-0.21524 v -0.59714 h 0.329813 v 0.59714 q 0,0.29972 -0.140026,0.44206 -0.140026,0.14118 -0.433965,0.14118 -0.299725,0 -0.440908,-0.14118 -0.140026,-0.14118 -0.140026,-0.44206 v -0.59714 z"
             inkscape:connector-curvature="0" />
          <path
             id="path832"
             style="font-style:normal;font-variant:normal;font-weight:normal;font-stretch:normal;font-family:'Futura Hv BT';-inkscape-font-specification:'Futura Hv BT';fill:#333333;fill-opacity:1;stroke-width:0.04388993"
             d="m 11.765372,287.05319 v -1.79372 h 0.328656 v 1.79372 z"
             inkscape:connector-curvature="0" />
          <path
             id="path834"
             style="font-style:normal;font-variant:normal;font-weight:normal;font-stretch:normal;font-family:'Futura Hv BT';-inkscape-font-specification:'Futura Hv BT';fill:#333333;fill-opacity:1;stroke-width:0.04388993"
             d="m 12.412269,285.45157 q 0,-0.0787 0.0567,-0.13539 0.0567,-0.0567 0.135397,-0.0567 0.07985,0 0.136554,0.0567 0.05786,0.0555 0.05786,0.13539 0,0.0799 -0.05786,0.13656 -0.05671,0.0567 -0.136554,0.0567 -0.07869,0 -0.135397,-0.0579 -0.0567,-0.0579 -0.0567,-0.1354 z m 0.02893,1.60162 v -1.13525 h 0.328656 v 1.13525 z"
             inkscape:connector-curvature="0" />
          <path
             id="path836"
             style="font-style:normal;font-variant:normal;font-weight:normal;font-stretch:normal;font-family:'Futura Hv BT';-inkscape-font-specification:'Futura Hv BT';fill:#333333;fill-opacity:1;stroke-width:0.04388993"
             d="m 14.289312,287.05319 -0.626067,-1.6942 h 0.400405 l 0.329813,1.05656 q 0.0093,0.0324 0.02893,0.12036 0.01967,0.0879 0.04166,0.2002 0.01504,-0.10878 0.0324,-0.19326 0.01852,-0.0845 0.03587,-0.13887 l 0.334442,-1.04499 h 0.395777 l -0.630696,1.6942 z"
             inkscape:connector-curvature="0" />
          <path
             id="path838"
             style="font-style:normal;font-variant:normal;font-weight:normal;font-stretch:normal;font-family:'Futura Hv BT';-inkscape-font-specification:'Futura Hv BT';fill:#333333;fill-opacity:1;stroke-width:0.04388993"
             d="m 16.071461,286.36811 q -0.01389,-0.10763 -0.07869,-0.16202 -0.06365,-0.0555 -0.174743,-0.0555 -0.111095,0 -0.178215,0.0555 -0.06596,0.0544 -0.08448,0.16202 z m 0.326342,0.19904 h -0.852886 q 0.01967,0.12267 0.08911,0.184 0.06943,0.0602 0.18863,0.0602 0.09026,0 0.15507,-0.0347 0.06596,-0.0347 0.109938,-0.10531 l 0.266165,0.13309 q -0.09258,0.14928 -0.224505,0.22219 -0.131925,0.0717 -0.313612,0.0717 -0.275423,0 -0.436279,-0.16432 -0.160857,-0.16433 -0.160857,-0.44207 0,-0.26732 0.1678,-0.43975 0.168957,-0.17243 0.431651,-0.17243 0.270794,0 0.428178,0.16201 0.157385,0.16086 0.157385,0.43976 0,0.015 -0.0012,0.0336 -0.0012,0.0173 -0.0046,0.0521 z"
             inkscape:connector-curvature="0" />
          <path
             id="path841"
             style="font-style:normal;font-variant:normal;font-weight:normal;font-stretch:normal;font-family:'Futura Hv BT';-inkscape-font-specification:'Futura Hv BT';fill:#333333;fill-opacity:1;stroke-width:0.04388993"
             d="m 16.650081,287.05319 v -1.13525 h 0.32287 v 0.17821 q 0.08911,-0.11109 0.190945,-0.16317 0.102994,-0.0532 0.227976,-0.0532 0.131925,0 0.221033,0.0451 0.09026,0.044 0.14234,0.1354 0.02546,0.0475 0.03588,0.10762 0.01157,0.059 0.01157,0.18632 v 0.0359 0.6631 h -0.329813 v -0.56126 q 0,-0.20946 -0.0486,-0.27658 -0.0486,-0.0671 -0.166643,-0.0671 -0.06828,0 -0.126139,0.0289 -0.0567,0.0278 -0.09489,0.0798 -0.03009,0.0405 -0.04397,0.0926 -0.01273,0.0521 -0.01273,0.15854 v 0.0451 0.49993 z"
             inkscape:connector-curvature="0" />
          <path
             id="path843"
             style="font-style:normal;font-variant:normal;font-weight:normal;font-stretch:normal;font-family:'Futura Hv BT';-inkscape-font-specification:'Futura Hv BT';fill:#333333;fill-opacity:1;stroke-width:0.04388993"
             d="m 18.899756,286.36811 q -0.01389,-0.10763 -0.07869,-0.16202 -0.06365,-0.0555 -0.174744,-0.0555 -0.111095,0 -0.178215,0.0555 -0.06596,0.0544 -0.08448,0.16202 z m 0.326342,0.19904 h -0.852886 q 0.01967,0.12267 0.08911,0.184 0.06943,0.0602 0.18863,0.0602 0.09026,0 0.155071,-0.0347 0.06596,-0.0347 0.109937,-0.10531 l 0.266165,0.13309 q -0.09258,0.14928 -0.224504,0.22219 -0.131925,0.0717 -0.313612,0.0717 -0.275423,0 -0.43628,-0.16432 -0.160856,-0.16433 -0.160856,-0.44207 0,-0.26732 0.1678,-0.43975 0.168957,-0.17243 0.43165,-0.17243 0.270795,0 0.428179,0.16201 0.157385,0.16086 0.157385,0.43976 0,0.015 -0.0012,0.0336 -0.0012,0.0173 -0.0046,0.0521 z"
             inkscape:connector-curvature="0" />
          <path
             id="path845"
             style="font-style:normal;font-variant:normal;font-weight:normal;font-stretch:normal;font-family:'Futura Hv BT';-inkscape-font-specification:'Futura Hv BT';fill:#333333;fill-opacity:1;stroke-width:0.04388993"
             d="M 20.405325,287.05319 H 19.31752 l 0.601764,-0.87719 h -0.528858 v -0.25806 h 1.028786 l -0.594821,0.87719 h 0.580934 z"
             inkscape:connector-curvature="0" />
          <path
             id="path847"
             style="font-style:normal;font-variant:normal;font-weight:normal;font-stretch:normal;font-family:'Futura Hv BT';-inkscape-font-specification:'Futura Hv BT';fill:#333333;fill-opacity:1;stroke-width:0.04388993"
             d="m 20.600898,285.45157 q 0,-0.0787 0.05671,-0.13539 0.0567,-0.0567 0.135397,-0.0567 0.07985,0 0.136554,0.0567 0.05786,0.0555 0.05786,0.13539 0,0.0799 -0.05786,0.13656 -0.05671,0.0567 -0.136554,0.0567 -0.07869,0 -0.135397,-0.0579 -0.05671,-0.0579 -0.05671,-0.1354 z m 0.02893,1.60162 v -1.13525 h 0.328656 v 1.13525 z"
             inkscape:connector-curvature="0" />
          <path
             id="path849"
             style="font-style:normal;font-variant:normal;font-weight:normal;font-stretch:normal;font-family:'Futura Hv BT';-inkscape-font-specification:'Futura Hv BT';fill:#333333;fill-opacity:1;stroke-width:0.04388993"
             d="m 22.129613,286.48383 q 0,-0.15276 -0.07753,-0.24186 -0.07638,-0.0891 -0.207146,-0.0891 -0.13424,0 -0.211775,0.0891 -0.07638,0.088 -0.07638,0.24186 0,0.15391 0.07522,0.23955 0.07638,0.0856 0.210617,0.0856 0.136555,0 0.211775,-0.0856 0.07522,-0.0856 0.07522,-0.23955 z m 0.300882,0.56936 h -0.319398 l 0.0046,-0.16317 q -0.06712,0.10762 -0.162014,0.15854 -0.09374,0.0498 -0.229133,0.0498 -0.225662,0 -0.364531,-0.1678 -0.137711,-0.1678 -0.137711,-0.44322 0,-0.28699 0.135397,-0.44669 0.136554,-0.16086 0.378417,-0.16086 0.126139,0 0.221033,0.0567 0.09605,0.0567 0.160856,0.16895 v -0.18747 h 0.312455 z"
             inkscape:connector-curvature="0" />
          <path
             id="path851"
             style="font-style:normal;font-variant:normal;font-weight:normal;font-stretch:normal;font-family:'Futura Hv BT';-inkscape-font-specification:'Futura Hv BT';fill:#333333;fill-opacity:1;stroke-width:0.04388993"
             d="m 24.338784,286.1598 h 0.771879 q 0.0023,0.015 0.0023,0.0324 0.0012,0.0174 0.0012,0.0532 0,0.38073 -0.217561,0.61681 -0.217561,0.23607 -0.562419,0.23607 -0.394619,0 -0.650369,-0.25112 -0.25575,-0.25227 -0.25575,-0.63995 0,-0.3842 0.256908,-0.63532 0.256907,-0.25113 0.649211,-0.25113 0.207146,0 0.379575,0.0868 0.172429,0.0868 0.307826,0.25922 l -0.244178,0.18053 q -0.09142,-0.11341 -0.192102,-0.16317 -0.10068,-0.0509 -0.232605,-0.0509 -0.251121,0 -0.401562,0.15623 -0.150441,0.15622 -0.150441,0.41776 0,0.25691 0.150441,0.41545 0.151598,0.15738 0.394619,0.15738 0.178215,0 0.28931,-0.0833 0.111095,-0.0845 0.111095,-0.21987 v -0.0185 h -0.407349 z"
             inkscape:connector-curvature="0" />
          <path
             id="path853"
             style="font-style:normal;font-variant:normal;font-weight:normal;font-stretch:normal;font-family:'Futura Hv BT';-inkscape-font-specification:'Futura Hv BT';fill:#333333;fill-opacity:1;stroke-width:0.04388993"
             d="m 25.354841,285.45157 q 0,-0.0787 0.0567,-0.13539 0.05671,-0.0567 0.135397,-0.0567 0.07985,0 0.136555,0.0567 0.05786,0.0555 0.05786,0.13539 0,0.0799 -0.05786,0.13656 -0.05671,0.0567 -0.136555,0.0567 -0.07869,0 -0.135397,-0.0579 -0.0567,-0.0579 -0.0567,-0.1354 z m 0.02893,1.60162 v -1.13525 h 0.328656 v 1.13525 z"
             inkscape:connector-curvature="0" />
          <path
             id="path855"
             style="font-style:normal;font-variant:normal;font-weight:normal;font-stretch:normal;font-family:'Futura Hv BT';-inkscape-font-specification:'Futura Hv BT';fill:#333333;fill-opacity:1;stroke-width:0.04388993"
             d="m 26.369739,285.91794 v 0.59714 q 0,0.15044 0.05786,0.21524 0.05902,0.0648 0.190944,0.0648 0.130769,0 0.189788,-0.0648 0.05902,-0.066 0.05902,-0.21524 v -0.59714 h 0.329813 v 0.59714 q 0,0.29972 -0.140026,0.44206 -0.140026,0.14118 -0.433965,0.14118 -0.299725,0 -0.440908,-0.14118 -0.140026,-0.14118 -0.140026,-0.44206 v -0.59714 z"
             inkscape:connector-curvature="0" />
          <path
             id="path857"
             style="font-style:normal;font-variant:normal;font-weight:normal;font-stretch:normal;font-family:'Futura Hv BT';-inkscape-font-specification:'Futura Hv BT';fill:#333333;fill-opacity:1;stroke-width:0.04388993"
             d="m 27.526979,287.05319 v -1.79372 h 0.328656 v 1.79372 z"
             inkscape:connector-curvature="0" />
          <path
             id="path859"
             style="font-style:normal;font-variant:normal;font-weight:normal;font-stretch:normal;font-family:'Futura Hv BT';-inkscape-font-specification:'Futura Hv BT';fill:#333333;fill-opacity:1;stroke-width:0.04388993"
             d="m 28.173877,285.45157 q 0,-0.0787 0.0567,-0.13539 0.05671,-0.0567 0.135397,-0.0567 0.07985,0 0.136554,0.0567 0.05786,0.0555 0.05786,0.13539 0,0.0799 -0.05786,0.13656 -0.05671,0.0567 -0.136554,0.0567 -0.07869,0 -0.135397,-0.0579 -0.0567,-0.0579 -0.0567,-0.1354 z m 0.02893,1.60162 v -1.13525 h 0.328656 v 1.13525 z"
             inkscape:connector-curvature="0" />
          <path
             id="path861"
             style="font-style:normal;font-variant:normal;font-weight:normal;font-stretch:normal;font-family:'Futura Hv BT';-inkscape-font-specification:'Futura Hv BT';fill:#333333;fill-opacity:1;stroke-width:0.04388993"
             d="m 29.70259,286.48383 q 0,-0.15276 -0.07754,-0.24186 -0.07638,-0.0891 -0.207146,-0.0891 -0.13424,0 -0.211775,0.0891 -0.07638,0.088 -0.07638,0.24186 0,0.15391 0.07522,0.23955 0.07638,0.0856 0.210617,0.0856 0.136555,0 0.211775,-0.0856 0.07522,-0.0856 0.07522,-0.23955 z m 0.300882,0.56936 h -0.319398 l 0.0046,-0.16317 q -0.06712,0.10762 -0.162014,0.15854 -0.09374,0.0498 -0.229133,0.0498 -0.225662,0 -0.364531,-0.1678 -0.137711,-0.1678 -0.137711,-0.44322 0,-0.28699 0.135397,-0.44669 0.136554,-0.16086 0.378417,-0.16086 0.126139,0 0.221033,0.0567 0.09605,0.0567 0.160856,0.16895 v -0.18747 h 0.312455 z"
             inkscape:connector-curvature="0" />
        </g>
      </g>
    </g>
  </g>
</svg>
