<?xml version="1.0" encoding="UTF-8" standalone="no"?>
<!-- Created with Inkscape (http://www.inkscape.org/) -->

<svg
   xmlns:dc="http://purl.org/dc/elements/1.1/"
   xmlns:cc="http://creativecommons.org/ns#"
   xmlns:rdf="http://www.w3.org/1999/02/22-rdf-syntax-ns#"
   xmlns:svg="http://www.w3.org/2000/svg"
   xmlns="http://www.w3.org/2000/svg"
   xmlns:sodipodi="http://sodipodi.sourceforge.net/DTD/sodipodi-0.dtd"
   xmlns:inkscape="http://www.inkscape.org/namespaces/inkscape"
   width="170mm"
   height="15mm"
   viewBox="0 0 170 15"
   version="1.1"
   id="svg8"
   inkscape:version="0.92.3 (2405546, 2018-03-11)"
   sodipodi:docname="header_ricevuta_generic.svg">
  <defs
     id="defs2" />
  <sodipodi:namedview
     id="base"
     pagecolor="#ffffff"
     bordercolor="#666666"
     borderopacity="1.0"
     inkscape:pageopacity="0.0"
     inkscape:pageshadow="2"
     inkscape:zoom="2.118223"
     inkscape:cx="321.25984"
     inkscape:cy="28.346457"
     inkscape:document-units="mm"
     inkscape:current-layer="layer1"
     showgrid="false"
     inkscape:showpageshadow="false"
     inkscape:window-width="1920"
     inkscape:window-height="1026"
     inkscape:window-x="0"
     inkscape:window-y="29"
     inkscape:window-maximized="1" />
  <metadata
     id="metadata5">
    <rdf:RDF>
      <cc:Work
         rdf:about="">
        <dc:format>image/svg+xml</dc:format>
        <dc:type
           rdf:resource="http://purl.org/dc/dcmitype/StillImage" />
        <dc:title></dc:title>
      </cc:Work>
    </rdf:RDF>
  </metadata>
  <g
     inkscape:label="Livello 1"
     inkscape:groupmode="layer"
     id="layer1"
     transform="translate(0,-282)">
    <g
       id="g1344">
      <rect
         y="284.5"
         x="3.7645257"
         height="10"
         width="10"
         id="rect1079"
         style="opacity:1;fill:#e3010f;fill-opacity:1;stroke:none;stroke-width:0.21812221;stroke-linecap:round;stroke-linejoin:round;stroke-miterlimit:4;stroke-dasharray:none;stroke-opacity:1" />
      <g
         id="text1083"
         style="font-style:normal;font-weight:normal;font-size:13.31599522px;line-height:1.25;font-family:sans-serif;letter-spacing:0px;word-spacing:0px;fill:#000000;fill-opacity:1;stroke:none;stroke-width:0.62418723"
         aria-label="CGIL">
        <path
           id="path1329"
           style="font-style:normal;font-variant:normal;font-weight:normal;font-stretch:normal;font-family:'Futura XBlk BT';-inkscape-font-specification:'Futura XBlk BT';stroke:none;stroke-width:0.62418723"
           d="m 23.4849,288.50521 q -0.46814,-0.44864 -0.955787,-0.6697 -0.487646,-0.22107 -1.027308,-0.22107 -0.838752,0 -1.352406,0.52016 -0.507152,0.51365 -0.507152,1.37191 0,0.83875 0.487646,1.3394 0.487647,0.50065 1.306893,0.50065 0.494148,0 1.0013,-0.20806 0.513654,-0.21457 1.118335,-0.67621 l -0.110533,3.58258 q -0.559167,0.22757 -1.118335,0.3381 -0.559168,0.11704 -1.118336,0.11704 -0.695708,0 -1.339402,-0.15605 -0.643693,-0.15605 -1.163849,-0.44213 -1.261378,-0.72822 -1.911573,-1.84006 -0.643693,-1.11183 -0.643693,-2.55526 0,-1.06632 0.364109,-1.9766 0.370611,-0.91027 1.072822,-1.60598 0.708712,-0.70221 1.638491,-1.05982 0.936281,-0.3641 2.022107,-0.3641 0.578674,0 1.137841,0.12353 0.56567,0.11704 1.09883,0.35761 z" />
        <path
           id="path1331"
           style="font-style:normal;font-variant:normal;font-weight:normal;font-stretch:normal;font-family:'Futura XBlk BT';-inkscape-font-specification:'Futura XBlk BT';stroke:none;stroke-width:0.62418723"
           d="m 31.046669,290.83941 h -1.488947 v -2.23667 H 34.8178 q 0.013,0.29258 0.01951,0.43563 0.0065,0.14304 0.0065,0.25357 0,0.81925 -0.156047,1.49545 -0.156046,0.6762 -0.455136,1.19636 -0.728219,1.22237 -1.879064,1.87256 -1.150845,0.6437 -2.613784,0.6437 -1.079324,0 -2.009103,-0.35761 -0.923277,-0.36411 -1.638491,-1.06632 -0.708713,-0.70221 -1.072822,-1.60598 -0.36411,-0.90377 -0.36411,-1.96359 0,-1.06632 0.36411,-1.97009 0.370611,-0.91028 1.072822,-1.59948 0.708712,-0.69571 1.638491,-1.05982 0.929779,-0.36411 2.009103,-0.36411 1.462939,0 2.60078,0.64369 1.137842,0.63719 1.859558,1.87256 L 31.1507,288.1606 q -0.240572,-0.39662 -0.578673,-0.59167 -0.338102,-0.19506 -0.773733,-0.19506 -0.760728,0 -1.215864,0.57867 -0.448635,0.57867 -0.448635,1.55397 0,1.0078 0.455137,1.56697 0.455136,0.55266 1.287386,0.55266 0.494148,0 0.79974,-0.20806 0.312093,-0.20806 0.370611,-0.57867 z" />
        <path
           id="path1333"
           style="font-style:normal;font-variant:normal;font-weight:normal;font-stretch:normal;font-family:'Futura XBlk BT';-inkscape-font-specification:'Futura XBlk BT';stroke:none;stroke-width:0.62418723"
           d="m 36.157203,294.24643 v -9.51886 h 3.478543 v 9.51886 z" />
        <path
           id="path1335"
           style="font-style:normal;font-variant:normal;font-weight:normal;font-stretch:normal;font-family:'Futura XBlk BT';-inkscape-font-specification:'Futura XBlk BT';stroke:none;stroke-width:0.62418723"
           d="m 41.475799,294.24643 v -9.51886 h 3.426528 v 6.43043 h 3.328999 v 3.08843 z" />
      </g>
    </g>
  </g>
</svg>
