<?xml version="1.0" encoding="UTF-8" standalone="no"?>
<!-- Created with Inkscape (http://www.inkscape.org/) -->

<svg
   xmlns:dc="http://purl.org/dc/elements/1.1/"
   xmlns:cc="http://creativecommons.org/ns#"
   xmlns:rdf="http://www.w3.org/1999/02/22-rdf-syntax-ns#"
   xmlns:svg="http://www.w3.org/2000/svg"
   xmlns="http://www.w3.org/2000/svg"
   xmlns:sodipodi="http://sodipodi.sourceforge.net/DTD/sodipodi-0.dtd"
   xmlns:inkscape="http://www.inkscape.org/namespaces/inkscape"
   width="170mm"
   height="15mm"
   viewBox="0 0 170 15"
   version="1.1"
   id="svg8"
   inkscape:version="0.92.2 5c3e80d, 2017-08-06"
   sodipodi:docname="header_ricevuta_uvl.svg">
  <defs
     id="defs2" />
  <sodipodi:namedview
     id="base"
     pagecolor="#ffffff"
     bordercolor="#666666"
     borderopacity="1.0"
     inkscape:pageopacity="0.0"
     inkscape:pageshadow="2"
     inkscape:zoom="2.1867034"
     inkscape:cx="487.2515"
     inkscape:cy="28.346457"
     inkscape:document-units="mm"
     inkscape:current-layer="layer1"
     showgrid="false"
     inkscape:showpageshadow="false"
     inkscape:window-width="1920"
     inkscape:window-height="1035"
     inkscape:window-x="0"
     inkscape:window-y="1"
     inkscape:window-maximized="1" />
  <metadata
     id="metadata5">
    <rdf:RDF>
      <cc:Work
         rdf:about="">
        <dc:format>image/svg+xml</dc:format>
        <dc:type
           rdf:resource="http://purl.org/dc/dcmitype/StillImage" />
        <dc:title />
      </cc:Work>
    </rdf:RDF>
  </metadata>
  <g
     inkscape:label="Livello 1"
     inkscape:groupmode="layer"
     id="layer1"
     transform="translate(0,-282)">
    <g
       id="g1344">
      <rect
         y="284.5"
         x="3.7645257"
         height="10"
         width="10"
         id="rect1079"
         style="opacity:1;fill:#e3010f;fill-opacity:1;stroke:none;stroke-width:0.21812221;stroke-linecap:round;stroke-linejoin:round;stroke-miterlimit:4;stroke-dasharray:none;stroke-opacity:1" />
      <g
         id="text1083"
         style="font-style:normal;font-weight:normal;font-size:13.31599522px;line-height:1.25;font-family:sans-serif;letter-spacing:0px;word-spacing:0px;fill:#000000;fill-opacity:1;stroke:none;stroke-width:0.62418723"
         aria-label="CGIL">
        <path
           id="path1329"
           style="font-style:normal;font-variant:normal;font-weight:normal;font-stretch:normal;font-family:'Futura XBlk BT';-inkscape-font-specification:'Futura XBlk BT';stroke:none;stroke-width:0.62418723"
           d="m 23.4849,288.50521 q -0.46814,-0.44864 -0.955787,-0.6697 -0.487646,-0.22107 -1.027308,-0.22107 -0.838752,0 -1.352406,0.52016 -0.507152,0.51365 -0.507152,1.37191 0,0.83875 0.487646,1.3394 0.487647,0.50065 1.306893,0.50065 0.494148,0 1.0013,-0.20806 0.513654,-0.21457 1.118335,-0.67621 l -0.110533,3.58258 q -0.559167,0.22757 -1.118335,0.3381 -0.559168,0.11704 -1.118336,0.11704 -0.695708,0 -1.339402,-0.15605 -0.643693,-0.15605 -1.163849,-0.44213 -1.261378,-0.72822 -1.911573,-1.84006 -0.643693,-1.11183 -0.643693,-2.55526 0,-1.06632 0.364109,-1.9766 0.370611,-0.91027 1.072822,-1.60598 0.708712,-0.70221 1.638491,-1.05982 0.936281,-0.3641 2.022107,-0.3641 0.578674,0 1.137841,0.12353 0.56567,0.11704 1.09883,0.35761 z" />
        <path
           id="path1331"
           style="font-style:normal;font-variant:normal;font-weight:normal;font-stretch:normal;font-family:'Futura XBlk BT';-inkscape-font-specification:'Futura XBlk BT';stroke:none;stroke-width:0.62418723"
           d="m 31.046669,290.83941 h -1.488947 v -2.23667 H 34.8178 q 0.013,0.29258 0.01951,0.43563 0.0065,0.14304 0.0065,0.25357 0,0.81925 -0.156047,1.49545 -0.156046,0.6762 -0.455136,1.19636 -0.728219,1.22237 -1.879064,1.87256 -1.150845,0.6437 -2.613784,0.6437 -1.079324,0 -2.009103,-0.35761 -0.923277,-0.36411 -1.638491,-1.06632 -0.708713,-0.70221 -1.072822,-1.60598 -0.36411,-0.90377 -0.36411,-1.96359 0,-1.06632 0.36411,-1.97009 0.370611,-0.91028 1.072822,-1.59948 0.708712,-0.69571 1.638491,-1.05982 0.929779,-0.36411 2.009103,-0.36411 1.462939,0 2.60078,0.64369 1.137842,0.63719 1.859558,1.87256 L 31.1507,288.1606 q -0.240572,-0.39662 -0.578673,-0.59167 -0.338102,-0.19506 -0.773733,-0.19506 -0.760728,0 -1.215864,0.57867 -0.448635,0.57867 -0.448635,1.55397 0,1.0078 0.455137,1.56697 0.455136,0.55266 1.287386,0.55266 0.494148,0 0.79974,-0.20806 0.312093,-0.20806 0.370611,-0.57867 z" />
        <path
           id="path1333"
           style="font-style:normal;font-variant:normal;font-weight:normal;font-stretch:normal;font-family:'Futura XBlk BT';-inkscape-font-specification:'Futura XBlk BT';stroke:none;stroke-width:0.62418723"
           d="m 36.157203,294.24643 v -9.51886 h 3.478543 v 9.51886 z" />
        <path
           id="path1335"
           style="font-style:normal;font-variant:normal;font-weight:normal;font-stretch:normal;font-family:'Futura XBlk BT';-inkscape-font-specification:'Futura XBlk BT';stroke:none;stroke-width:0.62418723"
           d="m 41.475799,294.24643 v -9.51886 h 3.426528 v 6.43043 h 3.328999 v 3.08843 z" />
      </g>
    </g>
    <g
       transform="matrix(1.58955,0,0,1.58955,105.09302,-176.70835)"
       id="layer1-02"
       inkscape:label="Livello 1">
      <path
         id="rect842"
         transform="matrix(0.26458333,0,0,0.26458333,0,289.59165)"
         d="M 2.0488281,2.1113281 V 25.888672 H 25.951172 V 2.1113281 Z m 3.2753907,5.8066407 2.453125,0.6582031 -0.9980469,3.7226561 c -0.115814,0.432224 -0.1443847,0.743234 -0.085937,0.935547 0.059308,0.189101 0.2141144,0.318106 0.4628906,0.384766 0.2456609,0.06582 0.4430266,0.02828 0.59375,-0.111329 0.1507234,-0.139603 0.2831746,-0.420872 0.3964844,-0.84375 L 9.1445312,8.9414062 11.597656,9.5996094 10.605469,13.302734 c -0.129979,0.485087 -0.270464,0.875287 -0.419922,1.171875 -0.146337,0.297399 -0.3170687,0.533079 -0.513672,0.707032 -0.3877986,0.352693 -0.8493254,0.579333 -1.3828125,0.679687 -0.5335066,0.100427 -1.1026081,0.07068 -1.7089844,-0.0918 C 5.9705914,15.60622 5.4586918,15.347866 5.046875,14.994141 4.6350582,14.640415 4.3509223,14.212159 4.1914062,13.712891 c -0.081006,-0.245 -0.1109836,-0.52979 -0.089844,-0.857422 0.02114,-0.327633 0.097993,-0.739967 0.2304687,-1.234375 z m 6.5800782,1.7636718 2.660156,0.7128904 0.06055,2.666016 c 0.0091,0.389047 0.0052,0.714471 -0.01172,0.976562 -0.0138,0.262951 -0.04317,0.504738 -0.08594,0.726563 l 0.04687,0.01367 c 0.09273,-0.221663 0.201843,-0.453269 0.326172,-0.69336 0.127418,-0.239158 0.275147,-0.495159 0.445312,-0.769531 l 1.443359,-2.324219 2.607422,0.699219 -4.427734,6.132813 -2.285156,-0.613282 z m 7.804687,2.0917974 2.457032,0.658203 -1.234375,4.613281 2.386718,0.638672 -0.59375,2.216797 -4.845703,-1.298829 z"
         style="opacity:1;fill:#e3010f;fill-opacity:1;stroke:none;stroke-width:1.00157475;stroke-linecap:round;stroke-linejoin:round;stroke-miterlimit:4;stroke-dasharray:none;stroke-opacity:1"
         inkscape:connector-curvature="0" />
      <g
         id="text846"
         style="font-style:normal;font-weight:normal;font-size:2.61666107px;line-height:1.25;font-family:sans-serif;letter-spacing:0px;word-spacing:0px;fill:#000000;fill-opacity:1;stroke:none;stroke-width:0.12265598"
         transform="rotate(15)"
         aria-label="UVL" />
    </g>
    <g
       aria-label="Ufficio Vertenze e Legale"
       style="font-style:normal;font-weight:normal;font-size:4.8058548px;line-height:1.25;font-family:sans-serif;letter-spacing:0px;word-spacing:0px;fill:#000000;fill-opacity:1;stroke:none;stroke-width:0.22527443"
       id="text1528">
      <path
         d="m 117.50314,289.70369 v -2.20112 h 0.95507 v 2.29264 q 0,0.15018 0.054,0.22293 0.054,0.0704 0.16661,0.0704 0.11498,0 0.16896,-0.0704 0.054,-0.0728 0.054,-0.22293 v -2.29264 h 0.95976 v 2.20112 q 0,0.67113 -0.28628,0.98323 -0.28394,0.30975 -0.89641,0.30975 -0.61012,0 -0.89406,-0.30975 -0.28159,-0.3121 -0.28159,-0.98323 z"
         style="font-style:normal;font-variant:normal;font-weight:normal;font-stretch:normal;font-family:'Futura XBlkCn BT';-inkscape-font-specification:'Futura XBlkCn BT';stroke-width:0.22527443"
         id="path824" />
      <path
         d="m 120.30264,290.92862 v -1.63324 h -0.26516 v -0.76969 h 0.26516 v -0.46697 q 0,-0.48106 0.176,-0.69695 0.176,-0.21588 0.56788,-0.21588 0.12437,0 0.2417,0.0211 0.11733,0.0188 0.22997,0.0563 v 0.72511 q -0.0305,-0.0117 -0.0634,-0.0164 -0.0328,-0.007 -0.0657,-0.007 -0.10559,0 -0.15722,0.0751 -0.0516,0.0727 -0.0516,0.22293 v 0.30271 h 0.33791 v 0.76969 h -0.33791 v 1.63324 z"
         style="font-style:normal;font-variant:normal;font-weight:normal;font-stretch:normal;font-family:'Futura XBlkCn BT';-inkscape-font-specification:'Futura XBlkCn BT';stroke-width:0.22527443"
         id="path826" />
      <path
         d="m 121.79509,290.92862 v -1.63324 h -0.26517 v -0.76969 h 0.26517 v -0.46697 q 0,-0.48106 0.17599,-0.69695 0.176,-0.21588 0.56788,-0.21588 0.12437,0 0.2417,0.0211 0.11733,0.0188 0.22997,0.0563 v 0.72511 q -0.0305,-0.0117 -0.0634,-0.0164 -0.0328,-0.007 -0.0657,-0.007 -0.1056,0 -0.15723,0.0751 -0.0516,0.0727 -0.0516,0.22293 v 0.30271 h 0.33791 v 0.76969 h -0.33791 v 1.63324 z"
         style="font-style:normal;font-variant:normal;font-weight:normal;font-stretch:normal;font-family:'Futura XBlkCn BT';-inkscape-font-specification:'Futura XBlkCn BT';stroke-width:0.22527443"
         id="path828" />
      <path
         d="m 123.12796,287.70438 q 0,-0.22058 0.15018,-0.36842 0.15019,-0.15018 0.36842,-0.15018 0.21824,0 0.36607,0.15018 0.14784,0.14784 0.14784,0.36842 0,0.21589 -0.15018,0.36842 -0.14784,0.15018 -0.36373,0.15018 -0.21823,0 -0.36842,-0.15018 -0.15018,-0.15019 -0.15018,-0.36842 z m 0.0821,3.22424 v -2.40293 h 0.87059 v 2.40293 z"
         style="font-style:normal;font-variant:normal;font-weight:normal;font-stretch:normal;font-family:'Futura XBlkCn BT';-inkscape-font-specification:'Futura XBlkCn BT';stroke-width:0.22527443"
         id="path830" />
      <path
         d="m 125.79371,290.89107 q -0.0939,0.054 -0.20416,0.0798 -0.10794,0.0258 -0.24639,0.0258 -0.46463,0 -0.73214,-0.33791 -0.26752,-0.34026 -0.26752,-0.9316 0,-0.57962 0.27456,-0.92457 0.2769,-0.34495 0.73449,-0.34495 0.12671,0 0.23466,0.0235 0.11029,0.0235 0.2065,0.0727 v 0.73684 q -0.0446,-0.0282 -0.0915,-0.0399 -0.0469,-0.0141 -0.1009,-0.0141 -0.13611,0 -0.21824,0.13141 -0.0798,0.13141 -0.0798,0.35904 0,0.22996 0.0751,0.34729 0.0751,0.11499 0.22293,0.11499 0.0422,0 0.0892,-0.0117 0.0493,-0.0141 0.10325,-0.0375 z"
         style="font-style:normal;font-variant:normal;font-weight:normal;font-stretch:normal;font-family:'Futura XBlkCn BT';-inkscape-font-specification:'Futura XBlkCn BT';stroke-width:0.22527443"
         id="path832" />
      <path
         d="m 125.99082,287.70438 q 0,-0.22058 0.15019,-0.36842 0.15018,-0.15018 0.36841,-0.15018 0.21824,0 0.36608,0.15018 0.14783,0.14784 0.14783,0.36842 0,0.21589 -0.15018,0.36842 -0.14784,0.15018 -0.36373,0.15018 -0.21823,0 -0.36841,-0.15018 -0.15019,-0.15019 -0.15019,-0.36842 z m 0.0821,3.22424 v -2.40293 h 0.87059 v 2.40293 z"
         style="font-style:normal;font-variant:normal;font-weight:normal;font-stretch:normal;font-family:'Futura XBlkCn BT';-inkscape-font-specification:'Futura XBlkCn BT';stroke-width:0.22527443"
         id="path834" />
      <path
         d="m 128.1192,289.71308 q 0,0.26751 0.054,0.40361 0.054,0.13376 0.16192,0.13376 0.10794,0 0.16191,-0.13376 0.054,-0.1361 0.054,-0.40361 0,-0.26517 -0.054,-0.39658 -0.054,-0.13141 -0.16191,-0.13141 -0.10795,0 -0.16192,0.13141 -0.054,0.13141 -0.054,0.39658 z m -0.89875,0.0141 q 0,-0.60543 0.29098,-0.9363 0.29332,-0.33322 0.82366,-0.33322 0.53033,0 0.81896,0.33322 0.29098,0.33087 0.29098,0.9363 0,0.60542 -0.29098,0.93864 -0.28863,0.33087 -0.81896,0.33087 -0.53268,0 -0.82366,-0.33087 -0.29098,-0.33322 -0.29098,-0.93864 z"
         style="font-style:normal;font-variant:normal;font-weight:normal;font-stretch:normal;font-family:'Futura XBlkCn BT';-inkscape-font-specification:'Futura XBlkCn BT';stroke-width:0.22527443"
         id="path836" />
      <path
         d="m 130.69108,287.50257 h 0.95507 l 0.35669,2.23867 0.35903,-2.23867 h 0.95272 l -0.78377,3.42605 h -1.05832 z"
         style="font-style:normal;font-variant:normal;font-weight:normal;font-stretch:normal;font-family:'Futura XBlkCn BT';-inkscape-font-specification:'Futura XBlkCn BT';stroke-width:0.22527443"
         id="path838" />
      <path
         d="m 134.01153,289.42444 h 0.51391 q 0,-0.20415 -0.0657,-0.30506 -0.0634,-0.10325 -0.19242,-0.10325 -0.1009,0 -0.16426,0.10091 -0.061,0.0986 -0.0915,0.3074 z m 1.24136,0.66409 q -0.0516,0.42239 -0.32853,0.66644 -0.27455,0.2417 -0.70633,0.2417 -0.50686,0 -0.78142,-0.32618 -0.27455,-0.32852 -0.27455,-0.93395 0,-0.60777 0.2769,-0.94333 0.2769,-0.33557 0.77438,-0.33557 0.54207,0 0.80958,0.29802 0.26751,0.29802 0.26751,0.89875 0,0.0704 -0.002,0.10794 0,0.0352 -0.005,0.0657 h -1.27186 v 0.0328 q 0,0.26517 0.0587,0.38015 0.061,0.11499 0.19711,0.11499 0.10091,0 0.16192,-0.0657 0.0634,-0.0657 0.0915,-0.20181 z"
         style="font-style:normal;font-variant:normal;font-weight:normal;font-stretch:normal;font-family:'Futura XBlkCn BT';-inkscape-font-specification:'Futura XBlkCn BT';stroke-width:0.22527443"
         id="path840" />
      <path
         d="m 135.53918,290.92862 v -2.40293 h 0.81662 v 0.33557 q 0.11263,-0.18304 0.27455,-0.28394 0.16426,-0.10091 0.3778,-0.11968 v 0.84713 h -0.0188 q -0.32149,0 -0.45055,0.12202 -0.12672,0.11968 -0.12672,0.42943 v 1.0724 z"
         style="font-style:normal;font-variant:normal;font-weight:normal;font-stretch:normal;font-family:'Futura XBlkCn BT';-inkscape-font-specification:'Futura XBlkCn BT';stroke-width:0.22527443"
         id="path842" />
      <path
         d="m 137.36249,290.92862 v -1.64263 h -0.28863 v -0.7603 h 0.28863 v -0.70633 h 0.87528 v 0.70633 h 0.3121 v 0.7603 h -0.3121 v 1.64263 z"
         style="font-style:normal;font-variant:normal;font-weight:normal;font-stretch:normal;font-family:'Futura XBlkCn BT';-inkscape-font-specification:'Futura XBlkCn BT';stroke-width:0.22527443"
         id="path844" />
      <path
         d="m 139.47913,289.42444 h 0.51391 q 0,-0.20415 -0.0657,-0.30506 -0.0634,-0.10325 -0.19242,-0.10325 -0.1009,0 -0.16426,0.10091 -0.061,0.0986 -0.0915,0.3074 z m 1.24136,0.66409 q -0.0516,0.42239 -0.32853,0.66644 -0.27455,0.2417 -0.70633,0.2417 -0.50686,0 -0.78142,-0.32618 -0.27455,-0.32852 -0.27455,-0.93395 0,-0.60777 0.2769,-0.94333 0.2769,-0.33557 0.77438,-0.33557 0.54207,0 0.80958,0.29802 0.26751,0.29802 0.26751,0.89875 0,0.0704 -0.002,0.10794 0,0.0352 -0.005,0.0657 h -1.27186 v 0.0328 q 0,0.26517 0.0587,0.38015 0.061,0.11499 0.19711,0.11499 0.10091,0 0.16192,-0.0657 0.0634,-0.0657 0.0915,-0.20181 z"
         style="font-style:normal;font-variant:normal;font-weight:normal;font-stretch:normal;font-family:'Futura XBlkCn BT';-inkscape-font-specification:'Futura XBlkCn BT';stroke-width:0.22527443"
         id="path846" />
      <path
         d="m 141.00208,290.92862 v -2.40293 h 0.83539 v 0.35669 q 0.12203,-0.20416 0.28629,-0.30037 0.16426,-0.0986 0.38719,-0.0986 0.27221,0 0.413,0.16192 0.14315,0.16192 0.14315,0.47636 v 1.80689 h -0.86356 v -1.39858 q 0,-0.11029 -0.0422,-0.16426 -0.0422,-0.0563 -0.12671,-0.0563 -0.0774,0 -0.12437,0.0634 -0.0446,0.0634 -0.0446,0.1713 v 1.3845 z"
         style="font-style:normal;font-variant:normal;font-weight:normal;font-stretch:normal;font-family:'Futura XBlkCn BT';-inkscape-font-specification:'Futura XBlkCn BT';stroke-width:0.22527443"
         id="path848" />
      <path
         d="m 143.15861,290.92862 0.79316,-1.64263 h -0.61481 v -0.7603 h 1.87963 l -0.76969,1.60978 h 0.69694 v 0.79315 z"
         style="font-style:normal;font-variant:normal;font-weight:normal;font-stretch:normal;font-family:'Futura XBlkCn BT';-inkscape-font-specification:'Futura XBlkCn BT';stroke-width:0.22527443"
         id="path850" />
      <path
         d="m 146.17166,289.42444 h 0.51391 q 0,-0.20415 -0.0657,-0.30506 -0.0634,-0.10325 -0.19242,-0.10325 -0.1009,0 -0.16426,0.10091 -0.061,0.0986 -0.0915,0.3074 z m 1.24136,0.66409 q -0.0516,0.42239 -0.32853,0.66644 -0.27455,0.2417 -0.70633,0.2417 -0.50687,0 -0.78142,-0.32618 -0.27455,-0.32852 -0.27455,-0.93395 0,-0.60777 0.2769,-0.94333 0.2769,-0.33557 0.77438,-0.33557 0.54206,0 0.80958,0.29802 0.26751,0.29802 0.26751,0.89875 0,0.0704 -0.002,0.10794 0,0.0352 -0.005,0.0657 h -1.27186 v 0.0328 q 0,0.26517 0.0587,0.38015 0.061,0.11499 0.19712,0.11499 0.1009,0 0.16192,-0.0657 0.0634,-0.0657 0.0915,-0.20181 z"
         style="font-style:normal;font-variant:normal;font-weight:normal;font-stretch:normal;font-family:'Futura XBlkCn BT';-inkscape-font-specification:'Futura XBlkCn BT';stroke-width:0.22527443"
         id="path852" />
      <path
         d="m 149.64464,289.42444 h 0.51391 q 0,-0.20415 -0.0657,-0.30506 -0.0634,-0.10325 -0.19242,-0.10325 -0.1009,0 -0.16426,0.10091 -0.061,0.0986 -0.0915,0.3074 z m 1.24136,0.66409 q -0.0516,0.42239 -0.32853,0.66644 -0.27455,0.2417 -0.70633,0.2417 -0.50687,0 -0.78142,-0.32618 -0.27455,-0.32852 -0.27455,-0.93395 0,-0.60777 0.2769,-0.94333 0.2769,-0.33557 0.77438,-0.33557 0.54206,0 0.80958,0.29802 0.26751,0.29802 0.26751,0.89875 0,0.0704 -0.002,0.10794 0,0.0352 -0.005,0.0657 h -1.27186 v 0.0328 q 0,0.26517 0.0587,0.38015 0.061,0.11499 0.19712,0.11499 0.1009,0 0.16192,-0.0657 0.0633,-0.0657 0.0915,-0.20181 z"
         style="font-style:normal;font-variant:normal;font-weight:normal;font-stretch:normal;font-family:'Futura XBlkCn BT';-inkscape-font-specification:'Futura XBlkCn BT';stroke-width:0.22527443"
         id="path854" />
      <path
         d="m 152.39721,290.92862 v -3.42605 h 0.96211 v 2.57658 h 0.70164 v 0.84947 z"
         style="font-style:normal;font-variant:normal;font-weight:normal;font-stretch:normal;font-family:'Futura XBlkCn BT';-inkscape-font-specification:'Futura XBlkCn BT';stroke-width:0.22527443"
         id="path856" />
      <path
         d="m 155.05123,289.42444 h 0.51391 q 0,-0.20415 -0.0657,-0.30506 -0.0634,-0.10325 -0.19242,-0.10325 -0.1009,0 -0.16426,0.10091 -0.061,0.0986 -0.0915,0.3074 z m 1.24136,0.66409 q -0.0516,0.42239 -0.32853,0.66644 -0.27455,0.2417 -0.70633,0.2417 -0.50687,0 -0.78142,-0.32618 -0.27455,-0.32852 -0.27455,-0.93395 0,-0.60777 0.2769,-0.94333 0.2769,-0.33557 0.77438,-0.33557 0.54206,0 0.80958,0.29802 0.26751,0.29802 0.26751,0.89875 0,0.0704 -0.002,0.10794 0,0.0352 -0.005,0.0657 h -1.27186 v 0.0328 q 0,0.26517 0.0587,0.38015 0.061,0.11499 0.19712,0.11499 0.1009,0 0.16192,-0.0657 0.0633,-0.0657 0.0915,-0.20181 z"
         style="font-style:normal;font-variant:normal;font-weight:normal;font-stretch:normal;font-family:'Futura XBlkCn BT';-inkscape-font-specification:'Futura XBlkCn BT';stroke-width:0.22527443"
         id="path858" />
      <path
         d="m 157.37202,289.64502 q 0,0.24171 0.0516,0.36608 0.0516,0.12437 0.15488,0.12437 0.0985,0 0.14783,-0.11968 0.0493,-0.12203 0.0493,-0.37077 0,-0.24639 -0.0516,-0.37311 -0.0493,-0.12671 -0.14549,-0.12671 -0.10091,0 -0.15488,0.12906 -0.0516,0.12672 -0.0516,0.37076 z m 0.40362,-1.12402 h 0.82601 v 2.29733 q 0,0.46932 -0.27925,0.7251 -0.27925,0.25578 -0.79315,0.25578 -0.44351,0 -0.68287,-0.19711 -0.237,-0.19712 -0.26751,-0.59135 h 0.7298 q 0.007,0.0986 0.0633,0.15488 0.0587,0.0563 0.15723,0.0563 0.11967,0 0.18303,-0.0821 0.0634,-0.0798 0.0634,-0.23466 v -0.40831 q -0.11029,0.15957 -0.24405,0.23936 -0.13141,0.0774 -0.29567,0.0774 -0.3426,0 -0.53737,-0.30976 -0.19242,-0.3121 -0.19242,-0.86824 0,-0.55849 0.19007,-0.86825 0.19242,-0.30975 0.53503,-0.30975 0.15722,0 0.28863,0.0751 0.13141,0.0727 0.25578,0.22762 z"
         style="font-style:normal;font-variant:normal;font-weight:normal;font-stretch:normal;font-family:'Futura XBlkCn BT';-inkscape-font-specification:'Futura XBlkCn BT';stroke-width:0.22527443"
         id="path860" />
      <path
         d="m 159.79372,289.72716 q 0,0.25578 0.0516,0.38484 0.054,0.12906 0.15957,0.12906 0.1056,0 0.15957,-0.13141 0.0563,-0.13375 0.0563,-0.38249 0,-0.25344 -0.0563,-0.38485 -0.054,-0.13375 -0.15957,-0.13375 -0.10325,0 -0.15722,0.13141 -0.054,0.13141 -0.054,0.38719 z m 0.44586,1.20146 v -0.26517 q -0.12906,0.17365 -0.26751,0.25344 -0.13611,0.0798 -0.29802,0.0798 -0.35903,0 -0.56319,-0.33322 -0.20181,-0.33556 -0.20181,-0.93629 0,-0.60543 0.19946,-0.9363 0.20181,-0.33322 0.56554,-0.33322 0.16426,0 0.30036,0.0798 0.13611,0.0774 0.26517,0.24874 v -0.26048 h 0.87059 v 2.40293 z"
         style="font-style:normal;font-variant:normal;font-weight:normal;font-stretch:normal;font-family:'Futura XBlkCn BT';-inkscape-font-specification:'Futura XBlkCn BT';stroke-width:0.22527443"
         id="path862" />
      <path
         d="m 161.45982,290.92862 v -3.73815 h 0.87059 v 3.73815 z"
         style="font-style:normal;font-variant:normal;font-weight:normal;font-stretch:normal;font-family:'Futura XBlkCn BT';-inkscape-font-specification:'Futura XBlkCn BT';stroke-width:0.22527443"
         id="path864" />
      <path
         d="m 163.4427,289.42444 h 0.51391 q 0,-0.20415 -0.0657,-0.30506 -0.0634,-0.10325 -0.19242,-0.10325 -0.1009,0 -0.16426,0.10091 -0.061,0.0986 -0.0915,0.3074 z m 1.24136,0.66409 q -0.0516,0.42239 -0.32853,0.66644 -0.27455,0.2417 -0.70633,0.2417 -0.50686,0 -0.78142,-0.32618 -0.27455,-0.32852 -0.27455,-0.93395 0,-0.60777 0.2769,-0.94333 0.2769,-0.33557 0.77438,-0.33557 0.54207,0 0.80958,0.29802 0.26751,0.29802 0.26751,0.89875 0,0.0704 -0.002,0.10794 0,0.0352 -0.005,0.0657 h -1.27186 v 0.0328 q 0,0.26517 0.0587,0.38015 0.061,0.11499 0.19711,0.11499 0.10091,0 0.16192,-0.0657 0.0634,-0.0657 0.0915,-0.20181 z"
         style="font-style:normal;font-variant:normal;font-weight:normal;font-stretch:normal;font-family:'Futura XBlkCn BT';-inkscape-font-specification:'Futura XBlkCn BT';stroke-width:0.22527443"
         id="path866" />
    </g>
  </g>
</svg>
