<?xml version="1.0" encoding="UTF-8" standalone="no"?>
<!-- Created with Inkscape (http://www.inkscape.org/) -->

<svg
   xmlns:dc="http://purl.org/dc/elements/1.1/"
   xmlns:cc="http://creativecommons.org/ns#"
   xmlns:rdf="http://www.w3.org/1999/02/22-rdf-syntax-ns#"
   xmlns:svg="http://www.w3.org/2000/svg"
   xmlns="http://www.w3.org/2000/svg"
   xmlns:sodipodi="http://sodipodi.sourceforge.net/DTD/sodipodi-0.dtd"
   xmlns:inkscape="http://www.inkscape.org/namespaces/inkscape"
   width="170mm"
   height="15mm"
   viewBox="0 0 170 15"
   version="1.1"
   id="svg8"
   inkscape:version="0.92.2 5c3e80d, 2017-08-06"
   sodipodi:docname="header_ricevuta_inca.svg">
  <defs
     id="defs2" />
  <sodipodi:namedview
     id="base"
     pagecolor="#ffffff"
     bordercolor="#666666"
     borderopacity="1.0"
     inkscape:pageopacity="0.0"
     inkscape:pageshadow="2"
     inkscape:zoom="1.3715707"
     inkscape:cx="269.54214"
     inkscape:cy="-9.6861742"
     inkscape:document-units="mm"
     inkscape:current-layer="layer1"
     showgrid="false"
     inkscape:showpageshadow="false"
     inkscape:window-width="1920"
     inkscape:window-height="1156"
     inkscape:window-x="0"
     inkscape:window-y="0"
     inkscape:window-maximized="1" />
  <metadata
     id="metadata5">
    <rdf:RDF>
      <cc:Work
         rdf:about="">
        <dc:format>image/svg+xml</dc:format>
        <dc:type
           rdf:resource="http://purl.org/dc/dcmitype/StillImage" />
        <dc:title></dc:title>
      </cc:Work>
    </rdf:RDF>
  </metadata>
  <g
     inkscape:label="Livello 1"
     inkscape:groupmode="layer"
     id="layer1"
     transform="translate(0,-282)">
    <g
       id="g1344">
      <rect
         y="284.5"
         x="3.7645257"
         height="10"
         width="10"
         id="rect1079"
         style="opacity:1;fill:#e3010f;fill-opacity:1;stroke:none;stroke-width:0.21812221;stroke-linecap:round;stroke-linejoin:round;stroke-miterlimit:4;stroke-dasharray:none;stroke-opacity:1" />
      <g
         id="text1083"
         style="font-style:normal;font-weight:normal;font-size:13.31599522px;line-height:1.25;font-family:sans-serif;letter-spacing:0px;word-spacing:0px;fill:#000000;fill-opacity:1;stroke:none;stroke-width:0.62418723"
         aria-label="CGIL">
        <path
           id="path1329"
           style="font-style:normal;font-variant:normal;font-weight:normal;font-stretch:normal;font-family:'Futura XBlk BT';-inkscape-font-specification:'Futura XBlk BT';stroke:none;stroke-width:0.62418723"
           d="m 23.4849,288.50521 q -0.46814,-0.44864 -0.955787,-0.6697 -0.487646,-0.22107 -1.027308,-0.22107 -0.838752,0 -1.352406,0.52016 -0.507152,0.51365 -0.507152,1.37191 0,0.83875 0.487646,1.3394 0.487647,0.50065 1.306893,0.50065 0.494148,0 1.0013,-0.20806 0.513654,-0.21457 1.118335,-0.67621 l -0.110533,3.58258 q -0.559167,0.22757 -1.118335,0.3381 -0.559168,0.11704 -1.118336,0.11704 -0.695708,0 -1.339402,-0.15605 -0.643693,-0.15605 -1.163849,-0.44213 -1.261378,-0.72822 -1.911573,-1.84006 -0.643693,-1.11183 -0.643693,-2.55526 0,-1.06632 0.364109,-1.9766 0.370611,-0.91027 1.072822,-1.60598 0.708712,-0.70221 1.638491,-1.05982 0.936281,-0.3641 2.022107,-0.3641 0.578674,0 1.137841,0.12353 0.56567,0.11704 1.09883,0.35761 z" />
        <path
           id="path1331"
           style="font-style:normal;font-variant:normal;font-weight:normal;font-stretch:normal;font-family:'Futura XBlk BT';-inkscape-font-specification:'Futura XBlk BT';stroke:none;stroke-width:0.62418723"
           d="m 31.046669,290.83941 h -1.488947 v -2.23667 H 34.8178 q 0.013,0.29258 0.01951,0.43563 0.0065,0.14304 0.0065,0.25357 0,0.81925 -0.156047,1.49545 -0.156046,0.6762 -0.455136,1.19636 -0.728219,1.22237 -1.879064,1.87256 -1.150845,0.6437 -2.613784,0.6437 -1.079324,0 -2.009103,-0.35761 -0.923277,-0.36411 -1.638491,-1.06632 -0.708713,-0.70221 -1.072822,-1.60598 -0.36411,-0.90377 -0.36411,-1.96359 0,-1.06632 0.36411,-1.97009 0.370611,-0.91028 1.072822,-1.59948 0.708712,-0.69571 1.638491,-1.05982 0.929779,-0.36411 2.009103,-0.36411 1.462939,0 2.60078,0.64369 1.137842,0.63719 1.859558,1.87256 L 31.1507,288.1606 q -0.240572,-0.39662 -0.578673,-0.59167 -0.338102,-0.19506 -0.773733,-0.19506 -0.760728,0 -1.215864,0.57867 -0.448635,0.57867 -0.448635,1.55397 0,1.0078 0.455137,1.56697 0.455136,0.55266 1.287386,0.55266 0.494148,0 0.79974,-0.20806 0.312093,-0.20806 0.370611,-0.57867 z" />
        <path
           id="path1333"
           style="font-style:normal;font-variant:normal;font-weight:normal;font-stretch:normal;font-family:'Futura XBlk BT';-inkscape-font-specification:'Futura XBlk BT';stroke:none;stroke-width:0.62418723"
           d="m 36.157203,294.24643 v -9.51886 h 3.478543 v 9.51886 z" />
        <path
           id="path1335"
           style="font-style:normal;font-variant:normal;font-weight:normal;font-stretch:normal;font-family:'Futura XBlk BT';-inkscape-font-specification:'Futura XBlk BT';stroke:none;stroke-width:0.62418723"
           d="m 41.475799,294.24643 v -9.51886 h 3.426528 v 6.43043 h 3.328999 v 3.08843 z" />
      </g>
    </g>
    <g
       id="g1421"
       transform="translate(31.443573)">
      <g
         id="g1109">
        <g
           transform="matrix(1.5748032,0,0,1.5748032,73.677785,-172.38319)"
           id="layer1-0"
           inkscape:label="Livello 1">
          <g
             transform="matrix(0.81364837,0,0,0.81364837,0.69666661,54.656148)"
             id="g1123">
            <path
               style="opacity:1;fill:#00b4e2;fill-opacity:1;stroke:none;stroke-width:1.26125467;stroke-linecap:round;stroke-linejoin:round;stroke-miterlimit:4;stroke-dasharray:none;stroke-opacity:1"
               d="M -0.67773438,-0.578125 V 4.4082031 L 17.931641,-0.578125 Z"
               id="rect1086"
               inkscape:connector-curvature="0"
               sodipodi:nodetypes="cccc"
               transform="matrix(0.26458333,0,0,0.26458333,0,289.59165)" />
            <path
               inkscape:connector-curvature="0"
               transform="rotate(-15)"
               style="opacity:1;fill:#e3010f;fill-opacity:1;stroke:none;stroke-width:0.33370697;stroke-linecap:round;stroke-linejoin:round;stroke-miterlimit:4;stroke-dasharray:none;stroke-opacity:1"
               d="m -75.507591,281.08572 h 6.35 v 6.35 h -6.35 z"
               id="rect1084" />
            <path
               sodipodi:nodetypes="cccc"
               inkscape:connector-curvature="0"
               id="path1094"
               d="m 7.5927353,297.1709 v -1.3193 l -4.9237306,1.3193 z"
               style="opacity:1;fill:#7fb924;fill-opacity:1;stroke:none;stroke-width:0.33370697;stroke-linecap:round;stroke-linejoin:round;stroke-miterlimit:4;stroke-dasharray:none;stroke-opacity:1" />
            <path
               sodipodi:nodetypes="cccc"
               inkscape:connector-curvature="0"
               id="path1096"
               d="M 7.5984913,289.40726 H 6.279192 l 1.3192993,4.92373 z"
               style="opacity:1;fill:#fbb80f;fill-opacity:1;stroke:none;stroke-width:0.33370697;stroke-linecap:round;stroke-linejoin:round;stroke-miterlimit:4;stroke-dasharray:none;stroke-opacity:1" />
            <path
               style="opacity:1;fill:#8977b5;fill-opacity:1;stroke:none;stroke-width:0.33370697;stroke-linecap:round;stroke-linejoin:round;stroke-miterlimit:4;stroke-dasharray:none;stroke-opacity:1"
               d="m -0.2058628,297.18439 h 1.3192994 l -1.3192994,-4.92373 z"
               id="path1098"
               inkscape:connector-curvature="0"
               sodipodi:nodetypes="cccc" />
            <g
               aria-label="inca"
               style="font-style:normal;font-weight:normal;font-size:13.2611351px;line-height:1.25;font-family:sans-serif;letter-spacing:0px;word-spacing:0px;fill:#f9f9f9;fill-opacity:1;stroke:#f9f9f9;stroke-width:0.62161565"
               id="text1102"
               transform="matrix(0.2926613,-0.07841835,0.07841835,0.2926613,-19.736601,203.89239)">
              <path
                 d="m -10.998809,299.15324 c 0.176815,0 0.319627,0.0544 0.428437,0.16321 0.108809,0.10881 0.163214,0.25163 0.163214,0.42844 0,0.17001 -0.0578,0.31283 -0.173415,0.42844 -0.11561,0.11561 -0.255022,0.17341 -0.418236,0.17341 -0.156413,0 -0.295825,-0.0612 -0.418236,-0.18361 -0.12241,-0.12241 -0.183615,-0.26183 -0.183615,-0.41824 0,-0.16321 0.05781,-0.30262 0.173414,-0.41823 0.11561,-0.11561 0.258422,-0.17342 0.428437,-0.17342 z m 0.764491,2.62531 -0.897677,3.35609 c -0.149613,0.55085 -0.224419,0.99288 -0.224419,1.32611 0,0.21762 0.0374,0.39444 0.112209,0.53045 0.07481,0.13601 0.173415,0.20402 0.295826,0.20402 0.210818,0 1.969559,-1.42931 2.4319982,-1.93256 l 0.1632139,0.14281 -0.1020087,0.11221 c -0.3876334,0.45564 -2.0953694,1.94276 -2.2789854,2.10597 -0.183616,0.15641 -0.353631,0.23462 -0.510044,0.23462 -0.210818,0 -0.391033,-0.10541 -0.540646,-0.31622 -0.142812,-0.21762 -0.214218,-0.48624 -0.214218,-0.80587 0,-0.20402 0.0408,-0.52705 0.12241,-0.96909 l 0.642655,-3.5703 z"
                 style="font-style:normal;font-variant:normal;font-weight:normal;font-stretch:normal;font-size:13.2611351px;font-family:'.Savoye LET CC.';-inkscape-font-specification:'.Savoye LET CC., Normal';font-variant-ligatures:normal;font-variant-caps:normal;font-variant-numeric:normal;font-feature-settings:normal;text-align:start;writing-mode:lr-tb;text-anchor:start;fill:#f9f9f9;stroke:#f9f9f9;stroke-width:0.62161565"
                 id="path1104"
                 inkscape:connector-curvature="0"
                 sodipodi:nodetypes="scscscscsccscsccccscsccc" />
              <path
                 d="m -9.1680082,307.84807 1.0812925,-5.65128 0.969083,-0.41824 -0.8772751,3.74372 c 0.5644483,-1.1901 1.1254964,-2.09458 1.6831441,-2.71343 0.5576477,-0.61885 1.0914934,-0.92828 1.601537,-0.92828 0.2516215,0 0.455639,0.085 0.6120524,0.25502 0.1564134,0.16321 0.2346201,0.38423 0.2346201,0.66306 0,0.15641 -0.037403,0.37743 -0.1122096,0.66306 l -0.1020087,0.42843 -0.3060262,1.24451 -0.1020087,0.39783 c -0.1020087,0.40804 -0.1530131,0.72087 -0.1530131,0.93848 0,0.21762 0.037403,0.39444 0.1122096,0.53045 0.074806,0.12921 0.1734148,0.19382 0.2958253,0.19382 0.210818,0 1.5918103,-1.27377 2.0542499,-1.77701 l 0.163214,0.14281 -0.1020087,0.11221 c -0.3876332,0.45564 -1.7176212,1.78721 -1.9012369,1.95042 -0.1836157,0.15641 -0.3536303,0.23462 -0.5100436,0.23462 -0.2108181,0 -0.3910335,-0.10541 -0.5406463,-0.31622 -0.1428123,-0.21762 -0.2142184,-0.48624 -0.2142184,-0.80587 0,-0.21762 0.040803,-0.54065 0.1224105,-0.96909 l 0.3978341,-2.16258 c 0.054405,-0.34003 0.081607,-0.57805 0.081607,-0.71406 0,-0.14281 -0.037403,-0.25162 -0.1122096,-0.32643 -0.074806,-0.0748 -0.1768151,-0.11221 -0.3060262,-0.11221 -0.4692402,0 -1.0472897,0.50324 -1.7341485,1.50973 -0.3332285,0.48284 -0.6086521,0.96228 -0.8262707,1.43832 -0.2176186,0.46924 -0.4624396,1.1221 -0.7344629,1.95857 l -0.091808,0.27542 z"
                 style="font-style:normal;font-variant:normal;font-weight:normal;font-stretch:normal;font-size:13.2611351px;font-family:'.Savoye LET CC.';-inkscape-font-specification:'.Savoye LET CC., Normal';font-variant-ligatures:normal;font-variant-caps:normal;font-variant-numeric:normal;font-feature-settings:normal;text-align:start;writing-mode:lr-tb;text-anchor:start;fill:#f9f9f9;stroke:#f9f9f9;stroke-width:0.62161565"
                 id="path1106"
                 inkscape:connector-curvature="0"
                 sodipodi:nodetypes="ccccsscsccccscsccccscsccsssccccc" />
              <path
                 d="m 3.0891102,304.90492 c -0.4148356,0.58485 -2.10825918,2.3243 -2.50269293,2.59632 -0.38763318,0.26523 -0.81947014,0.39784 -1.29551089,0.39784 -0.52364488,0 -0.95208148,-0.18362 -1.28530998,-0.55085 -0.326428,-0.36723 -0.489642,-0.84327 -0.489642,-1.42812 0,-0.61205 0.1598137,-1.23431 0.4794411,-1.86676 0.3196273,-0.63245 0.7276623,-1.1561 1.22410476,-1.57094 0.50324308,-0.41483 0.98608441,-0.62225 1.44852399,-0.62225 0.31282677,0 0.56444835,0.0884 0.75486465,0.26522 0.1904163,0.17001 0.2856244,0.40123 0.2856244,0.69366 0,0.26523 -0.1020087,0.52025 -0.3060262,0.76507 -0.1972169,0.23802 -0.4114352,0.35703 -0.64265499,0.35703 -0.10200873,0 -0.19381659,-0.0408 -0.27542358,-0.12241 0.44203785,-0.19722 0.66305677,-0.56445 0.66305677,-1.1017 0,-0.19041 -0.051004,-0.33662 -0.15301311,-0.43863 -0.0952081,-0.10881 -0.22441921,-0.16322 -0.38763318,-0.16322 -0.25162153,0 -0.50664336,0.10201 -0.76506548,0.30603 -0.25162154,0.20401 -0.48964192,0.48964 -0.71406113,0.85687 -0.2244192,0.36043 -0.4012343,0.74807 -0.5304454,1.1629 -0.1224105,0.40803 -0.1836157,0.82287 -0.1836157,1.24451 0,0.50324 0.1190102,0.91127 0.3570305,1.2241 0.2380204,0.31283 0.55084719,0.46924 0.93848037,0.46924 0.33322853,0 0.65625618,-0.10541 0.96908295,-0.31623 0.31282679,-0.21081 1.92804368,-1.84485 2.26807278,-2.28009 z"
                 style="font-style:normal;font-variant:normal;font-weight:normal;font-stretch:normal;font-size:13.2611351px;font-family:'.Savoye LET CC.';-inkscape-font-specification:'.Savoye LET CC., Normal';font-variant-ligatures:normal;font-variant-caps:normal;font-variant-numeric:normal;font-feature-settings:normal;text-align:start;writing-mode:lr-tb;text-anchor:start;fill:#f9f9f9;stroke:#f9f9f9;stroke-width:0.62161565"
                 id="path1108"
                 inkscape:connector-curvature="0"
                 sodipodi:nodetypes="ccscsscscscscscscccsssccc" />
              <path
                 d="m 8.2680739,301.71735 -0.9588821,3.73352 q -0.1530131,0.61205 -0.1530131,0.95888 0,0.30603 0.1326114,0.53044 0.1326113,0.22442 0.3264279,0.22442 0.2958253,0 0.9792838,-0.72426 l 0.1428123,0.14281 -0.1122097,0.13262 q -0.5406462,0.62225 -0.8364716,0.87727 -0.2856244,0.24482 -0.4998427,0.24482 -0.326428,0 -0.5712489,-0.33663 -0.2346201,-0.34683 -0.2346201,-0.79567 0,-0.32642 0.2448209,-1.47912 l 0.081607,-0.38764 q -0.3774323,0.87728 -1.0098864,1.68315 -1.0608908,1.34651 -2.0299738,1.34651 -0.5814497,0 -0.9180786,-0.41823 -0.3366288,-0.41824 -0.3366288,-1.1221 0,-0.95888 0.5406463,-2.00957 0.5508472,-1.05069 1.3567161,-1.72395 0.8160699,-0.68346 1.5811354,-0.68346 0.805869,0 1.203703,0.59165 l 0.1122096,-0.38763 z m -1.1731004,1.30571 q -0.1224105,-0.38763 -0.4182358,-0.60185 -0.2856245,-0.22442 -0.6630568,-0.22442 -0.4488384,0 -0.9486812,0.41823 -0.4998428,0.40804 -0.9180786,1.1425 -0.3264279,0.58145 -0.5508471,1.28531 -0.2142184,0.70386 -0.2142184,1.1629 0,0.52025 0.1938166,0.81607 0.2040175,0.29583 0.5712489,0.29583 0.4692402,0 0.9792839,-0.43864 0.5100436,-0.43864 1.0098864,-1.25471 0.3060262,-0.46924 0.479441,-0.93848 0.1734149,-0.46924 0.3876332,-1.30571 z"
                 style="font-style:normal;font-variant:normal;font-weight:normal;font-stretch:normal;font-size:13.2611351px;font-family:'.Savoye LET CC.';-inkscape-font-specification:'.Savoye LET CC., Normal';font-variant-ligatures:normal;font-variant-caps:normal;font-variant-numeric:normal;font-feature-settings:normal;text-align:start;writing-mode:lr-tb;text-anchor:start;fill:#f9f9f9;stroke:#f9f9f9;stroke-width:0.62161565"
                 id="path1110"
                 inkscape:connector-curvature="0" />
            </g>
          </g>
        </g>
        <g
           id="text1087"
           style="font-style:normal;font-weight:normal;font-size:4.97015858px;line-height:1.25;font-family:sans-serif;letter-spacing:0px;word-spacing:0px;fill:#e3010f;fill-opacity:1;stroke:#e3010f;stroke-width:0.32311329;stroke-miterlimit:4;stroke-dasharray:none;stroke-opacity:1"
           aria-label="il Patronato della Cgil">
          <path
             id="path1207"
             style="font-style:normal;font-variant:normal;font-weight:normal;font-stretch:normal;font-size:4.97015858px;font-family:'.Savoye LET CC.';-inkscape-font-specification:'.Savoye LET CC., Normal';font-variant-ligatures:normal;font-variant-caps:normal;font-variant-numeric:normal;font-feature-settings:normal;text-align:start;writing-mode:lr-tb;text-anchor:start;fill:#e3010f;fill-opacity:1;stroke:#e3010f;stroke-width:0.32311329;stroke-miterlimit:4;stroke-dasharray:none;stroke-opacity:1"
             d="m 89.046685,286.38073 q 0.0994,0 0.160574,0.0612 0.06117,0.0612 0.06117,0.16058 0,0.0956 -0.065,0.16057 -0.06499,0.065 -0.156751,0.065 -0.08793,0 -0.156751,-0.0688 -0.06882,-0.0688 -0.06882,-0.15675 0,-0.0918 0.06499,-0.15675 0.06499,-0.065 0.160574,-0.065 z m -0.110873,1.4987 -0.336441,1.25783 q -0.08411,0.30968 -0.08411,0.49701 0,0.12235 0.04206,0.19881 0.04206,0.0765 0.110872,0.0765 0.118519,0 0.378497,-0.28291 l 0.06117,0.0535 -0.03823,0.0421 q -0.217922,0.25615 -0.321149,0.34791 -0.103226,0.0879 -0.191159,0.0879 -0.11852,0 -0.20263,-0.11852 -0.08029,-0.12234 -0.08029,-0.30203 0,-0.1147 0.04588,-0.3632 l 0.240862,-1.33812 z"
             inkscape:connector-curvature="0" />
          <path
             id="path1209"
             style="font-style:normal;font-variant:normal;font-weight:normal;font-stretch:normal;font-size:4.97015858px;font-family:'.Savoye LET CC.';-inkscape-font-specification:'.Savoye LET CC., Normal';font-variant-ligatures:normal;font-variant-caps:normal;font-variant-numeric:normal;font-feature-settings:normal;text-align:start;writing-mode:lr-tb;text-anchor:start;fill:#e3010f;fill-opacity:1;stroke:#e3010f;stroke-width:0.32311329;stroke-miterlimit:4;stroke-dasharray:none;stroke-opacity:1"
             d="m 90.730924,284.72911 -1.005502,4.40815 -0.03441,0.1491 q -0.0497,0.21028 -0.0497,0.35556 0,0.11852 0.04206,0.19498 0.04588,0.0726 0.110873,0.0726 0.118519,0 0.378497,-0.28291 l 0.06117,0.0535 -0.03823,0.0421 q -0.217923,0.25615 -0.321149,0.34791 -0.103226,0.0879 -0.19116,0.0879 -0.114696,0 -0.202629,-0.12616 -0.08411,-0.12999 -0.08411,-0.29439 0,-0.1147 0.0497,-0.3632 l 0.883159,-4.45021 z"
             inkscape:connector-curvature="0" />
          <path
             id="path1211"
             style="font-style:normal;font-variant:normal;font-weight:normal;font-stretch:normal;font-size:4.97015858px;font-family:'.Savoye LET CC.';-inkscape-font-specification:'.Savoye LET CC., Normal';font-variant-ligatures:normal;font-variant-caps:normal;font-variant-numeric:normal;font-feature-settings:normal;text-align:start;writing-mode:lr-tb;text-anchor:start;fill:#e3010f;fill-opacity:1;stroke:#e3010f;stroke-width:0.32311329;stroke-miterlimit:4;stroke-dasharray:none;stroke-opacity:1"
             d="m 92.145507,290.116 0.4779,-2.20599 q 0.122342,-0.56201 0.194983,-1.1699 0.07646,-0.61171 0.07646,-1.12784 0,-0.11852 -0.0038,-0.21028 l 0.420552,-0.19116 v 0.10705 q 0,0.25233 -0.04588,0.81434 -0.04588,0.56201 -0.09558,0.86405 0.233215,-0.54672 0.581127,-1.01315 0.347911,-0.47025 0.711115,-0.7417 0.367027,-0.27145 0.665236,-0.27145 0.29821,0 0.4779,0.24086 0.183514,0.23704 0.183514,0.63848 0,0.50466 -0.217923,1.01315 -0.217922,0.50848 -0.596419,0.93668 -0.374673,0.4282 -0.825811,0.6767 -0.447314,0.24469 -0.886982,0.24469 -0.0994,0 -0.233215,-0.0268 l 0.20263,-0.27145 q 0.187336,0.0612 0.382319,0.0612 0.317326,0 0.634651,-0.21027 0.321149,-0.2141 0.57348,-0.60025 0.233215,-0.35555 0.397613,-0.88316 0.164398,-0.53142 0.164398,-0.91756 0,-0.32115 -0.110873,-0.50084 -0.10705,-0.17969 -0.302033,-0.17969 -0.27527,0 -0.634651,0.31732 -0.359381,0.3135 -0.703469,0.85258 -0.248508,0.38232 -0.416728,0.82581 -0.164398,0.44349 -0.294387,1.02844 l -0.412905,1.90013 z"
             inkscape:connector-curvature="0" />
          <path
             id="path1213"
             style="font-style:normal;font-variant:normal;font-weight:normal;font-stretch:normal;font-size:4.97015858px;font-family:'.Savoye LET CC.';-inkscape-font-specification:'.Savoye LET CC., Normal';font-variant-ligatures:normal;font-variant-caps:normal;font-variant-numeric:normal;font-feature-settings:normal;text-align:start;writing-mode:lr-tb;text-anchor:start;fill:#e3010f;fill-opacity:1;stroke:#e3010f;stroke-width:0.32311329;stroke-miterlimit:4;stroke-dasharray:none;stroke-opacity:1"
             d="m 97.666207,287.85649 -0.359381,1.39929 q -0.05735,0.22939 -0.05735,0.35938 0,0.11469 0.0497,0.1988 0.0497,0.0841 0.122343,0.0841 0.110873,0 0.367027,-0.27144 l 0.05352,0.0535 -0.04206,0.0497 q -0.202629,0.23322 -0.313502,0.3288 -0.107049,0.0918 -0.187337,0.0918 -0.122342,0 -0.214099,-0.12617 -0.08793,-0.12999 -0.08793,-0.29821 0,-0.12234 0.09176,-0.55436 l 0.03059,-0.14528 q -0.141458,0.32879 -0.378497,0.63082 -0.397612,0.50467 -0.760816,0.50467 -0.217923,0 -0.344088,-0.15676 -0.126166,-0.15675 -0.126166,-0.42055 0,-0.35938 0.20263,-0.75317 0.206453,-0.39379 0.508485,-0.64612 0.305856,-0.25615 0.592596,-0.25615 0.302033,0 0.451138,0.22174 l 0.04206,-0.14528 z m -0.439668,0.48937 q -0.04588,-0.14529 -0.156752,-0.22557 -0.107049,-0.0841 -0.248507,-0.0841 -0.168221,0 -0.355558,0.15675 -0.187337,0.15293 -0.344088,0.4282 -0.122342,0.21792 -0.206453,0.48172 -0.08029,0.2638 -0.08029,0.43584 0,0.19499 0.07264,0.30586 0.07646,0.11087 0.214099,0.11087 0.175867,0 0.367027,-0.16439 0.19116,-0.1644 0.378497,-0.47026 0.114696,-0.17587 0.17969,-0.35173 0.06499,-0.17587 0.145282,-0.48937 z"
             inkscape:connector-curvature="0" />
          <path
             id="path1215"
             style="font-style:normal;font-variant:normal;font-weight:normal;font-stretch:normal;font-size:4.97015858px;font-family:'.Savoye LET CC.';-inkscape-font-specification:'.Savoye LET CC., Normal';font-variant-ligatures:normal;font-variant-caps:normal;font-variant-numeric:normal;font-feature-settings:normal;text-align:start;writing-mode:lr-tb;text-anchor:start;fill:#e3010f;fill-opacity:1;stroke:#e3010f;stroke-width:0.32311329;stroke-miterlimit:4;stroke-dasharray:none;stroke-opacity:1"
             d="m 98.783477,288.07441 -0.290563,1.27312 q -0.04588,0.21028 -0.04588,0.29821 0,0.13764 0.06499,0.22175 0.06499,0.0841 0.172044,0.0841 0.103226,0 0.187336,-0.0573 0.08793,-0.0612 0.263801,-0.24851 l 0.04588,-0.0459 0.05735,0.0573 q -0.225568,0.27527 -0.378496,0.38997 -0.149105,0.11087 -0.294387,0.11087 -0.183513,0 -0.294386,-0.11852 -0.107049,-0.12234 -0.107049,-0.31732 0,-0.14528 0.05735,-0.42055 l 0.248508,-1.22725 h -0.367028 l 0.02676,-0.12999 h 0.367027 l 0.214099,-1.03226 0.367027,-0.14528 -0.267624,1.17754 h 0.619358 l -0.02676,0.12999 z"
             inkscape:connector-curvature="0" />
          <path
             id="path1217"
             style="font-style:normal;font-variant:normal;font-weight:normal;font-stretch:normal;font-size:4.97015858px;font-family:'.Savoye LET CC.';-inkscape-font-specification:'.Savoye LET CC., Normal';font-variant-ligatures:normal;font-variant-caps:normal;font-variant-numeric:normal;font-feature-settings:normal;text-align:start;writing-mode:lr-tb;text-anchor:start;fill:#e3010f;fill-opacity:1;stroke:#e3010f;stroke-width:0.32311329;stroke-miterlimit:4;stroke-dasharray:none;stroke-opacity:1"
             d="m 99.46081,289.03021 q 0.328795,-0.39761 0.439668,-0.7417 -0.309679,-0.17205 -0.309679,-0.49319 0,-0.15293 0.07264,-0.24851 0.07264,-0.0956 0.183513,-0.0956 0.114696,0 0.187338,0.10705 0.0726,0.10322 0.0726,0.27144 0,0.11852 -0.0421,0.26381 0.10322,0.0268 0.18733,0.0268 0.23704,0 0.38997,-0.13764 h 0.18351 l -0.0268,0.0535 q -0.27527,0.50466 -0.45496,0.99403 -0.17587,0.48555 -0.17587,0.72641 0,0.0879 0.0459,0.1491 0.0459,0.0574 0.11087,0.0574 0.15675,0 0.50467,-0.33262 l 0.0612,0.0688 q -0.10705,0.11852 -0.33262,0.29438 -0.20263,0.16058 -0.3785,0.16058 -0.1491,0 -0.237038,-0.0994 -0.08411,-0.0994 -0.08411,-0.27145 0,-0.28674 0.221748,-0.72641 0.0803,-0.1644 0.20645,-0.37467 0.12617,-0.21028 0.31733,-0.50084 l 0.0382,-0.0535 q -0.12617,0.1147 -0.24469,0.1644 -0.11469,0.0459 -0.2638,0.0459 -0.0688,0 -0.14528,-0.0191 -0.122342,0.37468 -0.458783,0.77229 z m 0.523778,-0.97109 q 0.01529,-0.0956 0.01529,-0.16058 0,-0.13381 -0.04588,-0.21027 -0.04206,-0.0765 -0.110873,-0.0765 -0.03823,0 -0.06882,0.0382 -0.02676,0.0344 -0.02676,0.0879 0,0.17969 0.237038,0.32115 z"
             inkscape:connector-curvature="0" />
          <path
             id="path1219"
             style="font-style:normal;font-variant:normal;font-weight:normal;font-stretch:normal;font-size:4.97015858px;font-family:'.Savoye LET CC.';-inkscape-font-specification:'.Savoye LET CC., Normal';font-variant-ligatures:normal;font-variant-caps:normal;font-variant-numeric:normal;font-feature-settings:normal;text-align:start;writing-mode:lr-tb;text-anchor:start;fill:#e3010f;fill-opacity:1;stroke:#e3010f;stroke-width:0.32311329;stroke-miterlimit:4;stroke-dasharray:none;stroke-opacity:1"
             d="m 101.14989,289.38194 q 0,-0.34408 0.18351,-0.68435 0.18734,-0.34409 0.48172,-0.55819 0.29439,-0.2141 0.60025,-0.2141 0.32114,0 0.51613,0.2141 0.1988,0.21028 0.1988,0.54672 0,0.36703 -0.18351,0.71112 -0.17969,0.34408 -0.4779,0.56583 -0.29439,0.21792 -0.59642,0.21792 -0.32497,0 -0.52378,-0.21792 -0.1988,-0.22175 -0.1988,-0.58113 z m 1.63633,-0.8411 q 0,-0.22939 -0.1147,-0.3785 -0.11087,-0.1491 -0.28674,-0.1491 -0.16057,0 -0.30968,0.10322 -0.14528,0.10323 -0.26762,0.30204 -0.13764,0.22939 -0.22939,0.53524 -0.0879,0.30586 -0.0879,0.5429 0,0.28292 0.11087,0.43584 0.11088,0.15293 0.31733,0.15293 0.33262,0 0.58495,-0.46261 0.12999,-0.23703 0.20645,-0.53142 0.0765,-0.29439 0.0765,-0.55054 z"
             inkscape:connector-curvature="0" />
          <path
             id="path1221"
             style="font-style:normal;font-variant:normal;font-weight:normal;font-stretch:normal;font-size:4.97015858px;font-family:'.Savoye LET CC.';-inkscape-font-specification:'.Savoye LET CC., Normal';font-variant-ligatures:normal;font-variant-caps:normal;font-variant-numeric:normal;font-feature-settings:normal;text-align:start;writing-mode:lr-tb;text-anchor:start;fill:#e3010f;fill-opacity:1;stroke:#e3010f;stroke-width:0.32311329;stroke-miterlimit:4;stroke-dasharray:none;stroke-opacity:1"
             d="m 103.47905,290.15423 0.40526,-2.11805 0.36321,-0.15675 -0.3288,1.40311 q 0.31733,-0.66906 0.63083,-1.01697 0.3135,-0.34791 0.60024,-0.34791 0.14146,0 0.22939,0.0956 0.0879,0.0917 0.0879,0.24851 0,0.0879 -0.0421,0.2485 l -0.0382,0.16058 -0.1147,0.46643 -0.0382,0.1491 q -0.0573,0.2294 -0.0573,0.35174 0,0.12234 0.0421,0.1988 0.0421,0.0726 0.11087,0.0726 0.11852,0 0.3785,-0.28291 l 0.0612,0.0535 -0.0382,0.0421 q -0.21793,0.25615 -0.32115,0.34791 -0.10323,0.0879 -0.19116,0.0879 -0.11852,0 -0.20263,-0.11852 -0.0803,-0.12234 -0.0803,-0.30203 0,-0.12234 0.0459,-0.3632 l 0.1491,-0.81052 q 0.0306,-0.19116 0.0306,-0.26763 0,-0.0803 -0.0421,-0.12234 -0.0421,-0.0421 -0.11469,-0.0421 -0.2638,0 -0.64995,0.56583 -0.18733,0.27145 -0.30967,0.53907 -0.12235,0.2638 -0.27527,0.73406 l -0.0344,0.10322 z"
             inkscape:connector-curvature="0" />
          <path
             id="path1223"
             style="font-style:normal;font-variant:normal;font-weight:normal;font-stretch:normal;font-size:4.97015858px;font-family:'.Savoye LET CC.';-inkscape-font-specification:'.Savoye LET CC., Normal';font-variant-ligatures:normal;font-variant-caps:normal;font-variant-numeric:normal;font-feature-settings:normal;text-align:start;writing-mode:lr-tb;text-anchor:start;fill:#e3010f;fill-opacity:1;stroke:#e3010f;stroke-width:0.32311329;stroke-miterlimit:4;stroke-dasharray:none;stroke-opacity:1"
             d="m 108.14043,287.85649 -0.35938,1.39929 q -0.0573,0.22939 -0.0573,0.35938 0,0.11469 0.0497,0.1988 0.0497,0.0841 0.12234,0.0841 0.11088,0 0.36703,-0.27144 l 0.0535,0.0535 -0.042,0.0497 q -0.20263,0.23322 -0.3135,0.3288 -0.10705,0.0918 -0.18734,0.0918 -0.12234,0 -0.2141,-0.12617 -0.0879,-0.12999 -0.0879,-0.29821 0,-0.12234 0.0918,-0.55436 l 0.0306,-0.14528 q -0.14146,0.32879 -0.3785,0.63082 -0.39761,0.50467 -0.76081,0.50467 -0.21793,0 -0.34409,-0.15676 -0.12617,-0.15675 -0.12617,-0.42055 0,-0.35938 0.20263,-0.75317 0.20646,-0.39379 0.50849,-0.64612 0.30585,-0.25615 0.59259,-0.25615 0.30204,0 0.45114,0.22174 l 0.0421,-0.14528 z m -0.43967,0.48937 q -0.0459,-0.14529 -0.15675,-0.22557 -0.10705,-0.0841 -0.24851,-0.0841 -0.16822,0 -0.35556,0.15675 -0.18733,0.15293 -0.34408,0.4282 -0.12235,0.21792 -0.20646,0.48172 -0.0803,0.2638 -0.0803,0.43584 0,0.19499 0.0726,0.30586 0.0765,0.11087 0.2141,0.11087 0.17586,0 0.36702,-0.16439 0.19116,-0.1644 0.3785,-0.47026 0.1147,-0.17587 0.17969,-0.35173 0.065,-0.17587 0.14528,-0.48937 z"
             inkscape:connector-curvature="0" />
          <path
             id="path1225"
             style="font-style:normal;font-variant:normal;font-weight:normal;font-stretch:normal;font-size:4.97015858px;font-family:'.Savoye LET CC.';-inkscape-font-specification:'.Savoye LET CC., Normal';font-variant-ligatures:normal;font-variant-caps:normal;font-variant-numeric:normal;font-feature-settings:normal;text-align:start;writing-mode:lr-tb;text-anchor:start;fill:#e3010f;fill-opacity:1;stroke:#e3010f;stroke-width:0.32311329;stroke-miterlimit:4;stroke-dasharray:none;stroke-opacity:1"
             d="m 109.2577,288.07441 -0.29057,1.27312 q -0.0459,0.21028 -0.0459,0.29821 0,0.13764 0.065,0.22175 0.065,0.0841 0.17204,0.0841 0.10323,0 0.18734,-0.0573 0.0879,-0.0612 0.2638,-0.24851 l 0.0459,-0.0459 0.0573,0.0573 q -0.22557,0.27527 -0.3785,0.38997 -0.1491,0.11087 -0.29438,0.11087 -0.18352,0 -0.29439,-0.11852 -0.10705,-0.12234 -0.10705,-0.31732 0,-0.14528 0.0573,-0.42055 l 0.24851,-1.22725 h -0.36703 l 0.0268,-0.12999 h 0.36703 l 0.2141,-1.03226 0.36702,-0.14528 -0.26762,1.17754 h 0.61936 l -0.0268,0.12999 z"
             inkscape:connector-curvature="0" />
          <path
             id="path1227"
             style="font-style:normal;font-variant:normal;font-weight:normal;font-stretch:normal;font-size:4.97015858px;font-family:'.Savoye LET CC.';-inkscape-font-specification:'.Savoye LET CC., Normal';font-variant-ligatures:normal;font-variant-caps:normal;font-variant-numeric:normal;font-feature-settings:normal;text-align:start;writing-mode:lr-tb;text-anchor:start;fill:#e3010f;fill-opacity:1;stroke:#e3010f;stroke-width:0.32311329;stroke-miterlimit:4;stroke-dasharray:none;stroke-opacity:1"
             d="m 109.93503,289.38194 q 0,-0.34408 0.18351,-0.68435 0.18734,-0.34409 0.48173,-0.55819 0.29438,-0.2141 0.60024,-0.2141 0.32115,0 0.51613,0.2141 0.19881,0.21028 0.19881,0.54672 0,0.36703 -0.18352,0.71112 -0.17969,0.34408 -0.4779,0.56583 -0.29438,0.21792 -0.59641,0.21792 -0.32498,0 -0.52378,-0.21792 -0.19881,-0.22175 -0.19881,-0.58113 z m 1.63633,-0.8411 q 0,-0.22939 -0.1147,-0.3785 -0.11087,-0.1491 -0.28674,-0.1491 -0.16057,0 -0.30967,0.10322 -0.14529,0.10323 -0.26763,0.30204 -0.13763,0.22939 -0.22939,0.53524 -0.0879,0.30586 -0.0879,0.5429 0,0.28292 0.11087,0.43584 0.11087,0.15293 0.31732,0.15293 0.33262,0 0.58495,-0.46261 0.12999,-0.23703 0.20646,-0.53142 0.0765,-0.29439 0.0765,-0.55054 z"
             inkscape:connector-curvature="0" />
          <path
             id="path1229"
             style="font-style:normal;font-variant:normal;font-weight:normal;font-stretch:normal;font-size:4.97015858px;font-family:'.Savoye LET CC.';-inkscape-font-specification:'.Savoye LET CC., Normal';font-variant-ligatures:normal;font-variant-caps:normal;font-variant-numeric:normal;font-feature-settings:normal;text-align:start;writing-mode:lr-tb;text-anchor:start;fill:#e3010f;fill-opacity:1;stroke:#e3010f;stroke-width:0.32311329;stroke-miterlimit:4;stroke-dasharray:none;stroke-opacity:1"
             d="m 116.36063,284.72911 -1.01314,4.40815 q -0.0803,0.35173 -0.0803,0.48937 0,0.12234 0.0421,0.1988 0.0459,0.0765 0.12235,0.0765 0.0994,0 0.24086,-0.14911 l 0.11087,-0.11087 q 0.004,-0.004 0.008,-0.008 0.004,-0.004 0.0115,-0.008 l 0.0573,0.0535 -0.0306,0.0344 q -0.14528,0.16058 -0.14911,0.1644 l -0.12616,0.12616 q -0.0956,0.0956 -0.14146,0.11852 -0.0421,0.0268 -0.0956,0.0268 -0.12617,0 -0.21028,-0.12999 -0.0841,-0.12999 -0.0841,-0.29821 0,-0.0994 0.0535,-0.36321 l 0.042,-0.21792 q -0.0994,0.24086 -0.3135,0.52378 -0.38614,0.49702 -0.74935,0.49702 -0.21792,0 -0.34408,-0.15676 -0.12617,-0.16057 -0.12617,-0.43202 0,-0.37849 0.19881,-0.76464 0.1988,-0.38996 0.50466,-0.64229 0.30968,-0.25234 0.61553,-0.25234 0.22557,0 0.42056,0.13382 l 0.62318,-3.12356 z m -1.07049,3.5097 q -0.0344,-0.10323 -0.14146,-0.1644 -0.10705,-0.065 -0.22939,-0.065 -0.17969,0 -0.37085,0.16058 -0.18734,0.16057 -0.35556,0.45496 -0.12234,0.21792 -0.20263,0.4779 -0.0765,0.25615 -0.0765,0.46643 0,0.18351 0.0765,0.29439 0.0803,0.11087 0.21792,0.11087 0.16058,0 0.34409,-0.1644 0.18734,-0.1644 0.37467,-0.47408 0.12617,-0.21027 0.19881,-0.43584 0.0879,-0.29056 0.12617,-0.46643 z"
             inkscape:connector-curvature="0" />
          <path
             id="path1231"
             style="font-style:normal;font-variant:normal;font-weight:normal;font-stretch:normal;font-size:4.97015858px;font-family:'.Savoye LET CC.';-inkscape-font-specification:'.Savoye LET CC., Normal';font-variant-ligatures:normal;font-variant-caps:normal;font-variant-numeric:normal;font-feature-settings:normal;text-align:start;writing-mode:lr-tb;text-anchor:start;fill:#e3010f;fill-opacity:1;stroke:#e3010f;stroke-width:0.32311329;stroke-miterlimit:4;stroke-dasharray:none;stroke-opacity:1"
             d="m 117.63376,289.5234 0.0688,0.0574 q -0.23704,0.3135 -0.46261,0.45496 -0.22557,0.13764 -0.48555,0.13764 -0.30968,0 -0.49701,-0.20646 -0.18734,-0.20645 -0.18734,-0.54671 0,-0.34409 0.17969,-0.69583 0.18351,-0.35555 0.45496,-0.58495 0.27527,-0.23321 0.54289,-0.23321 0.15676,0 0.25616,0.0918 0.10323,0.0917 0.10323,0.23703 0,0.29439 -0.32115,0.58878 -0.32115,0.29438 -0.87552,0.50084 -0.004,0.0306 -0.004,0.0688 0,0.2638 0.14528,0.43202 0.14528,0.1644 0.37468,0.1644 0.17969,0 0.34791,-0.11087 0.16822,-0.1147 0.35938,-0.35556 z m -1.22343,-0.29056 q 0.41291,-0.18352 0.63466,-0.40908 0.1491,-0.15293 0.24086,-0.3288 0.0918,-0.17587 0.0918,-0.31732 0,-0.17969 -0.16439,-0.17969 -0.24851,0 -0.50467,0.39378 -0.25233,0.38997 -0.29821,0.84111 z"
             inkscape:connector-curvature="0" />
          <path
             id="path1233"
             style="font-style:normal;font-variant:normal;font-weight:normal;font-stretch:normal;font-size:4.97015858px;font-family:'.Savoye LET CC.';-inkscape-font-specification:'.Savoye LET CC., Normal';font-variant-ligatures:normal;font-variant-caps:normal;font-variant-numeric:normal;font-feature-settings:normal;text-align:start;writing-mode:lr-tb;text-anchor:start;fill:#e3010f;fill-opacity:1;stroke:#e3010f;stroke-width:0.32311329;stroke-miterlimit:4;stroke-dasharray:none;stroke-opacity:1"
             d="m 119.3967,284.72911 -1.0055,4.40815 -0.0344,0.1491 q -0.0497,0.21028 -0.0497,0.35556 0,0.11852 0.0421,0.19498 0.0459,0.0726 0.11088,0.0726 0.11852,0 0.37849,-0.28291 l 0.0612,0.0535 -0.0382,0.0421 q -0.21792,0.25615 -0.32115,0.34791 -0.10322,0.0879 -0.19116,0.0879 -0.11469,0 -0.20263,-0.12616 -0.0841,-0.12999 -0.0841,-0.29439 0,-0.1147 0.0497,-0.3632 l 0.88315,-4.45021 z"
             inkscape:connector-curvature="0" />
          <path
             id="path1235"
             style="font-style:normal;font-variant:normal;font-weight:normal;font-stretch:normal;font-size:4.97015858px;font-family:'.Savoye LET CC.';-inkscape-font-specification:'.Savoye LET CC., Normal';font-variant-ligatures:normal;font-variant-caps:normal;font-variant-numeric:normal;font-feature-settings:normal;text-align:start;writing-mode:lr-tb;text-anchor:start;fill:#e3010f;fill-opacity:1;stroke:#e3010f;stroke-width:0.32311329;stroke-miterlimit:4;stroke-dasharray:none;stroke-opacity:1"
             d="m 120.52275,284.72911 -1.0055,4.40815 -0.0344,0.1491 q -0.0497,0.21028 -0.0497,0.35556 0,0.11852 0.0421,0.19498 0.0459,0.0726 0.11087,0.0726 0.11852,0 0.3785,-0.28291 l 0.0612,0.0535 -0.0382,0.0421 q -0.21793,0.25615 -0.32115,0.34791 -0.10323,0.0879 -0.19116,0.0879 -0.1147,0 -0.20263,-0.12616 -0.0841,-0.12999 -0.0841,-0.29439 0,-0.1147 0.0497,-0.3632 l 0.88316,-4.45021 z"
             inkscape:connector-curvature="0" />
          <path
             id="path1237"
             style="font-style:normal;font-variant:normal;font-weight:normal;font-stretch:normal;font-size:4.97015858px;font-family:'.Savoye LET CC.';-inkscape-font-specification:'.Savoye LET CC., Normal';font-variant-ligatures:normal;font-variant-caps:normal;font-variant-numeric:normal;font-feature-settings:normal;text-align:start;writing-mode:lr-tb;text-anchor:start;fill:#e3010f;fill-opacity:1;stroke:#e3010f;stroke-width:0.32311329;stroke-miterlimit:4;stroke-dasharray:none;stroke-opacity:1"
             d="m 122.37139,287.85649 -0.35938,1.39929 q -0.0573,0.22939 -0.0573,0.35938 0,0.11469 0.0497,0.1988 0.0497,0.0841 0.12235,0.0841 0.11087,0 0.36702,-0.27144 l 0.0535,0.0535 -0.0421,0.0497 q -0.20263,0.23322 -0.3135,0.3288 -0.10705,0.0918 -0.18734,0.0918 -0.12234,0 -0.2141,-0.12617 -0.0879,-0.12999 -0.0879,-0.29821 0,-0.12234 0.0918,-0.55436 l 0.0306,-0.14528 q -0.14146,0.32879 -0.37849,0.63082 -0.39762,0.50467 -0.76082,0.50467 -0.21792,0 -0.34409,-0.15676 -0.12616,-0.15675 -0.12616,-0.42055 0,-0.35938 0.20263,-0.75317 0.20645,-0.39379 0.50848,-0.64612 0.30586,-0.25615 0.5926,-0.25615 0.30203,0 0.45113,0.22174 l 0.0421,-0.14528 z m -0.43967,0.48937 q -0.0459,-0.14529 -0.15675,-0.22557 -0.10705,-0.0841 -0.24851,-0.0841 -0.16822,0 -0.35555,0.15675 -0.18734,0.15293 -0.34409,0.4282 -0.12234,0.21792 -0.20645,0.48172 -0.0803,0.2638 -0.0803,0.43584 0,0.19499 0.0726,0.30586 0.0765,0.11087 0.2141,0.11087 0.17587,0 0.36703,-0.16439 0.19116,-0.1644 0.37849,-0.47026 0.1147,-0.17587 0.17969,-0.35173 0.065,-0.17587 0.14528,-0.48937 z"
             inkscape:connector-curvature="0" />
          <path
             id="path1239"
             style="font-style:normal;font-variant:normal;font-weight:normal;font-stretch:normal;font-size:4.97015858px;font-family:'.Savoye LET CC.';-inkscape-font-specification:'.Savoye LET CC., Normal';font-variant-ligatures:normal;font-variant-caps:normal;font-variant-numeric:normal;font-feature-settings:normal;text-align:start;writing-mode:lr-tb;text-anchor:start;fill:#e3010f;fill-opacity:1;stroke:#e3010f;stroke-width:0.32311329;stroke-miterlimit:4;stroke-dasharray:none;stroke-opacity:1"
             d="m 126.42667,287.10714 -0.10705,-0.29056 q 0.35555,-0.10323 0.67288,-0.31733 0.31732,-0.2141 0.49702,-0.47408 0.18351,-0.25997 0.18351,-0.5123 0,-0.18734 -0.12234,-0.29439 -0.11852,-0.10705 -0.32115,-0.10705 -0.24086,0 -0.5276,0.12617 -0.28674,0.12616 -0.56966,0.35173 -0.27909,0.22557 -0.53525,0.54289 -0.27909,0.34792 -0.46643,0.72641 -0.18734,0.3785 -0.28292,0.77229 -0.0956,0.38996 -0.0956,0.81052 0,0.71493 0.3288,1.13549 0.3288,0.41672 0.89845,0.41672 0.36703,0 0.71112,-0.16439 0.34791,-0.1644 0.79522,-0.55054 l 0.0612,-0.0497 0.0459,0.0841 q -0.45496,0.45113 -0.91374,0.6767 -0.45879,0.22557 -0.92522,0.22557 -0.42055,0 -0.74934,-0.19881 -0.32498,-0.20263 -0.50467,-0.56201 -0.17586,-0.3632 -0.17586,-0.84875 0,-0.35173 0.10322,-0.73405 0.10323,-0.38232 0.30586,-0.77229 0.20645,-0.39379 0.48555,-0.76081 0.29438,-0.38997 0.65376,-0.69583 0.35938,-0.30967 0.71876,-0.4779 0.36321,-0.16822 0.64995,-0.16822 0.27144,0 0.43202,0.15676 0.1644,0.15292 0.1644,0.41672 0,0.29439 -0.19499,0.61554 -0.19498,0.31732 -0.51995,0.56966 -0.32497,0.2485 -0.69582,0.35173 z"
             inkscape:connector-curvature="0" />
          <path
             id="path1241"
             style="font-style:normal;font-variant:normal;font-weight:normal;font-stretch:normal;font-size:4.97015858px;font-family:'.Savoye LET CC.';-inkscape-font-specification:'.Savoye LET CC., Normal';font-variant-ligatures:normal;font-variant-caps:normal;font-variant-numeric:normal;font-feature-settings:normal;text-align:start;writing-mode:lr-tb;text-anchor:start;fill:#e3010f;fill-opacity:1;stroke:#e3010f;stroke-width:0.32311329;stroke-miterlimit:4;stroke-dasharray:none;stroke-opacity:1"
             d="m 130.02107,287.85649 -0.58495,2.32832 q -0.0879,0.37468 -0.15675,0.55055 -0.065,0.17586 -0.16057,0.32114 -0.17969,0.27527 -0.43967,0.42056 -0.25616,0.1491 -0.55437,0.1491 -0.27144,0 -0.4779,-0.15293 l 0.19499,-0.25233 q 0.24851,0.23704 0.49319,0.23704 0.15675,0 0.31733,-0.0994 0.16057,-0.0994 0.23703,-0.24469 0.0994,-0.17586 0.20646,-0.63847 l 0.29438,-1.26166 q -0.51231,0.9558 -1.03991,0.9558 -0.2141,0 -0.34791,-0.16057 -0.12999,-0.1644 -0.12999,-0.41673 0,-0.35938 0.20263,-0.74935 0.20263,-0.38996 0.50849,-0.64612 0.30968,-0.25998 0.60024,-0.25998 0.27145,0 0.45114,0.20263 l 0.0344,-0.13381 z m -0.4282,0.47407 q -0.1491,-0.28674 -0.39379,-0.28674 -0.25615,0 -0.50466,0.28292 -0.20263,0.23704 -0.34791,0.59642 -0.14146,0.35556 -0.14146,0.63847 0,0.19116 0.0803,0.30204 0.0841,0.10705 0.23321,0.10705 0.15293,0 0.33645,-0.16822 0.18733,-0.16823 0.37085,-0.47408 0.21027,-0.34791 0.32497,-0.82581 z"
             inkscape:connector-curvature="0" />
          <path
             id="path1243"
             style="font-style:normal;font-variant:normal;font-weight:normal;font-stretch:normal;font-size:4.97015858px;font-family:'.Savoye LET CC.';-inkscape-font-specification:'.Savoye LET CC., Normal';font-variant-ligatures:normal;font-variant-caps:normal;font-variant-numeric:normal;font-feature-settings:normal;text-align:start;writing-mode:lr-tb;text-anchor:start;fill:#e3010f;fill-opacity:1;stroke:#e3010f;stroke-width:0.32311329;stroke-miterlimit:4;stroke-dasharray:none;stroke-opacity:1"
             d="m 131.12801,286.38073 q 0.0994,0 0.16057,0.0612 0.0612,0.0612 0.0612,0.16058 0,0.0956 -0.065,0.16057 -0.065,0.065 -0.15675,0.065 -0.0879,0 -0.15675,-0.0688 -0.0688,-0.0688 -0.0688,-0.15675 0,-0.0918 0.065,-0.15675 0.065,-0.065 0.16058,-0.065 z m -0.11088,1.4987 -0.33644,1.25783 q -0.0841,0.30968 -0.0841,0.49701 0,0.12235 0.0421,0.19881 0.042,0.0765 0.11087,0.0765 0.11852,0 0.3785,-0.28291 l 0.0612,0.0535 -0.0382,0.0421 q -0.21793,0.25615 -0.32115,0.34791 -0.10323,0.0879 -0.19116,0.0879 -0.11852,0 -0.20263,-0.11852 -0.0803,-0.12234 -0.0803,-0.30203 0,-0.1147 0.0459,-0.3632 l 0.24086,-1.33812 z"
             inkscape:connector-curvature="0" />
          <path
             id="path1245"
             style="font-style:normal;font-variant:normal;font-weight:normal;font-stretch:normal;font-size:4.97015858px;font-family:'.Savoye LET CC.';-inkscape-font-specification:'.Savoye LET CC., Normal';font-variant-ligatures:normal;font-variant-caps:normal;font-variant-numeric:normal;font-feature-settings:normal;text-align:start;writing-mode:lr-tb;text-anchor:start;fill:#e3010f;fill-opacity:1;stroke:#e3010f;stroke-width:0.32311329;stroke-miterlimit:4;stroke-dasharray:none;stroke-opacity:1"
             d="m 132.81225,284.72911 -1.0055,4.40815 -0.0344,0.1491 q -0.0497,0.21028 -0.0497,0.35556 0,0.11852 0.0421,0.19498 0.0459,0.0726 0.11087,0.0726 0.11852,0 0.3785,-0.28291 l 0.0612,0.0535 -0.0382,0.0421 q -0.21792,0.25615 -0.32115,0.34791 -0.10323,0.0879 -0.19116,0.0879 -0.1147,0 -0.20263,-0.12616 -0.0841,-0.12999 -0.0841,-0.29439 0,-0.1147 0.0497,-0.3632 l 0.88316,-4.45021 z"
             inkscape:connector-curvature="0" />
        </g>
        <g
           id="text1091"
           style="font-style:normal;font-weight:normal;font-size:2.44778943px;line-height:1.25;font-family:sans-serif;letter-spacing:0px;word-spacing:0px;fill:#999999;fill-opacity:1;stroke:none;stroke-width:0.1147401"
           aria-label="Istituto Nazionale Confederale di Assistenza">
          <path
             id="path1248"
             style="font-style:normal;font-variant:normal;font-weight:100;font-stretch:normal;font-size:2.44778943px;font-family:'Apple Chancery';-inkscape-font-specification:'Apple Chancery, Thin';font-variant-ligatures:normal;font-variant-caps:normal;font-variant-numeric:normal;font-feature-settings:normal;text-align:start;writing-mode:lr-tb;text-anchor:start;fill:#999999;stroke-width:0.1147401"
             d="m 88.33513,293.47184 -0.194819,0.18645 q -0.02749,-0.0932 -0.02749,-0.18525 0,-0.30837 0.22948,-0.49482 0.229481,-0.18645 0.609557,-0.18645 h 0.09442 q -0.05378,0.2737 -0.06454,0.36812 l -0.06454,0.58446 -0.01554,0.13267 q -0.02032,0.16972 -0.0741,0.24501 -0.05259,0.0753 -0.203185,0.14701 l 0.346611,0.0179 -0.143426,0.13865 -0.582067,-0.0263 0.152987,-0.1482 0.130278,0.0143 q 0.145816,-0.092 0.179281,-0.37649 l 0.01315,-0.11594 0.09203,-0.83664 h -0.03705 q -0.497207,0 -0.497207,0.32868 0,0.10279 0.05618,0.20677 z"
             inkscape:connector-curvature="0" />
          <path
             id="path1250"
             style="font-style:normal;font-variant:normal;font-weight:100;font-stretch:normal;font-size:2.44778943px;font-family:'Apple Chancery';-inkscape-font-specification:'Apple Chancery, Thin';font-variant-ligatures:normal;font-variant-caps:normal;font-variant-numeric:normal;font-feature-settings:normal;text-align:start;writing-mode:lr-tb;text-anchor:start;fill:#999999;stroke-width:0.1147401"
             d="m 89.138311,294.36586 0.164939,-0.13506 q 0.09323,0.0992 0.234261,0.0992 0.17211,0 0.17211,-0.16613 0,-0.092 -0.157768,-0.25697 l -0.06813,-0.0705 q -0.149402,-0.15657 -0.149402,-0.25339 0,-0.13864 0.119521,-0.23306 0.120716,-0.0944 0.296412,-0.0944 0.09562,0 0.209162,0.0358 l -0.143425,0.13267 q -0.09084,-0.0681 -0.201991,-0.0681 -0.130277,0 -0.130277,0.10877 0,0.0777 0.14462,0.22828 l 0.0741,0.0789 q 0.164939,0.17211 0.164939,0.27729 0,0.15059 -0.144621,0.26653 -0.14462,0.11474 -0.333463,0.11474 -0.133864,0 -0.250994,-0.0645 z"
             inkscape:connector-curvature="0" />
          <path
             id="path1252"
             style="font-style:normal;font-variant:normal;font-weight:100;font-stretch:normal;font-size:2.44778943px;font-family:'Apple Chancery';-inkscape-font-specification:'Apple Chancery, Thin';font-variant-ligatures:normal;font-variant-caps:normal;font-variant-numeric:normal;font-feature-settings:normal;text-align:start;writing-mode:lr-tb;text-anchor:start;fill:#999999;stroke-width:0.1147401"
             d="m 90.459018,293.42523 -0.05976,0.52828 q -0.01554,0.14223 -0.01554,0.21036 0,0.13505 0.09203,0.13505 0.0992,0 0.205576,-0.16254 0.01793,0.0227 0.01793,0.0406 0,0.0669 -0.118326,0.16016 -0.117131,0.0932 -0.20199,0.0932 -0.16972,0 -0.16972,-0.21753 0,-0.0801 0.02032,-0.25936 l 0.05857,-0.52828 h -0.25219 l 0.13984,-0.13865 h 0.127887 l 0.0251,-0.21753 0.175696,-0.0586 -0.02988,0.27609 h 0.506769 l -0.139839,0.13865 z"
             inkscape:connector-curvature="0" />
          <path
             id="path1254"
             style="font-style:normal;font-variant:normal;font-weight:100;font-stretch:normal;font-size:2.44778943px;font-family:'Apple Chancery';-inkscape-font-specification:'Apple Chancery, Thin';font-variant-ligatures:normal;font-variant-caps:normal;font-variant-numeric:normal;font-feature-settings:normal;text-align:start;writing-mode:lr-tb;text-anchor:start;fill:#999999;stroke-width:0.1147401"
             d="m 91.52873,294.05152 q 0.03227,0.0191 0.03227,0.0371 0,0.043 -0.103983,0.16972 -0.13984,0.17211 -0.259361,0.17211 -0.08725,0 -0.08725,-0.11594 0,-0.049 0.03586,-0.30119 l 0.04661,-0.3251 0.01195,-0.0825 0.0096,-0.0657 q 0.006,-0.0418 0.006,-0.0705 0,-0.0598 -0.03347,-0.0598 -0.09323,0 -0.200795,0.20557 -0.02271,-0.0203 -0.02271,-0.0406 0,-0.0729 0.133864,-0.19602 0.135058,-0.1231 0.215137,-0.1231 0.08964,0 0.08964,0.1243 0,0.0239 -0.0096,0.098 l -0.01076,0.0801 q -0.0012,0.01 -0.01315,0.0968 l -0.049,0.34183 -0.01195,0.0765 q -0.01554,0.11355 -0.01554,0.15179 0,0.0514 0.02988,0.0514 0.100398,0 0.206771,-0.2247 z m -0.240237,-0.9502 0.100398,-0.2474 q 0.133863,-0.055 0.219918,-0.1518 0.01195,0.0167 0.01195,0.0347 0,0.16015 -0.332269,0.36453 z"
             inkscape:connector-curvature="0" />
          <path
             id="path1256"
             style="font-style:normal;font-variant:normal;font-weight:100;font-stretch:normal;font-size:2.44778943px;font-family:'Apple Chancery';-inkscape-font-specification:'Apple Chancery, Thin';font-variant-ligatures:normal;font-variant-caps:normal;font-variant-numeric:normal;font-feature-settings:normal;text-align:start;writing-mode:lr-tb;text-anchor:start;fill:#999999;stroke-width:0.1147401"
             d="m 92.051037,293.42523 -0.05976,0.52828 q -0.01554,0.14223 -0.01554,0.21036 0,0.13505 0.09203,0.13505 0.0992,0 0.205576,-0.16254 0.01793,0.0227 0.01793,0.0406 0,0.0669 -0.118326,0.16016 -0.11713,0.0932 -0.20199,0.0932 -0.16972,0 -0.16972,-0.21753 0,-0.0801 0.02032,-0.25936 l 0.05857,-0.52828 h -0.252189 l 0.139839,-0.13865 h 0.127888 l 0.0251,-0.21753 0.175696,-0.0586 -0.02988,0.27609 h 0.506769 l -0.13984,0.13865 z"
             inkscape:connector-curvature="0" />
          <path
             id="path1258"
             style="font-style:normal;font-variant:normal;font-weight:100;font-stretch:normal;font-size:2.44778943px;font-family:'Apple Chancery';-inkscape-font-specification:'Apple Chancery, Thin';font-variant-ligatures:normal;font-variant-caps:normal;font-variant-numeric:normal;font-feature-settings:normal;text-align:start;writing-mode:lr-tb;text-anchor:start;fill:#999999;stroke-width:0.1147401"
             d="m 93.406405,293.92961 q -0.136254,0.20916 -0.307169,0.35497 -0.170915,0.14582 -0.278484,0.14582 -0.118326,0 -0.118326,-0.15777 0,-0.0586 0.01554,-0.19243 l 0.04303,-0.39203 q 0.0012,-0.008 0.006,-0.0693 l 0.0072,-0.0777 q 0.0036,-0.0347 0.0036,-0.0621 0,-0.0693 -0.03944,-0.0693 -0.09084,0 -0.196014,0.20438 -0.02271,-0.0179 -0.02271,-0.0383 0,-0.0741 0.131473,-0.19721 0.132668,-0.1231 0.210357,-0.1231 0.0992,0 0.0992,0.13625 0,0.0323 -0.0048,0.0753 l -0.01076,0.092 -0.01076,0.1004 -0.03825,0.34183 q -0.0096,0.0872 -0.0096,0.17689 0,0.0825 0.06096,0.0825 0.135059,0 0.304779,-0.22231 0.170915,-0.22231 0.20199,-0.43984 l 0.04064,-0.28326 0.193624,-0.0657 q -0.03347,0.13865 -0.0502,0.24741 l -0.07171,0.4996 q -0.006,0.0454 -0.0096,0.0765 l -0.0084,0.0657 q -0.0072,0.0609 -0.0072,0.0861 0,0.0514 0.02869,0.0514 0.101593,0 0.206772,-0.2247 0.03227,0.0191 0.03227,0.0382 0,0.0418 -0.103983,0.16853 -0.13984,0.17211 -0.25936,0.17211 -0.08725,0 -0.08725,-0.11713 0,-0.037 0.0084,-0.0992 l 0.01315,-0.0956 q 0.01076,-0.0777 0.01434,-0.10518 z"
             inkscape:connector-curvature="0" />
          <path
             id="path1260"
             style="font-style:normal;font-variant:normal;font-weight:100;font-stretch:normal;font-size:2.44778943px;font-family:'Apple Chancery';-inkscape-font-specification:'Apple Chancery, Thin';font-variant-ligatures:normal;font-variant-caps:normal;font-variant-numeric:normal;font-feature-settings:normal;text-align:start;writing-mode:lr-tb;text-anchor:start;fill:#999999;stroke-width:0.1147401"
             d="m 94.288469,293.42523 -0.05976,0.52828 q -0.01554,0.14223 -0.01554,0.21036 0,0.13505 0.09203,0.13505 0.0992,0 0.205576,-0.16254 0.01793,0.0227 0.01793,0.0406 0,0.0669 -0.118326,0.16016 -0.117131,0.0932 -0.201991,0.0932 -0.169719,0 -0.169719,-0.21753 0,-0.0801 0.02032,-0.25936 l 0.05857,-0.52828 H 93.86537 l 0.13984,-0.13865 h 0.127887 l 0.0251,-0.21753 0.175695,-0.0586 -0.02988,0.27609 h 0.506769 l -0.139839,0.13865 z"
             inkscape:connector-curvature="0" />
          <path
             id="path1262"
             style="font-style:normal;font-variant:normal;font-weight:100;font-stretch:normal;font-size:2.44778943px;font-family:'Apple Chancery';-inkscape-font-specification:'Apple Chancery, Thin';font-variant-ligatures:normal;font-variant-caps:normal;font-variant-numeric:normal;font-feature-settings:normal;text-align:start;writing-mode:lr-tb;text-anchor:start;fill:#999999;stroke-width:0.1147401"
             d="m 95.043842,294.4304 q -0.268922,0 -0.268922,-0.35617 0,-0.28685 0.210357,-0.55219 0.210357,-0.26653 0.436252,-0.26653 0.272507,0 0.272507,0.35617 0,0.28804 -0.210357,0.55338 -0.210356,0.26534 -0.439837,0.26534 z m 0.144621,-0.13387 q 0.137449,0 0.22948,-0.15298 0.09323,-0.15299 0.09323,-0.38127 0,-0.37291 -0.23187,-0.37291 -0.136254,0 -0.229481,0.15418 -0.09203,0.15299 -0.09203,0.38008 0,0.3729 0.230676,0.3729 z"
             inkscape:connector-curvature="0" />
          <path
             id="path1264"
             style="font-style:normal;font-variant:normal;font-weight:100;font-stretch:normal;font-size:2.44778943px;font-family:'Apple Chancery';-inkscape-font-specification:'Apple Chancery, Thin';font-variant-ligatures:normal;font-variant-caps:normal;font-variant-numeric:normal;font-feature-settings:normal;text-align:start;writing-mode:lr-tb;text-anchor:start;fill:#999999;stroke-width:0.1147401"
             d="m 96.749406,293.47184 -0.193624,0.18645 q -0.02868,-0.0932 -0.02868,-0.18645 0,-0.29402 0.222309,-0.49004 0.223504,-0.19721 0.558163,-0.19721 0.04661,0 0.08725,0.004 0.04542,0.004 0.05737,0.004 h 0.01315 q -0.0048,0.0418 -0.0048,0.0598 0,0.24621 0.319121,0.62629 l 0.08964,0.10517 0.07888,0.0944 q 0.125498,0.1494 0.198405,0.27489 l 0.08008,-0.64899 q 0.0753,-0.59402 0.276094,-0.83307 0.22948,-0.2725 0.506769,-0.2725 0.103983,0 0.205576,0.0382 l -0.176891,0.1757 q -0.108764,-0.0634 -0.192429,-0.0634 -0.185258,0 -0.28207,0.17092 -0.09562,0.16972 -0.149401,0.59282 l -0.126692,1.01234 -0.150596,0.31076 q -0.05498,-0.21992 -0.117131,-0.33466 -0.06215,-0.11474 -0.247408,-0.33705 l -0.09203,-0.11115 q -0.212748,-0.25697 -0.301193,-0.46016 l -0.05976,0.53785 -0.01434,0.12908 q -0.01912,0.16016 -0.06215,0.23545 -0.04183,0.0741 -0.168525,0.16853 l 0.264142,0.0239 -0.14223,0.13865 -0.519917,-0.0263 0.154182,-0.1482 0.132669,0.012 q 0.09084,-0.0657 0.125497,-0.14223 0.03466,-0.0765 0.05498,-0.25339 l 0.01076,-0.10398 0.09203,-0.82708 h -0.05617 q -0.497208,0 -0.497208,0.32868 0,0.10279 0.05617,0.20677 z"
             inkscape:connector-curvature="0" />
          <path
             id="path1266"
             style="font-style:normal;font-variant:normal;font-weight:100;font-stretch:normal;font-size:2.44778943px;font-family:'Apple Chancery';-inkscape-font-specification:'Apple Chancery, Thin';font-variant-ligatures:normal;font-variant-caps:normal;font-variant-numeric:normal;font-feature-settings:normal;text-align:start;writing-mode:lr-tb;text-anchor:start;fill:#999999;stroke-width:0.1147401"
             d="m 99.413529,293.92482 q -0.135059,0.22231 -0.297608,0.36454 -0.161353,0.14104 -0.280874,0.14104 -0.163744,0 -0.163744,-0.26414 0,-0.36335 0.237847,-0.62868 0.239042,-0.26654 0.565334,-0.26654 0.124302,0 0.211552,0.0311 -0.006,0.0215 -0.0072,0.0263 l -0.01434,0.0633 q -0.01434,0.0657 -0.01554,0.0765 l -0.07649,0.52829 -0.01076,0.0765 q -0.01554,0.11355 -0.01554,0.15179 0,0.0514 0.02988,0.0514 0.100398,0 0.205576,-0.2247 0.03227,0.0191 0.03227,0.0382 0,0.0418 -0.102788,0.16853 -0.13984,0.17211 -0.259361,0.17211 -0.08725,0 -0.08725,-0.11713 0,-0.0359 0.0084,-0.0992 l 0.01195,-0.0956 0.01554,-0.10518 z m 0.06813,-0.47449 q -0.108764,-0.061 -0.219919,-0.061 -0.167329,0 -0.280874,0.20438 -0.113545,0.20438 -0.113545,0.50677 0,0.15538 0.09203,0.15538 0.106374,0 0.25697,-0.16255 0.203186,-0.21872 0.246213,-0.51394 z"
             inkscape:connector-curvature="0" />
          <path
             id="path1268"
             style="font-style:normal;font-variant:normal;font-weight:100;font-stretch:normal;font-size:2.44778943px;font-family:'Apple Chancery';-inkscape-font-specification:'Apple Chancery, Thin';font-variant-ligatures:normal;font-variant-caps:normal;font-variant-numeric:normal;font-feature-settings:normal;text-align:start;writing-mode:lr-tb;text-anchor:start;fill:#999999;stroke-width:0.1147401"
             d="m 99.856951,294.42442 0.0992,-0.19123 q 0.06813,-0.0717 0.131479,-0.15299 l 0.0765,-0.0944 q 0.0383,-0.049 0.0586,-0.0729 l 0.055,-0.0669 q 0.0263,-0.0323 0.0837,-0.10757 l 0.10757,-0.13864 0.092,-0.12191 q 0.01,-0.0108 0.0275,-0.0335 -0.0239,0.002 -0.0347,0.002 -0.0837,0 -0.22709,-0.0406 l -0.043,-0.0119 -0.0359,-0.012 q -0.0335,-0.01 -0.0586,-0.01 -0.0837,0 -0.0837,0.0944 0,0.0359 0.0191,0.0729 l -0.139844,0.12071 q -0.0048,-0.0406 -0.0048,-0.0598 0,-0.13864 0.09203,-0.24143 0.0932,-0.10398 0.21753,-0.10398 0.0335,0 0.0849,0.01 l 0.0693,0.012 0.0574,0.008 q 0.0992,0.0167 0.13864,0.0167 0.0885,0 0.18765,-0.0394 l -0.10398,0.19123 q -0.0884,0.098 -0.18048,0.21155 l -0.0944,0.11833 -0.0837,0.10398 -0.055,0.0681 -0.0502,0.061 q -0.0693,0.0849 -0.0777,0.0968 l -0.0574,0.0825 q -0.01,0.0131 -0.0442,0.055 0.0657,-0.007 0.10876,-0.007 0.0765,0 0.17091,0.0131 l 0.0777,0.0108 0.0729,0.01 q 0.043,0.006 0.0873,0.006 0.11116,0 0.16255,-0.0693 0.0203,0.0191 0.0203,0.0347 0,0.0621 -0.0681,0.11952 -0.0681,0.0562 -0.14342,0.0562 -0.0347,0 -0.0872,-0.006 -0.0442,-0.005 -0.0777,-0.007 l -0.0705,-0.005 q -0.0872,-0.007 -0.17091,-0.007 -0.173314,0 -0.305983,0.0251 z"
             inkscape:connector-curvature="0" />
          <path
             id="path1270"
             style="font-style:normal;font-variant:normal;font-weight:100;font-stretch:normal;font-size:2.44778943px;font-family:'Apple Chancery';-inkscape-font-specification:'Apple Chancery, Thin';font-variant-ligatures:normal;font-variant-caps:normal;font-variant-numeric:normal;font-feature-settings:normal;text-align:start;writing-mode:lr-tb;text-anchor:start;fill:#999999;stroke-width:0.1147401"
             d="m 101.5159,294.05152 q 0.0323,0.0191 0.0323,0.0371 0,0.043 -0.10398,0.16972 -0.13984,0.17211 -0.25936,0.17211 -0.0873,0 -0.0873,-0.11594 0,-0.049 0.0359,-0.30119 l 0.0466,-0.3251 0.0119,-0.0825 0.01,-0.0657 q 0.006,-0.0418 0.006,-0.0705 0,-0.0598 -0.0335,-0.0598 -0.0932,0 -0.20079,0.20557 -0.0227,-0.0203 -0.0227,-0.0406 0,-0.0729 0.13386,-0.19602 0.13506,-0.1231 0.21514,-0.1231 0.0896,0 0.0896,0.1243 0,0.0239 -0.01,0.098 l -0.0108,0.0801 q -0.001,0.01 -0.0131,0.0968 l -0.049,0.34183 -0.0119,0.0765 q -0.0155,0.11355 -0.0155,0.15179 0,0.0514 0.0299,0.0514 0.1004,0 0.20677,-0.2247 z m -0.24023,-0.9502 0.10039,-0.2474 q 0.13387,-0.055 0.21992,-0.1518 0.0119,0.0167 0.0119,0.0347 0,0.16015 -0.33226,0.36453 z"
             inkscape:connector-curvature="0" />
          <path
             id="path1272"
             style="font-style:normal;font-variant:normal;font-weight:100;font-stretch:normal;font-size:2.44778943px;font-family:'Apple Chancery';-inkscape-font-specification:'Apple Chancery, Thin';font-variant-ligatures:normal;font-variant-caps:normal;font-variant-numeric:normal;font-feature-settings:normal;text-align:start;writing-mode:lr-tb;text-anchor:start;fill:#999999;stroke-width:0.1147401"
             d="m 101.92825,294.4304 q -0.26892,0 -0.26892,-0.35617 0,-0.28685 0.21036,-0.55219 0.21035,-0.26653 0.43625,-0.26653 0.2725,0 0.2725,0.35617 0,0.28804 -0.21035,0.55338 -0.21036,0.26534 -0.43984,0.26534 z m 0.14462,-0.13387 q 0.13745,0 0.22948,-0.15298 0.0932,-0.15299 0.0932,-0.38127 0,-0.37291 -0.23187,-0.37291 -0.13626,0 -0.22948,0.15418 -0.092,0.15299 -0.092,0.38008 0,0.3729 0.23067,0.3729 z"
             inkscape:connector-curvature="0" />
          <path
             id="path1274"
             style="font-style:normal;font-variant:normal;font-weight:100;font-stretch:normal;font-size:2.44778943px;font-family:'Apple Chancery';-inkscape-font-specification:'Apple Chancery, Thin';font-variant-ligatures:normal;font-variant-caps:normal;font-variant-numeric:normal;font-feature-settings:normal;text-align:start;writing-mode:lr-tb;text-anchor:start;fill:#999999;stroke-width:0.1147401"
             d="m 103.0374,294.35749 -0.17808,0.0729 0.004,-0.0335 0.01,-0.0884 0.01,-0.0837 0.0622,-0.55458 0.007,-0.0633 q 0.007,-0.0741 0.007,-0.11952 0,-0.0765 -0.0382,-0.0765 -0.0896,0 -0.19242,0.20319 -0.0275,-0.0227 -0.0275,-0.0394 0,-0.0717 0.13027,-0.19482 0.13148,-0.1243 0.20677,-0.1243 0.10279,0 0.10279,0.13147 0,0.0335 -0.006,0.0896 l -0.01,0.0968 -0.01,0.0813 -0.01,0.0849 q 0.14104,-0.21036 0.30837,-0.34661 0.16852,-0.13745 0.28685,-0.13745 0.11593,0 0.11593,0.16135 0,0.049 -0.0132,0.14701 l -0.0645,0.44581 q -0.0191,0.13387 -0.0191,0.21156 0,0.0621 0.0335,0.0621 0.0825,0 0.20318,-0.21992 0.0287,0.0179 0.0287,0.0371 0,0.0777 -0.13387,0.20438 -0.13267,0.1255 -0.21633,0.1255 -0.0932,0 -0.0932,-0.13387 0,-0.098 0.0251,-0.27131 l 0.0418,-0.28924 q 0.0203,-0.14103 0.0203,-0.2235 0,-0.0944 -0.0657,-0.0944 -0.15299,0 -0.31076,0.20796 -0.15657,0.20677 -0.18286,0.44462 z"
             inkscape:connector-curvature="0" />
          <path
             id="path1276"
             style="font-style:normal;font-variant:normal;font-weight:100;font-stretch:normal;font-size:2.44778943px;font-family:'Apple Chancery';-inkscape-font-specification:'Apple Chancery, Thin';font-variant-ligatures:normal;font-variant-caps:normal;font-variant-numeric:normal;font-feature-settings:normal;text-align:start;writing-mode:lr-tb;text-anchor:start;fill:#999999;stroke-width:0.1147401"
             d="m 104.83978,293.92482 q -0.13506,0.22231 -0.29761,0.36454 -0.16135,0.14104 -0.28087,0.14104 -0.16375,0 -0.16375,-0.26414 0,-0.36335 0.23785,-0.62868 0.23904,-0.26654 0.56534,-0.26654 0.1243,0 0.21155,0.0311 -0.006,0.0215 -0.007,0.0263 l -0.0143,0.0633 q -0.0143,0.0657 -0.0155,0.0765 l -0.0765,0.52829 -0.0108,0.0765 q -0.0155,0.11355 -0.0155,0.15179 0,0.0514 0.0299,0.0514 0.1004,0 0.20557,-0.2247 0.0323,0.0191 0.0323,0.0382 0,0.0418 -0.10279,0.16853 -0.13984,0.17211 -0.25936,0.17211 -0.0872,0 -0.0872,-0.11713 0,-0.0359 0.008,-0.0992 l 0.012,-0.0956 0.0155,-0.10518 z m 0.0681,-0.47449 q -0.10877,-0.061 -0.21992,-0.061 -0.16733,0 -0.28088,0.20438 -0.11354,0.20438 -0.11354,0.50677 0,0.15538 0.092,0.15538 0.10637,0 0.25697,-0.16255 0.20319,-0.21872 0.24621,-0.51394 z"
             inkscape:connector-curvature="0" />
          <path
             id="path1278"
             style="font-style:normal;font-variant:normal;font-weight:100;font-stretch:normal;font-size:2.44778943px;font-family:'Apple Chancery';-inkscape-font-specification:'Apple Chancery, Thin';font-variant-ligatures:normal;font-variant-caps:normal;font-variant-numeric:normal;font-feature-settings:normal;text-align:start;writing-mode:lr-tb;text-anchor:start;fill:#999999;stroke-width:0.1147401"
             d="m 105.83898,294.04793 q 0.0347,0.0167 0.0347,0.043 0,0.0861 -0.12909,0.21275 -0.12788,0.12669 -0.21513,0.12669 -0.0992,0 -0.0992,-0.14343 0,-0.0872 0.0108,-0.17808 l 0.0132,-0.10638 0.092,-0.83186 q 0.043,-0.38008 0.26055,-0.63466 0.21873,-0.25458 0.50319,-0.25458 0.0693,0 0.11713,0.012 l -0.16972,0.17331 q -0.0562,-0.0191 -0.13147,-0.0191 -0.17929,0 -0.26893,0.12669 -0.0884,0.12549 -0.12191,0.42669 l -0.11115,1.00158 q -0.0131,0.11594 -0.0131,0.16614 0,0.10757 0.037,0.10757 0.0442,0 0.10398,-0.0705 0.0598,-0.0717 0.0873,-0.15777 z"
             inkscape:connector-curvature="0" />
          <path
             id="path1280"
             style="font-style:normal;font-variant:normal;font-weight:100;font-stretch:normal;font-size:2.44778943px;font-family:'Apple Chancery';-inkscape-font-specification:'Apple Chancery, Thin';font-variant-ligatures:normal;font-variant-caps:normal;font-variant-numeric:normal;font-feature-settings:normal;text-align:start;writing-mode:lr-tb;text-anchor:start;fill:#999999;stroke-width:0.1147401"
             d="m 106.73538,294.01925 q 0.0299,0.0203 0.0299,0.0478 0,0.0371 -0.0765,0.1267 -0.20438,0.23665 -0.40398,0.23665 -0.12191,0 -0.2008,-0.0968 -0.0789,-0.0968 -0.0789,-0.24741 0,-0.27251 0.20558,-0.55099 0.20677,-0.27968 0.40876,-0.27968 0.14581,0 0.14581,0.15657 0,0.1757 -0.17091,0.34302 -0.16972,0.16733 -0.41474,0.23307 0.0239,0.28805 0.22709,0.28805 0.2008,0 0.32868,-0.25697 z m -0.55099,-0.1769 q 0.0347,0.012 0.0633,0.012 0.1482,0 0.25936,-0.0908 0.11115,-0.0908 0.11115,-0.21275 0,-0.13984 -0.14223,-0.13984 -0.10279,0 -0.18645,0.12311 -0.0825,0.12191 -0.10518,0.30836 z"
             inkscape:connector-curvature="0" />
          <path
             id="path1282"
             style="font-style:normal;font-variant:normal;font-weight:100;font-stretch:normal;font-size:2.44778943px;font-family:'Apple Chancery';-inkscape-font-specification:'Apple Chancery, Thin';font-variant-ligatures:normal;font-variant-caps:normal;font-variant-numeric:normal;font-feature-settings:normal;text-align:start;writing-mode:lr-tb;text-anchor:start;fill:#999999;stroke-width:0.1147401"
             d="m 108.86883,293.98219 q 0.0275,0.0131 0.0275,0.0383 0,0.0789 -0.14462,0.20797 -0.24502,0.21872 -0.55697,0.21872 -0.25218,0 -0.40278,-0.18167 -0.1494,-0.18287 -0.1494,-0.49004 0,-0.43864 0.28087,-0.73505 0.28088,-0.29641 0.69681,-0.29641 0.21155,0 0.43864,0.0801 l -0.0801,0.17569 -0.0227,0.0514 q -0.0287,0.0609 -0.0705,0.0609 -0.008,0 -0.0251,-0.004 0.0167,-0.0371 0.0167,-0.061 0,-0.0801 -0.10757,-0.13984 -0.10637,-0.0598 -0.2486,-0.0598 -0.29163,0 -0.4745,0.23068 -0.18167,0.23067 -0.18167,0.59999 0,0.28566 0.12788,0.45538 0.12789,0.16972 0.34183,0.16972 0.15419,0 0.30717,-0.092 0.15418,-0.0932 0.22709,-0.22948 z"
             inkscape:connector-curvature="0" />
          <path
             id="path1284"
             style="font-style:normal;font-variant:normal;font-weight:100;font-stretch:normal;font-size:2.44778943px;font-family:'Apple Chancery';-inkscape-font-specification:'Apple Chancery, Thin';font-variant-ligatures:normal;font-variant-caps:normal;font-variant-numeric:normal;font-feature-settings:normal;text-align:start;writing-mode:lr-tb;text-anchor:start;fill:#999999;stroke-width:0.1147401"
             d="m 109.38636,294.4304 q -0.26892,0 -0.26892,-0.35617 0,-0.28685 0.21035,-0.55219 0.21036,-0.26653 0.43625,-0.26653 0.27251,0 0.27251,0.35617 0,0.28804 -0.21035,0.55338 -0.21036,0.26534 -0.43984,0.26534 z m 0.14462,-0.13387 q 0.13745,0 0.22948,-0.15298 0.0932,-0.15299 0.0932,-0.38127 0,-0.37291 -0.23188,-0.37291 -0.13625,0 -0.22948,0.15418 -0.092,0.15299 -0.092,0.38008 0,0.3729 0.23068,0.3729 z"
             inkscape:connector-curvature="0" />
          <path
             id="path1286"
             style="font-style:normal;font-variant:normal;font-weight:100;font-stretch:normal;font-size:2.44778943px;font-family:'Apple Chancery';-inkscape-font-specification:'Apple Chancery, Thin';font-variant-ligatures:normal;font-variant-caps:normal;font-variant-numeric:normal;font-feature-settings:normal;text-align:start;writing-mode:lr-tb;text-anchor:start;fill:#999999;stroke-width:0.1147401"
             d="m 110.49551,294.35749 -0.17808,0.0729 0.004,-0.0335 0.01,-0.0884 0.01,-0.0837 0.0621,-0.55458 0.007,-0.0633 q 0.007,-0.0741 0.007,-0.11952 0,-0.0765 -0.0382,-0.0765 -0.0896,0 -0.19243,0.20319 -0.0275,-0.0227 -0.0275,-0.0394 0,-0.0717 0.13028,-0.19482 0.13147,-0.1243 0.20677,-0.1243 0.10279,0 0.10279,0.13147 0,0.0335 -0.006,0.0896 l -0.01,0.0968 -0.01,0.0813 -0.01,0.0849 q 0.14103,-0.21036 0.30836,-0.34661 0.16853,-0.13745 0.28685,-0.13745 0.11594,0 0.11594,0.16135 0,0.049 -0.0131,0.14701 l -0.0645,0.44581 q -0.0191,0.13387 -0.0191,0.21156 0,0.0621 0.0335,0.0621 0.0825,0 0.20319,-0.21992 0.0287,0.0179 0.0287,0.0371 0,0.0777 -0.13386,0.20438 -0.13267,0.1255 -0.21633,0.1255 -0.0932,0 -0.0932,-0.13387 0,-0.098 0.0251,-0.27131 l 0.0418,-0.28924 q 0.0203,-0.14103 0.0203,-0.2235 0,-0.0944 -0.0657,-0.0944 -0.15299,0 -0.31076,0.20796 -0.15657,0.20677 -0.18287,0.44462 z"
             inkscape:connector-curvature="0" />
          <path
             id="path1288"
             style="font-style:normal;font-variant:normal;font-weight:100;font-stretch:normal;font-size:2.44778943px;font-family:'Apple Chancery';-inkscape-font-specification:'Apple Chancery, Thin';font-variant-ligatures:normal;font-variant-caps:normal;font-variant-numeric:normal;font-feature-settings:normal;text-align:start;writing-mode:lr-tb;text-anchor:start;fill:#999999;stroke-width:0.1147401"
             d="m 111.93335,293.42523 -0.0968,0.96692 q -0.0323,0.32868 -0.1004,0.50079 -0.0669,0.17211 -0.21753,0.30956 -0.22111,0.20199 -0.49601,0.20199 -0.055,0 -0.14103,-0.0299 l 0.15896,-0.14581 q 0.10159,0.0335 0.18406,0.0335 0.35259,0 0.40757,-0.53425 l 0.0311,-0.29642 0.1004,-1.00636 h -0.21633 l 0.13625,-0.13865 h 0.0944 l 0.007,-0.0693 q 0.043,-0.44223 0.25458,-0.68844 0.21156,-0.24741 0.54621,-0.24741 0.0633,0 0.14223,0.012 l -0.16732,0.16494 q -0.0896,-0.0347 -0.1757,-0.0347 -0.20558,0 -0.29283,0.14223 -0.0872,0.14223 -0.12669,0.54502 l -0.0179,0.17569 h 0.48406 l -0.14223,0.13865 z"
             inkscape:connector-curvature="0" />
          <path
             id="path1290"
             style="font-style:normal;font-variant:normal;font-weight:100;font-stretch:normal;font-size:2.44778943px;font-family:'Apple Chancery';-inkscape-font-specification:'Apple Chancery, Thin';font-variant-ligatures:normal;font-variant-caps:normal;font-variant-numeric:normal;font-feature-settings:normal;text-align:start;writing-mode:lr-tb;text-anchor:start;fill:#999999;stroke-width:0.1147401"
             d="m 113.04609,294.01925 q 0.0299,0.0203 0.0299,0.0478 0,0.0371 -0.0765,0.1267 -0.20438,0.23665 -0.40398,0.23665 -0.12191,0 -0.2008,-0.0968 -0.0789,-0.0968 -0.0789,-0.24741 0,-0.27251 0.20557,-0.55099 0.20677,-0.27968 0.40877,-0.27968 0.14581,0 0.14581,0.15657 0,0.1757 -0.17091,0.34302 -0.16972,0.16733 -0.41474,0.23307 0.0239,0.28805 0.22709,0.28805 0.20079,0 0.32868,-0.25697 z m -0.55099,-0.1769 q 0.0347,0.012 0.0633,0.012 0.1482,0 0.25936,-0.0908 0.11115,-0.0908 0.11115,-0.21275 0,-0.13984 -0.14223,-0.13984 -0.10279,0 -0.18645,0.12311 -0.0825,0.12191 -0.10518,0.30836 z"
             inkscape:connector-curvature="0" />
          <path
             id="path1292"
             style="font-style:normal;font-variant:normal;font-weight:100;font-stretch:normal;font-size:2.44778943px;font-family:'Apple Chancery';-inkscape-font-specification:'Apple Chancery, Thin';font-variant-ligatures:normal;font-variant-caps:normal;font-variant-numeric:normal;font-feature-settings:normal;text-align:start;writing-mode:lr-tb;text-anchor:start;fill:#999999;stroke-width:0.1147401"
             d="m 114.02736,293.27343 0.0119,-0.10278 q 0.043,-0.38247 0.26056,-0.63585 0.21872,-0.25339 0.50318,-0.25339 0.0681,0 0.11713,0.012 l -0.16972,0.17331 q -0.0562,-0.0191 -0.13267,-0.0191 -0.17928,0 -0.26773,0.12549 -0.0884,0.1255 -0.12191,0.42789 l -0.11115,0.99561 -0.008,0.0765 q -0.0108,0.10159 -0.0108,0.14462 0,0.0586 0.0311,0.0586 0.0992,0 0.1996,-0.2247 0.0323,0.0191 0.0323,0.0382 0,0.043 -0.0968,0.16853 -0.13506,0.17211 -0.25339,0.17211 -0.092,0 -0.092,-0.12669 0,-0.0466 0.0144,-0.18526 l 0.0119,-0.10518 0.01,-0.0884 q -0.0813,0.17929 -0.26414,0.34303 -0.18167,0.16255 -0.3,0.16255 -0.16852,0 -0.16852,-0.26414 0,-0.34542 0.23306,-0.62032 0.23307,-0.2749 0.52589,-0.2749 0.0144,0 0.0466,0.002 z m -0.0191,0.17092 q -0.10039,-0.055 -0.18406,-0.055 -0.17689,0 -0.29163,0.2008 -0.11474,0.20079 -0.11474,0.51035 0,0.15538 0.0908,0.15538 0.10996,0 0.25816,-0.16255 0.19243,-0.20916 0.22709,-0.51394 z"
             inkscape:connector-curvature="0" />
          <path
             id="path1294"
             style="font-style:normal;font-variant:normal;font-weight:100;font-stretch:normal;font-size:2.44778943px;font-family:'Apple Chancery';-inkscape-font-specification:'Apple Chancery, Thin';font-variant-ligatures:normal;font-variant-caps:normal;font-variant-numeric:normal;font-feature-settings:normal;text-align:start;writing-mode:lr-tb;text-anchor:start;fill:#999999;stroke-width:0.1147401"
             d="m 115.21181,294.01925 q 0.0299,0.0203 0.0299,0.0478 0,0.0371 -0.0765,0.1267 -0.20438,0.23665 -0.40398,0.23665 -0.12191,0 -0.2008,-0.0968 -0.0789,-0.0968 -0.0789,-0.24741 0,-0.27251 0.20557,-0.55099 0.20677,-0.27968 0.40877,-0.27968 0.14581,0 0.14581,0.15657 0,0.1757 -0.17091,0.34302 -0.16972,0.16733 -0.41474,0.23307 0.0239,0.28805 0.22709,0.28805 0.20079,0 0.32868,-0.25697 z m -0.55099,-0.1769 q 0.0347,0.012 0.0633,0.012 0.1482,0 0.25936,-0.0908 0.11115,-0.0908 0.11115,-0.21275 0,-0.13984 -0.14223,-0.13984 -0.10279,0 -0.18645,0.12311 -0.0825,0.12191 -0.10518,0.30836 z"
             inkscape:connector-curvature="0" />
          <path
             id="path1296"
             style="font-style:normal;font-variant:normal;font-weight:100;font-stretch:normal;font-size:2.44778943px;font-family:'Apple Chancery';-inkscape-font-specification:'Apple Chancery, Thin';font-variant-ligatures:normal;font-variant-caps:normal;font-variant-numeric:normal;font-feature-settings:normal;text-align:start;writing-mode:lr-tb;text-anchor:start;fill:#999999;stroke-width:0.1147401"
             d="m 115.78432,293.75869 q 0.26533,-0.50318 0.5223,-0.50318 0.0669,0 0.13387,0.0311 l -0.16853,0.18406 q -0.0382,-0.0215 -0.098,-0.0215 -0.1243,0 -0.26294,0.20199 -0.13745,0.2008 -0.16135,0.41832 l -0.0323,0.29164 -0.17689,0.0598 0.004,-0.0359 0.008,-0.0777 0.01,-0.0777 0.0622,-0.56892 0.007,-0.0622 q 0.008,-0.0705 0.008,-0.11474 0,-0.0729 -0.0406,-0.0729 -0.0956,0 -0.19004,0.20438 -0.0299,-0.0227 -0.0287,-0.0466 0.004,-0.0729 0.13266,-0.19243 0.13028,-0.12071 0.20558,-0.12071 0.10159,0 0.10159,0.13386 0,0.0323 -0.006,0.0873 l -0.008,0.0837 -0.0108,0.10039 z"
             inkscape:connector-curvature="0" />
          <path
             id="path1298"
             style="font-style:normal;font-variant:normal;font-weight:100;font-stretch:normal;font-size:2.44778943px;font-family:'Apple Chancery';-inkscape-font-specification:'Apple Chancery, Thin';font-variant-ligatures:normal;font-variant-caps:normal;font-variant-numeric:normal;font-feature-settings:normal;text-align:start;writing-mode:lr-tb;text-anchor:start;fill:#999999;stroke-width:0.1147401"
             d="m 117.15522,293.92482 q -0.13506,0.22231 -0.29761,0.36454 -0.16135,0.14104 -0.28087,0.14104 -0.16374,0 -0.16374,-0.26414 0,-0.36335 0.23784,-0.62868 0.23904,-0.26654 0.56534,-0.26654 0.1243,0 0.21155,0.0311 -0.006,0.0215 -0.007,0.0263 l -0.0143,0.0633 q -0.0144,0.0657 -0.0155,0.0765 l -0.0765,0.52829 -0.0107,0.0765 q -0.0155,0.11355 -0.0155,0.15179 0,0.0514 0.0299,0.0514 0.1004,0 0.20558,-0.2247 0.0323,0.0191 0.0323,0.0382 0,0.0418 -0.10279,0.16853 -0.13984,0.17211 -0.25936,0.17211 -0.0873,0 -0.0873,-0.11713 0,-0.0359 0.008,-0.0992 l 0.012,-0.0956 0.0155,-0.10518 z m 0.0681,-0.47449 q -0.10877,-0.061 -0.21992,-0.061 -0.16733,0 -0.28087,0.20438 -0.11355,0.20438 -0.11355,0.50677 0,0.15538 0.092,0.15538 0.10638,0 0.25697,-0.16255 0.20319,-0.21872 0.24621,-0.51394 z"
             inkscape:connector-curvature="0" />
          <path
             id="path1300"
             style="font-style:normal;font-variant:normal;font-weight:100;font-stretch:normal;font-size:2.44778943px;font-family:'Apple Chancery';-inkscape-font-specification:'Apple Chancery, Thin';font-variant-ligatures:normal;font-variant-caps:normal;font-variant-numeric:normal;font-feature-settings:normal;text-align:start;writing-mode:lr-tb;text-anchor:start;fill:#999999;stroke-width:0.1147401"
             d="m 118.15442,294.04793 q 0.0347,0.0167 0.0347,0.043 0,0.0861 -0.12909,0.21275 -0.12788,0.12669 -0.21513,0.12669 -0.0992,0 -0.0992,-0.14343 0,-0.0872 0.0108,-0.17808 l 0.0131,-0.10638 0.092,-0.83186 q 0.043,-0.38008 0.26056,-0.63466 0.21872,-0.25458 0.50318,-0.25458 0.0693,0 0.11713,0.012 l -0.16972,0.17331 q -0.0562,-0.0191 -0.13147,-0.0191 -0.17928,0 -0.26893,0.12669 -0.0884,0.12549 -0.12191,0.42669 l -0.11115,1.00158 q -0.0131,0.11594 -0.0131,0.16614 0,0.10757 0.037,0.10757 0.0442,0 0.10399,-0.0705 0.0598,-0.0717 0.0872,-0.15777 z"
             inkscape:connector-curvature="0" />
          <path
             id="path1302"
             style="font-style:normal;font-variant:normal;font-weight:100;font-stretch:normal;font-size:2.44778943px;font-family:'Apple Chancery';-inkscape-font-specification:'Apple Chancery, Thin';font-variant-ligatures:normal;font-variant-caps:normal;font-variant-numeric:normal;font-feature-settings:normal;text-align:start;writing-mode:lr-tb;text-anchor:start;fill:#999999;stroke-width:0.1147401"
             d="m 119.05082,294.01925 q 0.0299,0.0203 0.0299,0.0478 0,0.0371 -0.0765,0.1267 -0.20438,0.23665 -0.40398,0.23665 -0.12191,0 -0.20079,-0.0968 -0.0789,-0.0968 -0.0789,-0.24741 0,-0.27251 0.20558,-0.55099 0.20677,-0.27968 0.40876,-0.27968 0.14581,0 0.14581,0.15657 0,0.1757 -0.17091,0.34302 -0.16972,0.16733 -0.41474,0.23307 0.0239,0.28805 0.22709,0.28805 0.2008,0 0.32868,-0.25697 z m -0.55099,-0.1769 q 0.0347,0.012 0.0633,0.012 0.14821,0 0.25936,-0.0908 0.11115,-0.0908 0.11115,-0.21275 0,-0.13984 -0.14223,-0.13984 -0.10278,0 -0.18645,0.12311 -0.0825,0.12191 -0.10518,0.30836 z"
             inkscape:connector-curvature="0" />
          <path
             id="path1304"
             style="font-style:normal;font-variant:normal;font-weight:100;font-stretch:normal;font-size:2.44778943px;font-family:'Apple Chancery';-inkscape-font-specification:'Apple Chancery, Thin';font-variant-ligatures:normal;font-variant-caps:normal;font-variant-numeric:normal;font-feature-settings:normal;text-align:start;writing-mode:lr-tb;text-anchor:start;fill:#999999;stroke-width:0.1147401"
             d="m 120.71097,293.27343 0.0119,-0.10278 q 0.043,-0.38247 0.26056,-0.63585 0.21872,-0.25339 0.50318,-0.25339 0.0681,0 0.11713,0.012 l -0.16972,0.17331 q -0.0562,-0.0191 -0.13267,-0.0191 -0.17928,0 -0.26772,0.12549 -0.0885,0.1255 -0.12191,0.42789 l -0.11116,0.99561 -0.008,0.0765 q -0.0108,0.10159 -0.0108,0.14462 0,0.0586 0.0311,0.0586 0.0992,0 0.1996,-0.2247 0.0323,0.0191 0.0323,0.0382 0,0.043 -0.0968,0.16853 -0.13506,0.17211 -0.25338,0.17211 -0.092,0 -0.092,-0.12669 0,-0.0466 0.0143,-0.18526 l 0.0119,-0.10518 0.01,-0.0884 q -0.0813,0.17929 -0.26414,0.34303 -0.18167,0.16255 -0.3,0.16255 -0.16852,0 -0.16852,-0.26414 0,-0.34542 0.23307,-0.62032 0.23306,-0.2749 0.52589,-0.2749 0.0143,0 0.0466,0.002 z m -0.0191,0.17092 q -0.1004,-0.055 -0.18406,-0.055 -0.1769,0 -0.29164,0.2008 -0.11474,0.20079 -0.11474,0.51035 0,0.15538 0.0908,0.15538 0.10996,0 0.25817,-0.16255 0.19242,-0.20916 0.22708,-0.51394 z"
             inkscape:connector-curvature="0" />
          <path
             id="path1306"
             style="font-style:normal;font-variant:normal;font-weight:100;font-stretch:normal;font-size:2.44778943px;font-family:'Apple Chancery';-inkscape-font-specification:'Apple Chancery, Thin';font-variant-ligatures:normal;font-variant-caps:normal;font-variant-numeric:normal;font-feature-settings:normal;text-align:start;writing-mode:lr-tb;text-anchor:start;fill:#999999;stroke-width:0.1147401"
             d="m 121.74841,294.05152 q 0.0323,0.0191 0.0323,0.0371 0,0.043 -0.10398,0.16972 -0.13984,0.17211 -0.25936,0.17211 -0.0872,0 -0.0872,-0.11594 0,-0.049 0.0358,-0.30119 l 0.0466,-0.3251 0.0119,-0.0825 0.01,-0.0657 q 0.006,-0.0418 0.006,-0.0705 0,-0.0598 -0.0335,-0.0598 -0.0932,0 -0.20079,0.20557 -0.0227,-0.0203 -0.0227,-0.0406 0,-0.0729 0.13386,-0.19602 0.13506,-0.1231 0.21514,-0.1231 0.0896,0 0.0896,0.1243 0,0.0239 -0.01,0.098 l -0.0108,0.0801 q -0.001,0.01 -0.0131,0.0968 l -0.049,0.34183 -0.0119,0.0765 q -0.0155,0.11355 -0.0155,0.15179 0,0.0514 0.0299,0.0514 0.1004,0 0.20677,-0.2247 z m -0.24024,-0.9502 0.1004,-0.2474 q 0.13386,-0.055 0.21992,-0.1518 0.0119,0.0167 0.0119,0.0347 0,0.16015 -0.33227,0.36453 z"
             inkscape:connector-curvature="0" />
          <path
             id="path1308"
             style="font-style:normal;font-variant:normal;font-weight:100;font-stretch:normal;font-size:2.44778943px;font-family:'Apple Chancery';-inkscape-font-specification:'Apple Chancery, Thin';font-variant-ligatures:normal;font-variant-caps:normal;font-variant-numeric:normal;font-feature-settings:normal;text-align:start;writing-mode:lr-tb;text-anchor:start;fill:#999999;stroke-width:0.1147401"
             d="m 122.82888,293.47423 -0.18765,0.18048 q -0.049,-0.12789 -0.049,-0.24741 0,-0.29641 0.25697,-0.47809 0.21514,-0.15298 0.73625,-0.15298 0.0884,0 0.15538,0.004 0.18525,0.012 0.19003,0.012 h 0.0837 q -0.0932,0.14581 -0.0932,0.59043 l 10e-4,0.0621 0.005,0.13745 q 0,0.24741 0.061,0.50677 0.0239,0.1004 0.0466,0.12908 0.0227,0.0287 0.0789,0.0287 0.061,0 0.13865,-0.0394 0.008,0.0203 0.008,0.0335 0,0.0299 -0.0466,0.0514 l -0.0562,0.0275 -0.29402,0.12789 q -0.098,-0.30239 -0.11832,-0.63346 l -0.0908,0.0634 h -0.40159 q -0.10996,0.27967 -0.30119,0.3992 l 0.24741,0.0119 -0.12909,0.13625 -0.47689,-0.0167 0.15897,-0.14343 0.11952,0.007 q 0.0813,-0.0598 0.13864,-0.16733 0.0574,-0.10877 0.17092,-0.41952 l 0.0358,-0.0992 q 0.10996,-0.29999 0.20917,-0.43625 0.0992,-0.13745 0.27011,-0.22589 -0.18764,-0.0347 -0.39561,-0.0347 -0.52948,0 -0.52948,0.35737 0,0.12191 0.0574,0.22828 z m 0.91434,0.2737 q -0.0167,-0.20796 -0.0167,-0.33705 0,-0.0657 0.002,-0.10756 l 0.01,-0.13865 q 0.01,-0.14223 0.0263,-0.21753 -0.23426,0.14343 -0.38486,0.58566 -0.043,0.12788 -0.0502,0.14701 l -0.0275,0.0681 z"
             inkscape:connector-curvature="0" />
          <path
             id="path1310"
             style="font-style:normal;font-variant:normal;font-weight:100;font-stretch:normal;font-size:2.44778943px;font-family:'Apple Chancery';-inkscape-font-specification:'Apple Chancery, Thin';font-variant-ligatures:normal;font-variant-caps:normal;font-variant-numeric:normal;font-feature-settings:normal;text-align:start;writing-mode:lr-tb;text-anchor:start;fill:#999999;stroke-width:0.1147401"
             d="m 124.25357,294.36586 0.16494,-0.13506 q 0.0932,0.0992 0.23426,0.0992 0.17211,0 0.17211,-0.16613 0,-0.092 -0.15776,-0.25697 l -0.0681,-0.0705 q -0.1494,-0.15657 -0.1494,-0.25339 0,-0.13864 0.11952,-0.23306 0.12071,-0.0944 0.29641,-0.0944 0.0956,0 0.20916,0.0358 l -0.14342,0.13267 q -0.0908,-0.0681 -0.20199,-0.0681 -0.13028,0 -0.13028,0.10877 0,0.0777 0.14462,0.22828 l 0.0741,0.0789 q 0.16494,0.17211 0.16494,0.27729 0,0.15059 -0.14462,0.26653 -0.14462,0.11474 -0.33346,0.11474 -0.13387,0 -0.251,-0.0645 z"
             inkscape:connector-curvature="0" />
          <path
             id="path1312"
             style="font-style:normal;font-variant:normal;font-weight:100;font-stretch:normal;font-size:2.44778943px;font-family:'Apple Chancery';-inkscape-font-specification:'Apple Chancery, Thin';font-variant-ligatures:normal;font-variant-caps:normal;font-variant-numeric:normal;font-feature-settings:normal;text-align:start;writing-mode:lr-tb;text-anchor:start;fill:#999999;stroke-width:0.1147401"
             d="m 125.12368,294.36586 0.16494,-0.13506 q 0.0932,0.0992 0.23426,0.0992 0.17211,0 0.17211,-0.16613 0,-0.092 -0.15776,-0.25697 l -0.0681,-0.0705 q -0.1494,-0.15657 -0.1494,-0.25339 0,-0.13864 0.11952,-0.23306 0.12071,-0.0944 0.29641,-0.0944 0.0956,0 0.20916,0.0358 l -0.14342,0.13267 q -0.0908,-0.0681 -0.20199,-0.0681 -0.13028,0 -0.13028,0.10877 0,0.0777 0.14462,0.22828 l 0.0741,0.0789 q 0.16494,0.17211 0.16494,0.27729 0,0.15059 -0.14462,0.26653 -0.14462,0.11474 -0.33346,0.11474 -0.13387,0 -0.251,-0.0645 z"
             inkscape:connector-curvature="0" />
          <path
             id="path1314"
             style="font-style:normal;font-variant:normal;font-weight:100;font-stretch:normal;font-size:2.44778943px;font-family:'Apple Chancery';-inkscape-font-specification:'Apple Chancery, Thin';font-variant-ligatures:normal;font-variant-caps:normal;font-variant-numeric:normal;font-feature-settings:normal;text-align:start;writing-mode:lr-tb;text-anchor:start;fill:#999999;stroke-width:0.1147401"
             d="m 126.64877,294.05152 q 0.0323,0.0191 0.0323,0.0371 0,0.043 -0.10398,0.16972 -0.13984,0.17211 -0.25936,0.17211 -0.0872,0 -0.0872,-0.11594 0,-0.049 0.0358,-0.30119 l 0.0466,-0.3251 0.0119,-0.0825 0.01,-0.0657 q 0.006,-0.0418 0.006,-0.0705 0,-0.0598 -0.0335,-0.0598 -0.0932,0 -0.20079,0.20557 -0.0227,-0.0203 -0.0227,-0.0406 0,-0.0729 0.13386,-0.19602 0.13506,-0.1231 0.21514,-0.1231 0.0896,0 0.0896,0.1243 0,0.0239 -0.01,0.098 l -0.0108,0.0801 q -10e-4,0.01 -0.0132,0.0968 l -0.049,0.34183 -0.0119,0.0765 q -0.0155,0.11355 -0.0155,0.15179 0,0.0514 0.0299,0.0514 0.1004,0 0.20677,-0.2247 z m -0.24024,-0.9502 0.1004,-0.2474 q 0.13386,-0.055 0.21992,-0.1518 0.0119,0.0167 0.0119,0.0347 0,0.16015 -0.33227,0.36453 z"
             inkscape:connector-curvature="0" />
          <path
             id="path1316"
             style="font-style:normal;font-variant:normal;font-weight:100;font-stretch:normal;font-size:2.44778943px;font-family:'Apple Chancery';-inkscape-font-specification:'Apple Chancery, Thin';font-variant-ligatures:normal;font-variant-caps:normal;font-variant-numeric:normal;font-feature-settings:normal;text-align:start;writing-mode:lr-tb;text-anchor:start;fill:#999999;stroke-width:0.1147401"
             d="m 126.72048,294.36586 0.16494,-0.13506 q 0.0932,0.0992 0.23426,0.0992 0.17211,0 0.17211,-0.16613 0,-0.092 -0.15776,-0.25697 l -0.0681,-0.0705 q -0.1494,-0.15657 -0.1494,-0.25339 0,-0.13864 0.11952,-0.23306 0.12072,-0.0944 0.29641,-0.0944 0.0956,0 0.20916,0.0358 l -0.14342,0.13267 q -0.0908,-0.0681 -0.20199,-0.0681 -0.13028,0 -0.13028,0.10877 0,0.0777 0.14462,0.22828 l 0.0741,0.0789 q 0.16494,0.17211 0.16494,0.27729 0,0.15059 -0.14462,0.26653 -0.14462,0.11474 -0.33346,0.11474 -0.13387,0 -0.251,-0.0645 z"
             inkscape:connector-curvature="0" />
          <path
             id="path1318"
             style="font-style:normal;font-variant:normal;font-weight:100;font-stretch:normal;font-size:2.44778943px;font-family:'Apple Chancery';-inkscape-font-specification:'Apple Chancery, Thin';font-variant-ligatures:normal;font-variant-caps:normal;font-variant-numeric:normal;font-feature-settings:normal;text-align:start;writing-mode:lr-tb;text-anchor:start;fill:#999999;stroke-width:0.1147401"
             d="m 128.04119,293.42523 -0.0598,0.52828 q -0.0155,0.14223 -0.0155,0.21036 0,0.13505 0.092,0.13505 0.0992,0 0.20558,-0.16254 0.0179,0.0227 0.0179,0.0406 0,0.0669 -0.11833,0.16016 -0.11713,0.0932 -0.20199,0.0932 -0.16972,0 -0.16972,-0.21753 0,-0.0801 0.0203,-0.25936 l 0.0586,-0.52828 h -0.25219 l 0.13984,-0.13865 h 0.12788 l 0.0251,-0.21753 0.1757,-0.0586 -0.0299,0.27609 h 0.50677 l -0.13984,0.13865 z"
             inkscape:connector-curvature="0" />
          <path
             id="path1320"
             style="font-style:normal;font-variant:normal;font-weight:100;font-stretch:normal;font-size:2.44778943px;font-family:'Apple Chancery';-inkscape-font-specification:'Apple Chancery, Thin';font-variant-ligatures:normal;font-variant-caps:normal;font-variant-numeric:normal;font-feature-settings:normal;text-align:start;writing-mode:lr-tb;text-anchor:start;fill:#999999;stroke-width:0.1147401"
             d="m 129.25791,294.01925 q 0.0299,0.0203 0.0299,0.0478 0,0.0371 -0.0765,0.1267 -0.20438,0.23665 -0.40398,0.23665 -0.12191,0 -0.2008,-0.0968 -0.0789,-0.0968 -0.0789,-0.24741 0,-0.27251 0.20558,-0.55099 0.20677,-0.27968 0.40876,-0.27968 0.14581,0 0.14581,0.15657 0,0.1757 -0.17091,0.34302 -0.16972,0.16733 -0.41474,0.23307 0.0239,0.28805 0.22709,0.28805 0.2008,0 0.32868,-0.25697 z m -0.55099,-0.1769 q 0.0347,0.012 0.0634,0.012 0.1482,0 0.25936,-0.0908 0.11115,-0.0908 0.11115,-0.21275 0,-0.13984 -0.14223,-0.13984 -0.10279,0 -0.18645,0.12311 -0.0825,0.12191 -0.10518,0.30836 z"
             inkscape:connector-curvature="0" />
          <path
             id="path1322"
             style="font-style:normal;font-variant:normal;font-weight:100;font-stretch:normal;font-size:2.44778943px;font-family:'Apple Chancery';-inkscape-font-specification:'Apple Chancery, Thin';font-variant-ligatures:normal;font-variant-caps:normal;font-variant-numeric:normal;font-feature-settings:normal;text-align:start;writing-mode:lr-tb;text-anchor:start;fill:#999999;stroke-width:0.1147401"
             d="m 129.76229,294.35749 -0.17808,0.0729 0.004,-0.0335 0.01,-0.0884 0.01,-0.0837 0.0622,-0.55458 0.007,-0.0633 q 0.007,-0.0741 0.007,-0.11952 0,-0.0765 -0.0383,-0.0765 -0.0896,0 -0.19243,0.20319 -0.0275,-0.0227 -0.0275,-0.0394 0,-0.0717 0.13028,-0.19482 0.13147,-0.1243 0.20677,-0.1243 0.10279,0 0.10279,0.13147 0,0.0335 -0.006,0.0896 l -0.01,0.0968 -0.01,0.0813 -0.01,0.0849 q 0.14103,-0.21036 0.30836,-0.34661 0.16853,-0.13745 0.28685,-0.13745 0.11594,0 0.11594,0.16135 0,0.049 -0.0131,0.14701 l -0.0645,0.44581 q -0.0191,0.13387 -0.0191,0.21156 0,0.0621 0.0335,0.0621 0.0825,0 0.20319,-0.21992 0.0287,0.0179 0.0287,0.0371 0,0.0777 -0.13386,0.20438 -0.13267,0.1255 -0.21633,0.1255 -0.0932,0 -0.0932,-0.13387 0,-0.098 0.0251,-0.27131 l 0.0418,-0.28924 q 0.0203,-0.14103 0.0203,-0.2235 0,-0.0944 -0.0657,-0.0944 -0.15298,0 -0.31075,0.20796 -0.15657,0.20677 -0.18287,0.44462 z"
             inkscape:connector-curvature="0" />
          <path
             id="path1324"
             style="font-style:normal;font-variant:normal;font-weight:100;font-stretch:normal;font-size:2.44778943px;font-family:'Apple Chancery';-inkscape-font-specification:'Apple Chancery, Thin';font-variant-ligatures:normal;font-variant-caps:normal;font-variant-numeric:normal;font-feature-settings:normal;text-align:start;writing-mode:lr-tb;text-anchor:start;fill:#999999;stroke-width:0.1147401"
             d="m 130.75073,294.42442 0.0992,-0.19123 q 0.0681,-0.0717 0.13148,-0.15299 l 0.0765,-0.0944 q 0.0383,-0.049 0.0586,-0.0729 l 0.055,-0.0669 q 0.0263,-0.0323 0.0837,-0.10757 l 0.10757,-0.13864 0.092,-0.12191 q 0.01,-0.0108 0.0275,-0.0335 -0.0239,0.002 -0.0347,0.002 -0.0837,0 -0.22709,-0.0406 l -0.043,-0.0119 -0.0359,-0.012 q -0.0335,-0.01 -0.0586,-0.01 -0.0837,0 -0.0837,0.0944 0,0.0359 0.0191,0.0729 l -0.13984,0.12071 q -0.005,-0.0406 -0.005,-0.0598 0,-0.13864 0.092,-0.24143 0.0932,-0.10398 0.21753,-0.10398 0.0335,0 0.0849,0.01 l 0.0693,0.012 0.0574,0.008 q 0.0992,0.0167 0.13864,0.0167 0.0884,0 0.18765,-0.0394 l -0.10398,0.19123 q -0.0884,0.098 -0.18048,0.21155 l -0.0944,0.11833 -0.0837,0.10398 -0.055,0.0681 -0.0502,0.061 q -0.0693,0.0849 -0.0777,0.0968 l -0.0574,0.0825 q -0.01,0.0131 -0.0442,0.055 0.0657,-0.007 0.10876,-0.007 0.0765,0 0.17092,0.0131 l 0.0777,0.0108 0.0729,0.01 q 0.043,0.006 0.0873,0.006 0.11116,0 0.16255,-0.0693 0.0203,0.0191 0.0203,0.0347 0,0.0621 -0.0681,0.11952 -0.0681,0.0562 -0.14342,0.0562 -0.0347,0 -0.0872,-0.006 -0.0442,-0.005 -0.0777,-0.007 l -0.0705,-0.005 q -0.0873,-0.007 -0.17091,-0.007 -0.17331,0 -0.30598,0.0251 z"
             inkscape:connector-curvature="0" />
          <path
             id="path1326"
             style="font-style:normal;font-variant:normal;font-weight:100;font-stretch:normal;font-size:2.44778943px;font-family:'Apple Chancery';-inkscape-font-specification:'Apple Chancery, Thin';font-variant-ligatures:normal;font-variant-caps:normal;font-variant-numeric:normal;font-feature-settings:normal;text-align:start;writing-mode:lr-tb;text-anchor:start;fill:#999999;stroke-width:0.1147401"
             d="m 132.57342,293.92482 q -0.13505,0.22231 -0.2976,0.36454 -0.16136,0.14104 -0.28088,0.14104 -0.16374,0 -0.16374,-0.26414 0,-0.36335 0.23785,-0.62868 0.23904,-0.26654 0.56533,-0.26654 0.1243,0 0.21155,0.0311 -0.006,0.0215 -0.007,0.0263 l -0.0143,0.0633 q -0.0143,0.0657 -0.0155,0.0765 l -0.0765,0.52829 -0.0108,0.0765 q -0.0155,0.11355 -0.0155,0.15179 0,0.0514 0.0299,0.0514 0.1004,0 0.20558,-0.2247 0.0323,0.0191 0.0323,0.0382 0,0.0418 -0.10279,0.16853 -0.13984,0.17211 -0.25936,0.17211 -0.0873,0 -0.0873,-0.11713 0,-0.0359 0.008,-0.0992 l 0.0119,-0.0956 0.0155,-0.10518 z m 0.0681,-0.47449 q -0.10876,-0.061 -0.21992,-0.061 -0.16733,0 -0.28087,0.20438 -0.11355,0.20438 -0.11355,0.50677 0,0.15538 0.092,0.15538 0.10638,0 0.25697,-0.16255 0.20319,-0.21872 0.24622,-0.51394 z"
             inkscape:connector-curvature="0" />
        </g>
      </g>
    </g>
  </g>
</svg>
