<?xml version="1.0" encoding="UTF-8" standalone="no"?>
<!-- Created with Inkscape (http://www.inkscape.org/) -->

<svg
   xmlns:dc="http://purl.org/dc/elements/1.1/"
   xmlns:cc="http://creativecommons.org/ns#"
   xmlns:rdf="http://www.w3.org/1999/02/22-rdf-syntax-ns#"
   xmlns:svg="http://www.w3.org/2000/svg"
   xmlns="http://www.w3.org/2000/svg"
   xmlns:sodipodi="http://sodipodi.sourceforge.net/DTD/sodipodi-0.dtd"
   xmlns:inkscape="http://www.inkscape.org/namespaces/inkscape"
   width="28"
   height="28"
   viewBox="0 0 7.4083332 7.4083335"
   version="1.1"
   id="svg8"
   inkscape:version="0.92.3 (2405546, 2018-03-11)"
   sodipodi:docname="icon_generic.svg">
  <defs
     id="defs2" />
  <sodipodi:namedview
     id="base"
     pagecolor="#ffffff"
     bordercolor="#666666"
     borderopacity="1.0"
     inkscape:pageopacity="0.0"
     inkscape:pageshadow="2"
     inkscape:zoom="11.907173"
     inkscape:cx="-4.8284068"
     inkscape:cy="10.596881"
     inkscape:document-units="px"
     inkscape:current-layer="layer1"
     showgrid="false"
     units="px"
     inkscape:showpageshadow="false"
     inkscape:window-width="1920"
     inkscape:window-height="1026"
     inkscape:window-x="0"
     inkscape:window-y="29"
     inkscape:window-maximized="1"
     showguides="false" />
  <metadata
     id="metadata5">
    <rdf:RDF>
      <cc:Work
         rdf:about="">
        <dc:format>image/svg+xml</dc:format>
        <dc:type
           rdf:resource="http://purl.org/dc/dcmitype/StillImage" />
        <dc:title></dc:title>
      </cc:Work>
    </rdf:RDF>
  </metadata>
  <g
     inkscape:label="Livello 1"
     inkscape:groupmode="layer"
     id="layer1"
     transform="translate(0,-289.59165)">
    <path
       style="opacity:1;fill:#e3010f;fill-opacity:1;stroke:none;stroke-width:1.00157475;stroke-linecap:round;stroke-linejoin:round;stroke-miterlimit:4;stroke-dasharray:none;stroke-opacity:1"
       d="M 2.0488281 2.1113281 L 2.0488281 25.888672 L 25.951172 25.888672 L 25.951172 2.1113281 L 2.0488281 2.1113281 z M 7.3613281 18.240234 C 7.5953368 18.240234 7.8266136 18.266449 8.0527344 18.316406 C 8.2814844 18.363734 8.5031465 18.435919 8.71875 18.533203 L 8.71875 20.669922 C 8.5294396 20.488499 8.3358702 20.353068 8.1386719 20.263672 C 7.9414736 20.174275 7.7338578 20.130859 7.515625 20.130859 C 7.1764439 20.130859 6.9030281 20.234968 6.6953125 20.445312 C 6.4902263 20.653028 6.3886719 20.930275 6.3886719 21.277344 C 6.3886719 21.616525 6.4863954 21.887387 6.6835938 22.089844 C 6.8807921 22.292301 7.1452693 22.394531 7.4765625 22.394531 C 7.6763901 22.394531 7.8788981 22.351716 8.0839844 22.267578 C 8.2916999 22.180811 8.5171928 22.044103 8.7617188 21.857422 L 8.6953125 24.03125 C 8.4691918 24.123276 8.2436989 24.19163 8.0175781 24.236328 C 7.7914574 24.283656 7.5640114 24.306641 7.3378906 24.306641 C 7.0565544 24.306641 6.7856924 24.275994 6.5253906 24.212891 C 6.2650889 24.149787 6.0306574 24.059049 5.8203125 23.943359 C 5.3102262 23.648877 4.9230873 23.277737 4.6601562 22.828125 C 4.3998545 22.378513 4.2695312 21.861051 4.2695312 21.277344 C 4.2695312 20.846137 4.342993 20.446229 4.4902344 20.078125 C 4.6401051 19.710021 4.8586126 19.386805 5.1425781 19.105469 C 5.429173 18.821503 5.7587742 18.60555 6.1347656 18.460938 C 6.5133864 18.313696 6.9222332 18.240234 7.3613281 18.240234 z M 12.513672 18.248047 C 13.105267 18.248047 13.629714 18.37837 14.089844 18.638672 C 14.549973 18.896344 14.926897 19.275822 15.21875 19.775391 L 13.369141 20.460938 C 13.271856 20.30055 13.154302 20.180442 13.017578 20.101562 C 12.880854 20.022683 12.724992 19.984375 12.548828 19.984375 C 12.241199 19.984375 11.994599 20.101929 11.810547 20.335938 C 11.629124 20.569946 11.539062 20.882947 11.539062 21.277344 C 11.539063 21.684887 11.630401 22.002395 11.814453 22.228516 C 11.998505 22.452007 12.259151 22.5625 12.595703 22.5625 C 12.795531 22.5625 12.958454 22.521638 13.082031 22.4375 C 13.208238 22.353362 13.282977 22.235808 13.306641 22.085938 L 12.402344 22.085938 L 12.402344 20.728516 L 15.59375 20.728516 C 15.599009 20.846835 15.602839 20.936296 15.605469 20.994141 C 15.608098 21.051985 15.609375 21.103739 15.609375 21.148438 C 15.609375 21.479731 15.576775 21.781239 15.513672 22.054688 C 15.450568 22.328136 15.35923 22.570905 15.238281 22.78125 C 14.943798 23.27556 14.563044 23.653085 14.097656 23.916016 C 13.632268 24.176317 13.105267 24.306641 12.513672 24.306641 C 12.077206 24.306641 11.670913 24.234456 11.294922 24.089844 C 10.92156 23.942602 10.590005 23.727325 10.300781 23.443359 C 10.014186 23.159394 9.797632 22.834224 9.6503906 22.46875 C 9.5031492 22.103276 9.4296875 21.705921 9.4296875 21.277344 C 9.4296875 20.846137 9.5031492 20.447505 9.6503906 20.082031 C 9.8002613 19.713928 10.016816 19.391988 10.300781 19.113281 C 10.587376 18.831945 10.91893 18.615991 11.294922 18.46875 C 11.670913 18.321509 12.077206 18.248047 12.513672 18.248047 z M 16.40625 18.378906 L 18.515625 18.378906 L 18.515625 24.152344 L 16.40625 24.152344 L 16.40625 18.378906 z M 19.632812 18.378906 L 21.710938 18.378906 L 21.710938 22.279297 L 23.730469 22.279297 L 23.730469 24.152344 L 19.632812 24.152344 L 19.632812 18.378906 z "
       transform="matrix(0.26458333,0,0,0.26458333,0,289.59165)"
       id="rect842" />
    <g
       aria-label="UVL"
       transform="rotate(15)"
       style="font-style:normal;font-weight:normal;font-size:2.61666107px;line-height:1.25;font-family:sans-serif;letter-spacing:0px;word-spacing:0px;fill:#000000;fill-opacity:1;stroke:none;stroke-width:0.12265598"
       id="text846" />
  </g>
</svg>
