<?xml version="1.0" encoding="UTF-8" standalone="no"?>
<!-- Created with Inkscape (http://www.inkscape.org/) -->

<svg
   xmlns:dc="http://purl.org/dc/elements/1.1/"
   xmlns:cc="http://creativecommons.org/ns#"
   xmlns:rdf="http://www.w3.org/1999/02/22-rdf-syntax-ns#"
   xmlns:svg="http://www.w3.org/2000/svg"
   xmlns="http://www.w3.org/2000/svg"
   xmlns:sodipodi="http://sodipodi.sourceforge.net/DTD/sodipodi-0.dtd"
   xmlns:inkscape="http://www.inkscape.org/namespaces/inkscape"
   width="28"
   height="28"
   viewBox="0 0 7.4083332 7.4083335"
   version="1.1"
   id="svg8"
   inkscape:version="0.92.2 5c3e80d, 2017-08-06"
   sodipodi:docname="icon_uvl.svg">
  <defs
     id="defs2" />
  <sodipodi:namedview
     id="base"
     pagecolor="#ffffff"
     bordercolor="#666666"
     borderopacity="1.0"
     inkscape:pageopacity="0.0"
     inkscape:pageshadow="2"
     inkscape:zoom="11.907173"
     inkscape:cx="10.498489"
     inkscape:cy="10.596881"
     inkscape:document-units="px"
     inkscape:current-layer="layer1"
     showgrid="false"
     units="px"
     inkscape:showpageshadow="false"
     inkscape:window-width="1920"
     inkscape:window-height="1156"
     inkscape:window-x="0"
     inkscape:window-y="0"
     inkscape:window-maximized="1"
     showguides="false" />
  <metadata
     id="metadata5">
    <rdf:RDF>
      <cc:Work
         rdf:about="">
        <dc:format>image/svg+xml</dc:format>
        <dc:type
           rdf:resource="http://purl.org/dc/dcmitype/StillImage" />
        <dc:title></dc:title>
      </cc:Work>
    </rdf:RDF>
  </metadata>
  <g
     inkscape:label="Livello 1"
     inkscape:groupmode="layer"
     id="layer1"
     transform="translate(0,-289.59165)">
    <path
       style="opacity:1;fill:#e3010f;fill-opacity:1;stroke:none;stroke-width:1.00157475;stroke-linecap:round;stroke-linejoin:round;stroke-miterlimit:4;stroke-dasharray:none;stroke-opacity:1"
       d="M 2.0488281 2.1113281 L 2.0488281 25.888672 L 25.951172 25.888672 L 25.951172 2.1113281 L 2.0488281 2.1113281 z M 5.3242188 7.9179688 L 7.7773438 8.5761719 L 6.7792969 12.298828 C 6.6634829 12.731052 6.6349122 13.042062 6.6933594 13.234375 C 6.7526673 13.423476 6.9074738 13.552481 7.15625 13.619141 C 7.4019109 13.684965 7.5992766 13.647418 7.75 13.507812 C 7.9007234 13.368209 8.0331746 13.08694 8.1464844 12.664062 L 9.1445312 8.9414062 L 11.597656 9.5996094 L 10.605469 13.302734 C 10.47549 13.787821 10.335005 14.178021 10.185547 14.474609 C 10.03921 14.772008 9.8684783 15.007688 9.671875 15.181641 C 9.2840764 15.534334 8.8225496 15.760974 8.2890625 15.861328 C 7.7555559 15.961755 7.1864544 15.932009 6.5800781 15.769531 C 5.9705914 15.60622 5.4586918 15.347866 5.046875 14.994141 C 4.6350582 14.640415 4.3509223 14.212159 4.1914062 13.712891 C 4.1104 13.467891 4.0804226 13.183101 4.1015625 12.855469 C 4.1227024 12.527836 4.1995552 12.115502 4.3320312 11.621094 L 5.3242188 7.9179688 z M 11.904297 9.6816406 L 14.564453 10.394531 L 14.625 13.060547 C 14.634071 13.449594 14.630189 13.775018 14.613281 14.037109 C 14.599482 14.30006 14.570113 14.541847 14.527344 14.763672 L 14.574219 14.777344 C 14.666951 14.555681 14.776062 14.324075 14.900391 14.083984 C 15.027809 13.844826 15.175538 13.588825 15.345703 13.314453 L 16.789062 10.990234 L 19.396484 11.689453 L 14.96875 17.822266 L 12.683594 17.208984 L 11.904297 9.6816406 z M 19.708984 11.773438 L 22.166016 12.431641 L 20.931641 17.044922 L 23.318359 17.683594 L 22.724609 19.900391 L 17.878906 18.601562 L 19.708984 11.773438 z "
       transform="matrix(0.26458333,0,0,0.26458333,0,289.59165)"
       id="rect842" />
    <g
       aria-label="UVL"
       transform="rotate(15)"
       style="font-style:normal;font-weight:normal;font-size:2.61666107px;line-height:1.25;font-family:sans-serif;letter-spacing:0px;word-spacing:0px;fill:#000000;fill-opacity:1;stroke:none;stroke-width:0.12265598"
       id="text846" />
  </g>
</svg>
