<?xml version="1.0" encoding="UTF-8" standalone="no"?>
<!-- Created with Inkscape (http://www.inkscape.org/) -->

<svg
   xmlns:dc="http://purl.org/dc/elements/1.1/"
   xmlns:cc="http://creativecommons.org/ns#"
   xmlns:rdf="http://www.w3.org/1999/02/22-rdf-syntax-ns#"
   xmlns:svg="http://www.w3.org/2000/svg"
   xmlns="http://www.w3.org/2000/svg"
   xmlns:sodipodi="http://sodipodi.sourceforge.net/DTD/sodipodi-0.dtd"
   xmlns:inkscape="http://www.inkscape.org/namespaces/inkscape"
   width="28"
   height="28"
   viewBox="0 0 7.4083332 7.4083335"
   version="1.1"
   id="svg8"
   inkscape:version="0.92.2 5c3e80d, 2017-08-06"
   sodipodi:docname="icon_inca.svg">
  <defs
     id="defs2" />
  <sodipodi:namedview
     id="base"
     pagecolor="#ffffff"
     bordercolor="#666666"
     borderopacity="1.0"
     inkscape:pageopacity="0.0"
     inkscape:pageshadow="2"
     inkscape:zoom="11.907173"
     inkscape:cx="7.9374503"
     inkscape:cy="1.5520401"
     inkscape:document-units="px"
     inkscape:current-layer="layer1"
     showgrid="false"
     units="px"
     inkscape:showpageshadow="false"
     inkscape:window-width="1920"
     inkscape:window-height="1156"
     inkscape:window-x="0"
     inkscape:window-y="0"
     inkscape:window-maximized="1"
     showguides="false" />
  <metadata
     id="metadata5">
    <rdf:RDF>
      <cc:Work
         rdf:about="">
        <dc:format>image/svg+xml</dc:format>
        <dc:type
           rdf:resource="http://purl.org/dc/dcmitype/StillImage" />
        <dc:title></dc:title>
      </cc:Work>
    </rdf:RDF>
  </metadata>
  <g
     inkscape:label="Livello 1"
     inkscape:groupmode="layer"
     id="layer1"
     transform="translate(0,-289.59165)">
    <g
       id="g1123"
       transform="matrix(0.81364837,0,0,0.81364837,0.69666661,54.656148)">
      <path
         transform="matrix(0.26458333,0,0,0.26458333,0,289.59165)"
         sodipodi:nodetypes="cccc"
         inkscape:connector-curvature="0"
         id="rect1086"
         d="M -0.67773438,-0.578125 V 4.4082031 L 17.931641,-0.578125 Z"
         style="opacity:1;fill:#00b4e2;fill-opacity:1;stroke:none;stroke-width:1.26125467;stroke-linecap:round;stroke-linejoin:round;stroke-miterlimit:4;stroke-dasharray:none;stroke-opacity:1" />
      <path
         id="rect1084"
         d="m -75.507591,281.08572 h 6.35 v 6.35 h -6.35 z"
         style="opacity:1;fill:#e3010f;fill-opacity:1;stroke:none;stroke-width:0.33370697;stroke-linecap:round;stroke-linejoin:round;stroke-miterlimit:4;stroke-dasharray:none;stroke-opacity:1"
         transform="rotate(-15)"
         inkscape:connector-curvature="0" />
      <path
         style="opacity:1;fill:#7fb924;fill-opacity:1;stroke:none;stroke-width:0.33370697;stroke-linecap:round;stroke-linejoin:round;stroke-miterlimit:4;stroke-dasharray:none;stroke-opacity:1"
         d="m 7.5927353,297.1709 v -1.3193 l -4.9237306,1.3193 z"
         id="path1094"
         inkscape:connector-curvature="0"
         sodipodi:nodetypes="cccc" />
      <path
         style="opacity:1;fill:#fbb80f;fill-opacity:1;stroke:none;stroke-width:0.33370697;stroke-linecap:round;stroke-linejoin:round;stroke-miterlimit:4;stroke-dasharray:none;stroke-opacity:1"
         d="M 7.5984913,289.40726 H 6.279192 l 1.3192993,4.92373 z"
         id="path1096"
         inkscape:connector-curvature="0"
         sodipodi:nodetypes="cccc" />
      <path
         sodipodi:nodetypes="cccc"
         inkscape:connector-curvature="0"
         id="path1098"
         d="m -0.2058628,297.18439 h 1.3192994 l -1.3192994,-4.92373 z"
         style="opacity:1;fill:#8977b5;fill-opacity:1;stroke:none;stroke-width:0.33370697;stroke-linecap:round;stroke-linejoin:round;stroke-miterlimit:4;stroke-dasharray:none;stroke-opacity:1" />
      <g
         transform="matrix(0.2926613,-0.07841835,0.07841835,0.2926613,-19.736601,203.89239)"
         id="text1102"
         style="font-style:normal;font-weight:normal;font-size:13.2611351px;line-height:1.25;font-family:sans-serif;letter-spacing:0px;word-spacing:0px;fill:#f9f9f9;fill-opacity:1;stroke:#f9f9f9;stroke-width:0.62161565"
         aria-label="inca">
        <path
           sodipodi:nodetypes="scscscscsccscsccccscsccc"
           inkscape:connector-curvature="0"
           id="path1104"
           style="font-style:normal;font-variant:normal;font-weight:normal;font-stretch:normal;font-size:13.2611351px;font-family:'.Savoye LET CC.';-inkscape-font-specification:'.Savoye LET CC., Normal';font-variant-ligatures:normal;font-variant-caps:normal;font-variant-numeric:normal;font-feature-settings:normal;text-align:start;writing-mode:lr-tb;text-anchor:start;fill:#f9f9f9;stroke:#f9f9f9;stroke-width:0.62161565"
           d="m -10.998809,299.15324 c 0.176815,0 0.319627,0.0544 0.428437,0.16321 0.108809,0.10881 0.163214,0.25163 0.163214,0.42844 0,0.17001 -0.0578,0.31283 -0.173415,0.42844 -0.11561,0.11561 -0.255022,0.17341 -0.418236,0.17341 -0.156413,0 -0.295825,-0.0612 -0.418236,-0.18361 -0.12241,-0.12241 -0.183615,-0.26183 -0.183615,-0.41824 0,-0.16321 0.05781,-0.30262 0.173414,-0.41823 0.11561,-0.11561 0.258422,-0.17342 0.428437,-0.17342 z m 0.764491,2.62531 -0.897677,3.35609 c -0.149613,0.55085 -0.224419,0.99288 -0.224419,1.32611 0,0.21762 0.0374,0.39444 0.112209,0.53045 0.07481,0.13601 0.173415,0.20402 0.295826,0.20402 0.210818,0 1.969559,-1.42931 2.4319982,-1.93256 l 0.1632139,0.14281 -0.1020087,0.11221 c -0.3876334,0.45564 -2.0953694,1.94276 -2.2789854,2.10597 -0.183616,0.15641 -0.353631,0.23462 -0.510044,0.23462 -0.210818,0 -0.391033,-0.10541 -0.540646,-0.31622 -0.142812,-0.21762 -0.214218,-0.48624 -0.214218,-0.80587 0,-0.20402 0.0408,-0.52705 0.12241,-0.96909 l 0.642655,-3.5703 z" />
        <path
           sodipodi:nodetypes="ccccsscsccccscsccccscsccsssccccc"
           inkscape:connector-curvature="0"
           id="path1106"
           style="font-style:normal;font-variant:normal;font-weight:normal;font-stretch:normal;font-size:13.2611351px;font-family:'.Savoye LET CC.';-inkscape-font-specification:'.Savoye LET CC., Normal';font-variant-ligatures:normal;font-variant-caps:normal;font-variant-numeric:normal;font-feature-settings:normal;text-align:start;writing-mode:lr-tb;text-anchor:start;fill:#f9f9f9;stroke:#f9f9f9;stroke-width:0.62161565"
           d="m -9.1680082,307.84807 1.0812925,-5.65128 0.969083,-0.41824 -0.8772751,3.74372 c 0.5644483,-1.1901 1.1254964,-2.09458 1.6831441,-2.71343 0.5576477,-0.61885 1.0914934,-0.92828 1.601537,-0.92828 0.2516215,0 0.455639,0.085 0.6120524,0.25502 0.1564134,0.16321 0.2346201,0.38423 0.2346201,0.66306 0,0.15641 -0.037403,0.37743 -0.1122096,0.66306 l -0.1020087,0.42843 -0.3060262,1.24451 -0.1020087,0.39783 c -0.1020087,0.40804 -0.1530131,0.72087 -0.1530131,0.93848 0,0.21762 0.037403,0.39444 0.1122096,0.53045 0.074806,0.12921 0.1734148,0.19382 0.2958253,0.19382 0.210818,0 1.5918103,-1.27377 2.0542499,-1.77701 l 0.163214,0.14281 -0.1020087,0.11221 c -0.3876332,0.45564 -1.7176212,1.78721 -1.9012369,1.95042 -0.1836157,0.15641 -0.3536303,0.23462 -0.5100436,0.23462 -0.2108181,0 -0.3910335,-0.10541 -0.5406463,-0.31622 -0.1428123,-0.21762 -0.2142184,-0.48624 -0.2142184,-0.80587 0,-0.21762 0.040803,-0.54065 0.1224105,-0.96909 l 0.3978341,-2.16258 c 0.054405,-0.34003 0.081607,-0.57805 0.081607,-0.71406 0,-0.14281 -0.037403,-0.25162 -0.1122096,-0.32643 -0.074806,-0.0748 -0.1768151,-0.11221 -0.3060262,-0.11221 -0.4692402,0 -1.0472897,0.50324 -1.7341485,1.50973 -0.3332285,0.48284 -0.6086521,0.96228 -0.8262707,1.43832 -0.2176186,0.46924 -0.4624396,1.1221 -0.7344629,1.95857 l -0.091808,0.27542 z" />
        <path
           sodipodi:nodetypes="ccscsscscscscscscccsssccc"
           inkscape:connector-curvature="0"
           id="path1108"
           style="font-style:normal;font-variant:normal;font-weight:normal;font-stretch:normal;font-size:13.2611351px;font-family:'.Savoye LET CC.';-inkscape-font-specification:'.Savoye LET CC., Normal';font-variant-ligatures:normal;font-variant-caps:normal;font-variant-numeric:normal;font-feature-settings:normal;text-align:start;writing-mode:lr-tb;text-anchor:start;fill:#f9f9f9;stroke:#f9f9f9;stroke-width:0.62161565"
           d="m 3.0891102,304.90492 c -0.4148356,0.58485 -2.10825918,2.3243 -2.50269293,2.59632 -0.38763318,0.26523 -0.81947014,0.39784 -1.29551089,0.39784 -0.52364488,0 -0.95208148,-0.18362 -1.28530998,-0.55085 -0.326428,-0.36723 -0.489642,-0.84327 -0.489642,-1.42812 0,-0.61205 0.1598137,-1.23431 0.4794411,-1.86676 0.3196273,-0.63245 0.7276623,-1.1561 1.22410476,-1.57094 0.50324308,-0.41483 0.98608441,-0.62225 1.44852399,-0.62225 0.31282677,0 0.56444835,0.0884 0.75486465,0.26522 0.1904163,0.17001 0.2856244,0.40123 0.2856244,0.69366 0,0.26523 -0.1020087,0.52025 -0.3060262,0.76507 -0.1972169,0.23802 -0.4114352,0.35703 -0.64265499,0.35703 -0.10200873,0 -0.19381659,-0.0408 -0.27542358,-0.12241 0.44203785,-0.19722 0.66305677,-0.56445 0.66305677,-1.1017 0,-0.19041 -0.051004,-0.33662 -0.15301311,-0.43863 -0.0952081,-0.10881 -0.22441921,-0.16322 -0.38763318,-0.16322 -0.25162153,0 -0.50664336,0.10201 -0.76506548,0.30603 -0.25162154,0.20401 -0.48964192,0.48964 -0.71406113,0.85687 -0.2244192,0.36043 -0.4012343,0.74807 -0.5304454,1.1629 -0.1224105,0.40803 -0.1836157,0.82287 -0.1836157,1.24451 0,0.50324 0.1190102,0.91127 0.3570305,1.2241 0.2380204,0.31283 0.55084719,0.46924 0.93848037,0.46924 0.33322853,0 0.65625618,-0.10541 0.96908295,-0.31623 0.31282679,-0.21081 1.92804368,-1.84485 2.26807278,-2.28009 z" />
        <path
           inkscape:connector-curvature="0"
           id="path1110"
           style="font-style:normal;font-variant:normal;font-weight:normal;font-stretch:normal;font-size:13.2611351px;font-family:'.Savoye LET CC.';-inkscape-font-specification:'.Savoye LET CC., Normal';font-variant-ligatures:normal;font-variant-caps:normal;font-variant-numeric:normal;font-feature-settings:normal;text-align:start;writing-mode:lr-tb;text-anchor:start;fill:#f9f9f9;stroke:#f9f9f9;stroke-width:0.62161565"
           d="m 8.2680739,301.71735 -0.9588821,3.73352 q -0.1530131,0.61205 -0.1530131,0.95888 0,0.30603 0.1326114,0.53044 0.1326113,0.22442 0.3264279,0.22442 0.2958253,0 0.9792838,-0.72426 l 0.1428123,0.14281 -0.1122097,0.13262 q -0.5406462,0.62225 -0.8364716,0.87727 -0.2856244,0.24482 -0.4998427,0.24482 -0.326428,0 -0.5712489,-0.33663 -0.2346201,-0.34683 -0.2346201,-0.79567 0,-0.32642 0.2448209,-1.47912 l 0.081607,-0.38764 q -0.3774323,0.87728 -1.0098864,1.68315 -1.0608908,1.34651 -2.0299738,1.34651 -0.5814497,0 -0.9180786,-0.41823 -0.3366288,-0.41824 -0.3366288,-1.1221 0,-0.95888 0.5406463,-2.00957 0.5508472,-1.05069 1.3567161,-1.72395 0.8160699,-0.68346 1.5811354,-0.68346 0.805869,0 1.203703,0.59165 l 0.1122096,-0.38763 z m -1.1731004,1.30571 q -0.1224105,-0.38763 -0.4182358,-0.60185 -0.2856245,-0.22442 -0.6630568,-0.22442 -0.4488384,0 -0.9486812,0.41823 -0.4998428,0.40804 -0.9180786,1.1425 -0.3264279,0.58145 -0.5508471,1.28531 -0.2142184,0.70386 -0.2142184,1.1629 0,0.52025 0.1938166,0.81607 0.2040175,0.29583 0.5712489,0.29583 0.4692402,0 0.9792839,-0.43864 0.5100436,-0.43864 1.0098864,-1.25471 0.3060262,-0.46924 0.479441,-0.93848 0.1734149,-0.46924 0.3876332,-1.30571 z" />
      </g>
    </g>
  </g>
</svg>
