<?xml version="1.0" encoding="UTF-8" standalone="no"?>
<!-- Created with Inkscape (http://www.inkscape.org/) -->

<svg
   xmlns:dc="http://purl.org/dc/elements/1.1/"
   xmlns:cc="http://creativecommons.org/ns#"
   xmlns:rdf="http://www.w3.org/1999/02/22-rdf-syntax-ns#"
   xmlns:svg="http://www.w3.org/2000/svg"
   xmlns="http://www.w3.org/2000/svg"
   xmlns:sodipodi="http://sodipodi.sourceforge.net/DTD/sodipodi-0.dtd"
   xmlns:inkscape="http://www.inkscape.org/namespaces/inkscape"
   width="256"
   height="144"
   viewBox="0 0 67.73333 38.100002"
   version="1.1"
   id="svg8"
   sodipodi:docname="main_logo.svg"
   inkscape:version="0.92.3 (2405546, 2018-03-11)">
  <defs
     id="defs2" />
  <sodipodi:namedview
     id="base"
     pagecolor="#ffffff"
     bordercolor="#666666"
     borderopacity="1.0"
     inkscape:pageopacity="0.0"
     inkscape:pageshadow="2"
     inkscape:zoom="3.7592669"
     inkscape:cx="122.18821"
     inkscape:cy="78.605504"
     inkscape:document-units="px"
     inkscape:current-layer="text869"
     showgrid="false"
     units="px"
     inkscape:showpageshadow="false"
     inkscape:window-width="1920"
     inkscape:window-height="1032"
     inkscape:window-x="0"
     inkscape:window-y="23"
     inkscape:window-maximized="1"
     inkscape:snap-grids="true" />
  <metadata
     id="metadata5">
    <rdf:RDF>
      <cc:Work
         rdf:about="">
        <dc:format>image/svg+xml</dc:format>
        <dc:type
           rdf:resource="http://purl.org/dc/dcmitype/StillImage" />
        <dc:title />
      </cc:Work>
    </rdf:RDF>
  </metadata>
  <g
     inkscape:label="Livello 1"
     inkscape:groupmode="layer"
     id="layer1"
     transform="translate(0,-258.89999)">
    <g
       aria-label="Opis"
       style="font-style:normal;font-variant:normal;font-weight:normal;font-stretch:normal;font-size:17.77799606px;line-height:1.25;font-family:'Futura Hv BT';-inkscape-font-specification:'Futura Hv BT';letter-spacing:0px;word-spacing:0px;fill:#000000;fill-opacity:1;stroke:none;stroke-width:0.74074984"
       id="text869">
      <path
         d="m 21.992114,260.96597 c 0.969096,-0.96908 2.136421,-1.45364 3.501969,-1.45364 1.365548,0 2.532871,0.48476 3.501969,1.45364 0.969098,0.96912 1.453649,2.13644 1.453649,3.50198 v 18.89539 c 0,1.36553 -0.484551,2.53291 -1.453649,3.50197 -0.969098,0.96915 -2.136421,1.45365 -3.501969,1.45365 -1.365548,0 -2.532873,-0.48425 -3.501969,-1.45365 -0.9691,-0.96906 -1.453649,-2.13644 -1.453649,-3.50197 v -18.89539 c 0,-1.36554 0.484551,-2.53286 1.453649,-3.50198 z m 4.658281,2.34564 c -0.308352,-0.33028 -0.693789,-0.4957 -1.156312,-0.4957 -0.462526,0 -0.858975,0.16488 -1.18935,0.4957 -0.30835,0.30845 -0.462521,0.69383 -0.462521,1.15634 v 18.89539 c 0,0.46242 0.154159,0.85903 0.462521,1.18937 0.330375,0.30844 0.726826,0.46241 1.18935,0.46241 0.462521,0 0.847962,-0.15451 1.156312,-0.46241 0.330373,-0.3303 0.49556,-0.72684 0.49556,-1.18937 v -18.89539 c 0,-0.46241 -0.16517,-0.848 -0.49556,-1.15634 z"
         style="font-style:normal;font-variant:normal;font-weight:normal;font-stretch:normal;font-size:medium;line-height:1.25;font-family:OpenDinSchriftenEngshrift;-inkscape-font-specification:OpenDinSchriftenEngshrift;letter-spacing:0px;word-spacing:0px;fill:#e30000;fill-opacity:1;stroke:none;stroke-width:1.37656069"
         id="path871-6"
         inkscape:connector-curvature="0"
         sodipodi:nodetypes="ssssscscssscscsscscssc" />
      <path
         d="m 31.799613,271.80026 c 1.385851,-0.60702 2.401047,-0.42392 3.303745,0 v 3.30373 c 0,-0.90301 0.319363,-1.67393 0.958086,-2.3126 0.660751,-0.6608 1.442639,-0.99113 2.345659,-0.99113 0.903026,0 1.673901,0.33027 2.31262,0.99113 0.660748,0.63867 0.991129,1.40959 0.991129,2.3126 v 9.91128 c 0,0.90296 -0.330395,1.68491 -0.991129,2.3456 -0.638719,0.63878 -1.409594,0.95809 -2.31262,0.95809 -0.90302,0 -1.684908,-0.31886 -2.345659,-0.95809 -0.638723,-0.66069 -0.958086,-1.44264 -0.958086,-2.3456 v 9.91117 c -1.46921,0.61326 -2.411792,0.34903 -3.303745,0 z m 6.11193,3.79928 c -0.308352,-0.3303 -0.693787,-0.4957 -1.156312,-0.4957 -0.462526,0 -0.858973,0.16488 -1.18935,0.4957 -0.30835,0.30845 -0.462521,0.69381 -0.462521,1.15632 v 6.60748 c 0,0.46242 0.154159,0.85903 0.462521,1.18937 0.330375,0.30844 0.726826,0.46241 1.18935,0.46241 0.462523,0 0.847964,-0.15451 1.156312,-0.46241 0.330373,-0.3303 0.49556,-0.72684 0.49556,-1.18937 v -6.60748 c 0,-0.46241 -0.16517,-0.84795 -0.49556,-1.15632 z"
         style="font-style:normal;font-variant:normal;font-weight:normal;font-stretch:normal;font-size:medium;line-height:1.25;font-family:OpenDinSchriftenEngshrift;-inkscape-font-specification:OpenDinSchriftenEngshrift;letter-spacing:0px;word-spacing:0px;fill:#e30000;fill-opacity:1;stroke:none;stroke-width:1.37656069"
         id="path873-2"
         inkscape:connector-curvature="0"
         sodipodi:nodetypes="ccccscssssccccccscsscscssc" />
      <path
         d="m 43.060763,265.19276 c 1.019077,-0.27411 2.091041,-0.37138 3.303743,0 v 3.30374 c -1.062615,0.20657 -2.14466,0.30846 -3.303743,0 z m 0,6.6075 c 1.101248,-0.4312 2.202496,-0.37919 3.303743,0 v 16.5187 c -1.118021,0.40259 -2.218141,0.37504 -3.303743,0 z"
         style="font-style:normal;font-variant:normal;font-weight:normal;font-stretch:normal;font-size:medium;line-height:1.25;font-family:OpenDinSchriftenEngshrift;-inkscape-font-specification:OpenDinSchriftenEngshrift;letter-spacing:0px;word-spacing:0px;fill:#e30000;fill-opacity:1;stroke:none;stroke-width:1.37656069"
         id="path875-9"
         inkscape:connector-curvature="0"
         sodipodi:nodetypes="cccccccccc" />
      <path
         inkscape:connector-curvature="0"
         id="path877-1"
         d="m 52.63018,271.8015 c -1.365543,0 -2.530567,0.48234 -3.499667,1.45149 -0.969119,0.96912 -1.454163,2.13681 -1.454163,3.50233 0,1.36559 0.485069,2.53324 1.454163,3.50236 0.969106,0.96892 2.134118,1.45417 3.499667,1.45417 0.462526,0 0.85015,0.16425 1.158491,0.49458 0.330342,0.30833 0.494576,0.69339 0.494576,1.1558 0,0.46251 -0.164238,0.86045 -0.494576,1.19075 -0.308347,0.30792 -0.695981,0.46231 -1.158491,0.46231 -0.462523,0 -0.857716,-0.15389 -1.188058,-0.46231 -0.308341,-0.3304 -0.462323,-0.72834 -0.462323,-1.19075 -0.894471,-0.33031 -1.904043,-0.56649 -3.303449,0 0,1.36553 0.485069,2.53327 1.454163,3.50235 0.9691,0.9694 2.134124,1.45417 3.499667,1.45417 0.865754,0 1.642838,-0.21796 2.349237,-0.60749 a 6.6009669,6.6009669 0 0 1 2.564271,-3.8867 c 0.01328,-0.15409 0.04302,-0.30276 0.04302,-0.46233 0,-1.36559 -0.485067,-2.53053 -1.454163,-3.49966 -0.969099,-0.96894 -2.1368,-1.45417 -3.502353,-1.45417 -0.462523,0 -0.857716,-0.15389 -1.188057,-0.46233 -0.308342,-0.33034 -0.462324,-0.72833 -0.462324,-1.19075 0,-0.46249 0.153972,-0.84733 0.462324,-1.1558 0.330373,-0.3308 0.725545,-0.49456 1.188057,-0.49456 0.462527,0 0.85015,0.16426 1.158492,0.49456 0.330393,0.30839 0.494576,0.69341 0.494576,1.1558 1.101247,0.57337 2.202201,0.4619 3.303448,0 0,-1.36552 -0.485067,-2.53321 -1.454163,-3.50233 -0.969099,-0.96888 -2.1368,-1.45149 -3.502353,-1.45149 z"
         style="font-style:normal;font-variant:normal;font-weight:normal;font-stretch:normal;font-size:medium;line-height:1.25;font-family:OpenDinSchriftenEngshrift;-inkscape-font-specification:OpenDinSchriftenEngshrift;letter-spacing:0px;word-spacing:0px;fill:#e30000;fill-opacity:1;stroke:none;stroke-width:1.37656069" />
      <path
         style="color:#000000;font-style:normal;font-variant:normal;font-weight:normal;font-stretch:normal;font-size:medium;line-height:1.25;font-family:'Futura Hv BT';-inkscape-font-specification:'Futura Hv BT';font-variant-ligatures:normal;font-variant-position:normal;font-variant-caps:normal;font-variant-numeric:normal;font-variant-alternates:normal;font-feature-settings:normal;text-indent:0;text-align:start;text-decoration:none;text-decoration-line:none;text-decoration-style:solid;text-decoration-color:#000000;letter-spacing:0px;word-spacing:0px;text-transform:none;writing-mode:lr-tb;direction:ltr;text-orientation:mixed;dominant-baseline:auto;baseline-shift:baseline;text-anchor:start;white-space:normal;shape-padding:0;clip-rule:nonzero;display:inline;overflow:visible;visibility:visible;opacity:1;isolation:auto;mix-blend-mode:normal;color-interpolation:sRGB;color-interpolation-filters:linearRGB;solid-color:#000000;solid-opacity:1;vector-effect:none;fill:#e30000;fill-opacity:1;fill-rule:nonzero;stroke:none;stroke-width:2.23595929;stroke-linecap:butt;stroke-linejoin:miter;stroke-miterlimit:4;stroke-dasharray:none;stroke-dashoffset:0;stroke-opacity:1;color-rendering:auto;image-rendering:auto;shape-rendering:auto;text-rendering:auto;enable-background:accumulate"
         d="m 9.5273328,259.51233 c -4.9049687,0 -8.90397969,3.99903 -8.90397857,8.90397 -1.12e-6,4.52661 3.40660197,8.28137 7.78718607,8.83422 v 3.20846 h -4.27926 -1.1167922 c -0.3032227,0.7453 -0.450907,1.49066 0,2.23599 h 1.1167922 4.27926 v 4.27688 1.11924 c 0.7453488,0.31051 1.4906977,0.29805 2.2360467,0 v -1.11924 -4.27688 h 4.276798 1.120075 c 0.217482,-0.63661 0.381021,-1.30015 0,-2.23599 h -1.120075 -4.276798 v -3.20846 c 4.379825,-0.554 7.788008,-4.3085 7.788007,-8.83422 1e-6,-4.90494 -4.002293,-8.90397 -8.9072612,-8.90397 z m 0,2.23605 c 3.6965662,0 6.6712152,2.97131 6.6712142,6.66792 10e-7,3.53145 -2.71661,6.39708 -6.182155,6.6466 H 9.0382748 c -3.465293,-0.24914 -6.1788741,-3.11515 -6.1788741,-6.6466 -6e-7,-3.69661 2.9713653,-6.66792 6.6679321,-6.66792 z"
         id="path4560-6"
         inkscape:connector-curvature="0"
         sodipodi:nodetypes="ssccccccccccccccccccssssccss" />
      <path
         style="color:#000000;font-style:normal;font-variant:normal;font-weight:normal;font-stretch:normal;font-size:medium;line-height:1.25;font-family:'Futura Hv BT';-inkscape-font-specification:'Futura Hv BT';font-variant-ligatures:normal;font-variant-position:normal;font-variant-caps:normal;font-variant-numeric:normal;font-variant-alternates:normal;font-feature-settings:normal;text-indent:0;text-align:start;text-decoration:none;text-decoration-line:none;text-decoration-style:solid;text-decoration-color:#000000;letter-spacing:0px;word-spacing:0px;text-transform:none;writing-mode:lr-tb;direction:ltr;text-orientation:mixed;dominant-baseline:auto;baseline-shift:baseline;text-anchor:start;white-space:normal;shape-padding:0;clip-rule:nonzero;display:inline;overflow:visible;visibility:visible;opacity:1;isolation:auto;mix-blend-mode:normal;color-interpolation:sRGB;color-interpolation-filters:linearRGB;solid-color:#000000;solid-opacity:1;vector-effect:none;fill:#e30000;fill-opacity:1;fill-rule:nonzero;stroke:none;stroke-width:0.91829336;stroke-linecap:square;stroke-linejoin:miter;stroke-miterlimit:4;stroke-dasharray:none;stroke-dashoffset:0;stroke-opacity:1;color-rendering:auto;image-rendering:auto;shape-rendering:auto;text-rendering:auto;enable-background:accumulate"
         d="m 8.5070374,262.69342 v 0.45981 1.78025 H 6.1721117 5.713098 v 0.91867 h 0.459011 2.3349257 v 7.19275 0.45981 h 0.9193564 v -0.45981 -3.58701 c 0.6728959,-0.40674 1.2086979,-0.58708 1.5311529,-0.60514 0.328382,-0.0207 0.396568,0.0365 0.479609,0.21327 0.08303,0.17586 0.116221,0.57579 -0.02991,1.14717 -0.146113,0.5708 -0.453804,1.29994 -0.939284,2.13627 -0.08007,0.13792 -0.119913,0.24969 -0.170717,0.45513 -0.05076,0.20491 -0.114146,0.46032 0.03251,0.7732 0.07335,0.15658 0.23253,0.31158 0.417165,0.37918 0.184635,0.067 0.370258,0.0628 0.561977,0.026 0.383439,-0.0749 0.824673,-0.28454 1.458747,-0.68821 l 0.389265,-0.24552 -0.494886,-0.77589 -0.386612,0.24655 c -0.559864,0.35577 -0.911527,0.49415 -1.092067,0.53658 0.0021,-0.0207 7.2e-5,-0.0104 0.0053,-0.0311 0.02798,-0.11282 0.108298,-0.27463 0.0724,-0.21324 0.516534,-0.88981 0.861233,-1.6834 1.036934,-2.37013 0.175699,-0.68676 0.201726,-1.2806 -0.02991,-1.77033 -0.231619,-0.48997 -0.784072,-0.77095 -1.36309,-0.73797 -0.444363,0.0259 -0.9307842,0.18562 -1.4786755,0.47072 v -2.5515 h 2.3322715 0.45901 v -0.91863 h -0.45892 -2.3322677 v -1.78029 -0.45979 z"
         id="path4595-2"
         inkscape:connector-curvature="0" />
      <path
         inkscape:connector-curvature="0"
         id="path944"
         d="m 61.414287,283.46705 a 5.6949502,5.6949502 0 0 0 -5.695694,5.6957 5.6949502,5.6949502 0 0 0 5.695694,5.69568 5.6949502,5.6949502 0 0 0 5.695692,-5.69568 5.6949502,5.6949502 0 0 0 -5.695692,-5.6957 z m -3.97274,2.9809 h 3.083039 c 0.436019,0 0.765893,0.0386 0.986466,0.11551 0.359077,0.12838 0.537584,0.36915 0.537584,0.72306 v 1.64501 c 0,0.27706 -0.193419,0.49688 -0.583278,0.65585 -0.297522,0.1178 -0.612477,0.17462 -0.940772,0.17462 h -1.037533 v 2.11807 h -2.045506 z m 5.260251,0 h 1.161179 c 0.348815,0 0.664015,0.0568 0.946146,0.17463 0.384723,0.1487 0.577903,0.3715 0.577903,0.6639 v 4.59365 h -2.045503 v -4.22541 h -0.639725 z m -3.214745,1.20689 v 0.90849 h 0.516078 v -0.90849 z"
         style="font-style:normal;font-variant:normal;font-weight:normal;font-stretch:normal;font-size:medium;line-height:1.25;font-family:'Futura Hv BT';-inkscape-font-specification:'Futura Hv BT';letter-spacing:0px;word-spacing:0px;fill:#333333;fill-opacity:1;stroke:none;stroke-width:2.72490072;stroke-linecap:square;stroke-miterlimit:4;stroke-dasharray:none;stroke-opacity:1" />
      <g
         id="text835"
         style="font-style:normal;font-variant:normal;font-weight:normal;font-stretch:normal;font-size:1.49278176px;line-height:1.25;font-family:sans-serif;-inkscape-font-specification:'Futura Hv BT';letter-spacing:0px;word-spacing:0px;fill:#e30000;fill-opacity:1;stroke:none;stroke-width:0.10366666"
         aria-label="production one"
         transform="matrix(1.5299965,0,0,1.5299965,19.830845,-155.75975)">
        <path
           id="path868"
           style="font-style:normal;font-variant:normal;font-weight:normal;font-stretch:normal;font-family:'Sui Generis';-inkscape-font-specification:'Sui Generis';fill:#e30000;fill-opacity:1;stroke-width:0.10366666"
           d="m 16.866321,293.76441 q 0,0.13436 -0.09554,0.22989 -0.09405,0.094 -0.228396,0.094 h -0.201526 q -0.05971,0 -0.119422,-0.0358 -0.05971,-0.0358 -0.0821,-0.0881 v 0.39409 h -0.243323 v -1.10615 h 0.243323 v 0.12689 q 0.01941,-0.0493 0.08061,-0.0881 0.0612,-0.0388 0.120915,-0.0388 h 0.201526 q 0.13435,0 0.228396,0.0955 0.09554,0.0955 0.09554,0.22839 z m -0.241831,0 v -0.18809 q 0,-0.0328 -0.02388,-0.0567 -0.02388,-0.0239 -0.05822,-0.0239 h -0.322441 q -0.03433,0 -0.05822,0.0239 -0.02239,0.0239 -0.02239,0.0567 v 0.18809 q 0,0.0343 0.02239,0.0582 0.02388,0.0239 0.05822,0.0239 h 0.322441 q 0.03433,0 0.05822,-0.0239 0.02388,-0.0239 0.02388,-0.0582 z"
           inkscape:connector-curvature="0" />
        <path
           id="path870"
           style="font-style:normal;font-variant:normal;font-weight:normal;font-stretch:normal;font-family:'Sui Generis';-inkscape-font-specification:'Sui Generis';fill:#e30000;fill-opacity:1;stroke-width:0.10366666"
           d="m 17.555636,293.25239 -0.02687,0.24034 q -0.09106,-0.0537 -0.153757,-0.0403 -0.114944,0.0269 -0.114944,0.23586 v 0.40156 h -0.243323 v -0.83745 h 0.240338 v 0.1239 q 0.03881,-0.097 0.117929,-0.1239 0.04628,-0.0164 0.108973,-0.0104 0.03135,10e-4 0.07165,0.0104 z"
           inkscape:connector-curvature="0" />
        <path
           id="path872-9"
           style="font-style:normal;font-variant:normal;font-weight:normal;font-stretch:normal;font-family:'Sui Generis';-inkscape-font-specification:'Sui Generis';fill:#e30000;fill-opacity:1;stroke-width:0.10366666"
           d="m 18.606718,293.76441 q 0,0.13436 -0.09554,0.22989 -0.09405,0.094 -0.228396,0.094 h -0.322441 q -0.13435,0 -0.229888,-0.094 -0.09405,-0.0955 -0.09405,-0.22989 v -0.18809 q 0,-0.13435 0.09405,-0.22839 0.09554,-0.0955 0.229888,-0.0955 h 0.322441 q 0.13435,0 0.228396,0.0955 0.09554,0.094 0.09554,0.22839 z m -0.243324,0 v -0.18809 q 0,-0.0328 -0.02388,-0.0567 -0.02239,-0.0239 -0.05673,-0.0239 h -0.322441 q -0.03433,0 -0.05822,0.0239 -0.02239,0.0239 -0.02239,0.0567 v 0.18809 q 0,0.0343 0.02239,0.0582 0.02388,0.0239 0.05822,0.0239 h 0.322441 q 0.03433,0 0.05673,-0.0239 0.02388,-0.0239 0.02388,-0.0582 z"
           inkscape:connector-curvature="0" />
        <path
           id="path874-1"
           style="font-style:normal;font-variant:normal;font-weight:normal;font-stretch:normal;font-family:'Sui Generis';-inkscape-font-specification:'Sui Generis';fill:#e30000;fill-opacity:1;stroke-width:0.10366666"
           d="m 19.656633,294.08835 q -0.06867,-0.0179 -0.119423,-0.0702 -0.09554,0.0702 -0.231381,0.0702 h -0.24183 q -0.134351,0 -0.229889,-0.094 -0.09404,-0.0955 -0.09404,-0.22989 v -0.18809 q 0,-0.13435 0.09404,-0.22839 0.09554,-0.0955 0.229889,-0.0955 h 0.147785 q 0.138829,0 0.203018,0.1239 v -0.40604 l 0.241831,-0.0806 z m -0.241831,-0.29408 v -0.18809 q 0,-0.0403 -0.03433,-0.0746 -0.03284,-0.0358 -0.07762,-0.0358 h -0.238845 q -0.03284,0 -0.05673,0.0239 -0.02388,0.0239 -0.02388,0.0567 v 0.18809 q 0,0.0343 0.02239,0.0582 0.02388,0.0239 0.05822,0.0239 h 0.298556 q 0.05225,0 0.05225,-0.0523 z"
           inkscape:connector-curvature="0" />
        <path
           id="path876-2"
           style="font-style:normal;font-variant:normal;font-weight:normal;font-stretch:normal;font-family:'Sui Generis';-inkscape-font-specification:'Sui Generis';fill:#e30000;fill-opacity:1;stroke-width:0.10366666"
           d="m 20.725022,294.08835 q -0.06419,-0.0209 -0.111959,-0.0746 -0.04628,0.0373 -0.07315,0.0507 -0.05374,0.0239 -0.138829,0.0239 h -0.268701 q -0.13435,0 -0.229888,-0.094 -0.09404,-0.0955 -0.09404,-0.22989 v -0.51202 h 0.243323 v 0.51202 q 0,0.0343 0.02239,0.0582 0.02388,0.0239 0.05822,0.0239 h 0.301542 q 0.04777,0 0.04777,-0.0642 v -0.52994 h 0.243324 z"
           inkscape:connector-curvature="0" />
        <path
           id="path878-7"
           style="font-style:normal;font-variant:normal;font-weight:normal;font-stretch:normal;font-family:'Sui Generis';-inkscape-font-specification:'Sui Generis';fill:#e30000;fill-opacity:1;stroke-width:0.10366666"
           d="m 21.784803,293.94355 q -0.04478,0.0657 -0.119422,0.10599 -0.07315,0.0388 -0.152264,0.0388 h -0.331398 q -0.13435,0 -0.229888,-0.094 -0.09404,-0.0955 -0.09404,-0.22989 v -0.18809 q 0,-0.13435 0.09404,-0.22839 0.09554,-0.0955 0.229888,-0.0955 h 0.323934 q 0.167192,0 0.264222,0.13734 l -0.19854,0.14032 q -0.02388,-0.0343 -0.06568,-0.0343 h -0.323934 q -0.03284,0 -0.05673,0.0239 -0.02388,0.0239 -0.02388,0.0567 v 0.18809 q 0,0.0343 0.02388,0.0582 0.02388,0.0239 0.05673,0.0239 h 0.323934 q 0.06419,0 0.100016,-0.0672 z"
           inkscape:connector-curvature="0" />
        <path
           id="path880-0"
           style="font-style:normal;font-variant:normal;font-weight:normal;font-stretch:normal;font-family:'Sui Generis';-inkscape-font-specification:'Sui Generis';fill:#e30000;fill-opacity:1;stroke-width:0.10366666"
           d="m 22.359268,293.84204 -0.02986,0.24034 q -0.05673,0.0269 -0.110466,0.0269 -0.168684,0 -0.247802,-0.15973 -0.0612,-0.1239 -0.0612,-0.32991 v -0.1239 h -0.108973 l 0.02687,-0.24332 h 0.0821 v -0.20152 l 0.241831,-0.0806 v 0.28214 h 0.143307 l -0.02687,0.24332 h -0.116437 v 0.1239 q 0,0.12988 0.0209,0.18212 0.0209,0.0522 0.08807,0.0642 0.0612,0.009 0.09852,-0.0239 z"
           inkscape:connector-curvature="0" />
        <path
           id="path882-9"
           style="font-style:normal;font-variant:normal;font-weight:normal;font-stretch:normal;font-family:'Sui Generis';-inkscape-font-specification:'Sui Generis';fill:#e30000;fill-opacity:1;stroke-width:0.10366666"
           d="m 22.70347,293.08221 h -0.24183 v -0.15226 h 0.24183 z m 0,1.00614 h -0.24183 v -0.83596 h 0.24183 z"
           inkscape:connector-curvature="0" />
        <path
           id="path884-3"
           style="font-style:normal;font-variant:normal;font-weight:normal;font-stretch:normal;font-family:'Sui Generis';-inkscape-font-specification:'Sui Generis';fill:#e30000;fill-opacity:1;stroke-width:0.10366666"
           d="m 23.819792,293.76441 q 0,0.13436 -0.09554,0.22989 -0.09405,0.094 -0.228396,0.094 h -0.322441 q -0.13435,0 -0.229888,-0.094 -0.09405,-0.0955 -0.09405,-0.22989 v -0.18809 q 0,-0.13435 0.09405,-0.22839 0.09554,-0.0955 0.229888,-0.0955 h 0.322441 q 0.13435,0 0.228396,0.0955 0.09554,0.094 0.09554,0.22839 z m -0.243324,0 v -0.18809 q 0,-0.0328 -0.02388,-0.0567 -0.02239,-0.0239 -0.05673,-0.0239 h -0.322441 q -0.03433,0 -0.05822,0.0239 -0.02239,0.0239 -0.02239,0.0567 v 0.18809 q 0,0.0343 0.02239,0.0582 0.02388,0.0239 0.05822,0.0239 h 0.322441 q 0.03433,0 0.05673,-0.0239 0.02388,-0.0239 0.02388,-0.0582 z"
           inkscape:connector-curvature="0" />
        <path
           id="path886-6"
           style="font-style:normal;font-variant:normal;font-weight:normal;font-stretch:normal;font-family:'Sui Generis';-inkscape-font-specification:'Sui Generis';fill:#e30000;fill-opacity:1;stroke-width:0.10366666"
           d="m 24.893591,294.08835 h -0.243323 v -0.51203 q 0,-0.0328 -0.02388,-0.0567 -0.02388,-0.0239 -0.05673,-0.0239 h -0.265716 q -0.111958,0 -0.111958,0.11047 v 0.48217 h -0.241831 v -0.83596 h 0.241831 v 0.13435 q 0.02538,-0.0567 0.0821,-0.0955 0.05822,-0.0388 0.120915,-0.0388 h 0.174656 q 0.13435,0 0.228395,0.0955 0.09554,0.094 0.09554,0.22839 z"
           inkscape:connector-curvature="0" />
        <path
           id="path888-0"
           style="font-style:normal;font-variant:normal;font-weight:normal;font-stretch:normal;font-family:'Sui Generis';-inkscape-font-specification:'Sui Generis';fill:#e30000;fill-opacity:1;stroke-width:0.10366666"
           d="m 26.513796,293.76441 q 0,0.13436 -0.09554,0.22989 -0.09405,0.094 -0.228396,0.094 h -0.32244 q -0.134351,0 -0.229889,-0.094 -0.09405,-0.0955 -0.09405,-0.22989 v -0.18809 q 0,-0.13435 0.09405,-0.22839 0.09554,-0.0955 0.229889,-0.0955 h 0.32244 q 0.134351,0 0.228396,0.0955 0.09554,0.094 0.09554,0.22839 z m -0.243323,0 v -0.18809 q 0,-0.0328 -0.02388,-0.0567 -0.02239,-0.0239 -0.05673,-0.0239 h -0.32244 q -0.03433,0 -0.05822,0.0239 -0.02239,0.0239 -0.02239,0.0567 v 0.18809 q 0,0.0343 0.02239,0.0582 0.02388,0.0239 0.05822,0.0239 h 0.32244 q 0.03433,0 0.05673,-0.0239 0.02388,-0.0239 0.02388,-0.0582 z"
           inkscape:connector-curvature="0" />
        <path
           id="path890-6"
           style="font-style:normal;font-variant:normal;font-weight:normal;font-stretch:normal;font-family:'Sui Generis';-inkscape-font-specification:'Sui Generis';fill:#e30000;fill-opacity:1;stroke-width:0.10366666"
           d="m 27.587596,294.08835 h -0.243323 v -0.51203 q 0,-0.0328 -0.02388,-0.0567 -0.02388,-0.0239 -0.05673,-0.0239 h -0.265716 q -0.111958,0 -0.111958,0.11047 v 0.48217 h -0.241831 v -0.83596 h 0.241831 v 0.13435 q 0.02538,-0.0567 0.0821,-0.0955 0.05822,-0.0388 0.120915,-0.0388 h 0.174656 q 0.13435,0 0.228395,0.0955 0.09554,0.094 0.09554,0.22839 z"
           inkscape:connector-curvature="0" />
        <path
           id="path892-2"
           style="font-style:normal;font-variant:normal;font-weight:normal;font-stretch:normal;font-family:'Sui Generis';-inkscape-font-specification:'Sui Generis';fill:#e30000;fill-opacity:1;stroke-width:0.10366666"
           d="m 28.691321,293.73904 h -0.728477 v 0.0254 q 0,0.0343 0.02388,0.0612 0.02388,0.0254 0.05673,0.0254 h 0.623983 l -0.02986,0.23735 H 28.04345 q -0.134351,0 -0.228396,-0.094 -0.09405,-0.0955 -0.09405,-0.22989 v -0.18809 q 0,-0.13435 0.09405,-0.22839 0.09554,-0.0955 0.228396,-0.0955 h 0.323933 q 0.134351,0 0.228396,0.0955 0.09554,0.094 0.09554,0.22839 z m -0.243323,-0.13585 v -0.0403 q 0,-0.0328 -0.02388,-0.0567 -0.02388,-0.0254 -0.05673,-0.0254 h -0.323933 q -0.03284,0 -0.05673,0.0254 -0.02388,0.0239 -0.02388,0.0567 v 0.0403 z"
           inkscape:connector-curvature="0" />
      </g>
      <g
         aria-label="pordenone edition"
         style="font-style:normal;font-weight:normal;font-size:1.31047022px;line-height:1.25;font-family:sans-serif;letter-spacing:0px;word-spacing:0px;fill:#333333;fill-opacity:1;stroke:none;stroke-width:0.0728048"
         id="text858"
         transform="matrix(1.0150431,0,0,1.0150431,-0.50946016,-4.7281266)">
        <path
           inkscape:connector-curvature="0"
           d="m 44.851074,296.13161 q 0,0.11795 -0.08387,0.20182 -0.08256,0.0826 -0.200502,0.0826 h -0.176913 q -0.05242,0 -0.104838,-0.0315 -0.05242,-0.0315 -0.07208,-0.0773 v 0.34596 h -0.213606 v -0.97106 h 0.213606 v 0.11139 q 0.01704,-0.0432 0.07077,-0.0773 0.05373,-0.0341 0.106148,-0.0341 h 0.176913 q 0.117942,0 0.200502,0.0839 0.08387,0.0839 0.08387,0.2005 z m -0.212296,0 v -0.16512 q 0,-0.0288 -0.02097,-0.0498 -0.02097,-0.021 -0.05111,-0.021 h -0.283061 q -0.03014,0 -0.05111,0.021 -0.01966,0.021 -0.01966,0.0498 v 0.16512 q 0,0.0301 0.01966,0.0511 0.02097,0.021 0.05111,0.021 h 0.283061 q 0.03014,0 0.05111,-0.021 0.02097,-0.021 0.02097,-0.0511 z"
           style="font-style:normal;font-variant:normal;font-weight:normal;font-stretch:normal;font-family:'Sui Generis';-inkscape-font-specification:'Sui Generis';fill:#333333;fill-opacity:1;stroke-width:0.0728048"
           id="path860" />
        <path
           inkscape:connector-curvature="0"
           d="m 45.838862,296.13161 q 0,0.11795 -0.08387,0.20182 -0.08256,0.0826 -0.200502,0.0826 h -0.283062 q -0.117942,0 -0.201812,-0.0826 -0.08256,-0.0839 -0.08256,-0.20182 v -0.16512 q 0,-0.11794 0.08256,-0.2005 0.08387,-0.0839 0.201812,-0.0839 h 0.283062 q 0.117942,0 0.200502,0.0839 0.08387,0.0826 0.08387,0.2005 z m -0.213607,0 v -0.16512 q 0,-0.0288 -0.02097,-0.0498 -0.01966,-0.021 -0.0498,-0.021 h -0.283062 q -0.03014,0 -0.05111,0.021 -0.01966,0.021 -0.01966,0.0498 v 0.16512 q 0,0.0301 0.01966,0.0511 0.02097,0.021 0.05111,0.021 h 0.283062 q 0.03014,0 0.0498,-0.021 0.02097,-0.021 0.02097,-0.0511 z"
           style="font-style:normal;font-variant:normal;font-weight:normal;font-stretch:normal;font-family:'Sui Generis';-inkscape-font-specification:'Sui Generis';fill:#333333;fill-opacity:1;stroke-width:0.0728048"
           id="path862" />
        <path
           inkscape:connector-curvature="0"
           d="m 46.42114,295.68212 -0.02359,0.21099 q -0.07994,-0.0472 -0.134979,-0.0354 -0.100906,0.0236 -0.100906,0.20706 v 0.35252 h -0.213606 v -0.73518 h 0.210985 v 0.10877 q 0.03407,-0.0852 0.103527,-0.10877 0.04062,-0.0144 0.09566,-0.009 0.02752,10e-4 0.0629,0.009 z"
           style="font-style:normal;font-variant:normal;font-weight:normal;font-stretch:normal;font-family:'Sui Generis';-inkscape-font-specification:'Sui Generis';fill:#333333;fill-opacity:1;stroke-width:0.0728048"
           id="path864" />
        <path
           inkscape:connector-curvature="0"
           d="m 47.300609,296.41599 q -0.06028,-0.0157 -0.104838,-0.0616 -0.08387,0.0616 -0.203122,0.0616 h -0.212297 q -0.117942,0 -0.201812,-0.0826 -0.08256,-0.0839 -0.08256,-0.20182 v -0.16512 q 0,-0.11794 0.08256,-0.2005 0.08387,-0.0839 0.201812,-0.0839 h 0.129737 q 0.121874,0 0.178224,0.10877 v -0.35645 l 0.212296,-0.0708 z m -0.212296,-0.25817 v -0.16512 q 0,-0.0354 -0.03014,-0.0655 -0.02883,-0.0315 -0.06814,-0.0315 h -0.209676 q -0.02883,0 -0.0498,0.021 -0.02097,0.021 -0.02097,0.0498 v 0.16512 q 0,0.0301 0.01966,0.0511 0.02097,0.021 0.05111,0.021 h 0.262094 q 0.04587,0 0.04587,-0.0459 z"
           style="font-style:normal;font-variant:normal;font-weight:normal;font-stretch:normal;font-family:'Sui Generis';-inkscape-font-specification:'Sui Generis';fill:#333333;fill-opacity:1;stroke-width:0.0728048"
           id="path866" />
        <path
           inkscape:connector-curvature="0"
           d="M 48.272589,296.10934 H 47.63308 v 0.0223 q 0,0.0301 0.02097,0.0537 0.02097,0.0223 0.0498,0.0223 h 0.547777 l -0.02621,0.20837 H 47.70385 q -0.117942,0 -0.200502,-0.0826 -0.08256,-0.0839 -0.08256,-0.20182 v -0.16512 q 0,-0.11794 0.08256,-0.2005 0.08387,-0.0839 0.200502,-0.0839 h 0.284372 q 0.117942,0 0.200502,0.0839 0.08387,0.0826 0.08387,0.2005 z m -0.213607,-0.11926 v -0.0354 q 0,-0.0288 -0.02097,-0.0498 -0.02097,-0.0223 -0.0498,-0.0223 H 47.70384 q -0.02883,0 -0.0498,0.0223 -0.02097,0.021 -0.02097,0.0498 v 0.0354 z"
           style="font-style:normal;font-variant:normal;font-weight:normal;font-stretch:normal;font-family:'Sui Generis';-inkscape-font-specification:'Sui Generis';fill:#333333;fill-opacity:1;stroke-width:0.0728048"
           id="path869" />
        <path
           inkscape:connector-curvature="0"
           d="m 49.213056,296.41599 h -0.213607 v -0.4495 q 0,-0.0288 -0.02097,-0.0498 -0.02097,-0.021 -0.0498,-0.021 H 48.69542 q -0.09828,0 -0.09828,0.097 v 0.42329 h -0.212296 v -0.73387 h 0.212296 v 0.11794 q 0.02228,-0.0498 0.07208,-0.0839 0.05111,-0.0341 0.106148,-0.0341 h 0.153325 q 0.117942,0 0.200502,0.0839 0.08387,0.0826 0.08387,0.2005 z"
           style="font-style:normal;font-variant:normal;font-weight:normal;font-stretch:normal;font-family:'Sui Generis';-inkscape-font-specification:'Sui Generis';fill:#333333;fill-opacity:1;stroke-width:0.0728048"
           id="path871" />
        <path
           inkscape:connector-curvature="0"
           d="m 50.197711,296.13161 q 0,0.11795 -0.08387,0.20182 -0.08256,0.0826 -0.200502,0.0826 h -0.283062 q -0.117942,0 -0.201812,-0.0826 -0.08256,-0.0839 -0.08256,-0.20182 v -0.16512 q 0,-0.11794 0.08256,-0.2005 0.08387,-0.0839 0.201812,-0.0839 h 0.283062 q 0.117942,0 0.200502,0.0839 0.08387,0.0826 0.08387,0.2005 z m -0.213607,0 v -0.16512 q 0,-0.0288 -0.02097,-0.0498 -0.01966,-0.021 -0.0498,-0.021 h -0.283062 q -0.03014,0 -0.05111,0.021 -0.01966,0.021 -0.01966,0.0498 v 0.16512 q 0,0.0301 0.01966,0.0511 0.02097,0.021 0.05111,0.021 h 0.283062 q 0.03014,0 0.0498,-0.021 0.02097,-0.021 0.02097,-0.0511 z"
           style="font-style:normal;font-variant:normal;font-weight:normal;font-stretch:normal;font-family:'Sui Generis';-inkscape-font-specification:'Sui Generis';fill:#333333;fill-opacity:1;stroke-width:0.0728048"
           id="path873" />
        <path
           inkscape:connector-curvature="0"
           d="m 51.140369,296.41599 h -0.213607 v -0.4495 q 0,-0.0288 -0.02097,-0.0498 -0.02097,-0.021 -0.0498,-0.021 h -0.233264 q -0.09828,0 -0.09828,0.097 v 0.42329 h -0.212296 v -0.73387 h 0.212296 v 0.11794 q 0.02228,-0.0498 0.07208,-0.0839 0.05111,-0.0341 0.106148,-0.0341 h 0.153325 q 0.117942,0 0.200502,0.0839 0.08387,0.0826 0.08387,0.2005 z"
           style="font-style:normal;font-variant:normal;font-weight:normal;font-stretch:normal;font-family:'Sui Generis';-inkscape-font-specification:'Sui Generis';fill:#333333;fill-opacity:1;stroke-width:0.0728048"
           id="path875" />
        <path
           inkscape:connector-curvature="0"
           d="m 52.109298,296.10934 h -0.63951 v 0.0223 q 0,0.0301 0.02097,0.0537 0.02097,0.0223 0.0498,0.0223 h 0.547776 l -0.02621,0.20837 h -0.521567 q -0.117942,0 -0.200502,-0.0826 -0.08256,-0.0839 -0.08256,-0.20182 v -0.16512 q 0,-0.11794 0.08256,-0.2005 0.08387,-0.0839 0.200502,-0.0839 h 0.284372 q 0.117942,0 0.200502,0.0839 0.08387,0.0826 0.08387,0.2005 z m -0.213607,-0.11926 v -0.0354 q 0,-0.0288 -0.02097,-0.0498 -0.02097,-0.0223 -0.0498,-0.0223 h -0.284372 q -0.02883,0 -0.0498,0.0223 -0.02097,0.021 -0.02097,0.0498 v 0.0354 z"
           style="font-style:normal;font-variant:normal;font-weight:normal;font-stretch:normal;font-family:'Sui Generis';-inkscape-font-specification:'Sui Generis';fill:#333333;fill-opacity:1;stroke-width:0.0728048"
           id="path877" />
        <path
           inkscape:connector-curvature="0"
           d="m 53.493994,296.10934 h -0.639509 v 0.0223 q 0,0.0301 0.02097,0.0537 0.02097,0.0223 0.0498,0.0223 h 0.547777 l -0.02621,0.20837 H 52.92525 q -0.117942,0 -0.200502,-0.0826 -0.08256,-0.0839 -0.08256,-0.20182 v -0.16512 q 0,-0.11794 0.08256,-0.2005 0.08387,-0.0839 0.200502,-0.0839 h 0.284372 q 0.117943,0 0.200502,0.0839 0.08387,0.0826 0.08387,0.2005 z m -0.213606,-0.11926 v -0.0354 q 0,-0.0288 -0.02097,-0.0498 -0.02097,-0.0223 -0.0498,-0.0223 H 52.92525 q -0.02883,0 -0.0498,0.0223 -0.02097,0.021 -0.02097,0.0498 v 0.0354 z"
           style="font-style:normal;font-variant:normal;font-weight:normal;font-stretch:normal;font-family:'Sui Generis';-inkscape-font-specification:'Sui Generis';fill:#333333;fill-opacity:1;stroke-width:0.0728048"
           id="path879" />
        <path
           inkscape:connector-curvature="0"
           d="m 54.413493,296.41599 q -0.06028,-0.0157 -0.104837,-0.0616 -0.08387,0.0616 -0.203123,0.0616 h -0.212297 q -0.117942,0 -0.201812,-0.0826 -0.08256,-0.0839 -0.08256,-0.20182 v -0.16512 q 0,-0.11794 0.08256,-0.2005 0.08387,-0.0839 0.201812,-0.0839 h 0.129737 q 0.121874,0 0.178224,0.10877 v -0.35645 l 0.212296,-0.0708 z m -0.212296,-0.25817 v -0.16512 q 0,-0.0354 -0.03014,-0.0655 -0.02883,-0.0315 -0.06814,-0.0315 h -0.209676 q -0.02883,0 -0.0498,0.021 -0.02097,0.021 -0.02097,0.0498 v 0.16512 q 0,0.0301 0.01966,0.0511 0.02097,0.021 0.05111,0.021 h 0.262095 q 0.04587,0 0.04587,-0.0459 z"
           style="font-style:normal;font-variant:normal;font-weight:normal;font-stretch:normal;font-family:'Sui Generis';-inkscape-font-specification:'Sui Generis';fill:#333333;fill-opacity:1;stroke-width:0.0728048"
           id="path881" />
        <path
           inkscape:connector-curvature="0"
           d="m 54.759069,295.53273 h -0.212296 v -0.13367 h 0.212296 z m 0,0.88326 h -0.212296 v -0.73387 h 0.212296 z"
           style="font-style:normal;font-variant:normal;font-weight:normal;font-stretch:normal;font-family:'Sui Generis';-inkscape-font-specification:'Sui Generis';fill:#333333;fill-opacity:1;stroke-width:0.0728048"
           id="path883" />
        <path
           inkscape:connector-curvature="0"
           d="m 55.309221,296.19976 -0.02621,0.21098 q -0.0498,0.0236 -0.09698,0.0236 -0.148083,0 -0.217538,-0.14022 -0.05373,-0.10877 -0.05373,-0.28961 v -0.10877 h -0.09566 l 0.02359,-0.21361 h 0.07208 v -0.17691 l 0.212296,-0.0708 v 0.24768 h 0.125805 l -0.02359,0.21361 h -0.102217 v 0.10877 q 0,0.11401 0.01835,0.15987 0.01835,0.0459 0.07732,0.0564 0.05373,0.008 0.08649,-0.021 z"
           style="font-style:normal;font-variant:normal;font-weight:normal;font-stretch:normal;font-family:'Sui Generis';-inkscape-font-specification:'Sui Generis';fill:#333333;fill-opacity:1;stroke-width:0.0728048"
           id="path885" />
        <path
           inkscape:connector-curvature="0"
           d="M 55.611386,295.53273 H 55.39909 v -0.13367 h 0.212296 z m 0,0.88326 H 55.39909 v -0.73387 h 0.212296 z"
           style="font-style:normal;font-variant:normal;font-weight:normal;font-stretch:normal;font-family:'Sui Generis';-inkscape-font-specification:'Sui Generis';fill:#333333;fill-opacity:1;stroke-width:0.0728048"
           id="path887" />
        <path
           inkscape:connector-curvature="0"
           d="m 56.591373,296.13161 q 0,0.11795 -0.08387,0.20182 -0.08256,0.0826 -0.200502,0.0826 h -0.283062 q -0.117942,0 -0.201812,-0.0826 -0.08256,-0.0839 -0.08256,-0.20182 v -0.16512 q 0,-0.11794 0.08256,-0.2005 0.08387,-0.0839 0.201812,-0.0839 h 0.283062 q 0.117942,0 0.200502,0.0839 0.08387,0.0826 0.08387,0.2005 z m -0.213607,0 v -0.16512 q 0,-0.0288 -0.02097,-0.0498 -0.01966,-0.021 -0.0498,-0.021 h -0.283062 q -0.03014,0 -0.05111,0.021 -0.01966,0.021 -0.01966,0.0498 v 0.16512 q 0,0.0301 0.01966,0.0511 0.02097,0.021 0.05111,0.021 h 0.283062 q 0.03014,0 0.0498,-0.021 0.02097,-0.021 0.02097,-0.0511 z"
           style="font-style:normal;font-variant:normal;font-weight:normal;font-stretch:normal;font-family:'Sui Generis';-inkscape-font-specification:'Sui Generis';fill:#333333;fill-opacity:1;stroke-width:0.0728048"
           id="path889" />
        <path
           inkscape:connector-curvature="0"
           d="m 57.53403,296.41599 h -0.213607 v -0.4495 q 0,-0.0288 -0.02097,-0.0498 -0.02097,-0.021 -0.0498,-0.021 h -0.233264 q -0.09828,0 -0.09828,0.097 v 0.42329 h -0.212296 v -0.73387 h 0.212296 v 0.11794 q 0.02228,-0.0498 0.07208,-0.0839 0.05111,-0.0341 0.106148,-0.0341 h 0.153325 q 0.117942,0 0.200502,0.0839 0.08387,0.0826 0.08387,0.2005 z"
           style="font-style:normal;font-variant:normal;font-weight:normal;font-stretch:normal;font-family:'Sui Generis';-inkscape-font-specification:'Sui Generis';fill:#333333;fill-opacity:1;stroke-width:0.0728048"
           id="path891" />
      </g>
    </g>
  </g>
</svg>
