<?xml version="1.0" encoding="UTF-8" standalone="no"?>
<!-- Created with Inkscape (http://www.inkscape.org/) -->

<svg
   xmlns:dc="http://purl.org/dc/elements/1.1/"
   xmlns:cc="http://creativecommons.org/ns#"
   xmlns:rdf="http://www.w3.org/1999/02/22-rdf-syntax-ns#"
   xmlns:svg="http://www.w3.org/2000/svg"
   xmlns="http://www.w3.org/2000/svg"
   xmlns:sodipodi="http://sodipodi.sourceforge.net/DTD/sodipodi-0.dtd"
   xmlns:inkscape="http://www.inkscape.org/namespaces/inkscape"
   width="256"
   height="144"
   viewBox="0 0 67.73333 38.100002"
   version="1.1"
   id="svg8"
   sodipodi:docname="main_logo.svg"
   inkscape:version="0.92.3 (2405546, 2018-03-11)">
  <defs
     id="defs2" />
  <sodipodi:namedview
     id="base"
     pagecolor="#ffffff"
     bordercolor="#666666"
     borderopacity="1.0"
     inkscape:pageopacity="0.0"
     inkscape:pageshadow="2"
     inkscape:zoom="3.7592669"
     inkscape:cx="119.15695"
     inkscape:cy="78.605504"
     inkscape:document-units="px"
     inkscape:current-layer="text869"
     showgrid="false"
     units="px"
     inkscape:showpageshadow="false"
     inkscape:window-width="1920"
     inkscape:window-height="1026"
     inkscape:window-x="0"
     inkscape:window-y="29"
     inkscape:window-maximized="1"
     inkscape:snap-grids="true" />
  <metadata
     id="metadata5">
    <rdf:RDF>
      <cc:Work
         rdf:about="">
        <dc:format>image/svg+xml</dc:format>
        <dc:type
           rdf:resource="http://purl.org/dc/dcmitype/StillImage" />
        <dc:title />
      </cc:Work>
    </rdf:RDF>
  </metadata>
  <g
     inkscape:label="Livello 1"
     inkscape:groupmode="layer"
     id="layer1"
     transform="translate(0,-258.89999)">
    <g
       aria-label="Opis"
       style="font-style:normal;font-variant:normal;font-weight:normal;font-stretch:normal;font-size:17.77799606px;line-height:1.25;font-family:'Futura Hv BT';-inkscape-font-specification:'Futura Hv BT';letter-spacing:0px;word-spacing:0px;fill:#000000;fill-opacity:1;stroke:none;stroke-width:0.74074984"
       id="text869">
      <g
         id="g932"
         transform="matrix(1.0150431,0,0,1.0150431,-0.50946016,-4.7281266)">
        <path
           sodipodi:nodetypes="ssssscscssscscsscscssc"
           inkscape:connector-curvature="0"
           id="path871-6"
           style="font-style:normal;font-variant:normal;font-weight:normal;font-stretch:normal;font-size:medium;line-height:1.25;font-family:OpenDinSchriftenEngshrift;-inkscape-font-specification:OpenDinSchriftenEngshrift;letter-spacing:0px;word-spacing:0px;fill:#e07900;fill-opacity:1;stroke:none;stroke-width:1.35615981"
           d="m 22.168097,261.75647 c 0.954734,-0.95472 2.104759,-1.4321 3.45007,-1.4321 1.34531,0 2.495333,0.47758 3.450069,1.4321 0.954736,0.95476 1.432105,2.10478 1.432105,3.45008 v 18.61536 c 0,1.34529 -0.477369,2.49537 -1.432105,3.45007 -0.954736,0.95478 -2.104759,1.4321 -3.450069,1.4321 -1.345311,0 -2.495336,-0.47707 -3.45007,-1.4321 -0.954738,-0.9547 -1.432105,-2.10478 -1.432105,-3.45007 v -18.61536 c 0,-1.3453 0.477369,-2.49532 1.432105,-3.45008 z m 4.589245,2.31088 c -0.303782,-0.32539 -0.683507,-0.48836 -1.139175,-0.48836 -0.455672,0 -0.846245,0.16244 -1.171724,0.48836 -0.30378,0.30387 -0.455666,0.68354 -0.455666,1.1392 v 18.61536 c 0,0.45556 0.151874,0.84629 0.455666,1.17174 0.325479,0.30387 0.716054,0.45556 1.171724,0.45556 0.455666,0 0.835395,-0.15222 1.139175,-0.45556 0.325477,-0.32541 0.488216,-0.71607 0.488216,-1.17174 v -18.61536 c 0,-0.45556 -0.162723,-0.83543 -0.488216,-1.1392 z" />
        <path
           sodipodi:nodetypes="ccccscssssccccccscsscscssc"
           inkscape:connector-curvature="0"
           id="path873-2"
           style="font-style:normal;font-variant:normal;font-weight:normal;font-stretch:normal;font-size:medium;line-height:1.25;font-family:OpenDinSchriftenEngshrift;-inkscape-font-specification:OpenDinSchriftenEngshrift;letter-spacing:0px;word-spacing:0px;fill:#e07900;fill-opacity:1;stroke:none;stroke-width:1.35615981"
           d="m 31.830248,272.43019 c 1.365312,-0.59802 2.365463,-0.41764 3.254783,0 v 3.25477 c 0,-0.88963 0.31463,-1.64912 0.943887,-2.27833 0.650958,-0.651 1.421258,-0.97644 2.310896,-0.97644 0.889643,0 1.649093,0.32538 2.278346,0.97644 0.650956,0.62921 0.97644,1.3887 0.97644,2.27833 v 9.76439 c 0,0.88958 -0.325498,1.65994 -0.97644,2.31084 -0.629253,0.62931 -1.388703,0.94389 -2.278346,0.94389 -0.889638,0 -1.659938,-0.31413 -2.310896,-0.94389 -0.629257,-0.6509 -0.943887,-1.42126 -0.943887,-2.31084 v 9.76429 c -1.447437,0.60417 -2.376049,0.34386 -3.254783,0 z m 6.02135,3.74298 c -0.303782,-0.32541 -0.683505,-0.48836 -1.139175,-0.48836 -0.455672,0 -0.846243,0.16244 -1.171724,0.48836 -0.30378,0.30387 -0.455666,0.68352 -0.455666,1.13918 v 6.50956 c 0,0.45556 0.151874,0.84629 0.455666,1.17174 0.325479,0.30387 0.716054,0.45556 1.171724,0.45556 0.455668,0 0.835397,-0.15222 1.139175,-0.45556 0.325477,-0.32541 0.488216,-0.71607 0.488216,-1.17174 v -6.50956 c 0,-0.45556 -0.162723,-0.83538 -0.488216,-1.13918 z" />
        <path
           sodipodi:nodetypes="cccccccccc"
           inkscape:connector-curvature="0"
           id="path875-9"
           style="font-style:normal;font-variant:normal;font-weight:normal;font-stretch:normal;font-size:medium;line-height:1.25;font-family:OpenDinSchriftenEngshrift;-inkscape-font-specification:OpenDinSchriftenEngshrift;letter-spacing:0px;word-spacing:0px;fill:#e07900;fill-opacity:1;stroke:none;stroke-width:1.35615981"
           d="m 42.924506,265.92062 c 1.003974,-0.27005 2.060051,-0.36588 3.254781,0 v 3.25477 c -1.046867,0.20351 -2.112876,0.30389 -3.254781,0 z m 0,6.50957 c 1.084927,-0.42481 2.169854,-0.37357 3.254781,0 v 16.27389 c -1.101452,0.39663 -2.185268,0.36948 -3.254781,0 z" />
        <path
           style="font-style:normal;font-variant:normal;font-weight:normal;font-stretch:normal;font-size:medium;line-height:1.25;font-family:OpenDinSchriftenEngshrift;-inkscape-font-specification:OpenDinSchriftenEngshrift;letter-spacing:0px;word-spacing:0px;fill:#e07900;fill-opacity:1;stroke:none;stroke-width:1.35615981"
           d="m 52.352102,272.43141 c -1.345305,0 -2.493063,0.4752 -3.447801,1.42998 -0.954757,0.95476 -1.432612,2.10514 -1.432612,3.45043 0,1.34535 0.47788,2.49569 1.432612,3.45045 0.954744,0.95456 2.10249,1.43262 3.447801,1.43262 0.455672,0 0.837551,0.16182 1.141322,0.48725 0.325447,0.30376 0.487247,0.68311 0.487247,1.13867 0,0.45566 -0.161804,0.8477 -0.487247,1.1731 -0.303777,0.30336 -0.685666,0.45546 -1.141322,0.45546 -0.455668,0 -0.845004,-0.15161 -1.170451,-0.45546 -0.303771,-0.3255 -0.455471,-0.71754 -0.455471,-1.1731 -0.881215,-0.32541 -1.875825,-0.55809 -3.254491,0 0,1.34529 0.47788,2.49573 1.432612,3.45045 0.954738,0.95503 2.102496,1.43262 3.447801,1.43262 0.852924,0 1.618491,-0.21473 2.314421,-0.59849 a 6.5031395,6.5031395 0 0 1 2.526268,-3.8291 c 0.01308,-0.15181 0.04238,-0.29827 0.04238,-0.45548 0,-1.34535 -0.477878,-2.49303 -1.432612,-3.44779 -0.954737,-0.95458 -2.105133,-1.43262 -3.450448,-1.43262 -0.455668,0 -0.845004,-0.15161 -1.17045,-0.45548 -0.303772,-0.32544 -0.455472,-0.71754 -0.455472,-1.1731 0,-0.45564 0.15169,-0.83478 0.455472,-1.13867 0.325477,-0.3259 0.714793,-0.48723 1.17045,-0.48723 0.455672,0 0.837551,0.16182 1.141323,0.48723 0.325497,0.30382 0.487246,0.68313 0.487246,1.13867 1.084927,0.56487 2.169564,0.45505 3.254491,0 0,-1.34529 -0.477878,-2.49567 -1.432612,-3.45043 -0.954737,-0.95452 -2.105133,-1.42998 -3.450448,-1.42998 z"
           id="path877-1"
           inkscape:connector-curvature="0" />
        <path
           sodipodi:nodetypes="ssccccccccccccccccccssssccss"
           inkscape:connector-curvature="0"
           id="path4560-6"
           d="m 9.8880461,260.32437 c -4.8322763,0 -8.7720213,3.93976 -8.7720202,8.77201 -1.1e-6,4.45953 3.3561156,8.15864 7.6717787,8.7033 v 3.16091 H 4.5719639 3.4717228 c -0.2987289,0.73425 -0.4442245,1.46857 0,2.20285 h 1.1002411 4.2158407 v 4.2135 1.10265 c 0.7343026,0.30591 1.4686054,0.29363 2.2029084,0 v -1.10265 -4.2135 h 4.213415 1.103475 c 0.214259,-0.62717 0.375374,-1.28088 0,-2.20285 h -1.103475 -4.213415 v -3.16091 c 4.314915,-0.54579 7.672588,-4.24465 7.672587,-8.7033 1e-6,-4.83225 -3.942978,-8.77201 -8.7752539,-8.77201 z m 0,2.20291 c 3.6417829,0 6.5723469,2.92728 6.5723459,6.5691 1e-6,3.47912 -2.67635,6.30228 -6.090535,6.5481 H 9.406236 c -3.4139368,-0.24545 -6.0873022,-3.06898 -6.0873022,-6.5481 -6e-7,-3.64182 2.9273292,-6.5691 6.5691123,-6.5691 z"
           style="color:#000000;font-style:normal;font-variant:normal;font-weight:normal;font-stretch:normal;font-size:medium;line-height:1.25;font-family:'Futura Hv BT';-inkscape-font-specification:'Futura Hv BT';font-variant-ligatures:normal;font-variant-position:normal;font-variant-caps:normal;font-variant-numeric:normal;font-variant-alternates:normal;font-feature-settings:normal;text-indent:0;text-align:start;text-decoration:none;text-decoration-line:none;text-decoration-style:solid;text-decoration-color:#000000;letter-spacing:0px;word-spacing:0px;text-transform:none;writing-mode:lr-tb;direction:ltr;text-orientation:mixed;dominant-baseline:auto;baseline-shift:baseline;text-anchor:start;white-space:normal;shape-padding:0;clip-rule:nonzero;display:inline;overflow:visible;visibility:visible;opacity:1;isolation:auto;mix-blend-mode:normal;color-interpolation:sRGB;color-interpolation-filters:linearRGB;solid-color:#000000;solid-opacity:1;vector-effect:none;fill:#e07900;fill-opacity:1;fill-rule:nonzero;stroke:none;stroke-width:2.20282197;stroke-linecap:butt;stroke-linejoin:miter;stroke-miterlimit:4;stroke-dasharray:none;stroke-dashoffset:0;stroke-opacity:1;color-rendering:auto;image-rendering:auto;shape-rendering:auto;text-rendering:auto;enable-background:accumulate" />
        <path
           inkscape:connector-curvature="0"
           id="path4595-2"
           d="m 8.8828716,263.45832 v 0.45299 1.75387 H 6.5825499 6.1303389 v 0.90505 H 6.5825472 8.882869 v 7.08616 0.45299 h 0.9057314 v -0.45299 -3.53385 c 0.6629236,-0.40072 1.1907846,-0.57838 1.5084606,-0.59618 0.323516,-0.0204 0.390691,0.036 0.472501,0.21011 0.0818,0.17326 0.114499,0.56726 -0.02947,1.13017 -0.143948,0.56234 -0.447079,1.28068 -0.925364,2.10461 -0.07888,0.13588 -0.118136,0.24599 -0.168187,0.44839 -0.05001,0.20187 -0.112454,0.4535 0.03203,0.76174 0.07226,0.15426 0.229084,0.30696 0.410983,0.37356 0.181899,0.066 0.364771,0.0619 0.553648,0.0256 0.377757,-0.0738 0.812452,-0.28032 1.437128,-0.67801 l 0.383496,-0.24188 -0.487551,-0.76439 -0.380883,0.2429 c -0.551566,0.35049 -0.898018,0.48682 -1.075882,0.52862 0.0021,-0.0204 7.1e-5,-0.0102 0.0052,-0.0306 0.02757,-0.11115 0.106693,-0.27056 0.07133,-0.21008 0.508879,-0.87663 0.848469,-1.65846 1.021566,-2.33501 0.173095,-0.67658 0.198737,-1.26162 -0.02947,-1.74409 -0.228187,-0.48271 -0.772452,-0.75953 -1.342889,-0.72704 -0.437778,0.0255 -0.91699,0.18287 -1.4567615,0.46375 v -2.51369 H 12.086192 12.5384 v -0.90501 H 12.086306 9.7886025 v -1.75391 -0.45298 z"
           style="color:#000000;font-style:normal;font-variant:normal;font-weight:normal;font-stretch:normal;font-size:medium;line-height:1.25;font-family:'Futura Hv BT';-inkscape-font-specification:'Futura Hv BT';font-variant-ligatures:normal;font-variant-position:normal;font-variant-caps:normal;font-variant-numeric:normal;font-variant-alternates:normal;font-feature-settings:normal;text-indent:0;text-align:start;text-decoration:none;text-decoration-line:none;text-decoration-style:solid;text-decoration-color:#000000;letter-spacing:0px;word-spacing:0px;text-transform:none;writing-mode:lr-tb;direction:ltr;text-orientation:mixed;dominant-baseline:auto;baseline-shift:baseline;text-anchor:start;white-space:normal;shape-padding:0;clip-rule:nonzero;display:inline;overflow:visible;visibility:visible;opacity:1;isolation:auto;mix-blend-mode:normal;color-interpolation:sRGB;color-interpolation-filters:linearRGB;solid-color:#000000;solid-opacity:1;vector-effect:none;fill:#e07900;fill-opacity:1;fill-rule:nonzero;stroke:none;stroke-width:0.90468413;stroke-linecap:square;stroke-linejoin:miter;stroke-miterlimit:4;stroke-dasharray:none;stroke-dashoffset:0;stroke-opacity:1;color-rendering:auto;image-rendering:auto;shape-rendering:auto;text-rendering:auto;enable-background:accumulate" />
        <path
           style="font-style:normal;font-variant:normal;font-weight:normal;font-stretch:normal;font-size:medium;line-height:1.25;font-family:'Futura Hv BT';-inkscape-font-specification:'Futura Hv BT';letter-spacing:0px;word-spacing:0px;fill:#333333;fill-opacity:1;stroke:none;stroke-width:2.68451715;stroke-linecap:square;stroke-miterlimit:4;stroke-dasharray:none;stroke-opacity:1"
           d="m 61.006027,283.92408 a 5.6105501,5.6105501 0 0 0 -5.611283,5.61129 5.6105501,5.6105501 0 0 0 5.611283,5.61127 5.6105501,5.6105501 0 0 0 5.611281,-5.61127 5.6105501,5.6105501 0 0 0 -5.611281,-5.61129 z m -3.913863,2.93672 h 3.037348 c 0.429557,0 0.754542,0.038 0.971846,0.1138 0.353756,0.12648 0.529617,0.36368 0.529617,0.71234 v 1.62063 c 0,0.27296 -0.190552,0.48952 -0.574633,0.64613 -0.293113,0.11606 -0.6034,0.17204 -0.92683,0.17204 h -1.022157 v 2.08668 h -2.015191 z m 5.182293,0 h 1.14397 c 0.343646,0 0.654175,0.056 0.932124,0.17204 0.379022,0.1465 0.569339,0.366 0.569339,0.65406 v 4.52558 h -2.015189 v -4.16279 h -0.630244 z m -3.167102,1.189 v 0.89503 h 0.50843 v -0.89503 z"
           id="path944"
           inkscape:connector-curvature="0" />
        <g
           transform="matrix(1.5073217,0,0,1.5073217,20.038859,-148.79331)"
           aria-label="production one"
           style="font-style:normal;font-variant:normal;font-weight:normal;font-stretch:normal;font-size:1.49278176px;line-height:1.25;font-family:sans-serif;-inkscape-font-specification:'Futura Hv BT';letter-spacing:0px;word-spacing:0px;fill:#e07900;fill-opacity:1;stroke:none;stroke-width:0.10366666"
           id="text835">
          <path
             inkscape:connector-curvature="0"
             d="m 16.866321,293.76441 q 0,0.13436 -0.09554,0.22989 -0.09405,0.094 -0.228396,0.094 h -0.201526 q -0.05971,0 -0.119422,-0.0358 -0.05971,-0.0358 -0.0821,-0.0881 v 0.39409 h -0.243323 v -1.10615 h 0.243323 v 0.12689 q 0.01941,-0.0493 0.08061,-0.0881 0.0612,-0.0388 0.120915,-0.0388 h 0.201526 q 0.13435,0 0.228396,0.0955 0.09554,0.0955 0.09554,0.22839 z m -0.241831,0 v -0.18809 q 0,-0.0328 -0.02388,-0.0567 -0.02388,-0.0239 -0.05822,-0.0239 h -0.322441 q -0.03433,0 -0.05822,0.0239 -0.02239,0.0239 -0.02239,0.0567 v 0.18809 q 0,0.0343 0.02239,0.0582 0.02388,0.0239 0.05822,0.0239 h 0.322441 q 0.03433,0 0.05822,-0.0239 0.02388,-0.0239 0.02388,-0.0582 z"
             style="font-style:normal;font-variant:normal;font-weight:normal;font-stretch:normal;font-family:'Sui Generis';-inkscape-font-specification:'Sui Generis';fill:#e07900;fill-opacity:1;stroke-width:0.10366666"
             id="path868" />
          <path
             inkscape:connector-curvature="0"
             d="m 17.555636,293.25239 -0.02687,0.24034 q -0.09106,-0.0537 -0.153757,-0.0403 -0.114944,0.0269 -0.114944,0.23586 v 0.40156 h -0.243323 v -0.83745 h 0.240338 v 0.1239 q 0.03881,-0.097 0.117929,-0.1239 0.04628,-0.0164 0.108973,-0.0104 0.03135,10e-4 0.07165,0.0104 z"
             style="font-style:normal;font-variant:normal;font-weight:normal;font-stretch:normal;font-family:'Sui Generis';-inkscape-font-specification:'Sui Generis';fill:#e07900;fill-opacity:1;stroke-width:0.10366666"
             id="path870" />
          <path
             inkscape:connector-curvature="0"
             d="m 18.606718,293.76441 q 0,0.13436 -0.09554,0.22989 -0.09405,0.094 -0.228396,0.094 h -0.322441 q -0.13435,0 -0.229888,-0.094 -0.09405,-0.0955 -0.09405,-0.22989 v -0.18809 q 0,-0.13435 0.09405,-0.22839 0.09554,-0.0955 0.229888,-0.0955 h 0.322441 q 0.13435,0 0.228396,0.0955 0.09554,0.094 0.09554,0.22839 z m -0.243324,0 v -0.18809 q 0,-0.0328 -0.02388,-0.0567 -0.02239,-0.0239 -0.05673,-0.0239 h -0.322441 q -0.03433,0 -0.05822,0.0239 -0.02239,0.0239 -0.02239,0.0567 v 0.18809 q 0,0.0343 0.02239,0.0582 0.02388,0.0239 0.05822,0.0239 h 0.322441 q 0.03433,0 0.05673,-0.0239 0.02388,-0.0239 0.02388,-0.0582 z"
             style="font-style:normal;font-variant:normal;font-weight:normal;font-stretch:normal;font-family:'Sui Generis';-inkscape-font-specification:'Sui Generis';fill:#e07900;fill-opacity:1;stroke-width:0.10366666"
             id="path872-9" />
          <path
             inkscape:connector-curvature="0"
             d="m 19.656633,294.08835 q -0.06867,-0.0179 -0.119423,-0.0702 -0.09554,0.0702 -0.231381,0.0702 h -0.24183 q -0.134351,0 -0.229889,-0.094 -0.09404,-0.0955 -0.09404,-0.22989 v -0.18809 q 0,-0.13435 0.09404,-0.22839 0.09554,-0.0955 0.229889,-0.0955 h 0.147785 q 0.138829,0 0.203018,0.1239 v -0.40604 l 0.241831,-0.0806 z m -0.241831,-0.29408 v -0.18809 q 0,-0.0403 -0.03433,-0.0746 -0.03284,-0.0358 -0.07762,-0.0358 h -0.238845 q -0.03284,0 -0.05673,0.0239 -0.02388,0.0239 -0.02388,0.0567 v 0.18809 q 0,0.0343 0.02239,0.0582 0.02388,0.0239 0.05822,0.0239 h 0.298556 q 0.05225,0 0.05225,-0.0523 z"
             style="font-style:normal;font-variant:normal;font-weight:normal;font-stretch:normal;font-family:'Sui Generis';-inkscape-font-specification:'Sui Generis';fill:#e07900;fill-opacity:1;stroke-width:0.10366666"
             id="path874-1" />
          <path
             inkscape:connector-curvature="0"
             d="m 20.725022,294.08835 q -0.06419,-0.0209 -0.111959,-0.0746 -0.04628,0.0373 -0.07315,0.0507 -0.05374,0.0239 -0.138829,0.0239 h -0.268701 q -0.13435,0 -0.229888,-0.094 -0.09404,-0.0955 -0.09404,-0.22989 v -0.51202 h 0.243323 v 0.51202 q 0,0.0343 0.02239,0.0582 0.02388,0.0239 0.05822,0.0239 h 0.301542 q 0.04777,0 0.04777,-0.0642 v -0.52994 h 0.243324 z"
             style="font-style:normal;font-variant:normal;font-weight:normal;font-stretch:normal;font-family:'Sui Generis';-inkscape-font-specification:'Sui Generis';fill:#e07900;fill-opacity:1;stroke-width:0.10366666"
             id="path876-2" />
          <path
             inkscape:connector-curvature="0"
             d="m 21.784803,293.94355 q -0.04478,0.0657 -0.119422,0.10599 -0.07315,0.0388 -0.152264,0.0388 h -0.331398 q -0.13435,0 -0.229888,-0.094 -0.09404,-0.0955 -0.09404,-0.22989 v -0.18809 q 0,-0.13435 0.09404,-0.22839 0.09554,-0.0955 0.229888,-0.0955 h 0.323934 q 0.167192,0 0.264222,0.13734 l -0.19854,0.14032 q -0.02388,-0.0343 -0.06568,-0.0343 h -0.323934 q -0.03284,0 -0.05673,0.0239 -0.02388,0.0239 -0.02388,0.0567 v 0.18809 q 0,0.0343 0.02388,0.0582 0.02388,0.0239 0.05673,0.0239 h 0.323934 q 0.06419,0 0.100016,-0.0672 z"
             style="font-style:normal;font-variant:normal;font-weight:normal;font-stretch:normal;font-family:'Sui Generis';-inkscape-font-specification:'Sui Generis';fill:#e07900;fill-opacity:1;stroke-width:0.10366666"
             id="path878-7" />
          <path
             inkscape:connector-curvature="0"
             d="m 22.359268,293.84204 -0.02986,0.24034 q -0.05673,0.0269 -0.110466,0.0269 -0.168684,0 -0.247802,-0.15973 -0.0612,-0.1239 -0.0612,-0.32991 v -0.1239 h -0.108973 l 0.02687,-0.24332 h 0.0821 v -0.20152 l 0.241831,-0.0806 v 0.28214 h 0.143307 l -0.02687,0.24332 h -0.116437 v 0.1239 q 0,0.12988 0.0209,0.18212 0.0209,0.0522 0.08807,0.0642 0.0612,0.009 0.09852,-0.0239 z"
             style="font-style:normal;font-variant:normal;font-weight:normal;font-stretch:normal;font-family:'Sui Generis';-inkscape-font-specification:'Sui Generis';fill:#e07900;fill-opacity:1;stroke-width:0.10366666"
             id="path880-0" />
          <path
             inkscape:connector-curvature="0"
             d="m 22.70347,293.08221 h -0.24183 v -0.15226 h 0.24183 z m 0,1.00614 h -0.24183 v -0.83596 h 0.24183 z"
             style="font-style:normal;font-variant:normal;font-weight:normal;font-stretch:normal;font-family:'Sui Generis';-inkscape-font-specification:'Sui Generis';fill:#e07900;fill-opacity:1;stroke-width:0.10366666"
             id="path882-9" />
          <path
             inkscape:connector-curvature="0"
             d="m 23.819792,293.76441 q 0,0.13436 -0.09554,0.22989 -0.09405,0.094 -0.228396,0.094 h -0.322441 q -0.13435,0 -0.229888,-0.094 -0.09405,-0.0955 -0.09405,-0.22989 v -0.18809 q 0,-0.13435 0.09405,-0.22839 0.09554,-0.0955 0.229888,-0.0955 h 0.322441 q 0.13435,0 0.228396,0.0955 0.09554,0.094 0.09554,0.22839 z m -0.243324,0 v -0.18809 q 0,-0.0328 -0.02388,-0.0567 -0.02239,-0.0239 -0.05673,-0.0239 h -0.322441 q -0.03433,0 -0.05822,0.0239 -0.02239,0.0239 -0.02239,0.0567 v 0.18809 q 0,0.0343 0.02239,0.0582 0.02388,0.0239 0.05822,0.0239 h 0.322441 q 0.03433,0 0.05673,-0.0239 0.02388,-0.0239 0.02388,-0.0582 z"
             style="font-style:normal;font-variant:normal;font-weight:normal;font-stretch:normal;font-family:'Sui Generis';-inkscape-font-specification:'Sui Generis';fill:#e07900;fill-opacity:1;stroke-width:0.10366666"
             id="path884-3" />
          <path
             inkscape:connector-curvature="0"
             d="m 24.893591,294.08835 h -0.243323 v -0.51203 q 0,-0.0328 -0.02388,-0.0567 -0.02388,-0.0239 -0.05673,-0.0239 h -0.265716 q -0.111958,0 -0.111958,0.11047 v 0.48217 h -0.241831 v -0.83596 h 0.241831 v 0.13435 q 0.02538,-0.0567 0.0821,-0.0955 0.05822,-0.0388 0.120915,-0.0388 h 0.174656 q 0.13435,0 0.228395,0.0955 0.09554,0.094 0.09554,0.22839 z"
             style="font-style:normal;font-variant:normal;font-weight:normal;font-stretch:normal;font-family:'Sui Generis';-inkscape-font-specification:'Sui Generis';fill:#e07900;fill-opacity:1;stroke-width:0.10366666"
             id="path886-6" />
          <path
             inkscape:connector-curvature="0"
             d="m 26.513796,293.76441 q 0,0.13436 -0.09554,0.22989 -0.09405,0.094 -0.228396,0.094 h -0.32244 q -0.134351,0 -0.229889,-0.094 -0.09405,-0.0955 -0.09405,-0.22989 v -0.18809 q 0,-0.13435 0.09405,-0.22839 0.09554,-0.0955 0.229889,-0.0955 h 0.32244 q 0.134351,0 0.228396,0.0955 0.09554,0.094 0.09554,0.22839 z m -0.243323,0 v -0.18809 q 0,-0.0328 -0.02388,-0.0567 -0.02239,-0.0239 -0.05673,-0.0239 h -0.32244 q -0.03433,0 -0.05822,0.0239 -0.02239,0.0239 -0.02239,0.0567 v 0.18809 q 0,0.0343 0.02239,0.0582 0.02388,0.0239 0.05822,0.0239 h 0.32244 q 0.03433,0 0.05673,-0.0239 0.02388,-0.0239 0.02388,-0.0582 z"
             style="font-style:normal;font-variant:normal;font-weight:normal;font-stretch:normal;font-family:'Sui Generis';-inkscape-font-specification:'Sui Generis';fill:#e07900;fill-opacity:1;stroke-width:0.10366666"
             id="path888-0" />
          <path
             inkscape:connector-curvature="0"
             d="m 27.587596,294.08835 h -0.243323 v -0.51203 q 0,-0.0328 -0.02388,-0.0567 -0.02388,-0.0239 -0.05673,-0.0239 h -0.265716 q -0.111958,0 -0.111958,0.11047 v 0.48217 h -0.241831 v -0.83596 h 0.241831 v 0.13435 q 0.02538,-0.0567 0.0821,-0.0955 0.05822,-0.0388 0.120915,-0.0388 h 0.174656 q 0.13435,0 0.228395,0.0955 0.09554,0.094 0.09554,0.22839 z"
             style="font-style:normal;font-variant:normal;font-weight:normal;font-stretch:normal;font-family:'Sui Generis';-inkscape-font-specification:'Sui Generis';fill:#e07900;fill-opacity:1;stroke-width:0.10366666"
             id="path890-6" />
          <path
             inkscape:connector-curvature="0"
             d="m 28.691321,293.73904 h -0.728477 v 0.0254 q 0,0.0343 0.02388,0.0612 0.02388,0.0254 0.05673,0.0254 h 0.623983 l -0.02986,0.23735 H 28.04345 q -0.134351,0 -0.228396,-0.094 -0.09405,-0.0955 -0.09405,-0.22989 v -0.18809 q 0,-0.13435 0.09405,-0.22839 0.09554,-0.0955 0.228396,-0.0955 h 0.323933 q 0.134351,0 0.228396,0.0955 0.09554,0.094 0.09554,0.22839 z m -0.243323,-0.13585 v -0.0403 q 0,-0.0328 -0.02388,-0.0567 -0.02388,-0.0254 -0.05673,-0.0254 h -0.323933 q -0.03284,0 -0.05673,0.0254 -0.02388,0.0239 -0.02388,0.0567 v 0.0403 z"
             style="font-style:normal;font-variant:normal;font-weight:normal;font-stretch:normal;font-family:'Sui Generis';-inkscape-font-specification:'Sui Generis';fill:#e07900;fill-opacity:1;stroke-width:0.10366666"
             id="path892-2" />
        </g>
        <g
           id="text858"
           style="font-style:normal;font-weight:normal;font-size:1.31047022px;line-height:1.25;font-family:sans-serif;letter-spacing:0px;word-spacing:0px;fill:#333333;fill-opacity:1;stroke:none;stroke-width:0.0728048"
           aria-label="pordenone edition">
          <path
             id="path860"
             style="font-style:normal;font-variant:normal;font-weight:normal;font-stretch:normal;font-family:'Sui Generis';-inkscape-font-specification:'Sui Generis';fill:#333333;fill-opacity:1;stroke-width:0.0728048"
             d="m 44.851074,296.13161 q 0,0.11795 -0.08387,0.20182 -0.08256,0.0826 -0.200502,0.0826 h -0.176913 q -0.05242,0 -0.104838,-0.0315 -0.05242,-0.0315 -0.07208,-0.0773 v 0.34596 h -0.213606 v -0.97106 h 0.213606 v 0.11139 q 0.01704,-0.0432 0.07077,-0.0773 0.05373,-0.0341 0.106148,-0.0341 h 0.176913 q 0.117942,0 0.200502,0.0839 0.08387,0.0839 0.08387,0.2005 z m -0.212296,0 v -0.16512 q 0,-0.0288 -0.02097,-0.0498 -0.02097,-0.021 -0.05111,-0.021 h -0.283061 q -0.03014,0 -0.05111,0.021 -0.01966,0.021 -0.01966,0.0498 v 0.16512 q 0,0.0301 0.01966,0.0511 0.02097,0.021 0.05111,0.021 h 0.283061 q 0.03014,0 0.05111,-0.021 0.02097,-0.021 0.02097,-0.0511 z"
             inkscape:connector-curvature="0" />
          <path
             id="path862"
             style="font-style:normal;font-variant:normal;font-weight:normal;font-stretch:normal;font-family:'Sui Generis';-inkscape-font-specification:'Sui Generis';fill:#333333;fill-opacity:1;stroke-width:0.0728048"
             d="m 45.838862,296.13161 q 0,0.11795 -0.08387,0.20182 -0.08256,0.0826 -0.200502,0.0826 h -0.283062 q -0.117942,0 -0.201812,-0.0826 -0.08256,-0.0839 -0.08256,-0.20182 v -0.16512 q 0,-0.11794 0.08256,-0.2005 0.08387,-0.0839 0.201812,-0.0839 h 0.283062 q 0.117942,0 0.200502,0.0839 0.08387,0.0826 0.08387,0.2005 z m -0.213607,0 v -0.16512 q 0,-0.0288 -0.02097,-0.0498 -0.01966,-0.021 -0.0498,-0.021 h -0.283062 q -0.03014,0 -0.05111,0.021 -0.01966,0.021 -0.01966,0.0498 v 0.16512 q 0,0.0301 0.01966,0.0511 0.02097,0.021 0.05111,0.021 h 0.283062 q 0.03014,0 0.0498,-0.021 0.02097,-0.021 0.02097,-0.0511 z"
             inkscape:connector-curvature="0" />
          <path
             id="path864"
             style="font-style:normal;font-variant:normal;font-weight:normal;font-stretch:normal;font-family:'Sui Generis';-inkscape-font-specification:'Sui Generis';fill:#333333;fill-opacity:1;stroke-width:0.0728048"
             d="m 46.42114,295.68212 -0.02359,0.21099 q -0.07994,-0.0472 -0.134979,-0.0354 -0.100906,0.0236 -0.100906,0.20706 v 0.35252 h -0.213606 v -0.73518 h 0.210985 v 0.10877 q 0.03407,-0.0852 0.103527,-0.10877 0.04062,-0.0144 0.09566,-0.009 0.02752,10e-4 0.0629,0.009 z"
             inkscape:connector-curvature="0" />
          <path
             id="path866"
             style="font-style:normal;font-variant:normal;font-weight:normal;font-stretch:normal;font-family:'Sui Generis';-inkscape-font-specification:'Sui Generis';fill:#333333;fill-opacity:1;stroke-width:0.0728048"
             d="m 47.300609,296.41599 q -0.06028,-0.0157 -0.104838,-0.0616 -0.08387,0.0616 -0.203122,0.0616 h -0.212297 q -0.117942,0 -0.201812,-0.0826 -0.08256,-0.0839 -0.08256,-0.20182 v -0.16512 q 0,-0.11794 0.08256,-0.2005 0.08387,-0.0839 0.201812,-0.0839 h 0.129737 q 0.121874,0 0.178224,0.10877 v -0.35645 l 0.212296,-0.0708 z m -0.212296,-0.25817 v -0.16512 q 0,-0.0354 -0.03014,-0.0655 -0.02883,-0.0315 -0.06814,-0.0315 h -0.209676 q -0.02883,0 -0.0498,0.021 -0.02097,0.021 -0.02097,0.0498 v 0.16512 q 0,0.0301 0.01966,0.0511 0.02097,0.021 0.05111,0.021 h 0.262094 q 0.04587,0 0.04587,-0.0459 z"
             inkscape:connector-curvature="0" />
          <path
             id="path869"
             style="font-style:normal;font-variant:normal;font-weight:normal;font-stretch:normal;font-family:'Sui Generis';-inkscape-font-specification:'Sui Generis';fill:#333333;fill-opacity:1;stroke-width:0.0728048"
             d="M 48.272589,296.10934 H 47.63308 v 0.0223 q 0,0.0301 0.02097,0.0537 0.02097,0.0223 0.0498,0.0223 h 0.547777 l -0.02621,0.20837 H 47.70385 q -0.117942,0 -0.200502,-0.0826 -0.08256,-0.0839 -0.08256,-0.20182 v -0.16512 q 0,-0.11794 0.08256,-0.2005 0.08387,-0.0839 0.200502,-0.0839 h 0.284372 q 0.117942,0 0.200502,0.0839 0.08387,0.0826 0.08387,0.2005 z m -0.213607,-0.11926 v -0.0354 q 0,-0.0288 -0.02097,-0.0498 -0.02097,-0.0223 -0.0498,-0.0223 H 47.70384 q -0.02883,0 -0.0498,0.0223 -0.02097,0.021 -0.02097,0.0498 v 0.0354 z"
             inkscape:connector-curvature="0" />
          <path
             id="path871"
             style="font-style:normal;font-variant:normal;font-weight:normal;font-stretch:normal;font-family:'Sui Generis';-inkscape-font-specification:'Sui Generis';fill:#333333;fill-opacity:1;stroke-width:0.0728048"
             d="m 49.213056,296.41599 h -0.213607 v -0.4495 q 0,-0.0288 -0.02097,-0.0498 -0.02097,-0.021 -0.0498,-0.021 H 48.69542 q -0.09828,0 -0.09828,0.097 v 0.42329 h -0.212296 v -0.73387 h 0.212296 v 0.11794 q 0.02228,-0.0498 0.07208,-0.0839 0.05111,-0.0341 0.106148,-0.0341 h 0.153325 q 0.117942,0 0.200502,0.0839 0.08387,0.0826 0.08387,0.2005 z"
             inkscape:connector-curvature="0" />
          <path
             id="path873"
             style="font-style:normal;font-variant:normal;font-weight:normal;font-stretch:normal;font-family:'Sui Generis';-inkscape-font-specification:'Sui Generis';fill:#333333;fill-opacity:1;stroke-width:0.0728048"
             d="m 50.197711,296.13161 q 0,0.11795 -0.08387,0.20182 -0.08256,0.0826 -0.200502,0.0826 h -0.283062 q -0.117942,0 -0.201812,-0.0826 -0.08256,-0.0839 -0.08256,-0.20182 v -0.16512 q 0,-0.11794 0.08256,-0.2005 0.08387,-0.0839 0.201812,-0.0839 h 0.283062 q 0.117942,0 0.200502,0.0839 0.08387,0.0826 0.08387,0.2005 z m -0.213607,0 v -0.16512 q 0,-0.0288 -0.02097,-0.0498 -0.01966,-0.021 -0.0498,-0.021 h -0.283062 q -0.03014,0 -0.05111,0.021 -0.01966,0.021 -0.01966,0.0498 v 0.16512 q 0,0.0301 0.01966,0.0511 0.02097,0.021 0.05111,0.021 h 0.283062 q 0.03014,0 0.0498,-0.021 0.02097,-0.021 0.02097,-0.0511 z"
             inkscape:connector-curvature="0" />
          <path
             id="path875"
             style="font-style:normal;font-variant:normal;font-weight:normal;font-stretch:normal;font-family:'Sui Generis';-inkscape-font-specification:'Sui Generis';fill:#333333;fill-opacity:1;stroke-width:0.0728048"
             d="m 51.140369,296.41599 h -0.213607 v -0.4495 q 0,-0.0288 -0.02097,-0.0498 -0.02097,-0.021 -0.0498,-0.021 h -0.233264 q -0.09828,0 -0.09828,0.097 v 0.42329 h -0.212296 v -0.73387 h 0.212296 v 0.11794 q 0.02228,-0.0498 0.07208,-0.0839 0.05111,-0.0341 0.106148,-0.0341 h 0.153325 q 0.117942,0 0.200502,0.0839 0.08387,0.0826 0.08387,0.2005 z"
             inkscape:connector-curvature="0" />
          <path
             id="path877"
             style="font-style:normal;font-variant:normal;font-weight:normal;font-stretch:normal;font-family:'Sui Generis';-inkscape-font-specification:'Sui Generis';fill:#333333;fill-opacity:1;stroke-width:0.0728048"
             d="m 52.109298,296.10934 h -0.63951 v 0.0223 q 0,0.0301 0.02097,0.0537 0.02097,0.0223 0.0498,0.0223 h 0.547776 l -0.02621,0.20837 h -0.521567 q -0.117942,0 -0.200502,-0.0826 -0.08256,-0.0839 -0.08256,-0.20182 v -0.16512 q 0,-0.11794 0.08256,-0.2005 0.08387,-0.0839 0.200502,-0.0839 h 0.284372 q 0.117942,0 0.200502,0.0839 0.08387,0.0826 0.08387,0.2005 z m -0.213607,-0.11926 v -0.0354 q 0,-0.0288 -0.02097,-0.0498 -0.02097,-0.0223 -0.0498,-0.0223 h -0.284372 q -0.02883,0 -0.0498,0.0223 -0.02097,0.021 -0.02097,0.0498 v 0.0354 z"
             inkscape:connector-curvature="0" />
          <path
             id="path879"
             style="font-style:normal;font-variant:normal;font-weight:normal;font-stretch:normal;font-family:'Sui Generis';-inkscape-font-specification:'Sui Generis';fill:#333333;fill-opacity:1;stroke-width:0.0728048"
             d="m 53.493994,296.10934 h -0.639509 v 0.0223 q 0,0.0301 0.02097,0.0537 0.02097,0.0223 0.0498,0.0223 h 0.547777 l -0.02621,0.20837 H 52.92525 q -0.117942,0 -0.200502,-0.0826 -0.08256,-0.0839 -0.08256,-0.20182 v -0.16512 q 0,-0.11794 0.08256,-0.2005 0.08387,-0.0839 0.200502,-0.0839 h 0.284372 q 0.117943,0 0.200502,0.0839 0.08387,0.0826 0.08387,0.2005 z m -0.213606,-0.11926 v -0.0354 q 0,-0.0288 -0.02097,-0.0498 -0.02097,-0.0223 -0.0498,-0.0223 H 52.92525 q -0.02883,0 -0.0498,0.0223 -0.02097,0.021 -0.02097,0.0498 v 0.0354 z"
             inkscape:connector-curvature="0" />
          <path
             id="path881"
             style="font-style:normal;font-variant:normal;font-weight:normal;font-stretch:normal;font-family:'Sui Generis';-inkscape-font-specification:'Sui Generis';fill:#333333;fill-opacity:1;stroke-width:0.0728048"
             d="m 54.413493,296.41599 q -0.06028,-0.0157 -0.104837,-0.0616 -0.08387,0.0616 -0.203123,0.0616 h -0.212297 q -0.117942,0 -0.201812,-0.0826 -0.08256,-0.0839 -0.08256,-0.20182 v -0.16512 q 0,-0.11794 0.08256,-0.2005 0.08387,-0.0839 0.201812,-0.0839 h 0.129737 q 0.121874,0 0.178224,0.10877 v -0.35645 l 0.212296,-0.0708 z m -0.212296,-0.25817 v -0.16512 q 0,-0.0354 -0.03014,-0.0655 -0.02883,-0.0315 -0.06814,-0.0315 h -0.209676 q -0.02883,0 -0.0498,0.021 -0.02097,0.021 -0.02097,0.0498 v 0.16512 q 0,0.0301 0.01966,0.0511 0.02097,0.021 0.05111,0.021 h 0.262095 q 0.04587,0 0.04587,-0.0459 z"
             inkscape:connector-curvature="0" />
          <path
             id="path883"
             style="font-style:normal;font-variant:normal;font-weight:normal;font-stretch:normal;font-family:'Sui Generis';-inkscape-font-specification:'Sui Generis';fill:#333333;fill-opacity:1;stroke-width:0.0728048"
             d="m 54.759069,295.53273 h -0.212296 v -0.13367 h 0.212296 z m 0,0.88326 h -0.212296 v -0.73387 h 0.212296 z"
             inkscape:connector-curvature="0" />
          <path
             id="path885"
             style="font-style:normal;font-variant:normal;font-weight:normal;font-stretch:normal;font-family:'Sui Generis';-inkscape-font-specification:'Sui Generis';fill:#333333;fill-opacity:1;stroke-width:0.0728048"
             d="m 55.309221,296.19976 -0.02621,0.21098 q -0.0498,0.0236 -0.09698,0.0236 -0.148083,0 -0.217538,-0.14022 -0.05373,-0.10877 -0.05373,-0.28961 v -0.10877 h -0.09566 l 0.02359,-0.21361 h 0.07208 v -0.17691 l 0.212296,-0.0708 v 0.24768 h 0.125805 l -0.02359,0.21361 h -0.102217 v 0.10877 q 0,0.11401 0.01835,0.15987 0.01835,0.0459 0.07732,0.0564 0.05373,0.008 0.08649,-0.021 z"
             inkscape:connector-curvature="0" />
          <path
             id="path887"
             style="font-style:normal;font-variant:normal;font-weight:normal;font-stretch:normal;font-family:'Sui Generis';-inkscape-font-specification:'Sui Generis';fill:#333333;fill-opacity:1;stroke-width:0.0728048"
             d="M 55.611386,295.53273 H 55.39909 v -0.13367 h 0.212296 z m 0,0.88326 H 55.39909 v -0.73387 h 0.212296 z"
             inkscape:connector-curvature="0" />
          <path
             id="path889"
             style="font-style:normal;font-variant:normal;font-weight:normal;font-stretch:normal;font-family:'Sui Generis';-inkscape-font-specification:'Sui Generis';fill:#333333;fill-opacity:1;stroke-width:0.0728048"
             d="m 56.591373,296.13161 q 0,0.11795 -0.08387,0.20182 -0.08256,0.0826 -0.200502,0.0826 h -0.283062 q -0.117942,0 -0.201812,-0.0826 -0.08256,-0.0839 -0.08256,-0.20182 v -0.16512 q 0,-0.11794 0.08256,-0.2005 0.08387,-0.0839 0.201812,-0.0839 h 0.283062 q 0.117942,0 0.200502,0.0839 0.08387,0.0826 0.08387,0.2005 z m -0.213607,0 v -0.16512 q 0,-0.0288 -0.02097,-0.0498 -0.01966,-0.021 -0.0498,-0.021 h -0.283062 q -0.03014,0 -0.05111,0.021 -0.01966,0.021 -0.01966,0.0498 v 0.16512 q 0,0.0301 0.01966,0.0511 0.02097,0.021 0.05111,0.021 h 0.283062 q 0.03014,0 0.0498,-0.021 0.02097,-0.021 0.02097,-0.0511 z"
             inkscape:connector-curvature="0" />
          <path
             id="path891"
             style="font-style:normal;font-variant:normal;font-weight:normal;font-stretch:normal;font-family:'Sui Generis';-inkscape-font-specification:'Sui Generis';fill:#333333;fill-opacity:1;stroke-width:0.0728048"
             d="m 57.53403,296.41599 h -0.213607 v -0.4495 q 0,-0.0288 -0.02097,-0.0498 -0.02097,-0.021 -0.0498,-0.021 h -0.233264 q -0.09828,0 -0.09828,0.097 v 0.42329 h -0.212296 v -0.73387 h 0.212296 v 0.11794 q 0.02228,-0.0498 0.07208,-0.0839 0.05111,-0.0341 0.106148,-0.0341 h 0.153325 q 0.117942,0 0.200502,0.0839 0.08387,0.0826 0.08387,0.2005 z"
             inkscape:connector-curvature="0" />
        </g>
      </g>
    </g>
  </g>
</svg>
