<?xml version="1.0" encoding="UTF-8" standalone="no"?>
<!-- Created with Inkscape (http://www.inkscape.org/) -->

<svg
   xmlns:dc="http://purl.org/dc/elements/1.1/"
   xmlns:cc="http://creativecommons.org/ns#"
   xmlns:rdf="http://www.w3.org/1999/02/22-rdf-syntax-ns#"
   xmlns:svg="http://www.w3.org/2000/svg"
   xmlns="http://www.w3.org/2000/svg"
   xmlns:sodipodi="http://sodipodi.sourceforge.net/DTD/sodipodi-0.dtd"
   xmlns:inkscape="http://www.inkscape.org/namespaces/inkscape"
   width="128"
   height="34"
   viewBox="0 0 33.866665 8.9958338"
   version="1.1"
   id="svg8"
   sodipodi:docname="navbar_logo.svg"
   inkscape:version="0.92.3 (2405546, 2018-03-11)">
  <defs
     id="defs2" />
  <sodipodi:namedview
     id="base"
     pagecolor="#ffffff"
     bordercolor="#666666"
     borderopacity="1.0"
     inkscape:pageopacity="0.0"
     inkscape:pageshadow="2"
     inkscape:zoom="7.5185335"
     inkscape:cx="57.085284"
     inkscape:cy="17.617446"
     inkscape:document-units="px"
     inkscape:current-layer="text869"
     showgrid="false"
     units="px"
     inkscape:showpageshadow="false"
     inkscape:window-width="1920"
     inkscape:window-height="1026"
     inkscape:window-x="0"
     inkscape:window-y="29"
     inkscape:window-maximized="1" />
  <metadata
     id="metadata5">
    <rdf:RDF>
      <cc:Work
         rdf:about="">
        <dc:format>image/svg+xml</dc:format>
        <dc:type
           rdf:resource="http://purl.org/dc/dcmitype/StillImage" />
        <dc:title></dc:title>
      </cc:Work>
    </rdf:RDF>
  </metadata>
  <g
     inkscape:label="Livello 1"
     inkscape:groupmode="layer"
     id="layer1"
     transform="translate(0,-288.00416)">
    <g
       aria-label="Opis"
       style="font-style:normal;font-variant:normal;font-weight:normal;font-stretch:normal;font-size:17.77799606px;line-height:1.25;font-family:'Futura Hv BT';-inkscape-font-specification:'Futura Hv BT';letter-spacing:0px;word-spacing:0px;fill:#000000;fill-opacity:1;stroke:none;stroke-width:0.74074984"
       id="text869">
      <g
         id="g844"
         transform="matrix(1.1438045,0,0,1.1438045,-0.04768027,-42.407306)">
        <path
           d="m 4.439807,290.13571 c 0.1863136,-0.18631 0.4107371,-0.27947 0.67327,-0.27947 0.2625332,0 0.4869563,0.0932 0.67327,0.27947 0.1863139,0.18632 0.2794707,0.41074 0.2794707,0.67327 v 3.63273 c 0,0.26253 -0.093157,0.48696 -0.2794707,0.67327 -0.1863137,0.18632 -0.4107368,0.27947 -0.67327,0.27947 -0.2625329,0 -0.4869564,-0.0931 -0.67327,-0.27947 -0.1863138,-0.18631 -0.2794707,-0.41074 -0.2794707,-0.67327 v -3.63273 c 0,-0.26253 0.093157,-0.48695 0.2794707,-0.67327 z m 0.8955764,0.45096 c -0.059282,-0.0635 -0.133384,-0.0953 -0.2223064,-0.0953 -0.088923,0 -0.1651418,0.0317 -0.2286578,0.0953 -0.059282,0.0593 -0.088922,0.13339 -0.088922,0.22231 v 3.63273 c 0,0.0889 0.029639,0.16515 0.088922,0.22866 0.063516,0.0593 0.1397353,0.0889 0.2286578,0.0889 0.088922,0 0.1630247,-0.0297 0.2223064,-0.0889 0.063516,-0.0635 0.095274,-0.13974 0.095274,-0.22866 v -3.63273 c 0,-0.0889 -0.031756,-0.16303 -0.095274,-0.22231 z"
           style="font-style:normal;font-variant:normal;font-weight:normal;font-stretch:normal;font-size:medium;line-height:1.25;font-family:OpenDinSchriftenEngshrift;-inkscape-font-specification:OpenDinSchriftenEngshrift;letter-spacing:0px;word-spacing:0px;fill:#e6e6e6;fill-opacity:1;stroke:none;stroke-width:0.26465023"
           id="path871-6"
           inkscape:connector-curvature="0"
           sodipodi:nodetypes="ssssscscssscscsscscssc" />
        <path
           d="m 6.325345,292.21865 c 0.2664363,-0.1167 0.4616123,-0.0815 0.6351605,0 v 0.63516 c 0,-0.17361 0.061399,-0.32182 0.1841964,-0.44461 0.1270323,-0.12704 0.2773538,-0.19055 0.4509641,-0.19055 0.1736109,0 0.3218149,0.0635 0.4446119,0.19055 0.127032,0.12279 0.190549,0.271 0.190549,0.44461 v 1.90549 c 0,0.1736 -0.06352,0.32393 -0.190549,0.45095 -0.122797,0.12281 -0.271001,0.1842 -0.4446119,0.1842 -0.1736103,0 -0.3239318,-0.0613 -0.4509641,-0.1842 -0.1227977,-0.12702 -0.1841964,-0.27735 -0.1841964,-0.45095 v 1.90547 c -0.2824629,0.1179 -0.4636783,0.0671 -0.6351605,0 z m 1.1750469,0.73043 c -0.059282,-0.0635 -0.1333836,-0.0953 -0.2223062,-0.0953 -0.088923,0 -0.1651417,0.0317 -0.228658,0.0953 -0.059282,0.0593 -0.088922,0.13339 -0.088922,0.22231 v 1.27032 c 0,0.0889 0.029639,0.16515 0.088922,0.22866 0.063516,0.0593 0.1397355,0.0889 0.228658,0.0889 0.088922,0 0.1630249,-0.0297 0.2223062,-0.0889 0.063516,-0.0635 0.095274,-0.13974 0.095274,-0.22866 v -1.27032 c 0,-0.0889 -0.031756,-0.16302 -0.095274,-0.22231 z"
           style="font-style:normal;font-variant:normal;font-weight:normal;font-stretch:normal;font-size:medium;line-height:1.25;font-family:OpenDinSchriftenEngshrift;-inkscape-font-specification:OpenDinSchriftenEngshrift;letter-spacing:0px;word-spacing:0px;fill:#e6e6e6;fill-opacity:1;stroke:none;stroke-width:0.26465023"
           id="path873-2"
           inkscape:connector-curvature="0"
           sodipodi:nodetypes="ccccscssssccccccscsscscssc" />
        <path
           d="m 8.4903539,290.94833 c 0.195922,-0.0527 0.402012,-0.0714 0.63516,0 v 0.63516 c -0.204293,0.0397 -0.412321,0.0593 -0.63516,0 z m 0,1.27032 c 0.21172,-0.0829 0.42344,-0.0729 0.63516,0 v 3.1758 c -0.214945,0.0774 -0.426448,0.0721 -0.63516,0 z"
           style="font-style:normal;font-variant:normal;font-weight:normal;font-stretch:normal;font-size:medium;line-height:1.25;font-family:OpenDinSchriftenEngshrift;-inkscape-font-specification:OpenDinSchriftenEngshrift;letter-spacing:0px;word-spacing:0px;fill:#e6e6e6;fill-opacity:1;stroke:none;stroke-width:0.26465023"
           id="path875-9"
           inkscape:connector-curvature="0"
           sodipodi:nodetypes="cccccccccc" />
        <path
           inkscape:connector-curvature="0"
           id="path877-1"
           transform="matrix(0.26458333,0,0,0.26458333,0,289.59166)"
           d="m 39.042969,9.9296875 c -0.992247,0 -1.83879,0.3504855 -2.542969,1.0546875 -0.704194,0.704202 -1.056641,1.552683 -1.056641,2.544922 0,0.992277 0.352466,1.84072 1.056641,2.544922 0.704183,0.70405 1.550718,1.05664 2.542969,1.05664 0.336087,0 0.617746,0.119375 0.841797,0.359375 0.240037,0.224051 0.359375,0.503844 0.359375,0.839844 0,0.336076 -0.119338,0.625235 -0.359375,0.865234 -0.224055,0.223749 -0.505722,0.335938 -0.841797,0.335938 -0.336083,0 -0.623244,-0.111812 -0.863281,-0.335938 -0.224051,-0.240075 -0.335938,-0.529234 -0.335938,-0.865234 -0.649951,-0.24 -1.383539,-0.411628 -2.400391,0 0,0.992239 0.352466,1.840758 1.056641,2.544922 0.704179,0.704391 1.550722,1.056641 2.542969,1.056641 0.629085,0 1.193739,-0.158363 1.707031,-0.441407 a 4.7964729,4.7964729 0 0 1 1.863281,-2.824218 c 0.0096,-0.112015 0.03125,-0.21999 0.03125,-0.335938 0,-0.992277 -0.352465,-1.838767 -1.05664,-2.542969 -0.704179,-0.70405 -1.552668,-1.05664 -2.544922,-1.05664 -0.336083,0 -0.623244,-0.111812 -0.863281,-0.335938 -0.224051,-0.240038 -0.335938,-0.529234 -0.335938,-0.865234 0,-0.336076 0.111887,-0.615718 0.335938,-0.839844 0.24006,-0.240378 0.527205,-0.359375 0.863281,-0.359375 0.336087,0 0.617746,0.119375 0.841797,0.359375 0.240075,0.224088 0.359375,0.503844 0.359375,0.839844 0.800201,0.416617 1.600189,0.335622 2.40039,0 0,-0.992239 -0.352465,-1.84072 -1.05664,-2.544922 -0.704179,-0.704013 -1.552668,-1.0546875 -2.544922,-1.0546875 z"
           style="font-style:normal;font-variant:normal;font-weight:normal;font-stretch:normal;font-size:medium;line-height:1.25;font-family:OpenDinSchriftenEngshrift;-inkscape-font-specification:OpenDinSchriftenEngshrift;letter-spacing:0px;word-spacing:0px;fill:#e6e6e6;fill-opacity:1;stroke:none;stroke-width:1.00025284" />
        <path
           style="color:#000000;font-style:normal;font-variant:normal;font-weight:normal;font-stretch:normal;font-size:medium;line-height:1.25;font-family:'Futura Hv BT';-inkscape-font-specification:'Futura Hv BT';font-variant-ligatures:normal;font-variant-position:normal;font-variant-caps:normal;font-variant-numeric:normal;font-variant-alternates:normal;font-feature-settings:normal;text-indent:0;text-align:start;text-decoration:none;text-decoration-line:none;text-decoration-style:solid;text-decoration-color:#000000;letter-spacing:0px;word-spacing:0px;text-transform:none;writing-mode:lr-tb;direction:ltr;text-orientation:mixed;dominant-baseline:auto;baseline-shift:baseline;text-anchor:start;white-space:normal;shape-padding:0;clip-rule:nonzero;display:inline;overflow:visible;visibility:visible;opacity:1;isolation:auto;mix-blend-mode:normal;color-interpolation:sRGB;color-interpolation-filters:linearRGB;solid-color:#000000;solid-opacity:1;vector-effect:none;fill:#e6e6e6;fill-opacity:1;fill-rule:nonzero;stroke:none;stroke-width:0.42987368;stroke-linecap:butt;stroke-linejoin:miter;stroke-miterlimit:4;stroke-dasharray:none;stroke-dashoffset:0;stroke-opacity:1;color-rendering:auto;image-rendering:auto;shape-rendering:auto;text-rendering:auto;enable-background:accumulate"
           d="m 2.0433946,289.85624 c -0.9430032,0 -1.7118318,0.76883 -1.7118316,1.71183 -2e-7,0.87026 0.6549352,1.59213 1.497123,1.69842 v 0.61684 H 1.0059782 0.7912697 c -0.058296,0.14329 -0.086689,0.28659 0,0.42988 H 1.0059782 1.828686 v 0.82225 0.21518 c 0.1432968,0.0597 0.2865937,0.0573 0.4298905,0 v -0.21518 -0.82225 H 3.080811 3.2961505 c 0.041812,-0.12239 0.073253,-0.24996 0,-0.42988 H 3.080811 2.2585765 v -0.61684 c 0.8420419,-0.10651 1.4972809,-0.82833 1.4972808,-1.69842 10e-8,-0.943 -0.7694596,-1.71183 -1.7124627,-1.71183 z m 0,0.42989 c 0.7106822,0 1.2825723,0.57125 1.2825722,1.28194 1e-7,0.67894 -0.5222811,1.22987 -1.1885484,1.27784 H 1.9493709 c -0.6662188,-0.0479 -1.1879175,-0.5989 -1.1879175,-1.27784 -10e-8,-0.71069 0.5712589,-1.28194 1.2819412,-1.28194 z"
           id="path4560"
           inkscape:connector-curvature="0"
           sodipodi:nodetypes="ssccccccccccccccccccssssccss" />
        <path
           style="color:#000000;font-style:normal;font-variant:normal;font-weight:normal;font-stretch:normal;font-size:medium;line-height:1.25;font-family:'Futura Hv BT';-inkscape-font-specification:'Futura Hv BT';font-variant-ligatures:normal;font-variant-position:normal;font-variant-caps:normal;font-variant-numeric:normal;font-variant-alternates:normal;font-feature-settings:normal;text-indent:0;text-align:start;text-decoration:none;text-decoration-line:none;text-decoration-style:solid;text-decoration-color:#000000;letter-spacing:0px;word-spacing:0px;text-transform:none;writing-mode:lr-tb;direction:ltr;text-orientation:mixed;dominant-baseline:auto;baseline-shift:baseline;text-anchor:start;white-space:normal;shape-padding:0;clip-rule:nonzero;display:inline;overflow:visible;visibility:visible;opacity:1;isolation:auto;mix-blend-mode:normal;color-interpolation:sRGB;color-interpolation-filters:linearRGB;solid-color:#000000;solid-opacity:1;vector-effect:none;fill:#e6e6e6;fill-opacity:1;fill-rule:nonzero;stroke:none;stroke-width:0.1765462;stroke-linecap:square;stroke-linejoin:miter;stroke-miterlimit:4;stroke-dasharray:none;stroke-dashoffset:0;stroke-opacity:1;color-rendering:auto;image-rendering:auto;shape-rendering:auto;text-rendering:auto;enable-background:accumulate"
           d="m 1.847238,290.46782 v 0.0884 0.34226 H 1.3983376 1.3100901 v 0.17662 h 0.088247 0.4489004 v 1.38284 0.0884 h 0.1767506 v -0.0884 -0.68962 c 0.1293675,-0.0782 0.2323778,-0.11287 0.2943713,-0.11634 0.063133,-0.004 0.076242,0.007 0.092207,0.041 0.015964,0.0338 0.022344,0.1107 -0.00575,0.22055 -0.028091,0.10974 -0.087246,0.24992 -0.1805818,0.41071 -0.015392,0.0265 -0.023054,0.048 -0.032821,0.0875 -0.00976,0.0394 -0.021945,0.0885 0.00625,0.14865 0.014101,0.0301 0.044705,0.0599 0.080202,0.0729 0.035497,0.0129 0.071184,0.0121 0.1080427,0.005 0.073718,-0.0144 0.1585474,-0.0547 0.2804509,-0.13231 l 0.074838,-0.0472 -0.095144,-0.14917 -0.074328,0.0474 c -0.1076365,0.0684 -0.1752454,0.095 -0.209955,0.10316 4.131e-4,-0.004 1.39e-5,-0.002 0.00102,-0.006 0.00538,-0.0217 0.020821,-0.0528 0.013921,-0.041 0.099306,-0.17107 0.165576,-0.32364 0.1993553,-0.45567 0.033779,-0.13203 0.038783,-0.2462 -0.00575,-0.34035 -0.04453,-0.0942 -0.1507416,-0.14822 -0.2620606,-0.14188 -0.085431,0.005 -0.1789476,0.0357 -0.2842823,0.0905 v -0.49054 h 0.44839 0.088247 v -0.17661 H 2.472378 2.0239885 v -0.34227 -0.0884 z"
           id="path4595"
           inkscape:connector-curvature="0" />
        <path
           inkscape:connector-curvature="0"
           id="path944"
           transform="matrix(0.26458333,0,0,0.26458333,0,289.59166)"
           d="m 45.425781,18.40625 a 4.1381324,4.1381324 0 0 0 -4.138672,4.138672 4.1381324,4.1381324 0 0 0 4.138672,4.138672 4.1381324,4.1381324 0 0 0 4.138672,-4.138672 4.1381324,4.1381324 0 0 0 -4.138672,-4.138672 z m -2.886719,2.166016 h 2.240235 c 0.316825,0 0.556522,0.02805 0.716797,0.08398 0.260916,0.09323 0.390625,0.268232 0.390625,0.525391 v 1.195312 c 0,0.201323 -0.14055,0.36106 -0.423828,0.476563 -0.216189,0.08567 -0.445045,0.126953 -0.683594,0.126953 h -0.753906 v 1.539062 h -1.486329 z m 3.822266,0 h 0.84375 c 0.25346,0 0.482494,0.04128 0.6875,0.126953 0.279552,0.108094 0.419922,0.269962 0.419922,0.482422 v 3.33789 h -1.486328 v -3.070312 h -0.464844 z m -2.335937,0.876953 v 0.660156 h 0.375 v -0.660156 z"
           style="fill:#333333;fill-opacity:1;stroke:none;stroke-width:1.97999954;stroke-linecap:square;stroke-miterlimit:4;stroke-dasharray:none;stroke-opacity:1" />
      </g>
      <g
         aria-label="production one"
         style="font-style:normal;font-weight:normal;font-size:1.49278176px;line-height:1.25;font-family:sans-serif;letter-spacing:0px;word-spacing:0px;fill:#ffaaaa;fill-opacity:1;stroke:none;stroke-width:0.10366666"
         id="text835">
        <path
           d="m 16.866321,293.76441 q 0,0.13436 -0.09554,0.22989 -0.09405,0.094 -0.228396,0.094 h -0.201526 q -0.05971,0 -0.119422,-0.0358 -0.05971,-0.0358 -0.0821,-0.0881 v 0.39409 h -0.243323 v -1.10615 h 0.243323 v 0.12689 q 0.01941,-0.0493 0.08061,-0.0881 0.0612,-0.0388 0.120915,-0.0388 h 0.201526 q 0.13435,0 0.228396,0.0955 0.09554,0.0955 0.09554,0.22839 z m -0.241831,0 v -0.18809 q 0,-0.0328 -0.02388,-0.0567 -0.02388,-0.0239 -0.05822,-0.0239 h -0.322441 q -0.03433,0 -0.05822,0.0239 -0.02239,0.0239 -0.02239,0.0567 v 0.18809 q 0,0.0343 0.02239,0.0582 0.02388,0.0239 0.05822,0.0239 h 0.322441 q 0.03433,0 0.05822,-0.0239 0.02388,-0.0239 0.02388,-0.0582 z"
           style="font-style:normal;font-variant:normal;font-weight:normal;font-stretch:normal;font-family:'Sui Generis';-inkscape-font-specification:'Sui Generis';fill:#ffaaaa;stroke-width:0.10366666"
           id="path868" />
        <path
           d="m 17.555636,293.25239 -0.02687,0.24034 q -0.09106,-0.0537 -0.153757,-0.0403 -0.114944,0.0269 -0.114944,0.23586 v 0.40156 h -0.243323 v -0.83745 h 0.240338 v 0.1239 q 0.03881,-0.097 0.117929,-0.1239 0.04628,-0.0164 0.108973,-0.0104 0.03135,0.001 0.07165,0.0104 z"
           style="font-style:normal;font-variant:normal;font-weight:normal;font-stretch:normal;font-family:'Sui Generis';-inkscape-font-specification:'Sui Generis';fill:#ffaaaa;stroke-width:0.10366666"
           id="path870" />
        <path
           d="m 18.606718,293.76441 q 0,0.13436 -0.09554,0.22989 -0.09405,0.094 -0.228396,0.094 h -0.322441 q -0.13435,0 -0.229888,-0.094 -0.09405,-0.0955 -0.09405,-0.22989 v -0.18809 q 0,-0.13435 0.09405,-0.22839 0.09554,-0.0955 0.229888,-0.0955 h 0.322441 q 0.13435,0 0.228396,0.0955 0.09554,0.094 0.09554,0.22839 z m -0.243324,0 v -0.18809 q 0,-0.0328 -0.02388,-0.0567 -0.02239,-0.0239 -0.05673,-0.0239 h -0.322441 q -0.03433,0 -0.05822,0.0239 -0.02239,0.0239 -0.02239,0.0567 v 0.18809 q 0,0.0343 0.02239,0.0582 0.02388,0.0239 0.05822,0.0239 h 0.322441 q 0.03433,0 0.05673,-0.0239 0.02388,-0.0239 0.02388,-0.0582 z"
           style="font-style:normal;font-variant:normal;font-weight:normal;font-stretch:normal;font-family:'Sui Generis';-inkscape-font-specification:'Sui Generis';fill:#ffaaaa;stroke-width:0.10366666"
           id="path872" />
        <path
           d="m 19.656633,294.08835 q -0.06867,-0.0179 -0.119423,-0.0702 -0.09554,0.0702 -0.231381,0.0702 h -0.24183 q -0.134351,0 -0.229889,-0.094 -0.09404,-0.0955 -0.09404,-0.22989 v -0.18809 q 0,-0.13435 0.09404,-0.22839 0.09554,-0.0955 0.229889,-0.0955 h 0.147785 q 0.138829,0 0.203018,0.1239 v -0.40604 l 0.241831,-0.0806 z m -0.241831,-0.29408 v -0.18809 q 0,-0.0403 -0.03433,-0.0746 -0.03284,-0.0358 -0.07762,-0.0358 h -0.238845 q -0.03284,0 -0.05673,0.0239 -0.02388,0.0239 -0.02388,0.0567 v 0.18809 q 0,0.0343 0.02239,0.0582 0.02388,0.0239 0.05822,0.0239 h 0.298556 q 0.05225,0 0.05225,-0.0523 z"
           style="font-style:normal;font-variant:normal;font-weight:normal;font-stretch:normal;font-family:'Sui Generis';-inkscape-font-specification:'Sui Generis';fill:#ffaaaa;stroke-width:0.10366666"
           id="path874" />
        <path
           d="m 20.725022,294.08835 q -0.06419,-0.0209 -0.111959,-0.0746 -0.04628,0.0373 -0.07315,0.0507 -0.05374,0.0239 -0.138829,0.0239 h -0.268701 q -0.13435,0 -0.229888,-0.094 -0.09404,-0.0955 -0.09404,-0.22989 v -0.51202 h 0.243323 v 0.51202 q 0,0.0343 0.02239,0.0582 0.02388,0.0239 0.05822,0.0239 h 0.301542 q 0.04777,0 0.04777,-0.0642 v -0.52994 h 0.243324 z"
           style="font-style:normal;font-variant:normal;font-weight:normal;font-stretch:normal;font-family:'Sui Generis';-inkscape-font-specification:'Sui Generis';fill:#ffaaaa;stroke-width:0.10366666"
           id="path876" />
        <path
           d="m 21.784803,293.94355 q -0.04478,0.0657 -0.119422,0.10599 -0.07315,0.0388 -0.152264,0.0388 h -0.331398 q -0.13435,0 -0.229888,-0.094 -0.09404,-0.0955 -0.09404,-0.22989 v -0.18809 q 0,-0.13435 0.09404,-0.22839 0.09554,-0.0955 0.229888,-0.0955 h 0.323934 q 0.167192,0 0.264222,0.13734 l -0.19854,0.14032 q -0.02388,-0.0343 -0.06568,-0.0343 h -0.323934 q -0.03284,0 -0.05673,0.0239 -0.02388,0.0239 -0.02388,0.0567 v 0.18809 q 0,0.0343 0.02388,0.0582 0.02388,0.0239 0.05673,0.0239 h 0.323934 q 0.06419,0 0.100016,-0.0672 z"
           style="font-style:normal;font-variant:normal;font-weight:normal;font-stretch:normal;font-family:'Sui Generis';-inkscape-font-specification:'Sui Generis';fill:#ffaaaa;stroke-width:0.10366666"
           id="path878" />
        <path
           d="m 22.359268,293.84204 -0.02986,0.24034 q -0.05673,0.0269 -0.110466,0.0269 -0.168684,0 -0.247802,-0.15973 -0.0612,-0.1239 -0.0612,-0.32991 v -0.1239 h -0.108973 l 0.02687,-0.24332 h 0.0821 v -0.20152 l 0.241831,-0.0806 v 0.28214 h 0.143307 l -0.02687,0.24332 h -0.116437 v 0.1239 q 0,0.12988 0.0209,0.18212 0.0209,0.0522 0.08807,0.0642 0.0612,0.009 0.09852,-0.0239 z"
           style="font-style:normal;font-variant:normal;font-weight:normal;font-stretch:normal;font-family:'Sui Generis';-inkscape-font-specification:'Sui Generis';fill:#ffaaaa;stroke-width:0.10366666"
           id="path880" />
        <path
           d="m 22.70347,293.08221 h -0.24183 v -0.15226 h 0.24183 z m 0,1.00614 h -0.24183 v -0.83596 h 0.24183 z"
           style="font-style:normal;font-variant:normal;font-weight:normal;font-stretch:normal;font-family:'Sui Generis';-inkscape-font-specification:'Sui Generis';fill:#ffaaaa;stroke-width:0.10366666"
           id="path882" />
        <path
           d="m 23.819792,293.76441 q 0,0.13436 -0.09554,0.22989 -0.09405,0.094 -0.228396,0.094 h -0.322441 q -0.13435,0 -0.229888,-0.094 -0.09405,-0.0955 -0.09405,-0.22989 v -0.18809 q 0,-0.13435 0.09405,-0.22839 0.09554,-0.0955 0.229888,-0.0955 h 0.322441 q 0.13435,0 0.228396,0.0955 0.09554,0.094 0.09554,0.22839 z m -0.243324,0 v -0.18809 q 0,-0.0328 -0.02388,-0.0567 -0.02239,-0.0239 -0.05673,-0.0239 h -0.322441 q -0.03433,0 -0.05822,0.0239 -0.02239,0.0239 -0.02239,0.0567 v 0.18809 q 0,0.0343 0.02239,0.0582 0.02388,0.0239 0.05822,0.0239 h 0.322441 q 0.03433,0 0.05673,-0.0239 0.02388,-0.0239 0.02388,-0.0582 z"
           style="font-style:normal;font-variant:normal;font-weight:normal;font-stretch:normal;font-family:'Sui Generis';-inkscape-font-specification:'Sui Generis';fill:#ffaaaa;stroke-width:0.10366666"
           id="path884" />
        <path
           d="m 24.893591,294.08835 h -0.243323 v -0.51203 q 0,-0.0328 -0.02388,-0.0567 -0.02388,-0.0239 -0.05673,-0.0239 h -0.265716 q -0.111958,0 -0.111958,0.11047 v 0.48217 h -0.241831 v -0.83596 h 0.241831 v 0.13435 q 0.02538,-0.0567 0.0821,-0.0955 0.05822,-0.0388 0.120915,-0.0388 h 0.174656 q 0.13435,0 0.228395,0.0955 0.09554,0.094 0.09554,0.22839 z"
           style="font-style:normal;font-variant:normal;font-weight:normal;font-stretch:normal;font-family:'Sui Generis';-inkscape-font-specification:'Sui Generis';fill:#ffaaaa;stroke-width:0.10366666"
           id="path886" />
        <path
           d="m 26.513796,293.76441 q 0,0.13436 -0.09554,0.22989 -0.09405,0.094 -0.228396,0.094 h -0.32244 q -0.134351,0 -0.229889,-0.094 -0.09405,-0.0955 -0.09405,-0.22989 v -0.18809 q 0,-0.13435 0.09405,-0.22839 0.09554,-0.0955 0.229889,-0.0955 h 0.32244 q 0.134351,0 0.228396,0.0955 0.09554,0.094 0.09554,0.22839 z m -0.243323,0 v -0.18809 q 0,-0.0328 -0.02388,-0.0567 -0.02239,-0.0239 -0.05673,-0.0239 h -0.32244 q -0.03433,0 -0.05822,0.0239 -0.02239,0.0239 -0.02239,0.0567 v 0.18809 q 0,0.0343 0.02239,0.0582 0.02388,0.0239 0.05822,0.0239 h 0.32244 q 0.03433,0 0.05673,-0.0239 0.02388,-0.0239 0.02388,-0.0582 z"
           style="font-style:normal;font-variant:normal;font-weight:normal;font-stretch:normal;font-family:'Sui Generis';-inkscape-font-specification:'Sui Generis';fill:#ffaaaa;stroke-width:0.10366666"
           id="path888" />
        <path
           d="m 27.587596,294.08835 h -0.243323 v -0.51203 q 0,-0.0328 -0.02388,-0.0567 -0.02388,-0.0239 -0.05673,-0.0239 h -0.265716 q -0.111958,0 -0.111958,0.11047 v 0.48217 h -0.241831 v -0.83596 h 0.241831 v 0.13435 q 0.02538,-0.0567 0.0821,-0.0955 0.05822,-0.0388 0.120915,-0.0388 h 0.174656 q 0.13435,0 0.228395,0.0955 0.09554,0.094 0.09554,0.22839 z"
           style="font-style:normal;font-variant:normal;font-weight:normal;font-stretch:normal;font-family:'Sui Generis';-inkscape-font-specification:'Sui Generis';fill:#ffaaaa;stroke-width:0.10366666"
           id="path890" />
        <path
           d="m 28.691321,293.73904 h -0.728477 v 0.0254 q 0,0.0343 0.02388,0.0612 0.02388,0.0254 0.05673,0.0254 h 0.623983 l -0.02986,0.23735 h -0.594127 q -0.134351,0 -0.228396,-0.094 -0.09405,-0.0955 -0.09405,-0.22989 v -0.18809 q 0,-0.13435 0.09405,-0.22839 0.09554,-0.0955 0.228396,-0.0955 h 0.323933 q 0.134351,0 0.228396,0.0955 0.09554,0.094 0.09554,0.22839 z m -0.243323,-0.13585 v -0.0403 q 0,-0.0328 -0.02388,-0.0567 -0.02388,-0.0254 -0.05673,-0.0254 h -0.323933 q -0.03284,0 -0.05673,0.0254 -0.02388,0.0239 -0.02388,0.0567 v 0.0403 z"
           style="font-style:normal;font-variant:normal;font-weight:normal;font-stretch:normal;font-family:'Sui Generis';-inkscape-font-specification:'Sui Generis';fill:#ffaaaa;stroke-width:0.10366666"
           id="path892" />
      </g>
    </g>
  </g>
</svg>
