<?xml version="1.0" encoding="UTF-8" standalone="no"?>
<!-- Created with Inkscape (http://www.inkscape.org/) -->

<svg
   xmlns:dc="http://purl.org/dc/elements/1.1/"
   xmlns:cc="http://creativecommons.org/ns#"
   xmlns:rdf="http://www.w3.org/1999/02/22-rdf-syntax-ns#"
   xmlns:svg="http://www.w3.org/2000/svg"
   xmlns="http://www.w3.org/2000/svg"
   xmlns:sodipodi="http://sodipodi.sourceforge.net/DTD/sodipodi-0.dtd"
   xmlns:inkscape="http://www.inkscape.org/namespaces/inkscape"
   width="128"
   height="72"
   viewBox="0 0 33.866665 19.050001"
   version="1.1"
   id="svg8"
   sodipodi:docname="sidebar_logo.svg"
   inkscape:version="0.92.3 (2405546, 2018-03-11)">
  <defs
     id="defs2" />
  <sodipodi:namedview
     id="base"
     pagecolor="#ffffff"
     bordercolor="#666666"
     borderopacity="1.0"
     inkscape:pageopacity="0.0"
     inkscape:pageshadow="2"
     inkscape:zoom="6.5234375"
     inkscape:cx="65.898785"
     inkscape:cy="39.473054"
     inkscape:document-units="px"
     inkscape:current-layer="text869"
     showgrid="false"
     units="px"
     inkscape:showpageshadow="false"
     inkscape:window-width="1920"
     inkscape:window-height="1026"
     inkscape:window-x="0"
     inkscape:window-y="29"
     inkscape:window-maximized="1"
     inkscape:snap-grids="true" />
  <metadata
     id="metadata5">
    <rdf:RDF>
      <cc:Work
         rdf:about="">
        <dc:format>image/svg+xml</dc:format>
        <dc:type
           rdf:resource="http://purl.org/dc/dcmitype/StillImage" />
        <dc:title />
      </cc:Work>
    </rdf:RDF>
  </metadata>
  <g
     inkscape:label="Livello 1"
     inkscape:groupmode="layer"
     id="layer1"
     transform="translate(0,-277.94999)">
    <g
       aria-label="Opis"
       style="font-style:normal;font-variant:normal;font-weight:normal;font-stretch:normal;font-size:17.77799606px;line-height:1.25;font-family:'Futura Hv BT';-inkscape-font-specification:'Futura Hv BT';letter-spacing:0px;word-spacing:0px;fill:#000000;fill-opacity:1;stroke:none;stroke-width:0.74074984"
       id="text869">
      <g
         id="g949"
         transform="matrix(1.1013819,0,0,1.1013819,-1.7167331,-28.896877)">
        <path
           sodipodi:nodetypes="ssssscscssscscsscscssc"
           inkscape:connector-curvature="0"
           id="path871-6"
           style="font-style:normal;font-variant:normal;font-weight:normal;font-stretch:normal;font-size:medium;line-height:1.25;font-family:OpenDinSchriftenEngshrift;-inkscape-font-specification:OpenDinSchriftenEngshrift;letter-spacing:0px;word-spacing:0px;fill:#e07900;fill-opacity:1;stroke:none;stroke-width:0.62628335"
           d="m 11.530859,279.51001 c 0.440902,-0.4409 0.971991,-0.66135 1.593264,-0.66135 0.621273,0 1.152361,0.22055 1.593264,0.66135 0.440904,0.44092 0.661356,0.972 0.661356,1.59327 v 8.5967 c 0,0.62126 -0.220452,1.15237 -0.661356,1.59326 -0.440903,0.44092 -0.971991,0.66135 -1.593264,0.66135 -0.621273,0 -1.152362,-0.22031 -1.593264,-0.66135 -0.440905,-0.44089 -0.661356,-0.972 -0.661356,-1.59326 v -8.5967 c 0,-0.62127 0.220452,-1.15235 0.661356,-1.59327 z m 2.119342,1.06718 c -0.140288,-0.15027 -0.315648,-0.22553 -0.526078,-0.22553 -0.210432,0 -0.390801,0.075 -0.54111,0.22553 -0.140287,0.14033 -0.210429,0.31566 -0.210429,0.52609 v 8.5967 c 0,0.21038 0.07014,0.39082 0.210429,0.54111 0.150309,0.14033 0.330679,0.21038 0.54111,0.21038 0.210429,0 0.385791,-0.0703 0.526078,-0.21038 0.150308,-0.15027 0.225462,-0.33069 0.225462,-0.54111 v -8.5967 c 0,-0.21038 -0.07515,-0.38581 -0.225462,-0.52609 z" />
        <path
           sodipodi:nodetypes="ccccscssssccccccscsscscssc"
           inkscape:connector-curvature="0"
           id="path873-2"
           style="font-style:normal;font-variant:normal;font-weight:normal;font-stretch:normal;font-size:medium;line-height:1.25;font-family:OpenDinSchriftenEngshrift;-inkscape-font-specification:OpenDinSchriftenEngshrift;letter-spacing:0px;word-spacing:0px;fill:#e07900;fill-opacity:1;stroke:none;stroke-width:0.62628335"
           d="m 15.992902,284.4392 c 0.63051,-0.27616 1.092386,-0.19287 1.50308,0 v 1.50308 c 0,-0.41084 0.145298,-0.76158 0.435893,-1.05215 0.300617,-0.30063 0.656346,-0.45093 1.067187,-0.45093 0.410843,0 0.761561,0.15027 1.052154,0.45093 0.300616,0.29057 0.450927,0.64131 0.450927,1.05215 v 4.50926 c 0,0.41081 -0.150317,0.76657 -0.450927,1.06716 -0.290593,0.29062 -0.641311,0.43589 -1.052154,0.43589 -0.410841,0 -0.76657,-0.14506 -1.067187,-0.43589 -0.290595,-0.30059 -0.435893,-0.65635 -0.435893,-1.06716 v 4.50921 c -0.668436,0.27901 -1.097275,0.15879 -1.50308,0 z m 2.780698,1.72853 c -0.140288,-0.15027 -0.315647,-0.22552 -0.526078,-0.22552 -0.210432,0 -0.3908,0.075 -0.54111,0.22552 -0.140287,0.14033 -0.210429,0.31566 -0.210429,0.52609 v 3.00616 c 0,0.21038 0.07014,0.39082 0.210429,0.54111 0.150309,0.14033 0.330679,0.21038 0.54111,0.21038 0.21043,0 0.385792,-0.0703 0.526078,-0.21038 0.150308,-0.15027 0.225462,-0.33069 0.225462,-0.54111 v -3.00616 c 0,-0.21038 -0.07515,-0.38578 -0.225462,-0.52609 z" />
        <path
           sodipodi:nodetypes="cccccccccc"
           inkscape:connector-curvature="0"
           id="path875-9"
           style="font-style:normal;font-variant:normal;font-weight:normal;font-stretch:normal;font-size:medium;line-height:1.25;font-family:OpenDinSchriftenEngshrift;-inkscape-font-specification:OpenDinSchriftenEngshrift;letter-spacing:0px;word-spacing:0px;fill:#e07900;fill-opacity:1;stroke:none;stroke-width:0.62628335"
           d="m 21.116302,281.43304 c 0.463642,-0.12471 0.951345,-0.16896 1.503079,0 v 1.50308 c -0.48345,0.094 -0.97574,0.14034 -1.503079,0 z m 0,3.00616 c 0.501026,-0.19618 1.002053,-0.17251 1.503079,0 v 7.51539 c -0.508658,0.18317 -1.009171,0.17063 -1.503079,0 z" />
        <path
           style="font-style:normal;font-variant:normal;font-weight:normal;font-stretch:normal;font-size:medium;line-height:1.25;font-family:OpenDinSchriftenEngshrift;-inkscape-font-specification:OpenDinSchriftenEngshrift;letter-spacing:0px;word-spacing:0px;fill:#e07900;fill-opacity:1;stroke:none;stroke-width:0.62628335"
           d="m 25.470026,284.43977 c -0.62127,0 -1.151312,0.21945 -1.592216,0.66037 -0.440913,0.44092 -0.66159,0.97217 -0.66159,1.59343 0,0.62129 0.220688,1.15253 0.66159,1.59344 0.440907,0.44082 0.970943,0.66159 1.592216,0.66159 0.210433,0 0.386787,0.0747 0.52707,0.22502 0.150294,0.14028 0.225014,0.31547 0.225014,0.52585 0,0.21042 -0.07472,0.39147 -0.225014,0.54174 -0.140286,0.1401 -0.316645,0.21034 -0.52707,0.21034 -0.21043,0 -0.390228,-0.07 -0.540521,-0.21034 -0.140284,-0.15032 -0.21034,-0.33136 -0.21034,-0.54174 -0.406951,-0.15028 -0.866268,-0.25773 -1.502945,0 0,0.62126 0.220688,1.15254 0.66159,1.59344 0.440904,0.44103 0.970946,0.66159 1.592216,0.66159 0.393886,0 0.74743,-0.0992 1.068815,-0.27639 a 3.0031917,3.0031917 0 0 1 1.166647,-1.7683 c 0.006,-0.0701 0.01957,-0.13775 0.01957,-0.21034 0,-0.62129 -0.220687,-1.1513 -0.661589,-1.59222 -0.440903,-0.44083 -0.972164,-0.66159 -1.593439,-0.66159 -0.21043,0 -0.390228,-0.07 -0.540521,-0.21034 -0.140284,-0.15029 -0.21034,-0.33137 -0.21034,-0.54175 0,-0.21042 0.07005,-0.38551 0.21034,-0.52584 0.150307,-0.15051 0.330096,-0.22501 0.540521,-0.22501 0.210432,0 0.386786,0.0747 0.52707,0.22501 0.150317,0.14031 0.225014,0.31547 0.225014,0.52584 0.501026,0.26086 1.001918,0.21015 1.502944,0 0,-0.62126 -0.220687,-1.15251 -0.661589,-1.59343 -0.440903,-0.4408 -0.972164,-0.66037 -1.593439,-0.66037 z"
           id="path877-1"
           inkscape:connector-curvature="0" />
        <path
           sodipodi:nodetypes="ssccccccccccccccccccssssccss"
           inkscape:connector-curvature="0"
           id="path4560-6"
           d="m 5.859852,278.84866 c -2.2315762,0 -4.0509758,1.81941 -4.0509754,4.05097 -4e-7,2.05944 1.5498758,3.76771 3.5428768,4.01924 v 1.45973 H 3.4048511 2.8967527 c -0.137955,0.33908 -0.2051458,0.67819 0,1.01729 h 0.5080984 1.9469023 v 1.94582 0.50921 c 0.3391057,0.14127 0.6782117,0.1356 1.0173174,0 v -0.50921 -1.94582 h 1.9457823 0.5095916 c 0.098946,-0.28963 0.1733501,-0.59152 0,-1.01729 H 8.3148531 6.3690708 v -1.45973 c 1.9926556,-0.25205 3.5432504,-1.96021 3.5432502,-4.01924 2e-7,-2.23156 -1.8208929,-4.05097 -4.052469,-4.05097 z m 0,1.01732 c 1.6817987,0 3.0351519,1.35183 3.0351517,3.03365 2e-7,1.60668 -1.2359556,2.91043 -2.8126484,3.02395 H 5.637349 c -1.576578,-0.11335 -2.8111553,-1.41727 -2.8111553,-3.02395 -3e-7,-1.68182 1.3518595,-3.03365 3.0336583,-3.03365 z"
           style="color:#000000;font-style:normal;font-variant:normal;font-weight:normal;font-stretch:normal;font-size:medium;line-height:1.25;font-family:'Futura Hv BT';-inkscape-font-specification:'Futura Hv BT';font-variant-ligatures:normal;font-variant-position:normal;font-variant-caps:normal;font-variant-numeric:normal;font-variant-alternates:normal;font-feature-settings:normal;text-indent:0;text-align:start;text-decoration:none;text-decoration-line:none;text-decoration-style:solid;text-decoration-color:#000000;letter-spacing:0px;word-spacing:0px;text-transform:none;writing-mode:lr-tb;direction:ltr;text-orientation:mixed;dominant-baseline:auto;baseline-shift:baseline;text-anchor:start;white-space:normal;shape-padding:0;clip-rule:nonzero;display:inline;overflow:visible;visibility:visible;opacity:1;isolation:auto;mix-blend-mode:normal;color-interpolation:sRGB;color-interpolation-filters:linearRGB;solid-color:#000000;solid-opacity:1;vector-effect:none;fill:#e07900;fill-opacity:1;fill-rule:nonzero;stroke:none;stroke-width:1.01727736;stroke-linecap:butt;stroke-linejoin:miter;stroke-miterlimit:4;stroke-dasharray:none;stroke-dashoffset:0;stroke-opacity:1;color-rendering:auto;image-rendering:auto;shape-rendering:auto;text-rendering:auto;enable-background:accumulate" />
        <path
           inkscape:connector-curvature="0"
           id="path4595-2"
           d="m 5.395656,280.29594 v 0.20919 0.80995 H 4.3333526 4.1245187 v 0.41796 h 0.2088327 1.0623034 v 3.27243 0.20919 h 0.4182726 v -0.20919 -1.63196 c 0.3061426,-0.18505 0.5499121,-0.26709 0.696617,-0.27531 0.1494015,-0.009 0.1804233,0.0166 0.2182039,0.097 0.037778,0.08 0.052876,0.26197 -0.013607,0.52193 -0.066476,0.25969 -0.2064639,0.59142 -0.427339,0.97192 -0.036425,0.0627 -0.054556,0.1136 -0.07767,0.20707 -0.023097,0.0932 -0.051932,0.20943 0.014791,0.35177 0.03337,0.0713 0.1057925,0.14176 0.1897946,0.17252 0.084002,0.0305 0.1684539,0.0286 0.2556784,0.0118 0.1744505,-0.0341 0.3751956,-0.12945 0.663675,-0.3131 l 0.1771008,-0.1117 -0.2251541,-0.35301 -0.1758941,0.11218 c -0.254717,0.16186 -0.4147106,0.22481 -0.4968493,0.24412 9.813e-4,-0.009 3.28e-5,-0.005 0.00242,-0.0142 0.012732,-0.0513 0.049272,-0.12494 0.032943,-0.097 0.2350034,-0.40484 0.3918285,-0.76589 0.4717657,-1.07833 0.079936,-0.31244 0.091778,-0.58262 -0.013607,-0.80543 -0.1053783,-0.22292 -0.3567235,-0.35075 -0.6201551,-0.33575 -0.2021688,0.0118 -0.4234717,0.0845 -0.6727417,0.21416 v -1.16083 H 6.874995 7.0838277 v -0.41794 H 6.8750227 5.8139283 v -0.80997 -0.20919 z"
           style="color:#000000;font-style:normal;font-variant:normal;font-weight:normal;font-stretch:normal;font-size:medium;line-height:1.25;font-family:'Futura Hv BT';-inkscape-font-specification:'Futura Hv BT';font-variant-ligatures:normal;font-variant-position:normal;font-variant-caps:normal;font-variant-numeric:normal;font-variant-alternates:normal;font-feature-settings:normal;text-indent:0;text-align:start;text-decoration:none;text-decoration-line:none;text-decoration-style:solid;text-decoration-color:#000000;letter-spacing:0px;word-spacing:0px;text-transform:none;writing-mode:lr-tb;direction:ltr;text-orientation:mixed;dominant-baseline:auto;baseline-shift:baseline;text-anchor:start;white-space:normal;shape-padding:0;clip-rule:nonzero;display:inline;overflow:visible;visibility:visible;opacity:1;isolation:auto;mix-blend-mode:normal;color-interpolation:sRGB;color-interpolation-filters:linearRGB;solid-color:#000000;solid-opacity:1;vector-effect:none;fill:#e07900;fill-opacity:1;fill-rule:nonzero;stroke:none;stroke-width:0.41778895;stroke-linecap:square;stroke-linejoin:miter;stroke-miterlimit:4;stroke-dasharray:none;stroke-dashoffset:0;stroke-opacity:1;color-rendering:auto;image-rendering:auto;shape-rendering:auto;text-rendering:auto;enable-background:accumulate" />
        <path
           style="font-style:normal;font-variant:normal;font-weight:normal;font-stretch:normal;font-size:medium;line-height:1.25;font-family:'Futura Hv BT';-inkscape-font-specification:'Futura Hv BT';letter-spacing:0px;word-spacing:0px;fill:#333333;fill-opacity:1;stroke:none;stroke-width:1.23972726;stroke-linecap:square;stroke-miterlimit:4;stroke-dasharray:none;stroke-opacity:1"
           d="m 29.466465,289.74715 a 2.5909881,2.5909881 0 0 0 -2.591327,2.59134 2.5909881,2.5909881 0 0 0 2.591327,2.59132 2.5909881,2.5909881 0 0 0 2.591325,-2.59132 2.5909881,2.5909881 0 0 0 -2.591325,-2.59134 z m -1.807448,1.3562 h 1.402667 c 0.198373,0 0.348453,0.0176 0.448805,0.0526 0.163367,0.0584 0.244581,0.16795 0.244581,0.32896 v 0.74842 c 0,0.12605 -0.088,0.22606 -0.26537,0.29838 -0.135361,0.0536 -0.278654,0.0795 -0.428016,0.0795 h -0.472038 v 0.96364 h -0.930629 z m 2.393217,0 h 0.528293 c 0.158697,0 0.302101,0.0259 0.43046,0.0795 0.175035,0.0677 0.262925,0.16902 0.262925,0.30205 v 2.08994 h -0.930628 v -1.9224 h -0.29105 z m -1.462588,0.54909 v 0.41333 h 0.234796 v -0.41333 z"
           id="path944"
           inkscape:connector-curvature="0" />
        <g
           transform="matrix(0.69609085,0,0,0.69609085,10.547563,89.915483)"
           aria-label="production one"
           style="font-style:normal;font-variant:normal;font-weight:normal;font-stretch:normal;font-size:1.49278176px;line-height:1.25;font-family:sans-serif;-inkscape-font-specification:'Futura Hv BT';letter-spacing:0px;word-spacing:0px;fill:#e07900;fill-opacity:1;stroke:none;stroke-width:0.10366666"
           id="text835">
          <path
             inkscape:connector-curvature="0"
             d="m 16.866321,293.76441 q 0,0.13436 -0.09554,0.22989 -0.09405,0.094 -0.228396,0.094 h -0.201526 q -0.05971,0 -0.119422,-0.0358 -0.05971,-0.0358 -0.0821,-0.0881 v 0.39409 h -0.243323 v -1.10615 h 0.243323 v 0.12689 q 0.01941,-0.0493 0.08061,-0.0881 0.0612,-0.0388 0.120915,-0.0388 h 0.201526 q 0.13435,0 0.228396,0.0955 0.09554,0.0955 0.09554,0.22839 z m -0.241831,0 v -0.18809 q 0,-0.0328 -0.02388,-0.0567 -0.02388,-0.0239 -0.05822,-0.0239 h -0.322441 q -0.03433,0 -0.05822,0.0239 -0.02239,0.0239 -0.02239,0.0567 v 0.18809 q 0,0.0343 0.02239,0.0582 0.02388,0.0239 0.05822,0.0239 h 0.322441 q 0.03433,0 0.05822,-0.0239 0.02388,-0.0239 0.02388,-0.0582 z"
             style="font-style:normal;font-variant:normal;font-weight:normal;font-stretch:normal;font-family:'Sui Generis';-inkscape-font-specification:'Sui Generis';fill:#e07900;fill-opacity:1;stroke-width:0.10366666"
             id="path868" />
          <path
             inkscape:connector-curvature="0"
             d="m 17.555636,293.25239 -0.02687,0.24034 q -0.09106,-0.0537 -0.153757,-0.0403 -0.114944,0.0269 -0.114944,0.23586 v 0.40156 h -0.243323 v -0.83745 h 0.240338 v 0.1239 q 0.03881,-0.097 0.117929,-0.1239 0.04628,-0.0164 0.108973,-0.0104 0.03135,10e-4 0.07165,0.0104 z"
             style="font-style:normal;font-variant:normal;font-weight:normal;font-stretch:normal;font-family:'Sui Generis';-inkscape-font-specification:'Sui Generis';fill:#e07900;fill-opacity:1;stroke-width:0.10366666"
             id="path870" />
          <path
             inkscape:connector-curvature="0"
             d="m 18.606718,293.76441 q 0,0.13436 -0.09554,0.22989 -0.09405,0.094 -0.228396,0.094 h -0.322441 q -0.13435,0 -0.229888,-0.094 -0.09405,-0.0955 -0.09405,-0.22989 v -0.18809 q 0,-0.13435 0.09405,-0.22839 0.09554,-0.0955 0.229888,-0.0955 h 0.322441 q 0.13435,0 0.228396,0.0955 0.09554,0.094 0.09554,0.22839 z m -0.243324,0 v -0.18809 q 0,-0.0328 -0.02388,-0.0567 -0.02239,-0.0239 -0.05673,-0.0239 h -0.322441 q -0.03433,0 -0.05822,0.0239 -0.02239,0.0239 -0.02239,0.0567 v 0.18809 q 0,0.0343 0.02239,0.0582 0.02388,0.0239 0.05822,0.0239 h 0.322441 q 0.03433,0 0.05673,-0.0239 0.02388,-0.0239 0.02388,-0.0582 z"
             style="font-style:normal;font-variant:normal;font-weight:normal;font-stretch:normal;font-family:'Sui Generis';-inkscape-font-specification:'Sui Generis';fill:#e07900;fill-opacity:1;stroke-width:0.10366666"
             id="path872-9" />
          <path
             inkscape:connector-curvature="0"
             d="m 19.656633,294.08835 q -0.06867,-0.0179 -0.119423,-0.0702 -0.09554,0.0702 -0.231381,0.0702 h -0.24183 q -0.134351,0 -0.229889,-0.094 -0.09404,-0.0955 -0.09404,-0.22989 v -0.18809 q 0,-0.13435 0.09404,-0.22839 0.09554,-0.0955 0.229889,-0.0955 h 0.147785 q 0.138829,0 0.203018,0.1239 v -0.40604 l 0.241831,-0.0806 z m -0.241831,-0.29408 v -0.18809 q 0,-0.0403 -0.03433,-0.0746 -0.03284,-0.0358 -0.07762,-0.0358 h -0.238845 q -0.03284,0 -0.05673,0.0239 -0.02388,0.0239 -0.02388,0.0567 v 0.18809 q 0,0.0343 0.02239,0.0582 0.02388,0.0239 0.05822,0.0239 h 0.298556 q 0.05225,0 0.05225,-0.0523 z"
             style="font-style:normal;font-variant:normal;font-weight:normal;font-stretch:normal;font-family:'Sui Generis';-inkscape-font-specification:'Sui Generis';fill:#e07900;fill-opacity:1;stroke-width:0.10366666"
             id="path874-1" />
          <path
             inkscape:connector-curvature="0"
             d="m 20.725022,294.08835 q -0.06419,-0.0209 -0.111959,-0.0746 -0.04628,0.0373 -0.07315,0.0507 -0.05374,0.0239 -0.138829,0.0239 h -0.268701 q -0.13435,0 -0.229888,-0.094 -0.09404,-0.0955 -0.09404,-0.22989 v -0.51202 h 0.243323 v 0.51202 q 0,0.0343 0.02239,0.0582 0.02388,0.0239 0.05822,0.0239 h 0.301542 q 0.04777,0 0.04777,-0.0642 v -0.52994 h 0.243324 z"
             style="font-style:normal;font-variant:normal;font-weight:normal;font-stretch:normal;font-family:'Sui Generis';-inkscape-font-specification:'Sui Generis';fill:#e07900;fill-opacity:1;stroke-width:0.10366666"
             id="path876-2" />
          <path
             inkscape:connector-curvature="0"
             d="m 21.784803,293.94355 q -0.04478,0.0657 -0.119422,0.10599 -0.07315,0.0388 -0.152264,0.0388 h -0.331398 q -0.13435,0 -0.229888,-0.094 -0.09404,-0.0955 -0.09404,-0.22989 v -0.18809 q 0,-0.13435 0.09404,-0.22839 0.09554,-0.0955 0.229888,-0.0955 h 0.323934 q 0.167192,0 0.264222,0.13734 l -0.19854,0.14032 q -0.02388,-0.0343 -0.06568,-0.0343 h -0.323934 q -0.03284,0 -0.05673,0.0239 -0.02388,0.0239 -0.02388,0.0567 v 0.18809 q 0,0.0343 0.02388,0.0582 0.02388,0.0239 0.05673,0.0239 h 0.323934 q 0.06419,0 0.100016,-0.0672 z"
             style="font-style:normal;font-variant:normal;font-weight:normal;font-stretch:normal;font-family:'Sui Generis';-inkscape-font-specification:'Sui Generis';fill:#e07900;fill-opacity:1;stroke-width:0.10366666"
             id="path878-7" />
          <path
             inkscape:connector-curvature="0"
             d="m 22.359268,293.84204 -0.02986,0.24034 q -0.05673,0.0269 -0.110466,0.0269 -0.168684,0 -0.247802,-0.15973 -0.0612,-0.1239 -0.0612,-0.32991 v -0.1239 h -0.108973 l 0.02687,-0.24332 h 0.0821 v -0.20152 l 0.241831,-0.0806 v 0.28214 h 0.143307 l -0.02687,0.24332 h -0.116437 v 0.1239 q 0,0.12988 0.0209,0.18212 0.0209,0.0522 0.08807,0.0642 0.0612,0.009 0.09852,-0.0239 z"
             style="font-style:normal;font-variant:normal;font-weight:normal;font-stretch:normal;font-family:'Sui Generis';-inkscape-font-specification:'Sui Generis';fill:#e07900;fill-opacity:1;stroke-width:0.10366666"
             id="path880-0" />
          <path
             inkscape:connector-curvature="0"
             d="m 22.70347,293.08221 h -0.24183 v -0.15226 h 0.24183 z m 0,1.00614 h -0.24183 v -0.83596 h 0.24183 z"
             style="font-style:normal;font-variant:normal;font-weight:normal;font-stretch:normal;font-family:'Sui Generis';-inkscape-font-specification:'Sui Generis';fill:#e07900;fill-opacity:1;stroke-width:0.10366666"
             id="path882-9" />
          <path
             inkscape:connector-curvature="0"
             d="m 23.819792,293.76441 q 0,0.13436 -0.09554,0.22989 -0.09405,0.094 -0.228396,0.094 h -0.322441 q -0.13435,0 -0.229888,-0.094 -0.09405,-0.0955 -0.09405,-0.22989 v -0.18809 q 0,-0.13435 0.09405,-0.22839 0.09554,-0.0955 0.229888,-0.0955 h 0.322441 q 0.13435,0 0.228396,0.0955 0.09554,0.094 0.09554,0.22839 z m -0.243324,0 v -0.18809 q 0,-0.0328 -0.02388,-0.0567 -0.02239,-0.0239 -0.05673,-0.0239 h -0.322441 q -0.03433,0 -0.05822,0.0239 -0.02239,0.0239 -0.02239,0.0567 v 0.18809 q 0,0.0343 0.02239,0.0582 0.02388,0.0239 0.05822,0.0239 h 0.322441 q 0.03433,0 0.05673,-0.0239 0.02388,-0.0239 0.02388,-0.0582 z"
             style="font-style:normal;font-variant:normal;font-weight:normal;font-stretch:normal;font-family:'Sui Generis';-inkscape-font-specification:'Sui Generis';fill:#e07900;fill-opacity:1;stroke-width:0.10366666"
             id="path884-3" />
          <path
             inkscape:connector-curvature="0"
             d="m 24.893591,294.08835 h -0.243323 v -0.51203 q 0,-0.0328 -0.02388,-0.0567 -0.02388,-0.0239 -0.05673,-0.0239 h -0.265716 q -0.111958,0 -0.111958,0.11047 v 0.48217 h -0.241831 v -0.83596 h 0.241831 v 0.13435 q 0.02538,-0.0567 0.0821,-0.0955 0.05822,-0.0388 0.120915,-0.0388 h 0.174656 q 0.13435,0 0.228395,0.0955 0.09554,0.094 0.09554,0.22839 z"
             style="font-style:normal;font-variant:normal;font-weight:normal;font-stretch:normal;font-family:'Sui Generis';-inkscape-font-specification:'Sui Generis';fill:#e07900;fill-opacity:1;stroke-width:0.10366666"
             id="path886-6" />
          <path
             inkscape:connector-curvature="0"
             d="m 26.513796,293.76441 q 0,0.13436 -0.09554,0.22989 -0.09405,0.094 -0.228396,0.094 h -0.32244 q -0.134351,0 -0.229889,-0.094 -0.09405,-0.0955 -0.09405,-0.22989 v -0.18809 q 0,-0.13435 0.09405,-0.22839 0.09554,-0.0955 0.229889,-0.0955 h 0.32244 q 0.134351,0 0.228396,0.0955 0.09554,0.094 0.09554,0.22839 z m -0.243323,0 v -0.18809 q 0,-0.0328 -0.02388,-0.0567 -0.02239,-0.0239 -0.05673,-0.0239 h -0.32244 q -0.03433,0 -0.05822,0.0239 -0.02239,0.0239 -0.02239,0.0567 v 0.18809 q 0,0.0343 0.02239,0.0582 0.02388,0.0239 0.05822,0.0239 h 0.32244 q 0.03433,0 0.05673,-0.0239 0.02388,-0.0239 0.02388,-0.0582 z"
             style="font-style:normal;font-variant:normal;font-weight:normal;font-stretch:normal;font-family:'Sui Generis';-inkscape-font-specification:'Sui Generis';fill:#e07900;fill-opacity:1;stroke-width:0.10366666"
             id="path888-0" />
          <path
             inkscape:connector-curvature="0"
             d="m 27.587596,294.08835 h -0.243323 v -0.51203 q 0,-0.0328 -0.02388,-0.0567 -0.02388,-0.0239 -0.05673,-0.0239 h -0.265716 q -0.111958,0 -0.111958,0.11047 v 0.48217 h -0.241831 v -0.83596 h 0.241831 v 0.13435 q 0.02538,-0.0567 0.0821,-0.0955 0.05822,-0.0388 0.120915,-0.0388 h 0.174656 q 0.13435,0 0.228395,0.0955 0.09554,0.094 0.09554,0.22839 z"
             style="font-style:normal;font-variant:normal;font-weight:normal;font-stretch:normal;font-family:'Sui Generis';-inkscape-font-specification:'Sui Generis';fill:#e07900;fill-opacity:1;stroke-width:0.10366666"
             id="path890-6" />
          <path
             inkscape:connector-curvature="0"
             d="m 28.691321,293.73904 h -0.728477 v 0.0254 q 0,0.0343 0.02388,0.0612 0.02388,0.0254 0.05673,0.0254 h 0.623983 l -0.02986,0.23735 H 28.04345 q -0.134351,0 -0.228396,-0.094 -0.09405,-0.0955 -0.09405,-0.22989 v -0.18809 q 0,-0.13435 0.09405,-0.22839 0.09554,-0.0955 0.228396,-0.0955 h 0.323933 q 0.134351,0 0.228396,0.0955 0.09554,0.094 0.09554,0.22839 z m -0.243323,-0.13585 v -0.0403 q 0,-0.0328 -0.02388,-0.0567 -0.02388,-0.0254 -0.05673,-0.0254 h -0.323933 q -0.03284,0 -0.05673,0.0254 -0.02388,0.0239 -0.02388,0.0567 v 0.0403 z"
             style="font-style:normal;font-variant:normal;font-weight:normal;font-stretch:normal;font-family:'Sui Generis';-inkscape-font-specification:'Sui Generis';fill:#e07900;fill-opacity:1;stroke-width:0.10366666"
             id="path892-2" />
        </g>
        <g
           id="text858"
           style="font-style:normal;font-weight:normal;font-size:0.68370968px;line-height:1.25;font-family:sans-serif;letter-spacing:0px;word-spacing:0px;fill:#333333;fill-opacity:1;stroke:none;stroke-width:0.03798434"
           aria-label="pordenoe edition">
          <path
             id="path881"
             style="font-style:normal;font-variant:normal;font-weight:normal;font-stretch:normal;font-family:'Sui Generis';-inkscape-font-specification:'Sui Generis';fill:#333333;fill-opacity:1;stroke-width:0.03798434"
             d="m 22.057045,295.37901 q 0,0.0615 -0.04376,0.10529 -0.04307,0.0431 -0.104607,0.0431 h -0.0923 q -0.02735,0 -0.0547,-0.0164 -0.02735,-0.0164 -0.0376,-0.0403 v 0.1805 h -0.111445 v -0.50663 h 0.111445 v 0.0581 q 0.0089,-0.0226 0.03692,-0.0403 0.02803,-0.0178 0.05538,-0.0178 h 0.0923 q 0.06153,0 0.104607,0.0437 0.04376,0.0438 0.04376,0.10461 z m -0.110761,0 v -0.0861 q 0,-0.015 -0.01094,-0.026 -0.01094,-0.0109 -0.02666,-0.0109 h -0.147682 q -0.01572,0 -0.02666,0.0109 -0.01026,0.0109 -0.01026,0.026 v 0.0861 q 0,0.0157 0.01026,0.0267 0.01094,0.0109 0.02666,0.0109 h 0.147682 q 0.01572,0 0.02666,-0.0109 0.01094,-0.0109 0.01094,-0.0267 z"
             inkscape:connector-curvature="0" />
          <path
             id="path883"
             style="font-style:normal;font-variant:normal;font-weight:normal;font-stretch:normal;font-family:'Sui Generis';-inkscape-font-specification:'Sui Generis';fill:#333333;fill-opacity:1;stroke-width:0.03798434"
             d="m 22.572402,295.37901 q 0,0.0615 -0.04376,0.10529 -0.04307,0.0431 -0.104607,0.0431 h -0.147682 q -0.06153,0 -0.105291,-0.0431 -0.04307,-0.0438 -0.04307,-0.10529 v -0.0861 q 0,-0.0615 0.04307,-0.10461 0.04376,-0.0437 0.105291,-0.0437 h 0.147682 q 0.06153,0 0.104607,0.0437 0.04376,0.0431 0.04376,0.10461 z m -0.111445,0 v -0.0861 q 0,-0.015 -0.01094,-0.026 -0.01026,-0.0109 -0.02598,-0.0109 h -0.147682 q -0.01572,0 -0.02666,0.0109 -0.01026,0.0109 -0.01026,0.026 v 0.0861 q 0,0.0157 0.01026,0.0267 0.01094,0.0109 0.02666,0.0109 h 0.147682 q 0.01573,0 0.02598,-0.0109 0.01094,-0.0109 0.01094,-0.0267 z"
             inkscape:connector-curvature="0" />
          <path
             id="path885"
             style="font-style:normal;font-variant:normal;font-weight:normal;font-stretch:normal;font-family:'Sui Generis';-inkscape-font-specification:'Sui Generis';fill:#333333;fill-opacity:1;stroke-width:0.03798434"
             d="m 22.876193,295.1445 -0.01231,0.11007 q -0.04171,-0.0246 -0.07042,-0.0185 -0.05265,0.0123 -0.05265,0.10803 v 0.18392 h -0.111444 v -0.38356 h 0.110077 v 0.0567 q 0.01778,-0.0444 0.05401,-0.0567 0.02119,-0.008 0.04991,-0.005 0.01436,6.8e-4 0.03282,0.005 z"
             inkscape:connector-curvature="0" />
          <path
             id="path887"
             style="font-style:normal;font-variant:normal;font-weight:normal;font-stretch:normal;font-family:'Sui Generis';-inkscape-font-specification:'Sui Generis';fill:#333333;fill-opacity:1;stroke-width:0.03798434"
             d="m 23.335037,295.52737 q -0.03145,-0.008 -0.0547,-0.0321 -0.04376,0.0321 -0.105975,0.0321 h -0.110761 q -0.06153,0 -0.105291,-0.0431 -0.04307,-0.0438 -0.04307,-0.10529 v -0.0861 q 0,-0.0615 0.04307,-0.10461 0.04376,-0.0437 0.105291,-0.0437 h 0.06769 q 0.06359,0 0.09298,0.0567 v -0.18596 l 0.110761,-0.0369 z m -0.110761,-0.13469 v -0.0861 q 0,-0.0185 -0.01572,-0.0342 -0.01504,-0.0164 -0.03555,-0.0164 h -0.109394 q -0.01504,0 -0.02598,0.0109 -0.01094,0.0109 -0.01094,0.026 v 0.0861 q 0,0.0157 0.01026,0.0267 0.01094,0.0109 0.02666,0.0109 h 0.136742 q 0.02393,0 0.02393,-0.0239 z"
             inkscape:connector-curvature="0" />
          <path
             id="path889"
             style="font-style:normal;font-variant:normal;font-weight:normal;font-stretch:normal;font-family:'Sui Generis';-inkscape-font-specification:'Sui Generis';fill:#333333;fill-opacity:1;stroke-width:0.03798434"
             d="m 23.842147,295.36739 h -0.333651 v 0.0116 q 0,0.0157 0.01094,0.028 0.01094,0.0116 0.02598,0.0116 h 0.28579 l -0.01367,0.10871 H 23.54542 q -0.06153,0 -0.104608,-0.0431 -0.04307,-0.0438 -0.04307,-0.10529 v -0.0861 q 0,-0.0615 0.04307,-0.10461 0.04376,-0.0437 0.104608,-0.0437 h 0.148365 q 0.06153,0 0.104607,0.0437 0.04376,0.0431 0.04376,0.10461 z m -0.111445,-0.0622 v -0.0185 q 0,-0.015 -0.01094,-0.026 -0.01094,-0.0116 -0.02598,-0.0116 h -0.148365 q -0.01504,0 -0.02598,0.0116 -0.01094,0.0109 -0.01094,0.026 v 0.0185 z"
             inkscape:connector-curvature="0" />
          <path
             id="path891"
             style="font-style:normal;font-variant:normal;font-weight:normal;font-stretch:normal;font-family:'Sui Generis';-inkscape-font-specification:'Sui Generis';fill:#333333;fill-opacity:1;stroke-width:0.03798434"
             d="M 24.332815,295.52737 H 24.22137 v -0.23451 q 0,-0.015 -0.01094,-0.026 -0.01094,-0.0109 -0.02598,-0.0109 h -0.1217 q -0.05128,0 -0.05128,0.0506 v 0.22083 h -0.110761 v -0.38287 h 0.110761 v 0.0615 q 0.01162,-0.026 0.0376,-0.0438 0.02666,-0.0178 0.05538,-0.0178 h 0.07999 q 0.06153,0 0.104608,0.0437 0.04376,0.0431 0.04376,0.10461 z"
             inkscape:connector-curvature="0" />
          <path
             id="path893"
             style="font-style:normal;font-variant:normal;font-weight:normal;font-stretch:normal;font-family:'Sui Generis';-inkscape-font-specification:'Sui Generis';fill:#333333;fill-opacity:1;stroke-width:0.03798434"
             d="m 24.846538,295.37901 q 0,0.0615 -0.04376,0.10529 -0.04307,0.0431 -0.104607,0.0431 h -0.147682 q -0.06153,0 -0.105291,-0.0431 -0.04307,-0.0438 -0.04307,-0.10529 v -0.0861 q 0,-0.0615 0.04307,-0.10461 0.04376,-0.0437 0.105291,-0.0437 h 0.147682 q 0.06153,0 0.104607,0.0437 0.04376,0.0431 0.04376,0.10461 z m -0.111445,0 v -0.0861 q 0,-0.015 -0.01094,-0.026 -0.01026,-0.0109 -0.02598,-0.0109 h -0.147682 q -0.01572,0 -0.02666,0.0109 -0.01026,0.0109 -0.01026,0.026 v 0.0861 q 0,0.0157 0.01026,0.0267 0.01094,0.0109 0.02666,0.0109 h 0.147682 q 0.01572,0 0.02598,-0.0109 0.01094,-0.0109 0.01094,-0.0267 z"
             inkscape:connector-curvature="0" />
          <path
             id="path895"
             style="font-style:normal;font-variant:normal;font-weight:normal;font-stretch:normal;font-family:'Sui Generis';-inkscape-font-specification:'Sui Generis';fill:#333333;fill-opacity:1;stroke-width:0.03798434"
             d="m 25.341768,295.36739 h -0.333651 v 0.0116 q 0,0.0157 0.01094,0.028 0.01094,0.0116 0.02598,0.0116 h 0.28579 l -0.01367,0.10871 h -0.272116 q -0.06153,0 -0.104608,-0.0431 -0.04307,-0.0438 -0.04307,-0.10529 v -0.0861 q 0,-0.0615 0.04307,-0.10461 0.04376,-0.0437 0.104608,-0.0437 h 0.148365 q 0.06153,0 0.104607,0.0437 0.04376,0.0431 0.04376,0.10461 z m -0.111445,-0.0622 v -0.0185 q 0,-0.015 -0.01094,-0.026 -0.01094,-0.0116 -0.02598,-0.0116 h -0.148365 q -0.01504,0 -0.02598,0.0116 -0.01094,0.0109 -0.01094,0.026 v 0.0185 z"
             inkscape:connector-curvature="0" />
          <path
             id="path897"
             style="font-style:normal;font-variant:normal;font-weight:normal;font-stretch:normal;font-family:'Sui Generis';-inkscape-font-specification:'Sui Generis';fill:#333333;fill-opacity:1;stroke-width:0.03798434"
             d="m 26.064203,295.36739 h -0.33365 v 0.0116 q 0,0.0157 0.01094,0.028 0.01094,0.0116 0.02598,0.0116 h 0.285791 l -0.01367,0.10871 h -0.272116 q -0.06153,0 -0.104608,-0.0431 -0.04307,-0.0438 -0.04307,-0.10529 v -0.0861 q 0,-0.0615 0.04307,-0.10461 0.04376,-0.0437 0.104608,-0.0437 h 0.148365 q 0.06153,0 0.104607,0.0437 0.04376,0.0431 0.04376,0.10461 z m -0.111445,-0.0622 v -0.0185 q 0,-0.015 -0.01094,-0.026 -0.01094,-0.0116 -0.02598,-0.0116 h -0.148365 q -0.01504,0 -0.02598,0.0116 -0.01094,0.0109 -0.01094,0.026 v 0.0185 z"
             inkscape:connector-curvature="0" />
          <path
             id="path899"
             style="font-style:normal;font-variant:normal;font-weight:normal;font-stretch:normal;font-family:'Sui Generis';-inkscape-font-specification:'Sui Generis';fill:#333333;fill-opacity:1;stroke-width:0.03798434"
             d="m 26.543932,295.52737 q -0.03145,-0.008 -0.0547,-0.0321 -0.04376,0.0321 -0.105975,0.0321 h -0.110761 q -0.06153,0 -0.105291,-0.0431 -0.04307,-0.0438 -0.04307,-0.10529 v -0.0861 q 0,-0.0615 0.04307,-0.10461 0.04376,-0.0437 0.105291,-0.0437 h 0.06769 q 0.06358,0 0.09298,0.0567 v -0.18596 l 0.110761,-0.0369 z m -0.110761,-0.13469 v -0.0861 q 0,-0.0185 -0.01572,-0.0342 -0.01504,-0.0164 -0.03555,-0.0164 h -0.109394 q -0.01504,0 -0.02598,0.0109 -0.01094,0.0109 -0.01094,0.026 v 0.0861 q 0,0.0157 0.01026,0.0267 0.01094,0.0109 0.02666,0.0109 h 0.136742 q 0.02393,0 0.02393,-0.0239 z"
             inkscape:connector-curvature="0" />
          <path
             id="path901"
             style="font-style:normal;font-variant:normal;font-weight:normal;font-stretch:normal;font-family:'Sui Generis';-inkscape-font-specification:'Sui Generis';fill:#333333;fill-opacity:1;stroke-width:0.03798434"
             d="m 26.724228,295.06655 h -0.11076 v -0.0697 h 0.11076 z m 0,0.46082 h -0.11076 v -0.38287 h 0.11076 z"
             inkscape:connector-curvature="0" />
          <path
             id="path903"
             style="font-style:normal;font-variant:normal;font-weight:normal;font-stretch:normal;font-family:'Sui Generis';-inkscape-font-specification:'Sui Generis';fill:#333333;fill-opacity:1;stroke-width:0.03798434"
             d="m 27.011259,295.41456 -0.01367,0.11008 q -0.02598,0.0123 -0.05059,0.0123 -0.07726,0 -0.113496,-0.0732 -0.02803,-0.0568 -0.02803,-0.1511 v -0.0567 h -0.04991 l 0.01231,-0.11144 h 0.0376 v -0.0923 l 0.110761,-0.0369 v 0.12922 h 0.06564 l -0.01231,0.11144 h -0.05333 v 0.0567 q 0,0.0595 0.0096,0.0834 0.0096,0.0239 0.04034,0.0294 0.02803,0.004 0.04512,-0.0109 z"
             inkscape:connector-curvature="0" />
          <path
             id="path905"
             style="font-style:normal;font-variant:normal;font-weight:normal;font-stretch:normal;font-family:'Sui Generis';-inkscape-font-specification:'Sui Generis';fill:#333333;fill-opacity:1;stroke-width:0.03798434"
             d="m 27.168907,295.06655 h -0.110761 v -0.0697 h 0.110761 z m 0,0.46082 h -0.110761 v -0.38287 h 0.110761 z"
             inkscape:connector-curvature="0" />
          <path
             id="path907"
             style="font-style:normal;font-variant:normal;font-weight:normal;font-stretch:normal;font-family:'Sui Generis';-inkscape-font-specification:'Sui Generis';fill:#333333;fill-opacity:1;stroke-width:0.03798434"
             d="m 27.680194,295.37901 q 0,0.0615 -0.04376,0.10529 -0.04307,0.0431 -0.104607,0.0431 h -0.147682 q -0.06153,0 -0.105291,-0.0431 -0.04307,-0.0438 -0.04307,-0.10529 v -0.0861 q 0,-0.0615 0.04307,-0.10461 0.04376,-0.0437 0.105291,-0.0437 h 0.147682 q 0.06153,0 0.104607,0.0437 0.04376,0.0431 0.04376,0.10461 z m -0.111445,0 v -0.0861 q 0,-0.015 -0.01094,-0.026 -0.01026,-0.0109 -0.02598,-0.0109 h -0.147682 q -0.01572,0 -0.02666,0.0109 -0.01026,0.0109 -0.01026,0.026 v 0.0861 q 0,0.0157 0.01026,0.0267 0.01094,0.0109 0.02666,0.0109 h 0.147682 q 0.01573,0 0.02598,-0.0109 0.01094,-0.0109 0.01094,-0.0267 z"
             inkscape:connector-curvature="0" />
          <path
             id="path909"
             style="font-style:normal;font-variant:normal;font-weight:normal;font-stretch:normal;font-family:'Sui Generis';-inkscape-font-specification:'Sui Generis';fill:#333333;fill-opacity:1;stroke-width:0.03798434"
             d="m 28.172005,295.52737 h -0.111444 v -0.23451 q 0,-0.015 -0.01094,-0.026 -0.01094,-0.0109 -0.02598,-0.0109 h -0.1217 q -0.05128,0 -0.05128,0.0506 v 0.22083 H 27.7399 v -0.38287 h 0.110761 v 0.0615 q 0.01162,-0.026 0.0376,-0.0438 0.02666,-0.0178 0.05538,-0.0178 h 0.07999 q 0.06153,0 0.104608,0.0437 0.04376,0.0431 0.04376,0.10461 z"
             inkscape:connector-curvature="0" />
        </g>
      </g>
    </g>
  </g>
</svg>
