<?xml version="1.0" encoding="UTF-8" standalone="no"?>
<!-- Created with Inkscape (http://www.inkscape.org/) -->

<svg
   xmlns:dc="http://purl.org/dc/elements/1.1/"
   xmlns:cc="http://creativecommons.org/ns#"
   xmlns:rdf="http://www.w3.org/1999/02/22-rdf-syntax-ns#"
   xmlns:svg="http://www.w3.org/2000/svg"
   xmlns="http://www.w3.org/2000/svg"
   xmlns:sodipodi="http://sodipodi.sourceforge.net/DTD/sodipodi-0.dtd"
   xmlns:inkscape="http://www.inkscape.org/namespaces/inkscape"
   width="128"
   height="72"
   viewBox="0 0 33.866665 19.050001"
   version="1.1"
   id="svg8"
   sodipodi:docname="sidebar_logo.svg"
   inkscape:version="0.92.3 (2405546, 2018-03-11)">
  <defs
     id="defs2" />
  <sodipodi:namedview
     id="base"
     pagecolor="#ffffff"
     bordercolor="#666666"
     borderopacity="1.0"
     inkscape:pageopacity="0.0"
     inkscape:pageshadow="2"
     inkscape:zoom="6.5234375"
     inkscape:cx="36.23651"
     inkscape:cy="39.473054"
     inkscape:document-units="px"
     inkscape:current-layer="text869"
     showgrid="false"
     units="px"
     inkscape:showpageshadow="false"
     inkscape:window-width="1920"
     inkscape:window-height="1032"
     inkscape:window-x="0"
     inkscape:window-y="23"
     inkscape:window-maximized="1"
     inkscape:snap-grids="true" />
  <metadata
     id="metadata5">
    <rdf:RDF>
      <cc:Work
         rdf:about="">
        <dc:format>image/svg+xml</dc:format>
        <dc:type
           rdf:resource="http://purl.org/dc/dcmitype/StillImage" />
        <dc:title />
      </cc:Work>
    </rdf:RDF>
  </metadata>
  <g
     inkscape:label="Livello 1"
     inkscape:groupmode="layer"
     id="layer1"
     transform="translate(0,-277.94999)">
    <g
       aria-label="Opis"
       style="font-style:normal;font-variant:normal;font-weight:normal;font-stretch:normal;font-size:17.77799606px;line-height:1.25;font-family:'Futura Hv BT';-inkscape-font-specification:'Futura Hv BT';letter-spacing:0px;word-spacing:0px;fill:#000000;fill-opacity:1;stroke:none;stroke-width:0.74074984"
       id="text869">
      <path
         d="m 10.983146,278.95039 c 0.485602,-0.4856 1.070534,-0.7284 1.754792,-0.7284 0.684259,0 1.26919,0.24291 1.754793,0.7284 0.485603,0.48562 0.728405,1.07054 0.728405,1.7548 v 9.46825 c 0,0.68424 -0.242802,1.2692 -0.728405,1.75479 -0.485603,0.48562 -1.070534,0.72839 -1.754793,0.72839 -0.684258,0 -1.26919,-0.24264 -1.754792,-0.72839 -0.485604,-0.48559 -0.728405,-1.07055 -0.728405,-1.75479 v -9.46825 c 0,-0.68426 0.242802,-1.26918 0.728405,-1.7548 z m 2.334205,1.17537 c -0.15451,-0.1655 -0.347649,-0.24839 -0.579413,-0.24839 -0.231766,0 -0.430421,0.0826 -0.595968,0.24839 -0.15451,0.15456 -0.231763,0.34766 -0.231763,0.57943 v 9.46825 c 0,0.23171 0.07725,0.43044 0.231763,0.59597 0.165547,0.15455 0.364204,0.2317 0.595968,0.2317 0.231763,0 0.424904,-0.0774 0.579413,-0.2317 0.165547,-0.16551 0.24832,-0.36422 0.24832,-0.59597 v -9.46825 c 0,-0.23171 -0.08277,-0.42493 -0.24832,-0.57943 z"
         style="font-style:normal;font-variant:normal;font-weight:normal;font-stretch:normal;font-size:medium;line-height:1.25;font-family:OpenDinSchriftenEngshrift;-inkscape-font-specification:OpenDinSchriftenEngshrift;letter-spacing:0px;word-spacing:0px;fill:#e30000;fill-opacity:1;stroke:none;stroke-width:0.68977714"
         id="path871-6"
         inkscape:connector-curvature="0"
         sodipodi:nodetypes="ssssscscssscscsscscssc" />
      <path
         d="m 15.89756,284.37931 c 0.694432,-0.30416 1.203134,-0.21242 1.655465,0 v 1.65546 c 0,-0.45249 0.160028,-0.83879 0.480084,-1.15881 0.331095,-0.33111 0.722888,-0.49665 1.175381,-0.49665 0.452495,0 0.838769,0.1655 1.158823,0.49665 0.331093,0.32002 0.496643,0.70632 0.496643,1.15881 v 4.96642 c 0,0.45246 -0.165556,0.84429 -0.496643,1.17535 -0.320054,0.32009 -0.706328,0.48008 -1.158823,0.48008 -0.452493,0 -0.844286,-0.15976 -1.175381,-0.48008 -0.320056,-0.33106 -0.480084,-0.72289 -0.480084,-1.17535 v 4.96636 c -0.736204,0.3073 -1.208519,0.17489 -1.655465,0 z m 3.06261,1.90377 c -0.154511,-0.1655 -0.347648,-0.24838 -0.579413,-0.24838 -0.231766,0 -0.43042,0.0826 -0.595968,0.24838 -0.15451,0.15456 -0.231763,0.34766 -0.231763,0.57943 v 3.31093 c 0,0.23171 0.07725,0.43044 0.231763,0.59597 0.165547,0.15455 0.364203,0.2317 0.595968,0.2317 0.231764,0 0.424905,-0.0774 0.579413,-0.2317 0.165547,-0.16551 0.24832,-0.36422 0.24832,-0.59597 v -3.31093 c 0,-0.23171 -0.08277,-0.42489 -0.24832,-0.57943 z"
         style="font-style:normal;font-variant:normal;font-weight:normal;font-stretch:normal;font-size:medium;line-height:1.25;font-family:OpenDinSchriftenEngshrift;-inkscape-font-specification:OpenDinSchriftenEngshrift;letter-spacing:0px;word-spacing:0px;fill:#e30000;fill-opacity:1;stroke:none;stroke-width:0.68977714"
         id="path873-2"
         inkscape:connector-curvature="0"
         sodipodi:nodetypes="ccccscssssccccccscsscscssc" />
      <path
         d="m 21.54038,281.06838 c 0.510647,-0.13735 1.047794,-0.18609 1.655464,0 v 1.65546 c -0.532463,0.10353 -1.074663,0.15457 -1.655464,0 z m 0,3.31093 c 0.551821,-0.21607 1.103643,-0.19 1.655464,0 v 8.27731 c -0.560227,0.20174 -1.111483,0.18793 -1.655464,0 z"
         style="font-style:normal;font-variant:normal;font-weight:normal;font-stretch:normal;font-size:medium;line-height:1.25;font-family:OpenDinSchriftenEngshrift;-inkscape-font-specification:OpenDinSchriftenEngshrift;letter-spacing:0px;word-spacing:0px;fill:#e30000;fill-opacity:1;stroke:none;stroke-width:0.68977714"
         id="path875-9"
         inkscape:connector-curvature="0"
         sodipodi:nodetypes="cccccccccc" />
      <path
         inkscape:connector-curvature="0"
         id="path877-1"
         d="m 26.335493,284.37994 c -0.684256,0 -1.268035,0.2417 -1.753638,0.72732 -0.485614,0.48562 -0.728664,1.07073 -0.728664,1.75497 0,0.68428 0.243062,1.26938 0.728664,1.75499 0.485607,0.48551 1.069379,0.72866 1.753638,0.72866 0.231767,0 0.426,0.0823 0.580505,0.24783 0.165531,0.15451 0.247826,0.34746 0.247826,0.57917 0,0.23175 -0.0823,0.43115 -0.247826,0.59666 -0.154509,0.1543 -0.348747,0.23166 -0.580505,0.23166 -0.231764,0 -0.429791,-0.0771 -0.595321,-0.23166 -0.154506,-0.16556 -0.231664,-0.36496 -0.231664,-0.59666 -0.448209,-0.16552 -0.954092,-0.28386 -1.655317,0 0,0.68424 0.243062,1.26938 0.728664,1.75498 0.485603,0.48574 1.069382,0.72866 1.753638,0.72866 0.433818,0 0.823205,-0.10925 1.177173,-0.30441 a 3.307661,3.307661 0 0 1 1.284924,-1.94757 c 0.0066,-0.0772 0.02155,-0.15171 0.02155,-0.23166 0,-0.68428 -0.243061,-1.26803 -0.728662,-1.75365 -0.485603,-0.48552 -1.070724,-0.72866 -1.754985,-0.72866 -0.231764,0 -0.42979,-0.0771 -0.59532,-0.23166 -0.154506,-0.16553 -0.231665,-0.36497 -0.231665,-0.59668 0,-0.23175 0.07715,-0.42459 0.231665,-0.57915 0.165545,-0.16577 0.363562,-0.24782 0.59532,-0.24782 0.231766,0 0.425999,0.0823 0.580505,0.24782 0.165557,0.15454 0.247827,0.34745 0.247827,0.57915 0.551821,0.28731 1.103494,0.23146 1.655315,0 0,-0.68424 -0.243061,-1.26935 -0.728662,-1.75497 -0.485603,-0.48549 -1.070724,-0.72732 -1.754985,-0.72732 z"
         style="font-style:normal;font-variant:normal;font-weight:normal;font-stretch:normal;font-size:medium;line-height:1.25;font-family:OpenDinSchriftenEngshrift;-inkscape-font-specification:OpenDinSchriftenEngshrift;letter-spacing:0px;word-spacing:0px;fill:#e30000;fill-opacity:1;stroke:none;stroke-width:0.68977714" />
      <path
         style="color:#000000;font-style:normal;font-variant:normal;font-weight:normal;font-stretch:normal;font-size:medium;line-height:1.25;font-family:'Futura Hv BT';-inkscape-font-specification:'Futura Hv BT';font-variant-ligatures:normal;font-variant-position:normal;font-variant-caps:normal;font-variant-numeric:normal;font-variant-alternates:normal;font-feature-settings:normal;text-indent:0;text-align:start;text-decoration:none;text-decoration-line:none;text-decoration-style:solid;text-decoration-color:#000000;letter-spacing:0px;word-spacing:0px;text-transform:none;writing-mode:lr-tb;direction:ltr;text-orientation:mixed;dominant-baseline:auto;baseline-shift:baseline;text-anchor:start;white-space:normal;shape-padding:0;clip-rule:nonzero;display:inline;overflow:visible;visibility:visible;opacity:1;isolation:auto;mix-blend-mode:normal;color-interpolation:sRGB;color-interpolation-filters:linearRGB;solid-color:#000000;solid-opacity:1;vector-effect:none;fill:#e30000;fill-opacity:1;fill-rule:nonzero;stroke:none;stroke-width:1.12041092;stroke-linecap:butt;stroke-linejoin:miter;stroke-miterlimit:4;stroke-dasharray:none;stroke-dashoffset:0;stroke-opacity:1;color-rendering:auto;image-rendering:auto;shape-rendering:auto;text-rendering:auto;enable-background:accumulate"
         d="m 4.7372018,278.22199 c -2.4578176,0 -4.46167139,2.00387 -4.46167095,4.46166 -4.4e-7,2.26823 1.70700515,4.14969 3.90206035,4.42672 v 1.60772 H 2.0333083 1.4736979 c -0.1519411,0.37346 -0.2259439,0.74695 0,1.12043 h 0.5596104 2.1442829 v 2.14309 0.56083 c 0.3734849,0.1556 0.7469701,0.14935 1.120455,0 v -0.56083 -2.14309 h 2.1430494 0.561255 c 0.1089773,-0.319 0.1909246,-0.65149 0,-1.12043 H 7.4410956 5.2980462 v -1.60772 c 2.1946748,-0.2776 3.9024719,-2.15894 3.9024716,-4.42672 3e-7,-2.45779 -2.0054984,-4.46166 -4.463316,-4.46166 z m 0,1.12046 c 1.8523027,0 3.3428614,1.48888 3.3428612,3.3412 2e-7,1.76957 -1.3612592,3.2055 -3.0978001,3.33053 H 4.4921411 c -1.7364145,-0.12484 -3.0961556,-1.56096 -3.0961556,-3.33053 -3e-7,-1.85232 1.4889136,-3.3412 3.3412163,-3.3412 z"
         id="path4560-6"
         inkscape:connector-curvature="0"
         sodipodi:nodetypes="ssccccccccccccccccccssssccss" />
      <path
         style="color:#000000;font-style:normal;font-variant:normal;font-weight:normal;font-stretch:normal;font-size:medium;line-height:1.25;font-family:'Futura Hv BT';-inkscape-font-specification:'Futura Hv BT';font-variant-ligatures:normal;font-variant-position:normal;font-variant-caps:normal;font-variant-numeric:normal;font-variant-alternates:normal;font-feature-settings:normal;text-indent:0;text-align:start;text-decoration:none;text-decoration-line:none;text-decoration-style:solid;text-decoration-color:#000000;letter-spacing:0px;word-spacing:0px;text-transform:none;writing-mode:lr-tb;direction:ltr;text-orientation:mixed;dominant-baseline:auto;baseline-shift:baseline;text-anchor:start;white-space:normal;shape-padding:0;clip-rule:nonzero;display:inline;overflow:visible;visibility:visible;opacity:1;isolation:auto;mix-blend-mode:normal;color-interpolation:sRGB;color-interpolation-filters:linearRGB;solid-color:#000000;solid-opacity:1;vector-effect:none;fill:#e30000;fill-opacity:1;fill-rule:nonzero;stroke:none;stroke-width:0.46014521;stroke-linecap:square;stroke-linejoin:miter;stroke-miterlimit:4;stroke-dasharray:none;stroke-dashoffset:0;stroke-opacity:1;color-rendering:auto;image-rendering:auto;shape-rendering:auto;text-rendering:auto;enable-background:accumulate"
         d="m 4.2259448,279.816 v 0.2304 0.89206 H 3.055943 2.8259371 v 0.46033 h 0.2300046 1.1700017 v 3.6042 0.2304 h 0.4606779 v -0.2304 -1.79741 c 0.3371799,-0.20381 0.6056632,-0.29417 0.7672414,-0.30322 0.1645481,-0.01 0.1987149,0.0183 0.2403258,0.10683 0.041608,0.0881 0.058237,0.28853 -0.014987,0.57484 -0.073215,0.28602 -0.2273956,0.65138 -0.4706635,1.07046 -0.040118,0.0691 -0.060087,0.12512 -0.085544,0.22806 -0.025439,0.10265 -0.057197,0.23067 0.016291,0.38744 0.036753,0.0785 0.1165179,0.15613 0.2090363,0.19001 0.092518,0.0336 0.1855321,0.0315 0.2815996,0.013 0.1921366,-0.0375 0.4132336,-0.14257 0.7309596,-0.34484 l 0.1950556,-0.12302 -0.2479807,-0.3888 -0.1937265,0.12355 c -0.2805407,0.17827 -0.4567548,0.2476 -0.5472209,0.26887 0.00108,-0.01 3.62e-5,-0.006 0.00267,-0.0156 0.014023,-0.0565 0.054267,-0.13761 0.036283,-0.10683 0.2588285,-0.44589 0.4315528,-0.84354 0.5195942,-1.18766 0.08804,-0.34411 0.1010826,-0.64168 -0.014987,-0.88708 -0.1160617,-0.24552 -0.3928888,-0.38631 -0.6830276,-0.36979 -0.222665,0.013 -0.4664041,0.0931 -0.7409455,0.23587 V 281.3991 H 5.855262 6.0852665 v -0.46031 H 5.8552925 4.6866223 v -0.89209 -0.23039 z"
         id="path4595-2"
         inkscape:connector-curvature="0" />
      <path
         inkscape:connector-curvature="0"
         id="path944"
         d="m 30.737098,290.22539 a 2.8536674,2.8536674 0 0 0 -2.854041,2.85405 2.8536674,2.8536674 0 0 0 2.854041,2.85404 2.8536674,2.8536674 0 0 0 2.854039,-2.85404 2.8536674,2.8536674 0 0 0 -2.854039,-2.85405 z m -1.99069,1.49369 h 1.544872 c 0.218484,0 0.383779,0.0194 0.494305,0.0579 0.17993,0.0643 0.269377,0.18497 0.269377,0.36231 v 0.82429 c 0,0.13883 -0.09692,0.24898 -0.292273,0.32863 -0.149084,0.059 -0.306905,0.0876 -0.471409,0.0876 h -0.519894 v 1.06134 h -1.024978 z m 2.635845,0 h 0.581853 c 0.174786,0 0.332728,0.0285 0.474101,0.0876 0.19278,0.0746 0.289581,0.18616 0.289581,0.33268 v 2.30182 h -1.024977 v -2.1173 h -0.320558 z m -1.610867,0.60476 v 0.45524 h 0.2586 v -0.45524 z"
         style="font-style:normal;font-variant:normal;font-weight:normal;font-stretch:normal;font-size:medium;line-height:1.25;font-family:'Futura Hv BT';-inkscape-font-specification:'Futura Hv BT';letter-spacing:0px;word-spacing:0px;fill:#333333;fill-opacity:1;stroke:none;stroke-width:1.36541319;stroke-linecap:square;stroke-miterlimit:4;stroke-dasharray:none;stroke-opacity:1" />
      <g
         id="text835"
         style="font-style:normal;font-variant:normal;font-weight:normal;font-stretch:normal;font-size:1.49278176px;line-height:1.25;font-family:sans-serif;-inkscape-font-specification:'Futura Hv BT';letter-spacing:0px;word-spacing:0px;fill:#e30000;fill-opacity:1;stroke:none;stroke-width:0.10366666"
         aria-label="production one"
         transform="matrix(0.76666186,0,0,0.76666186,9.9001619,70.134409)">
        <path
           id="path868"
           style="font-style:normal;font-variant:normal;font-weight:normal;font-stretch:normal;font-family:'Sui Generis';-inkscape-font-specification:'Sui Generis';fill:#e30000;fill-opacity:1;stroke-width:0.10366666"
           d="m 16.866321,293.76441 q 0,0.13436 -0.09554,0.22989 -0.09405,0.094 -0.228396,0.094 h -0.201526 q -0.05971,0 -0.119422,-0.0358 -0.05971,-0.0358 -0.0821,-0.0881 v 0.39409 h -0.243323 v -1.10615 h 0.243323 v 0.12689 q 0.01941,-0.0493 0.08061,-0.0881 0.0612,-0.0388 0.120915,-0.0388 h 0.201526 q 0.13435,0 0.228396,0.0955 0.09554,0.0955 0.09554,0.22839 z m -0.241831,0 v -0.18809 q 0,-0.0328 -0.02388,-0.0567 -0.02388,-0.0239 -0.05822,-0.0239 h -0.322441 q -0.03433,0 -0.05822,0.0239 -0.02239,0.0239 -0.02239,0.0567 v 0.18809 q 0,0.0343 0.02239,0.0582 0.02388,0.0239 0.05822,0.0239 h 0.322441 q 0.03433,0 0.05822,-0.0239 0.02388,-0.0239 0.02388,-0.0582 z"
           inkscape:connector-curvature="0" />
        <path
           id="path870"
           style="font-style:normal;font-variant:normal;font-weight:normal;font-stretch:normal;font-family:'Sui Generis';-inkscape-font-specification:'Sui Generis';fill:#e30000;fill-opacity:1;stroke-width:0.10366666"
           d="m 17.555636,293.25239 -0.02687,0.24034 q -0.09106,-0.0537 -0.153757,-0.0403 -0.114944,0.0269 -0.114944,0.23586 v 0.40156 h -0.243323 v -0.83745 h 0.240338 v 0.1239 q 0.03881,-0.097 0.117929,-0.1239 0.04628,-0.0164 0.108973,-0.0104 0.03135,10e-4 0.07165,0.0104 z"
           inkscape:connector-curvature="0" />
        <path
           id="path872-9"
           style="font-style:normal;font-variant:normal;font-weight:normal;font-stretch:normal;font-family:'Sui Generis';-inkscape-font-specification:'Sui Generis';fill:#e30000;fill-opacity:1;stroke-width:0.10366666"
           d="m 18.606718,293.76441 q 0,0.13436 -0.09554,0.22989 -0.09405,0.094 -0.228396,0.094 h -0.322441 q -0.13435,0 -0.229888,-0.094 -0.09405,-0.0955 -0.09405,-0.22989 v -0.18809 q 0,-0.13435 0.09405,-0.22839 0.09554,-0.0955 0.229888,-0.0955 h 0.322441 q 0.13435,0 0.228396,0.0955 0.09554,0.094 0.09554,0.22839 z m -0.243324,0 v -0.18809 q 0,-0.0328 -0.02388,-0.0567 -0.02239,-0.0239 -0.05673,-0.0239 h -0.322441 q -0.03433,0 -0.05822,0.0239 -0.02239,0.0239 -0.02239,0.0567 v 0.18809 q 0,0.0343 0.02239,0.0582 0.02388,0.0239 0.05822,0.0239 h 0.322441 q 0.03433,0 0.05673,-0.0239 0.02388,-0.0239 0.02388,-0.0582 z"
           inkscape:connector-curvature="0" />
        <path
           id="path874-1"
           style="font-style:normal;font-variant:normal;font-weight:normal;font-stretch:normal;font-family:'Sui Generis';-inkscape-font-specification:'Sui Generis';fill:#e30000;fill-opacity:1;stroke-width:0.10366666"
           d="m 19.656633,294.08835 q -0.06867,-0.0179 -0.119423,-0.0702 -0.09554,0.0702 -0.231381,0.0702 h -0.24183 q -0.134351,0 -0.229889,-0.094 -0.09404,-0.0955 -0.09404,-0.22989 v -0.18809 q 0,-0.13435 0.09404,-0.22839 0.09554,-0.0955 0.229889,-0.0955 h 0.147785 q 0.138829,0 0.203018,0.1239 v -0.40604 l 0.241831,-0.0806 z m -0.241831,-0.29408 v -0.18809 q 0,-0.0403 -0.03433,-0.0746 -0.03284,-0.0358 -0.07762,-0.0358 h -0.238845 q -0.03284,0 -0.05673,0.0239 -0.02388,0.0239 -0.02388,0.0567 v 0.18809 q 0,0.0343 0.02239,0.0582 0.02388,0.0239 0.05822,0.0239 h 0.298556 q 0.05225,0 0.05225,-0.0523 z"
           inkscape:connector-curvature="0" />
        <path
           id="path876-2"
           style="font-style:normal;font-variant:normal;font-weight:normal;font-stretch:normal;font-family:'Sui Generis';-inkscape-font-specification:'Sui Generis';fill:#e30000;fill-opacity:1;stroke-width:0.10366666"
           d="m 20.725022,294.08835 q -0.06419,-0.0209 -0.111959,-0.0746 -0.04628,0.0373 -0.07315,0.0507 -0.05374,0.0239 -0.138829,0.0239 h -0.268701 q -0.13435,0 -0.229888,-0.094 -0.09404,-0.0955 -0.09404,-0.22989 v -0.51202 h 0.243323 v 0.51202 q 0,0.0343 0.02239,0.0582 0.02388,0.0239 0.05822,0.0239 h 0.301542 q 0.04777,0 0.04777,-0.0642 v -0.52994 h 0.243324 z"
           inkscape:connector-curvature="0" />
        <path
           id="path878-7"
           style="font-style:normal;font-variant:normal;font-weight:normal;font-stretch:normal;font-family:'Sui Generis';-inkscape-font-specification:'Sui Generis';fill:#e30000;fill-opacity:1;stroke-width:0.10366666"
           d="m 21.784803,293.94355 q -0.04478,0.0657 -0.119422,0.10599 -0.07315,0.0388 -0.152264,0.0388 h -0.331398 q -0.13435,0 -0.229888,-0.094 -0.09404,-0.0955 -0.09404,-0.22989 v -0.18809 q 0,-0.13435 0.09404,-0.22839 0.09554,-0.0955 0.229888,-0.0955 h 0.323934 q 0.167192,0 0.264222,0.13734 l -0.19854,0.14032 q -0.02388,-0.0343 -0.06568,-0.0343 h -0.323934 q -0.03284,0 -0.05673,0.0239 -0.02388,0.0239 -0.02388,0.0567 v 0.18809 q 0,0.0343 0.02388,0.0582 0.02388,0.0239 0.05673,0.0239 h 0.323934 q 0.06419,0 0.100016,-0.0672 z"
           inkscape:connector-curvature="0" />
        <path
           id="path880-0"
           style="font-style:normal;font-variant:normal;font-weight:normal;font-stretch:normal;font-family:'Sui Generis';-inkscape-font-specification:'Sui Generis';fill:#e30000;fill-opacity:1;stroke-width:0.10366666"
           d="m 22.359268,293.84204 -0.02986,0.24034 q -0.05673,0.0269 -0.110466,0.0269 -0.168684,0 -0.247802,-0.15973 -0.0612,-0.1239 -0.0612,-0.32991 v -0.1239 h -0.108973 l 0.02687,-0.24332 h 0.0821 v -0.20152 l 0.241831,-0.0806 v 0.28214 h 0.143307 l -0.02687,0.24332 h -0.116437 v 0.1239 q 0,0.12988 0.0209,0.18212 0.0209,0.0522 0.08807,0.0642 0.0612,0.009 0.09852,-0.0239 z"
           inkscape:connector-curvature="0" />
        <path
           id="path882-9"
           style="font-style:normal;font-variant:normal;font-weight:normal;font-stretch:normal;font-family:'Sui Generis';-inkscape-font-specification:'Sui Generis';fill:#e30000;fill-opacity:1;stroke-width:0.10366666"
           d="m 22.70347,293.08221 h -0.24183 v -0.15226 h 0.24183 z m 0,1.00614 h -0.24183 v -0.83596 h 0.24183 z"
           inkscape:connector-curvature="0" />
        <path
           id="path884-3"
           style="font-style:normal;font-variant:normal;font-weight:normal;font-stretch:normal;font-family:'Sui Generis';-inkscape-font-specification:'Sui Generis';fill:#e30000;fill-opacity:1;stroke-width:0.10366666"
           d="m 23.819792,293.76441 q 0,0.13436 -0.09554,0.22989 -0.09405,0.094 -0.228396,0.094 h -0.322441 q -0.13435,0 -0.229888,-0.094 -0.09405,-0.0955 -0.09405,-0.22989 v -0.18809 q 0,-0.13435 0.09405,-0.22839 0.09554,-0.0955 0.229888,-0.0955 h 0.322441 q 0.13435,0 0.228396,0.0955 0.09554,0.094 0.09554,0.22839 z m -0.243324,0 v -0.18809 q 0,-0.0328 -0.02388,-0.0567 -0.02239,-0.0239 -0.05673,-0.0239 h -0.322441 q -0.03433,0 -0.05822,0.0239 -0.02239,0.0239 -0.02239,0.0567 v 0.18809 q 0,0.0343 0.02239,0.0582 0.02388,0.0239 0.05822,0.0239 h 0.322441 q 0.03433,0 0.05673,-0.0239 0.02388,-0.0239 0.02388,-0.0582 z"
           inkscape:connector-curvature="0" />
        <path
           id="path886-6"
           style="font-style:normal;font-variant:normal;font-weight:normal;font-stretch:normal;font-family:'Sui Generis';-inkscape-font-specification:'Sui Generis';fill:#e30000;fill-opacity:1;stroke-width:0.10366666"
           d="m 24.893591,294.08835 h -0.243323 v -0.51203 q 0,-0.0328 -0.02388,-0.0567 -0.02388,-0.0239 -0.05673,-0.0239 h -0.265716 q -0.111958,0 -0.111958,0.11047 v 0.48217 h -0.241831 v -0.83596 h 0.241831 v 0.13435 q 0.02538,-0.0567 0.0821,-0.0955 0.05822,-0.0388 0.120915,-0.0388 h 0.174656 q 0.13435,0 0.228395,0.0955 0.09554,0.094 0.09554,0.22839 z"
           inkscape:connector-curvature="0" />
        <path
           id="path888-0"
           style="font-style:normal;font-variant:normal;font-weight:normal;font-stretch:normal;font-family:'Sui Generis';-inkscape-font-specification:'Sui Generis';fill:#e30000;fill-opacity:1;stroke-width:0.10366666"
           d="m 26.513796,293.76441 q 0,0.13436 -0.09554,0.22989 -0.09405,0.094 -0.228396,0.094 h -0.32244 q -0.134351,0 -0.229889,-0.094 -0.09405,-0.0955 -0.09405,-0.22989 v -0.18809 q 0,-0.13435 0.09405,-0.22839 0.09554,-0.0955 0.229889,-0.0955 h 0.32244 q 0.134351,0 0.228396,0.0955 0.09554,0.094 0.09554,0.22839 z m -0.243323,0 v -0.18809 q 0,-0.0328 -0.02388,-0.0567 -0.02239,-0.0239 -0.05673,-0.0239 h -0.32244 q -0.03433,0 -0.05822,0.0239 -0.02239,0.0239 -0.02239,0.0567 v 0.18809 q 0,0.0343 0.02239,0.0582 0.02388,0.0239 0.05822,0.0239 h 0.32244 q 0.03433,0 0.05673,-0.0239 0.02388,-0.0239 0.02388,-0.0582 z"
           inkscape:connector-curvature="0" />
        <path
           id="path890-6"
           style="font-style:normal;font-variant:normal;font-weight:normal;font-stretch:normal;font-family:'Sui Generis';-inkscape-font-specification:'Sui Generis';fill:#e30000;fill-opacity:1;stroke-width:0.10366666"
           d="m 27.587596,294.08835 h -0.243323 v -0.51203 q 0,-0.0328 -0.02388,-0.0567 -0.02388,-0.0239 -0.05673,-0.0239 h -0.265716 q -0.111958,0 -0.111958,0.11047 v 0.48217 h -0.241831 v -0.83596 h 0.241831 v 0.13435 q 0.02538,-0.0567 0.0821,-0.0955 0.05822,-0.0388 0.120915,-0.0388 h 0.174656 q 0.13435,0 0.228395,0.0955 0.09554,0.094 0.09554,0.22839 z"
           inkscape:connector-curvature="0" />
        <path
           id="path892-2"
           style="font-style:normal;font-variant:normal;font-weight:normal;font-stretch:normal;font-family:'Sui Generis';-inkscape-font-specification:'Sui Generis';fill:#e30000;fill-opacity:1;stroke-width:0.10366666"
           d="m 28.691321,293.73904 h -0.728477 v 0.0254 q 0,0.0343 0.02388,0.0612 0.02388,0.0254 0.05673,0.0254 h 0.623983 l -0.02986,0.23735 H 28.04345 q -0.134351,0 -0.228396,-0.094 -0.09405,-0.0955 -0.09405,-0.22989 v -0.18809 q 0,-0.13435 0.09405,-0.22839 0.09554,-0.0955 0.228396,-0.0955 h 0.323933 q 0.134351,0 0.228396,0.0955 0.09554,0.094 0.09554,0.22839 z m -0.243323,-0.13585 v -0.0403 q 0,-0.0328 -0.02388,-0.0567 -0.02388,-0.0254 -0.05673,-0.0254 h -0.323933 q -0.03284,0 -0.05673,0.0254 -0.02388,0.0239 -0.02388,0.0567 v 0.0403 z"
           inkscape:connector-curvature="0" />
      </g>
      <g
         aria-label="pordenoe edition"
         style="font-style:normal;font-weight:normal;font-size:0.68370968px;line-height:1.25;font-family:sans-serif;letter-spacing:0px;word-spacing:0px;fill:#333333;fill-opacity:1;stroke:none;stroke-width:0.03798434"
         id="text858"
         transform="matrix(1.1013819,0,0,1.1013819,-1.7167331,-28.896877)">
        <path
           inkscape:connector-curvature="0"
           d="m 22.057045,295.37901 q 0,0.0615 -0.04376,0.10529 -0.04307,0.0431 -0.104607,0.0431 h -0.0923 q -0.02735,0 -0.0547,-0.0164 -0.02735,-0.0164 -0.0376,-0.0403 v 0.1805 h -0.111445 v -0.50663 h 0.111445 v 0.0581 q 0.0089,-0.0226 0.03692,-0.0403 0.02803,-0.0178 0.05538,-0.0178 h 0.0923 q 0.06153,0 0.104607,0.0437 0.04376,0.0438 0.04376,0.10461 z m -0.110761,0 v -0.0861 q 0,-0.015 -0.01094,-0.026 -0.01094,-0.0109 -0.02666,-0.0109 h -0.147682 q -0.01572,0 -0.02666,0.0109 -0.01026,0.0109 -0.01026,0.026 v 0.0861 q 0,0.0157 0.01026,0.0267 0.01094,0.0109 0.02666,0.0109 h 0.147682 q 0.01572,0 0.02666,-0.0109 0.01094,-0.0109 0.01094,-0.0267 z"
           style="font-style:normal;font-variant:normal;font-weight:normal;font-stretch:normal;font-family:'Sui Generis';-inkscape-font-specification:'Sui Generis';fill:#333333;fill-opacity:1;stroke-width:0.03798434"
           id="path881" />
        <path
           inkscape:connector-curvature="0"
           d="m 22.572402,295.37901 q 0,0.0615 -0.04376,0.10529 -0.04307,0.0431 -0.104607,0.0431 h -0.147682 q -0.06153,0 -0.105291,-0.0431 -0.04307,-0.0438 -0.04307,-0.10529 v -0.0861 q 0,-0.0615 0.04307,-0.10461 0.04376,-0.0437 0.105291,-0.0437 h 0.147682 q 0.06153,0 0.104607,0.0437 0.04376,0.0431 0.04376,0.10461 z m -0.111445,0 v -0.0861 q 0,-0.015 -0.01094,-0.026 -0.01026,-0.0109 -0.02598,-0.0109 h -0.147682 q -0.01572,0 -0.02666,0.0109 -0.01026,0.0109 -0.01026,0.026 v 0.0861 q 0,0.0157 0.01026,0.0267 0.01094,0.0109 0.02666,0.0109 h 0.147682 q 0.01573,0 0.02598,-0.0109 0.01094,-0.0109 0.01094,-0.0267 z"
           style="font-style:normal;font-variant:normal;font-weight:normal;font-stretch:normal;font-family:'Sui Generis';-inkscape-font-specification:'Sui Generis';fill:#333333;fill-opacity:1;stroke-width:0.03798434"
           id="path883" />
        <path
           inkscape:connector-curvature="0"
           d="m 22.876193,295.1445 -0.01231,0.11007 q -0.04171,-0.0246 -0.07042,-0.0185 -0.05265,0.0123 -0.05265,0.10803 v 0.18392 h -0.111444 v -0.38356 h 0.110077 v 0.0567 q 0.01778,-0.0444 0.05401,-0.0567 0.02119,-0.008 0.04991,-0.005 0.01436,6.8e-4 0.03282,0.005 z"
           style="font-style:normal;font-variant:normal;font-weight:normal;font-stretch:normal;font-family:'Sui Generis';-inkscape-font-specification:'Sui Generis';fill:#333333;fill-opacity:1;stroke-width:0.03798434"
           id="path885" />
        <path
           inkscape:connector-curvature="0"
           d="m 23.335037,295.52737 q -0.03145,-0.008 -0.0547,-0.0321 -0.04376,0.0321 -0.105975,0.0321 h -0.110761 q -0.06153,0 -0.105291,-0.0431 -0.04307,-0.0438 -0.04307,-0.10529 v -0.0861 q 0,-0.0615 0.04307,-0.10461 0.04376,-0.0437 0.105291,-0.0437 h 0.06769 q 0.06359,0 0.09298,0.0567 v -0.18596 l 0.110761,-0.0369 z m -0.110761,-0.13469 v -0.0861 q 0,-0.0185 -0.01572,-0.0342 -0.01504,-0.0164 -0.03555,-0.0164 h -0.109394 q -0.01504,0 -0.02598,0.0109 -0.01094,0.0109 -0.01094,0.026 v 0.0861 q 0,0.0157 0.01026,0.0267 0.01094,0.0109 0.02666,0.0109 h 0.136742 q 0.02393,0 0.02393,-0.0239 z"
           style="font-style:normal;font-variant:normal;font-weight:normal;font-stretch:normal;font-family:'Sui Generis';-inkscape-font-specification:'Sui Generis';fill:#333333;fill-opacity:1;stroke-width:0.03798434"
           id="path887" />
        <path
           inkscape:connector-curvature="0"
           d="m 23.842147,295.36739 h -0.333651 v 0.0116 q 0,0.0157 0.01094,0.028 0.01094,0.0116 0.02598,0.0116 h 0.28579 l -0.01367,0.10871 H 23.54542 q -0.06153,0 -0.104608,-0.0431 -0.04307,-0.0438 -0.04307,-0.10529 v -0.0861 q 0,-0.0615 0.04307,-0.10461 0.04376,-0.0437 0.104608,-0.0437 h 0.148365 q 0.06153,0 0.104607,0.0437 0.04376,0.0431 0.04376,0.10461 z m -0.111445,-0.0622 v -0.0185 q 0,-0.015 -0.01094,-0.026 -0.01094,-0.0116 -0.02598,-0.0116 h -0.148365 q -0.01504,0 -0.02598,0.0116 -0.01094,0.0109 -0.01094,0.026 v 0.0185 z"
           style="font-style:normal;font-variant:normal;font-weight:normal;font-stretch:normal;font-family:'Sui Generis';-inkscape-font-specification:'Sui Generis';fill:#333333;fill-opacity:1;stroke-width:0.03798434"
           id="path889" />
        <path
           inkscape:connector-curvature="0"
           d="M 24.332815,295.52737 H 24.22137 v -0.23451 q 0,-0.015 -0.01094,-0.026 -0.01094,-0.0109 -0.02598,-0.0109 h -0.1217 q -0.05128,0 -0.05128,0.0506 v 0.22083 h -0.110761 v -0.38287 h 0.110761 v 0.0615 q 0.01162,-0.026 0.0376,-0.0438 0.02666,-0.0178 0.05538,-0.0178 h 0.07999 q 0.06153,0 0.104608,0.0437 0.04376,0.0431 0.04376,0.10461 z"
           style="font-style:normal;font-variant:normal;font-weight:normal;font-stretch:normal;font-family:'Sui Generis';-inkscape-font-specification:'Sui Generis';fill:#333333;fill-opacity:1;stroke-width:0.03798434"
           id="path891" />
        <path
           inkscape:connector-curvature="0"
           d="m 24.846538,295.37901 q 0,0.0615 -0.04376,0.10529 -0.04307,0.0431 -0.104607,0.0431 h -0.147682 q -0.06153,0 -0.105291,-0.0431 -0.04307,-0.0438 -0.04307,-0.10529 v -0.0861 q 0,-0.0615 0.04307,-0.10461 0.04376,-0.0437 0.105291,-0.0437 h 0.147682 q 0.06153,0 0.104607,0.0437 0.04376,0.0431 0.04376,0.10461 z m -0.111445,0 v -0.0861 q 0,-0.015 -0.01094,-0.026 -0.01026,-0.0109 -0.02598,-0.0109 h -0.147682 q -0.01572,0 -0.02666,0.0109 -0.01026,0.0109 -0.01026,0.026 v 0.0861 q 0,0.0157 0.01026,0.0267 0.01094,0.0109 0.02666,0.0109 h 0.147682 q 0.01572,0 0.02598,-0.0109 0.01094,-0.0109 0.01094,-0.0267 z"
           style="font-style:normal;font-variant:normal;font-weight:normal;font-stretch:normal;font-family:'Sui Generis';-inkscape-font-specification:'Sui Generis';fill:#333333;fill-opacity:1;stroke-width:0.03798434"
           id="path893" />
        <path
           inkscape:connector-curvature="0"
           d="m 25.341768,295.36739 h -0.333651 v 0.0116 q 0,0.0157 0.01094,0.028 0.01094,0.0116 0.02598,0.0116 h 0.28579 l -0.01367,0.10871 h -0.272116 q -0.06153,0 -0.104608,-0.0431 -0.04307,-0.0438 -0.04307,-0.10529 v -0.0861 q 0,-0.0615 0.04307,-0.10461 0.04376,-0.0437 0.104608,-0.0437 h 0.148365 q 0.06153,0 0.104607,0.0437 0.04376,0.0431 0.04376,0.10461 z m -0.111445,-0.0622 v -0.0185 q 0,-0.015 -0.01094,-0.026 -0.01094,-0.0116 -0.02598,-0.0116 h -0.148365 q -0.01504,0 -0.02598,0.0116 -0.01094,0.0109 -0.01094,0.026 v 0.0185 z"
           style="font-style:normal;font-variant:normal;font-weight:normal;font-stretch:normal;font-family:'Sui Generis';-inkscape-font-specification:'Sui Generis';fill:#333333;fill-opacity:1;stroke-width:0.03798434"
           id="path895" />
        <path
           inkscape:connector-curvature="0"
           d="m 26.064203,295.36739 h -0.33365 v 0.0116 q 0,0.0157 0.01094,0.028 0.01094,0.0116 0.02598,0.0116 h 0.285791 l -0.01367,0.10871 h -0.272116 q -0.06153,0 -0.104608,-0.0431 -0.04307,-0.0438 -0.04307,-0.10529 v -0.0861 q 0,-0.0615 0.04307,-0.10461 0.04376,-0.0437 0.104608,-0.0437 h 0.148365 q 0.06153,0 0.104607,0.0437 0.04376,0.0431 0.04376,0.10461 z m -0.111445,-0.0622 v -0.0185 q 0,-0.015 -0.01094,-0.026 -0.01094,-0.0116 -0.02598,-0.0116 h -0.148365 q -0.01504,0 -0.02598,0.0116 -0.01094,0.0109 -0.01094,0.026 v 0.0185 z"
           style="font-style:normal;font-variant:normal;font-weight:normal;font-stretch:normal;font-family:'Sui Generis';-inkscape-font-specification:'Sui Generis';fill:#333333;fill-opacity:1;stroke-width:0.03798434"
           id="path897" />
        <path
           inkscape:connector-curvature="0"
           d="m 26.543932,295.52737 q -0.03145,-0.008 -0.0547,-0.0321 -0.04376,0.0321 -0.105975,0.0321 h -0.110761 q -0.06153,0 -0.105291,-0.0431 -0.04307,-0.0438 -0.04307,-0.10529 v -0.0861 q 0,-0.0615 0.04307,-0.10461 0.04376,-0.0437 0.105291,-0.0437 h 0.06769 q 0.06358,0 0.09298,0.0567 v -0.18596 l 0.110761,-0.0369 z m -0.110761,-0.13469 v -0.0861 q 0,-0.0185 -0.01572,-0.0342 -0.01504,-0.0164 -0.03555,-0.0164 h -0.109394 q -0.01504,0 -0.02598,0.0109 -0.01094,0.0109 -0.01094,0.026 v 0.0861 q 0,0.0157 0.01026,0.0267 0.01094,0.0109 0.02666,0.0109 h 0.136742 q 0.02393,0 0.02393,-0.0239 z"
           style="font-style:normal;font-variant:normal;font-weight:normal;font-stretch:normal;font-family:'Sui Generis';-inkscape-font-specification:'Sui Generis';fill:#333333;fill-opacity:1;stroke-width:0.03798434"
           id="path899" />
        <path
           inkscape:connector-curvature="0"
           d="m 26.724228,295.06655 h -0.11076 v -0.0697 h 0.11076 z m 0,0.46082 h -0.11076 v -0.38287 h 0.11076 z"
           style="font-style:normal;font-variant:normal;font-weight:normal;font-stretch:normal;font-family:'Sui Generis';-inkscape-font-specification:'Sui Generis';fill:#333333;fill-opacity:1;stroke-width:0.03798434"
           id="path901" />
        <path
           inkscape:connector-curvature="0"
           d="m 27.011259,295.41456 -0.01367,0.11008 q -0.02598,0.0123 -0.05059,0.0123 -0.07726,0 -0.113496,-0.0732 -0.02803,-0.0568 -0.02803,-0.1511 v -0.0567 h -0.04991 l 0.01231,-0.11144 h 0.0376 v -0.0923 l 0.110761,-0.0369 v 0.12922 h 0.06564 l -0.01231,0.11144 h -0.05333 v 0.0567 q 0,0.0595 0.0096,0.0834 0.0096,0.0239 0.04034,0.0294 0.02803,0.004 0.04512,-0.0109 z"
           style="font-style:normal;font-variant:normal;font-weight:normal;font-stretch:normal;font-family:'Sui Generis';-inkscape-font-specification:'Sui Generis';fill:#333333;fill-opacity:1;stroke-width:0.03798434"
           id="path903" />
        <path
           inkscape:connector-curvature="0"
           d="m 27.168907,295.06655 h -0.110761 v -0.0697 h 0.110761 z m 0,0.46082 h -0.110761 v -0.38287 h 0.110761 z"
           style="font-style:normal;font-variant:normal;font-weight:normal;font-stretch:normal;font-family:'Sui Generis';-inkscape-font-specification:'Sui Generis';fill:#333333;fill-opacity:1;stroke-width:0.03798434"
           id="path905" />
        <path
           inkscape:connector-curvature="0"
           d="m 27.680194,295.37901 q 0,0.0615 -0.04376,0.10529 -0.04307,0.0431 -0.104607,0.0431 h -0.147682 q -0.06153,0 -0.105291,-0.0431 -0.04307,-0.0438 -0.04307,-0.10529 v -0.0861 q 0,-0.0615 0.04307,-0.10461 0.04376,-0.0437 0.105291,-0.0437 h 0.147682 q 0.06153,0 0.104607,0.0437 0.04376,0.0431 0.04376,0.10461 z m -0.111445,0 v -0.0861 q 0,-0.015 -0.01094,-0.026 -0.01026,-0.0109 -0.02598,-0.0109 h -0.147682 q -0.01572,0 -0.02666,0.0109 -0.01026,0.0109 -0.01026,0.026 v 0.0861 q 0,0.0157 0.01026,0.0267 0.01094,0.0109 0.02666,0.0109 h 0.147682 q 0.01573,0 0.02598,-0.0109 0.01094,-0.0109 0.01094,-0.0267 z"
           style="font-style:normal;font-variant:normal;font-weight:normal;font-stretch:normal;font-family:'Sui Generis';-inkscape-font-specification:'Sui Generis';fill:#333333;fill-opacity:1;stroke-width:0.03798434"
           id="path907" />
        <path
           inkscape:connector-curvature="0"
           d="m 28.172005,295.52737 h -0.111444 v -0.23451 q 0,-0.015 -0.01094,-0.026 -0.01094,-0.0109 -0.02598,-0.0109 h -0.1217 q -0.05128,0 -0.05128,0.0506 v 0.22083 H 27.7399 v -0.38287 h 0.110761 v 0.0615 q 0.01162,-0.026 0.0376,-0.0438 0.02666,-0.0178 0.05538,-0.0178 h 0.07999 q 0.06153,0 0.104608,0.0437 0.04376,0.0431 0.04376,0.10461 z"
           style="font-style:normal;font-variant:normal;font-weight:normal;font-stretch:normal;font-family:'Sui Generis';-inkscape-font-specification:'Sui Generis';fill:#333333;fill-opacity:1;stroke-width:0.03798434"
           id="path909" />
      </g>
    </g>
  </g>
</svg>
